#N canvas 204 132 1576 1033 10;
#X text 45 985 TODO: Calibrate / Write settings;
#X obj 364 89 cnv 15 265 210 empty empty T-Stick 20 12 0 20 -254287
-66577 0;
#X obj 204 28 metro 800;
#X msg 204 163 115;
#X msg 375 115 close;
#N canvas 1105 168 584 644 slipdecode 0;
#X obj 21 65 inlet;
#X msg 123 222 1;
#X obj 254 80 loadbang;
#X msg 230 128 101;
#X msg 284 128 100;
#X obj 89 67 r togate;
#X obj 123 246 s togate;
#X obj 280 577 outlet;
#X obj 77 197 t f f;
#X msg 77 362 2;
#X obj 77 384 s togate;
#X obj 296 401 sel -1;
#X obj 125 354 expr if ($f1==$f2 \, -1 \, $f1);
#X msg 161 128 1;
#X obj 35 158 spigot;
#X obj 82 158 spigot;
#X obj 68 102 == 1;
#X obj 115 102 == 2;
#X obj 123 197 t b f;
#X obj 280 547 spigot;
#X msg 313 516 0;
#X msg 347 516 1;
#X obj 296 436 t b b b b;
#X obj 241 485 list store;
#X msg 385 436 append \$1;
#X msg 196 128 0;
#N canvas 1617 561 450 300 iter 0;
#X obj 94 111 until;
#X obj 107 194 list store;
#X obj 120 78 t b b l;
#X obj 94 136 f;
#X obj 132 137 + 1;
#X msg 146 111 0, f 2;
#X msg 93 165 get \$1 1;
#X obj 125 30 inlet;
#X obj 106 226 outlet;
#X connect 0 0 3 0;
#X connect 1 0 8 0;
#X connect 1 1 0 1;
#X connect 2 0 0 0;
#X connect 2 1 5 0;
#X connect 2 2 1 1;
#X connect 3 0 4 0;
#X connect 3 0 6 0;
#X connect 4 0 3 1;
#X connect 5 0 3 1;
#X connect 6 0 1 0;
#X connect 7 0 2 0;
#X restore 21 121 pd iter;
#X obj 77 318 expr if ($f1==$f2 \, -1 \, $f1);
#X obj 77 340 sel -1;
#X connect 0 0 26 0;
#X connect 1 0 6 0;
#X connect 2 0 4 0;
#X connect 2 0 3 0;
#X connect 2 0 13 0;
#X connect 2 0 25 0;
#X connect 3 0 27 1;
#X connect 4 0 12 1;
#X connect 5 0 16 0;
#X connect 5 0 17 0;
#X connect 8 0 27 0;
#X connect 9 0 10 0;
#X connect 11 0 22 0;
#X connect 11 1 24 0;
#X connect 12 0 11 0;
#X connect 13 0 14 1;
#X connect 14 0 8 0;
#X connect 15 0 18 0;
#X connect 16 0 14 1;
#X connect 17 0 15 1;
#X connect 18 0 1 0;
#X connect 18 1 24 0;
#X connect 19 0 7 0;
#X connect 20 0 19 1;
#X connect 21 0 19 1;
#X connect 22 0 23 1;
#X connect 22 1 20 0;
#X connect 22 2 23 0;
#X connect 22 3 21 0;
#X connect 23 0 19 0;
#X connect 24 0 23 0;
#X connect 25 0 15 1;
#X connect 26 0 15 0;
#X connect 26 0 14 0;
#X connect 27 0 28 0;
#X connect 28 0 9 0;
#X connect 28 1 12 0;
#X restore 242 379 pd slipdecode;
#X obj 242 420 route 0 1 2 3;
#N canvas 1456 859 331 406 info 0;
#X obj 88 61 inlet;
#N canvas 1373 585 255 206 16bit 0;
#X obj 65 45 inlet;
#X obj 125 45 inlet;
#X obj 65 66 * 256;
#X obj 95 87 +;
#X obj 95 108 outlet;
#X connect 0 0 2 0;
#X connect 1 0 3 1;
#X connect 2 0 3 0;
#X connect 3 0 4 0;
#X restore 79 125 pd 16bit;
#N canvas 1373 585 255 206 16bit 0;
#X obj 65 45 inlet;
#X obj 125 45 inlet;
#X obj 65 66 * 256;
#X obj 95 87 +;
#X obj 95 108 outlet;
#X connect 0 0 2 0;
#X connect 1 0 3 1;
#X connect 2 0 3 0;
#X connect 3 0 4 0;
#X restore 144 125 pd 16bit;
#X obj 14 153 moses 10;
#X obj 14 253 outlet;
#X obj 83 167 moses 100;
#X msg 143 205 set #\$1;
#X msg 83 205 set #0\$1;
#X msg 14 205 set #00\$1;
#X obj 229 252 outlet;
#X obj 88 82 unpack f f f f;
#X connect 0 0 10 0;
#X connect 1 0 3 0;
#X connect 2 0 9 0;
#X connect 3 0 8 0;
#X connect 3 1 5 0;
#X connect 5 0 7 0;
#X connect 5 1 6 0;
#X connect 6 0 4 0;
#X connect 7 0 4 0;
#X connect 8 0 4 0;
#X connect 10 0 1 0;
#X connect 10 1 1 1;
#X connect 10 2 2 0;
#X connect 10 3 2 1;
#X restore 103 462 pd info;
#N canvas 865 972 414 210 16bit_ext 0;
#X obj 65 45 inlet;
#X obj 125 45 inlet;
#X obj 65 66 * 256;
#X obj 95 87 |;
#X obj 95 108 expr $f1 - 65535 * ($f1 > 32767);
#X obj 95 138 outlet;
#X connect 0 0 2 0;
#X connect 1 0 3 1;
#X connect 2 0 3 0;
#X connect 3 0 4 0;
#X connect 4 0 5 0;
#X restore 273 495 pd 16bit_ext;
#X f 9;
#N canvas 0 23 450 278 (subpatch) 0;
#X array Touch 6 float 3;
#A 0 184 255 161 253 96 3;
#X coords 0 255 6 0 45 140 1;
#X restore 130 724 graph;
#X obj 168 470 array set Touch;
#X obj 181 726 vsl 45 135 -32768 32767 0 0 empty empty AccelX 0 -9
0 10 -262144 -1 -1 0 1;
#X obj 273 470 unpack f f f f f f f f f f f f f f f f, f 101;
#N canvas 865 972 414 210 16bit_ext 0;
#X obj 65 45 inlet;
#X obj 125 45 inlet;
#X obj 65 66 * 256;
#X obj 95 87 |;
#X obj 95 108 expr $f1 - 65535 * ($f1 > 32767);
#X obj 95 138 outlet;
#X connect 0 0 2 0;
#X connect 1 0 3 1;
#X connect 2 0 3 0;
#X connect 3 0 4 0;
#X connect 4 0 5 0;
#X restore 354 494 pd 16bit_ext;
#X f 9;
#N canvas 865 972 414 210 16bit_ext 0;
#X obj 65 45 inlet;
#X obj 125 45 inlet;
#X obj 65 66 * 256;
#X obj 95 87 |;
#X obj 95 108 expr $f1 - 65535 * ($f1 > 32767);
#X obj 95 138 outlet;
#X connect 0 0 2 0;
#X connect 1 0 3 1;
#X connect 2 0 3 0;
#X connect 3 0 4 0;
#X connect 4 0 5 0;
#X restore 438 494 pd 16bit_ext;
#X f 10;
#N canvas 865 972 414 210 16bit_ext 0;
#X obj 65 45 inlet;
#X obj 125 45 inlet;
#X obj 65 66 * 256;
#X obj 95 87 |;
#X obj 95 108 expr $f1 - 65535 * ($f1 > 32767);
#X obj 95 138 outlet;
#X connect 0 0 2 0;
#X connect 1 0 3 1;
#X connect 2 0 3 0;
#X connect 3 0 4 0;
#X connect 4 0 5 0;
#X restore 522 493 pd 16bit_ext;
#X f 9;
#N canvas 865 972 414 210 16bit_ext 0;
#X obj 65 45 inlet;
#X obj 125 45 inlet;
#X obj 65 66 * 256;
#X obj 95 87 |;
#X obj 95 108 expr $f1 - 65535 * ($f1 > 32767);
#X obj 95 138 outlet;
#X connect 0 0 2 0;
#X connect 1 0 3 1;
#X connect 2 0 3 0;
#X connect 3 0 4 0;
#X connect 4 0 5 0;
#X restore 606 495 pd 16bit_ext;
#X f 9;
#N canvas 865 972 414 210 16bit_ext 0;
#X obj 65 45 inlet;
#X obj 125 45 inlet;
#X obj 65 66 * 256;
#X obj 95 87 |;
#X obj 95 108 expr $f1 - 65535 * ($f1 > 32767);
#X obj 95 138 outlet;
#X connect 0 0 2 0;
#X connect 1 0 3 1;
#X connect 2 0 3 0;
#X connect 3 0 4 0;
#X connect 4 0 5 0;
#X restore 676 497 pd 16bit_ext;
#X f 9;
#N canvas 865 972 414 210 16bit_ext 0;
#X obj 65 45 inlet;
#X obj 125 45 inlet;
#X obj 65 66 * 256;
#X obj 95 87 |;
#X obj 95 108 expr $f1 - 65535 * ($f1 > 32767);
#X obj 95 138 outlet;
#X connect 0 0 2 0;
#X connect 1 0 3 1;
#X connect 2 0 3 0;
#X connect 3 0 4 0;
#X connect 4 0 5 0;
#X restore 749 499 pd 16bit_ext;
#X f 10;
#N canvas 865 972 414 210 16bit_ext 0;
#X obj 65 45 inlet;
#X obj 125 45 inlet;
#X obj 65 66 * 256;
#X obj 95 87 |;
#X obj 95 108 expr $f1 - 65535 * ($f1 > 32767);
#X obj 95 138 outlet;
#X connect 0 0 2 0;
#X connect 1 0 3 1;
#X connect 2 0 3 0;
#X connect 3 0 4 0;
#X connect 4 0 5 0;
#X restore 829 500 pd 16bit_ext;
#X f 9;
#N canvas 865 972 414 210 16bit_ext 0;
#X obj 65 45 inlet;
#X obj 125 45 inlet;
#X obj 65 66 * 256;
#X obj 95 87 |;
#X obj 95 108 expr $f1 - 65535 * ($f1 > 32767);
#X obj 95 138 outlet;
#X connect 0 0 2 0;
#X connect 1 0 3 1;
#X connect 2 0 3 0;
#X connect 3 0 4 0;
#X connect 4 0 5 0;
#X restore 902 502 pd 16bit_ext;
#X f 9;
#N canvas 865 972 414 210 16bit_ext 0;
#X obj 65 45 inlet;
#X obj 125 45 inlet;
#X obj 65 66 * 256;
#X obj 95 87 |;
#X obj 95 108 expr $f1 - 65535 * ($f1 > 32767);
#X obj 95 138 outlet;
#X connect 0 0 2 0;
#X connect 1 0 3 1;
#X connect 2 0 3 0;
#X connect 3 0 4 0;
#X connect 4 0 5 0;
#X restore 972 503 pd 16bit_ext;
#X f 9;
#N canvas 865 972 414 210 16bit_ext 0;
#X obj 65 45 inlet;
#X obj 125 45 inlet;
#X obj 65 66 * 256;
#X obj 95 87 |;
#X obj 95 108 expr $f1 - 65535 * ($f1 > 32767);
#X obj 95 138 outlet;
#X connect 0 0 2 0;
#X connect 1 0 3 1;
#X connect 2 0 3 0;
#X connect 3 0 4 0;
#X connect 4 0 5 0;
#X restore 1040 502 pd 16bit_ext;
#X f 10;
#X obj 901 478 unpack f f f f f f, f 33;
#X obj 231 726 vsl 45 135 -32768 32767 0 0 empty empty AccelY 0 -9
0 10 -262144 -1 -1 0 1;
#X obj 281 726 vsl 45 135 -32768 32767 0 0 empty empty AccelZ 0 -9
0 10 -262144 -1 -1 0 1;
#X obj 331 726 vsl 45 135 -32768 32767 0 0 empty empty GyroX 0 -9 0
10 -262144 -1 -1 0 1;
#X obj 381 726 vsl 45 135 -32768 32767 0 0 empty empty GyroY 0 -9 0
10 -262144 -1 -1 0 1;
#X obj 431 726 vsl 45 135 -32768 32767 0 0 empty empty GyroZ 0 -9 0
10 -262144 -1 -1 0 1;
#X obj 481 726 vsl 45 135 0 1023 0 0 empty empty Pressure 0 -9 0 10
-262144 -1 -1 0 1;
#X obj 531 726 vsl 45 135 0 1023 0 0 empty empty Piezo 0 -9 0 10 -262144
-1 -1 0 1;
#X obj 581 726 vsl 45 135 -32768 32767 0 0 empty empty MagX 0 -9 0
10 -262144 -1 -1 0 1;
#X obj 631 726 vsl 45 135 -32768 32767 0 0 empty empty MagY 0 -9 0
10 -262144 -1 -1 0 1;
#X obj 681 726 vsl 45 135 -32768 32767 0 0 empty empty MagZ 0 -9 0
10 -262144 -1 -1 0 1;
#X obj 242 356 comport/comport 2 115200;
#X obj 785 632 timer;
#X floatatom 785 656 8 0 0 0 - - -;
#X obj 785 607 t b b;
#X obj 251 400 s rawtimer;
#X obj 785 582 r rawtimer;
#X obj 991 636 timer;
#X floatatom 991 658 8 0 0 0 - - -;
#X obj 991 611 t b b;
#X obj 1197 637 timer;
#X floatatom 1197 660 8 0 0 0 - - -;
#X obj 1197 612 t b b;
#N canvas 0 22 450 278 (subpatch) 0;
#X array rawtime 100 float 1;
#A 0 0 0 0 0 0 0 0 0 0 0 0 0 0 0 0 0 0 0 0 0 0 0 0 0 0 0 0 0 0 0 0
0 0 0 0 0 0 0 0 0 0 0 0 0 0 0 0 0 0 0 0 0 0 0 0 0 0 0 0 0 0 0 0 0 0
0 0 0 0 0 0 0 0 0 0 0 0 0 0 0 0 0 0 0 0 0 0 0 0 0 0 0 0 0 0 0 0 0 0
0;
#X coords 0 100 99 0 200 140 1;
#X restore 736 724 graph;
#N canvas 264 335 568 475 timegraph 0;
#X obj 111 257 list store;
#X obj 117 300 list split 100;
#X msg 148 105 0 0 0 0 0 0 0 0 0 0 0 0 0 0 0 0 0 0 0 0 0 0 0 0 0 0
0 0 0 0 0 0 0 0 0 0 0 0 0 0 0 0 0 0 0 0 0 0 0 0 0 0 0 0 0 0 0 0 0 0
0 0 0 0 0 0 0 0 0 0 0 0 0 0 0 0 0 0 0 0 0 0 0 0 0 0 0 0 0 0 0 0 0 0
0 0 0 0 0 0;
#X obj 54 178 moses 0;
#X obj 78 215 moses 101;
#X obj 57 59 inlet;
#X obj 173 53 loadbang;
#X obj 123 353 outlet;
#X connect 0 0 1 0;
#X connect 1 0 0 1;
#X connect 1 0 7 0;
#X connect 2 0 0 1;
#X connect 2 0 7 0;
#X connect 3 1 4 0;
#X connect 4 0 0 0;
#X connect 5 0 3 0;
#X connect 6 0 2 0;
#X restore 785 680 pd timegraph;
#X obj 785 704 array set rawtime;
#N canvas 0 22 450 278 (subpatch) 0;
#X array time2 100 float 1;
#A 0 0 0 0 0 0 0 0 0 0 0 0 0 0 0 0 0 0 0 0 0 0 0 0 0 0 0 0 0 0 0 0
0 0 0 0 0 0 0 0 0 0 0 0 0 0 0 0 0 0 0 0 0 0 0 0 0 0 0 0 0 0 0 0 0 0
0 0 0 0 0 0 0 0 0 0 0 0 0 0 0 0 0 0 0 0 0 0 0 0 0 0 0 0 0 0 0 0 0 0
0;
#X coords 0 100 99 0 200 140 1;
#X restore 942 724 graph;
#N canvas 264 335 568 475 timegraph 0;
#X obj 111 257 list store;
#X obj 117 300 list split 100;
#X msg 148 105 0 0 0 0 0 0 0 0 0 0 0 0 0 0 0 0 0 0 0 0 0 0 0 0 0 0
0 0 0 0 0 0 0 0 0 0 0 0 0 0 0 0 0 0 0 0 0 0 0 0 0 0 0 0 0 0 0 0 0 0
0 0 0 0 0 0 0 0 0 0 0 0 0 0 0 0 0 0 0 0 0 0 0 0 0 0 0 0 0 0 0 0 0 0
0 0 0 0 0 0;
#X obj 54 178 moses 0;
#X obj 78 215 moses 101;
#X obj 57 59 inlet;
#X obj 173 53 loadbang;
#X obj 123 353 outlet;
#X connect 0 0 1 0;
#X connect 1 0 0 1;
#X connect 1 0 7 0;
#X connect 2 0 0 1;
#X connect 2 0 7 0;
#X connect 3 1 4 0;
#X connect 4 0 0 0;
#X connect 5 0 3 0;
#X connect 6 0 2 0;
#X restore 991 680 pd timegraph;
#X obj 991 704 array set time2;
#N canvas 0 22 450 278 (subpatch) 0;
#X array time3 100 float 1;
#A 0 0 0 0 0 0 0 0 0 0 0 0 0 0 0 0 0 0 0 0 0 0 0 0 0 0 0 0 0 0 0 0
0 0 0 0 0 0 0 0 0 0 0 0 0 0 0 0 0 0 0 0 0 0 0 0 0 0 0 0 0 0 0 0 0 0
0 0 0 0 0 0 0 0 0 0 0 0 0 0 0 0 0 0 0 0 0 0 0 0 0 0 0 0 0 0 0 0 0 0
0;
#X coords 0 100 99 0 200 140 1;
#X restore 1148 724 graph;
#N canvas 264 335 568 475 timegraph 0;
#X obj 111 257 list store;
#X obj 117 300 list split 100;
#X msg 148 105 0 0 0 0 0 0 0 0 0 0 0 0 0 0 0 0 0 0 0 0 0 0 0 0 0 0
0 0 0 0 0 0 0 0 0 0 0 0 0 0 0 0 0 0 0 0 0 0 0 0 0 0 0 0 0 0 0 0 0 0
0 0 0 0 0 0 0 0 0 0 0 0 0 0 0 0 0 0 0 0 0 0 0 0 0 0 0 0 0 0 0 0 0 0
0 0 0 0 0 0;
#X obj 54 178 moses 0;
#X obj 78 215 moses 101;
#X obj 57 59 inlet;
#X obj 173 53 loadbang;
#X obj 123 353 outlet;
#X connect 0 0 1 0;
#X connect 1 0 0 1;
#X connect 1 0 7 0;
#X connect 2 0 0 1;
#X connect 2 0 7 0;
#X connect 3 1 4 0;
#X connect 4 0 0 0;
#X connect 5 0 3 0;
#X connect 6 0 2 0;
#X restore 1197 680 pd timegraph;
#X obj 1197 704 array set time3;
#X text 662 200 Orientation:;
#X text 662 213 Keys up = Capacitive strips pointing upwards;
#X text 662 226 Keys down = Capacitive strips pointing downwards;
#X text 662 239 Keys outward = Capacitive strips pointing away from
user;
#X text 662 253 Keys inward = Capacitive strips pointing towards the
user;
#X text 662 268 Cable down = USB cable connecting to PC down;
#X text 662 283 Cable up = USB cable connecting to PC up;
#X text 1058 216 z+ = keys up;
#X text 1058 229 z- = keys down;
#X text 1058 241 x+ = keys outward;
#X text 1058 253 x- = keys inward;
#X text 1058 266 y+ = cable up;
#X text 1058 279 y- = cable down;
#N canvas 356 710 1541 294 namespaces 0;
#X obj 75 45 inlet;
#X obj 75 74 list prepend /raw/touch, f 16;
#X obj 185 45 inlet;
#X obj 315 45 inlet;
#X obj 445 45 inlet;
#X obj 575 45 inlet;
#X obj 685 45 inlet;
#X obj 795 45 inlet;
#X obj 905 45 inlet;
#X obj 1015 45 inlet;
#X obj 1125 45 inlet;
#X obj 1251 45 inlet;
#X obj 1377 45 inlet;
#X obj 473 225 outlet;
#X obj 185 74 list prepend /raw/accelerometer/x, f 20;
#X obj 312 74 list prepend /raw/accelerometer/y, f 21;
#X obj 446 74 list prepend /raw/accelerometer/z, f 20;
#X obj 573 74 list prepend /raw/gyroscope/x, f 16;
#X obj 685 74 list prepend /raw/gyroscope/y, f 17;
#X obj 794 75 list prepend /raw/gyroscope/z, f 17;
#X obj 905 74 list prepend /raw/pressure, f 16;
#X obj 1015 74 list prepend /raw/piezo, f 16;
#X obj 1125 74 list prepend /raw/magnetometer/x, f 19;
#X obj 1247 75 list prepend /raw/magnetometer/y, f 19;
#X obj 1373 77 list prepend /raw/magnetometer/z, f 20;
#X connect 0 0 1 0;
#X connect 1 0 13 0;
#X connect 2 0 14 0;
#X connect 3 0 15 0;
#X connect 4 0 16 0;
#X connect 5 0 17 0;
#X connect 6 0 18 0;
#X connect 7 0 19 0;
#X connect 8 0 20 0;
#X connect 9 0 21 0;
#X connect 10 0 22 0;
#X connect 11 0 23 0;
#X connect 12 0 24 0;
#X connect 14 0 13 0;
#X connect 15 0 13 0;
#X connect 16 0 13 0;
#X connect 17 0 13 0;
#X connect 18 0 13 0;
#X connect 19 0 13 0;
#X connect 20 0 13 0;
#X connect 21 0 13 0;
#X connect 22 0 13 0;
#X connect 23 0 13 0;
#X connect 24 0 13 0;
#X restore 244 547 pd namespaces;
#X f 133;
#X obj 202 577 outlet;
#X obj 569 55 inlet;
#X obj 569 108 tgl 30 0 empty empty empty 17 7 0 10 -254287 -1 -1 0
1;
#X text 544 138 Start / Stop;
#X obj 269 28 == 0;
#X msg 269 164 120;
#X text 297 165 "x";
#X text 230 163 "s";
#X text 414 138 list serial devices;
#X obj 378 160 vradio 17 1 0 6 empty empty empty 0 -8 0 10 -254287
-1 -1 0;
#X symbolatom 399 178 30 0 0 0 - port1 sport1;
#X symbolatom 399 195 30 0 0 0 - port2 sport2;
#X symbolatom 399 212 30 0 0 0 - port3 sport3;
#X symbolatom 399 229 30 0 0 0 - port4 sport4;
#X symbolatom 399 246 30 0 0 0 - port5 sport5;
#X msg 376 137 ports;
#N canvas 1217 520 711 455 serial_list 0;
#X obj 27 178 route ports;
#X obj 27 203 route 1 2 3 4 5;
#X obj 27 268 s port1;
#X obj 133 270 s port2;
#X obj 237 271 s port3;
#X obj 343 271 s port4;
#X obj 449 271 s port5;
#X obj 27 227 list prepend set;
#X obj 27 248 route list;
#X obj 133 227 list prepend set;
#X obj 133 248 route list;
#X obj 237 227 list prepend set;
#X obj 237 248 route list;
#X obj 343 227 list prepend set;
#X obj 343 248 route list;
#X obj 449 227 list prepend set;
#X obj 449 248 route list;
#X obj 26 42 inlet;
#X obj 240 13 loadbang;
#X obj 289 82 s port0;
#X obj 177 178 s port1;
#X obj 227 178 s port2;
#X obj 277 178 s port3;
#X obj 327 178 s port4;
#X obj 377 178 s port5;
#X obj 240 34 t b b b;
#X msg 168 62 ports;
#X obj 168 83 s comport;
#X msg 259 126 set -;
#X msg 289 61 set choose_serial_device;
#X obj 26 67 t a b;
#X obj 435 178 s serial;
#X obj 498 179 s firmware;
#X connect 0 0 1 0;
#X connect 1 0 7 0;
#X connect 1 1 9 0;
#X connect 1 2 11 0;
#X connect 7 0 8 0;
#X connect 8 0 2 0;
#X connect 9 0 10 0;
#X connect 10 0 3 0;
#X connect 11 0 12 0;
#X connect 12 0 4 0;
#X connect 13 0 14 0;
#X connect 14 0 5 0;
#X connect 15 0 16 0;
#X connect 16 0 6 0;
#X connect 17 0 30 0;
#X connect 18 0 25 0;
#X connect 25 0 26 0;
#X connect 25 1 28 0;
#X connect 25 2 29 0;
#X connect 26 0 27 0;
#X connect 28 0 20 0;
#X connect 28 0 21 0;
#X connect 28 0 22 0;
#X connect 28 0 23 0;
#X connect 28 0 24 0;
#X connect 28 0 31 0;
#X connect 28 0 32 0;
#X connect 29 0 19 0;
#X connect 30 0 0 0;
#X connect 30 1 28 0;
#X restore 383 379 pd serial_list;
#X symbolatom 399 161 30 0 0 0 - port0 sport0;
#X text 415 115 close port;
#X msg 128 317 open \$1;
#X obj 303 29 bng 15 250 50 0 empty empty empty 17 7 0 10 -262144 -1
-1;
#X symbolatom 391 268 10 0 0 3 Serial_number serial sserial;
#X symbolatom 496 268 10 0 0 3 Firmware_version firmware sfirmware
;
#X obj 54 514 s serial;
#X obj 114 514 s firmware;
#X text 65 532 to boxes in GUI;
#X floatatom 281 869 5 0 0 0 - - -;
#X floatatom 331 869 5 0 0 0 - - -;
#X floatatom 381 869 5 0 0 0 - - -;
#X floatatom 431 869 5 0 0 0 - - -;
#X floatatom 481 869 5 0 0 0 - - -;
#X floatatom 531 869 5 0 0 0 - - -;
#X floatatom 581 869 5 0 0 0 - - -;
#X floatatom 631 869 5 0 0 0 - - -;
#X floatatom 681 869 5 0 0 0 - - -;
#X floatatom 231 869 5 0 0 0 - - -;
#X floatatom 181 869 5 0 0 0 - - -;
#X text 45 969 Edu Meneses - IDMIL - Feb/2019;
#X text 45 954 T-Stick Soprano #173 (red);
#X connect 2 0 3 0;
#X connect 3 0 34 0;
#X connect 4 0 34 0;
#X connect 5 0 6 0;
#X connect 5 0 38 0;
#X connect 6 0 7 0;
#X connect 6 1 10 0;
#X connect 6 1 68 0;
#X connect 6 2 12 0;
#X connect 6 2 42 0;
#X connect 6 3 23 0;
#X connect 6 3 45 0;
#X connect 7 0 92 0;
#X connect 7 1 93 0;
#X connect 8 0 11 0;
#X connect 8 0 68 1;
#X connect 11 0 105 0;
#X connect 12 0 8 0;
#X connect 12 1 8 1;
#X connect 12 2 13 0;
#X connect 12 3 13 1;
#X connect 12 4 14 0;
#X connect 12 5 14 1;
#X connect 12 6 15 0;
#X connect 12 7 15 1;
#X connect 12 8 16 0;
#X connect 12 9 16 1;
#X connect 12 10 17 0;
#X connect 12 11 17 1;
#X connect 12 12 18 0;
#X connect 12 13 18 1;
#X connect 12 14 19 0;
#X connect 12 15 19 1;
#X connect 13 0 24 0;
#X connect 13 0 68 2;
#X connect 14 0 25 0;
#X connect 14 0 68 3;
#X connect 15 0 26 0;
#X connect 15 0 68 4;
#X connect 16 0 27 0;
#X connect 16 0 68 5;
#X connect 17 0 28 0;
#X connect 17 0 68 6;
#X connect 18 0 29 0;
#X connect 18 0 68 7;
#X connect 19 0 30 0;
#X connect 19 0 68 8;
#X connect 20 0 31 0;
#X connect 20 0 68 9;
#X connect 21 0 32 0;
#X connect 21 0 68 10;
#X connect 22 0 33 0;
#X connect 22 0 68 11;
#X connect 23 0 20 0;
#X connect 23 1 20 1;
#X connect 23 2 21 0;
#X connect 23 3 21 1;
#X connect 23 4 22 0;
#X connect 23 5 22 1;
#X connect 24 0 104 0;
#X connect 25 0 95 0;
#X connect 26 0 96 0;
#X connect 27 0 97 0;
#X connect 28 0 98 0;
#X connect 29 0 99 0;
#X connect 30 0 100 0;
#X connect 31 0 101 0;
#X connect 32 0 102 0;
#X connect 33 0 103 0;
#X connect 34 0 5 0;
#X connect 34 1 85 0;
#X connect 35 0 36 0;
#X connect 36 0 47 0;
#X connect 37 0 35 0;
#X connect 37 1 35 1;
#X connect 39 0 37 0;
#X connect 40 0 41 0;
#X connect 41 0 50 0;
#X connect 42 0 40 0;
#X connect 42 1 40 1;
#X connect 43 0 44 0;
#X connect 44 0 53 0;
#X connect 45 0 43 0;
#X connect 45 1 43 1;
#X connect 47 0 48 0;
#X connect 50 0 51 0;
#X connect 53 0 54 0;
#X connect 68 0 69 0;
#X connect 70 0 71 0;
#X connect 71 0 2 0;
#X connect 71 0 73 0;
#X connect 71 0 89 0;
#X connect 73 0 74 0;
#X connect 73 0 4 0;
#X connect 74 0 34 0;
#X connect 78 0 88 0;
#X connect 84 0 34 0;
#X connect 88 0 34 0;
#X connect 89 0 78 0;
#X coords 0 -1 1 1 270 215 1 362 87;
