#N canvas 26 -8 1920 1117 10;
#X obj 87 476 vsl 45 135 -20 20 0 0 empty empty AccelX 0 -9 0 10 #fcfcfc #000000 #000000 0 1;
#X obj 137 476 vsl 45 135 -20 20 0 0 empty empty AccelY 0 -9 0 10 #fcfcfc #000000 #000000 0 1;
#X obj 187 476 vsl 45 135 -20 20 0 0 empty empty AccelZ 0 -9 0 10 #fcfcfc #000000 #000000 0 1;
#X obj 239 476 vsl 45 135 -41 41 0 0 empty empty GyroX 0 -9 0 10 #fcfcfc #000000 #000000 0 1;
#X obj 287 476 vsl 45 135 -41 41 0 0 empty empty GyroY 0 -9 0 10 #fcfcfc #000000 #000000 0 1;
#X obj 337 476 vsl 45 135 -41 41 0 0 empty empty GyroZ 0 -9 0 10 #fcfcfc #000000 #000000 0 1;
#X obj 537 476 vsl 45 135 0 4095 0 0 empty empty Pressure 0 -9 0 10 #fcfcfc #000000 #000000 0 1;
#X obj 387 476 vsl 45 135 -0.001 0.001 0 0 empty empty MagX 0 -9 0 10 #fcfcfc #000000 #000000 0 1;
#X obj 437 476 vsl 45 135 -32767 32767 0 0 empty empty MagY 0 -9 0 10 #fcfcfc #000000 #000000 0 1;
#X obj 487 476 vsl 45 135 -32767 32767 0 0 empty empty MagZ 0 -9 0 10 #fcfcfc #000000 #000000 0 1;
#X obj 617 132 timer;
#X floatatom 617 156 8 0 0 0 - - - 0;
#X obj 617 107 t b b;
#X obj 617 82 r rawtimer;
#N canvas 0 22 450 278 (subpatch) 0;
#X array rawtime 100 float 1;
#A 0 0 0 5.80499 0 0 0 0 0 0 0 0 0 0 0 0 0 0 0 10.1587 31.9274 0 11.61 0 0 0 4.35374 0 0 0 0 0 0 0 0 0 0 0 5.80499 43.5374 5.80499 0 0 0 0 11.61 0 0 0 0 0 0 0 0 0 0 0 0 0 5.80499 5.80499 0 0 0 5.80499 0 0 0 0 0 0 0 0 0 0 0 0 0 52.2449 0 0 0 0 0 0 0 0 0 0 47.8912 0 0 5.80499 0 0 5.80499 0 10.1587 0 0 0;
#X coords 0 100 99 0 200 140 1;
#X restore 411 79 graph;
#N canvas 264 335 568 475 timegraph 0;
#X obj 111 257 list store;
#X obj 117 300 list split 100;
#X msg 148 105 0 0 0 0 0 0 0 0 0 0 0 0 0 0 0 0 0 0 0 0 0 0 0 0 0 0 0 0 0 0 0 0 0 0 0 0 0 0 0 0 0 0 0 0 0 0 0 0 0 0 0 0 0 0 0 0 0 0 0 0 0 0 0 0 0 0 0 0 0 0 0 0 0 0 0 0 0 0 0 0 0 0 0 0 0 0 0 0 0 0 0 0 0 0 0 0 0 0 0 0;
#X obj 54 178 moses 0;
#X obj 78 215 moses 101;
#X obj 57 59 inlet;
#X obj 173 53 loadbang;
#X obj 123 353 outlet;
#X connect 0 0 1 0;
#X connect 1 0 0 1;
#X connect 1 0 7 0;
#X connect 2 0 0 1;
#X connect 2 0 7 0;
#X connect 3 1 4 0;
#X connect 4 0 0 0;
#X connect 5 0 3 0;
#X connect 6 0 2 0;
#X restore 617 180 pd timegraph;
#X obj 617 204 array set rawtime;
#X floatatom 187 619 7 0 0 0 - - - 0;
#X floatatom 237 619 7 0 0 0 - - - 0;
#X floatatom 287 619 7 0 0 0 - - - 0;
#X floatatom 337 619 7 0 0 0 - - - 0;
#X floatatom 537 619 7 0 0 0 - - - 0;
#X floatatom 387 619 7 0 0 0 - - - 0;
#X floatatom 437 619 7 0 0 0 - - - 0;
#X floatatom 487 619 7 0 0 0 - - - 0;
#X floatatom 137 619 7 0 0 0 - - - 0;
#X floatatom 87 619 7 0 0 0 - - - 0;
#X obj 97 149 netreceive -u -b;
#X obj 97 170 oscparse;
#X msg 97 126 listen \$1;
#X obj 163 373 unpack f f f;
#X obj 243 373 unpack f f f;
#X obj 324 373 unpack f f f;
#X obj 27 170 s rawtimer;
#X obj 97 193 route list;
#X obj 70 50 tgl 20 0 empty empty Receive_OSC_messages 22 8 0 10 #fcfcfc #000000 #000000 0 1;
#X obj 70 78 sel 1;
#X obj 534 305 unpack f f f f;
#X floatatom 468 336 10 0 0 0 - - - 0;
#X floatatom 534 336 10 0 0 0 - - - 0;
#X floatatom 600 336 10 0 0 0 - - - 0;
#X floatatom 666 336 10 0 0 0 - - - 0;
#X text 543 288 Quaternions;
#N canvas 0 22 450 278 (subpatch) 0;
#X array Touch 30 float 1;
#A 0 0 0 0 0 0 0 0 0 0 0 0 0 0 0 0 0 0 0 0 0 0 0 0 0 0 0 0 0 0 0;
#X coords 0 100 29 0 400 300 1 0 0;
#X restore 1020 472 graph;
#X floatatom 609 615 10 0 0 0 - - - 0;
#X floatatom 675 615 10 0 0 0 - - - 0;
#X floatatom 741 615 10 0 0 0 - - - 0;
#X obj 645 591 unpack f f f;
#X text 10 457 Raw (/raw);
#N canvas 0 22 450 278 (subpatch) 0;
#X array Touch2 30 float 1;
#A 0 0 0 0 0 0 0 0 0 0 0 0 0 0 0 0 0 0 0 0 0 0 0 0 0 0 0 0 0 0 0;
#X coords 0 100 29 0 400 300 1 0 0;
#X restore 1466 473 graph;
#X text 210 218 Change T-Stick NAME!;
#X obj 338 271 s battery;
#X obj 604 427 r battery;
#X floatatom 604 512 4 0 0 1 % - - 0;
#X text 665 561 YPR;
#X obj 663 1024 tgl 15 0 empty empty long -4 23 0 10 #fcfcfc #000000 #000000 0 1;
#X obj 699 1024 tgl 15 0 empty empty double -9 23 0 10 #fcfcfc #000000 #000000 0 1;
#X obj 609 1040 bng 15 250 50 0 empty empty short 17 7 0 10 #fcfcfc #000000 #000000;
#X obj 609 1017 sel 1;
#X text 564 999 button;
#X obj 97 246 route raw orientation ypr info norm battery instrument;
#X obj 402 272 s instrument;
#X obj 161 647 r instrument;
#X obj 7 788 vsl 35 135 0 1 0 0 empty empty All 0 -9 0 10 #fcfcfc #000000 #000000 0 1;
#X floatatom 7 931 6 0 0 0 - - - 0;
#X obj 49 788 vsl 35 135 0 1 0 0 empty empty Top 0 -9 0 10 #fcfcfc #000000 #000000 0 1;
#X floatatom 49 931 6 0 0 0 - - - 0;
#X obj 92 788 vsl 35 135 0 1 0 0 empty empty Middle 0 -9 0 10 #fcfcfc #000000 #000000 0 1;
#X floatatom 92 931 6 0 0 0 - - - 0;
#X obj 134 788 vsl 35 135 0 1 0 0 empty empty Bottom 0 -9 0 10 #fcfcfc #000000 #000000 0 1;
#X floatatom 134 931 6 0 0 0 - - - 0;
#X obj 400 789 vsl 35 135 -1 1 0 0 empty empty Brush 0 -9 0 10 #fcfcfc #000000 #000000 0 1;
#X floatatom 400 932 6 0 0 0 - - - 0;
#X text 89 662 Instrument;
#N canvas 0 22 450 278 (subpatch) 0;
#X array multibrush 4 float 3;
#A 0 0 0 0 0;
#X coords 0 -1 4 1 60 140 1;
#X restore 442 787 graph;
#X obj 277 745 array set multibrush;
#X obj 509 789 vsl 35 135 0 10 0 0 empty empty Rub 0 -9 0 10 #fcfcfc #000000 #000000 0 1;
#X floatatom 509 932 6 0 0 0 - - - 0;
#N canvas 0 22 450 278 (subpatch) 0;
#X array multirub 4 float 3;
#A 0 0 0 0 0;
#X coords 0 10 4 -0.1 60 140 1;
#X restore 646 788 graph;
#X obj 623 746 array set multirub;
#X obj 713 790 vsl 35 135 0 100 0 0 empty empty ShakeX 0 -9 0 10 #fcfcfc #000000 #000000 0 1;
#X floatatom 713 933 6 0 0 0 - - - 0;
#X obj 755 790 vsl 35 135 0 10 0 0 empty empty ShakeY 0 -9 0 10 #fcfcfc #000000 #000000 0 1;
#X floatatom 755 933 6 0 0 0 - - - 0;
#X obj 798 790 vsl 35 135 0 10 0 0 empty empty ShakeZ 0 -9 0 10 #fcfcfc #000000 #000000 0 1;
#X floatatom 798 933 6 0 0 0 - - - 0;
#X obj 738 746 unpack f f f;
#X obj 839 790 vsl 35 135 0 6 0 0 empty empty JabX 0 -9 0 10 #fcfcfc #000000 #000000 0 1;
#X floatatom 839 933 6 0 0 0 - - - 0;
#X obj 881 790 vsl 35 135 0 6 0 0 empty empty JabY 0 -9 0 10 #fcfcfc #000000 #000000 0 1;
#X floatatom 881 933 6 0 0 0 - - - 0;
#X obj 924 790 vsl 35 135 0 6 0 0 empty empty JabZ 0 -9 0 10 #fcfcfc #000000 #000000 0 1;
#X floatatom 924 933 6 0 0 0 - - - 0;
#X obj 818 746 unpack f f f;
#X obj 40 349 list split 30;
#X obj 70 20 loadbang;
#X obj 600 574 r ypr;
#X msg 60 100 8000;
#X obj 188 279 s ypr;
#X obj 609 995 route tap dtap ttap count;
#X floatatom 738 1022 5 0 0 0 - - - 0;
#X obj 71 322 route capsense accl gyro magn fsr, f 35;
#X obj 161 668 route touch brush multibrush rub multirub shakexyz jabxyz button, f 69;
#X text 273 27 Edu Meneses - IDMIL - Sep/2022;
#X text 273 10 T-Stick FW220916;
#X obj 182 897 array set Touch;
#X obj 201 791 list split 30;
#X obj 244 855 array set Touch2;
#X obj 43 373 array set rawTouch2;
#X obj 26 396 array set rawTouch;
#N canvas 0 50 450 250 (subpatch) 0;
#X array rawTouch 30 float 1;
#A 0 0 0 0 0 0 0 0 0 0 0 0 0 0 0 0 0 0 0 0 0 0 0 0 0 0 0 0 0 0 0;
#X coords 0 4000 29 0 400 300 1 0 0;
#X restore 1025 81 graph;
#X text 1258 59 Raw Touch Data;
#N canvas 0 50 450 250 (subpatch) 0;
#X array rawTouch2 30 float 1;
#A 0 0 0 0 0 0 0 0 0 0 0 0 0 0 0 0 0 0 0 0 0 0 0 0 0 0 0 0 0 0 0;
#X coords 0 1000 29 0 400 300 1 0 0;
#X restore 1457 83 graph;
#X obj 7 744 route all top middle bottom norm disc;
#X obj 240 937 list split 30;
#X obj 221 1043 array set discTouch;
#X obj 283 1001 array set discTouch2;
#N canvas 0 22 450 278 (subpatch) 0;
#X array discTouch 30 float 1;
#A 0 0 0 0 0 0 0 0 0 0 0 0 0 0 0 0 0 0 0 0 0 0 0 0 0 0 0 0 0 0 0;
#X coords 0 2 29 0 400 200 1 0 0;
#X restore 1018 852 graph;
#X text 1212 808 Discretised Touch Data;
#X text 1210 426 Normalised Touch Data;
#N canvas 0 22 450 278 (subpatch) 0;
#X array discTouch2 30 float 1;
#A 0 0 0 0 0 0 0 0 0 0 0 0 0 0 0 0 0 0 0 0 0 0 0 0 0 0 0 0 0 0 0;
#X coords 0 2 29 0 400 200 1 0 0;
#X restore 1470 852 graph;
#X floatatom 655 514 4 0 0 1 V - - 0;
#X floatatom 707 513 4 0 0 1 mA - - 0;
#X floatatom 760 513 4 0 0 1 hours - - 0;
#X obj 97 218 route TStick_500;
#X obj 604 461 route soc voltage current tte capacity rsense;
#X floatatom 826 513 4 0 0 1 mAh - - 0;
#X floatatom 879 515 7 0 0 1 mohm - - 0;
#X connect 0 0 26 0;
#X connect 1 0 25 0;
#X connect 2 0 17 0;
#X connect 3 0 18 0;
#X connect 4 0 19 0;
#X connect 5 0 20 0;
#X connect 6 0 21 0;
#X connect 7 0 22 0;
#X connect 8 0 23 0;
#X connect 9 0 24 0;
#X connect 10 0 11 0;
#X connect 11 0 15 0;
#X connect 12 0 10 0;
#X connect 12 1 10 1;
#X connect 13 0 12 0;
#X connect 15 0 16 0;
#X connect 27 0 28 0;
#X connect 27 0 33 0;
#X connect 28 0 34 0;
#X connect 29 0 27 0;
#X connect 30 0 0 0;
#X connect 30 1 1 0;
#X connect 30 2 2 0;
#X connect 31 0 3 0;
#X connect 31 1 4 0;
#X connect 31 2 5 0;
#X connect 32 0 7 0;
#X connect 32 1 8 0;
#X connect 32 2 9 0;
#X connect 34 0 124 0;
#X connect 35 0 36 0;
#X connect 36 0 97 0;
#X connect 36 1 29 0;
#X connect 37 0 38 0;
#X connect 37 1 39 0;
#X connect 37 2 40 0;
#X connect 37 3 41 0;
#X connect 47 0 44 0;
#X connect 47 1 45 0;
#X connect 47 2 46 0;
#X connect 52 0 125 0;
#X connect 58 0 57 0;
#X connect 60 0 101 0;
#X connect 60 1 37 0;
#X connect 60 2 98 0;
#X connect 60 5 51 0;
#X connect 60 6 61 0;
#X connect 62 0 102 0;
#X connect 63 0 64 0;
#X connect 65 0 66 0;
#X connect 67 0 68 0;
#X connect 69 0 70 0;
#X connect 71 0 72 0;
#X connect 76 0 77 0;
#X connect 80 0 81 0;
#X connect 82 0 83 0;
#X connect 84 0 85 0;
#X connect 86 0 80 0;
#X connect 86 1 82 0;
#X connect 86 2 84 0;
#X connect 87 0 88 0;
#X connect 89 0 90 0;
#X connect 91 0 92 0;
#X connect 93 0 87 0;
#X connect 93 1 89 0;
#X connect 93 2 91 0;
#X connect 94 0 109 0;
#X connect 94 1 108 0;
#X connect 94 2 109 0;
#X connect 95 0 35 0;
#X connect 96 0 47 0;
#X connect 97 0 29 0;
#X connect 99 0 58 0;
#X connect 99 1 55 0;
#X connect 99 2 56 0;
#X connect 99 3 100 0;
#X connect 101 0 94 0;
#X connect 101 1 30 0;
#X connect 101 2 31 0;
#X connect 101 3 32 0;
#X connect 101 4 6 0;
#X connect 102 0 113 0;
#X connect 102 1 71 0;
#X connect 102 2 75 0;
#X connect 102 3 76 0;
#X connect 102 4 79 0;
#X connect 102 5 86 0;
#X connect 102 6 93 0;
#X connect 102 7 99 0;
#X connect 106 0 105 0;
#X connect 106 1 107 0;
#X connect 106 2 105 0;
#X connect 113 0 63 0;
#X connect 113 1 65 0;
#X connect 113 2 67 0;
#X connect 113 3 69 0;
#X connect 113 4 106 0;
#X connect 113 5 114 0;
#X connect 114 0 115 0;
#X connect 114 1 116 0;
#X connect 114 2 115 0;
#X connect 124 0 60 0;
#X connect 125 0 53 0;
#X connect 125 1 121 0;
#X connect 125 2 122 0;
#X connect 125 3 123 0;
#X connect 125 4 126 0;
#X connect 125 5 127 0;
#X coords 0 0 1 1 470 216 0;
