#N canvas 546 653 1374 954 10;
#X obj 127 488 vsl 45 135 -32767 32767 0 0 empty empty AccelX 0 -9
0 10 #fcfcfc #000000 #000000 0 1;
#X obj 177 488 vsl 45 135 -32767 32767 0 0 empty empty AccelY 0 -9
0 10 #fcfcfc #000000 #000000 0 1;
#X obj 227 488 vsl 45 135 -32767 32767 0 0 empty empty AccelZ 0 -9
0 10 #fcfcfc #000000 #000000 0 1;
#X obj 277 488 vsl 45 135 -41 41 0 0 empty empty GyroX 0 -9 0 10 #fcfcfc
#000000 #000000 0 1;
#X obj 327 488 vsl 45 135 -41 41 0 0 empty empty GyroY 0 -9 0 10 #fcfcfc
#000000 #000000 0 1;
#X obj 377 488 vsl 45 135 -41 41 0 0 empty empty GyroZ 0 -9 0 10 #fcfcfc
#000000 #000000 0 1;
#X obj 577 488 vsl 45 135 0 4095 0 0 empty empty Pressure 0 -9 0 10
#fcfcfc #000000 #000000 0 1;
#X obj 627 488 vsl 45 135 0 1023 0 0 empty empty Piezo 0 -9 0 10 #fcfcfc
#000000 #000000 0 1;
#X obj 427 488 vsl 45 135 -32767 32767 0 0 empty empty MagX 0 -9 0
10 #fcfcfc #000000 #000000 0 1;
#X obj 477 488 vsl 45 135 -32767 32767 0 0 empty empty MagY 0 -9 0
10 #fcfcfc #000000 #000000 0 1;
#X obj 527 488 vsl 45 135 -32767 32767 0 0 empty empty MagZ 0 -9 0
10 #fcfcfc #000000 #000000 0 1;
#X obj 617 132 timer;
#X floatatom 617 156 8 0 0 0 - - -, f 8;
#X obj 617 107 t b b;
#X obj 617 82 r rawtimer;
#N canvas 0 22 450 278 (subpatch) 0;
#X array rawtime 100 float 1 black black;
#A 0 0 0 0 0 0 0 0 0 0 0 0 0 0 0 0 0 0 0 0 0 0 0 0 0 0 0 0 0 0 0 0
0 0 0 0 0 0 0 0 0 0 0 0 0 0 0 0 0 0 0 0 0 0 0 0 0 0 0 0 0 0 0 0 0 0
0 0 0 0 0 0 0 0 0 0 0 0 0 0 0 0 0 0 0 0 0 0 0 0 0 0 0 0 0 0 0 0 0 0
0;
#X coords 0 100 99 0 200 140 1;
#X restore 411 79 graph;
#N canvas 264 335 568 475 timegraph 0;
#X obj 111 257 list store;
#X obj 117 300 list split 100;
#X msg 148 105 0 0 0 0 0 0 0 0 0 0 0 0 0 0 0 0 0 0 0 0 0 0 0 0 0 0
0 0 0 0 0 0 0 0 0 0 0 0 0 0 0 0 0 0 0 0 0 0 0 0 0 0 0 0 0 0 0 0 0 0
0 0 0 0 0 0 0 0 0 0 0 0 0 0 0 0 0 0 0 0 0 0 0 0 0 0 0 0 0 0 0 0 0 0
0 0 0 0 0 0;
#X obj 54 178 moses 0;
#X obj 78 215 moses 101;
#X obj 57 59 inlet;
#X obj 173 53 loadbang;
#X obj 123 353 outlet;
#X connect 0 0 1 0;
#X connect 1 0 0 1;
#X connect 1 0 7 0;
#X connect 2 0 0 1;
#X connect 2 0 7 0;
#X connect 3 1 4 0;
#X connect 4 0 0 0;
#X connect 5 0 3 0;
#X connect 6 0 2 0;
#X restore 617 180 pd timegraph;
#X obj 617 204 array set rawtime;
#X floatatom 227 631 7 0 0 0 - - -, f 7;
#X floatatom 277 631 7 0 0 0 - - -, f 7;
#X floatatom 327 631 7 0 0 0 - - -, f 7;
#X floatatom 377 631 7 0 0 0 - - -, f 7;
#X floatatom 577 631 7 0 0 0 - - -, f 7;
#X floatatom 627 631 7 0 0 0 - - -, f 7;
#X floatatom 427 631 7 0 0 0 - - -, f 7;
#X floatatom 477 631 7 0 0 0 - - -, f 7;
#X floatatom 527 631 7 0 0 0 - - -, f 7;
#X floatatom 177 631 7 0 0 0 - - -, f 7;
#X floatatom 127 631 7 0 0 0 - - -, f 7;
#X obj 97 149 netreceive -u -b;
#X obj 97 170 oscparse;
#X msg 97 126 listen \$1;
#X obj 163 396 unpack f f f;
#X obj 243 396 unpack f f f;
#X obj 324 396 unpack f f f;
#X obj 27 170 s rawtimer;
#X obj 97 193 route list;
#X obj 70 50 tgl 20 0 empty empty Receive_OSC_messages 22 8 0 10 #fcfcfc
#000000 #000000 1 1;
#X obj 70 78 sel 1;
#X obj 534 328 unpack f f f f;
#X floatatom 468 359 10 0 0 0 - - -, f 10;
#X floatatom 534 359 10 0 0 0 - - -, f 10;
#X floatatom 600 359 10 0 0 0 - - -, f 10;
#X floatatom 666 359 10 0 0 0 - - -, f 10;
#X text 543 308 Quaternions;
#N canvas 0 22 450 278 (subpatch) 0;
#X array Touch 30 float 1 black black;
#A 0 1 1 1 1 1 1 1 1 1 1 0 1 1 1 1 1 0 0 0 0 0 0 0 0 0 0 0 0 0 0;
#X coords 0 2 29 -1 140 140 1;
#X restore 680 486 graph;
#X obj 245 270 s info;
#X floatatom 764 304 10 0 0 0 - - -, f 10;
#X floatatom 830 304 10 0 0 0 - - -, f 10;
#X floatatom 896 304 10 0 0 0 - - -, f 10;
#X obj 800 280 unpack f f f;
#X obj 27 777 vsl 45 135 -1 1 0 0 empty empty AccelX 0 -9 0 10 #fcfcfc
#000000 #000000 0 1;
#X obj 77 777 vsl 45 135 -1 1 0 0 empty empty AccelY 0 -9 0 10 #fcfcfc
#000000 #000000 0 1;
#X obj 127 777 vsl 45 135 -1 1 0 0 empty empty AccelZ 0 -9 0 10 #fcfcfc
#000000 #000000 0 1;
#X obj 177 777 vsl 45 135 -1 1 0 0 empty empty GyroX 0 -9 0 10 #fcfcfc
#000000 #000000 0 1;
#X obj 227 777 vsl 45 135 -1 1 0 0 empty empty GyroY 0 -9 0 10 #fcfcfc
#000000 #000000 0 1;
#X obj 277 777 vsl 45 135 -1 1 0 0 empty empty GyroZ 0 -9 0 10 #fcfcfc
#000000 #000000 0 1;
#X obj 477 777 vsl 45 135 0 1 0 0 empty empty Pressure 0 -9 0 10 #fcfcfc
#000000 #000000 0 1;
#X obj 527 777 vsl 45 135 0 1 0 0 empty empty Piezo 0 -9 0 10 #fcfcfc
#000000 #000000 0 1;
#X obj 327 777 vsl 45 135 -1 1 0 0 empty empty MagX 0 -9 0 10 #fcfcfc
#000000 #000000 0 1;
#X obj 377 777 vsl 45 135 -1 1 0 0 empty empty MagY 0 -9 0 10 #fcfcfc
#000000 #000000 0 1;
#X obj 427 777 vsl 45 135 -1 1 0 0 empty empty MagZ 0 -9 0 10 #fcfcfc
#000000 #000000 0 1;
#X floatatom 127 920 7 0 0 0 - - -, f 7;
#X floatatom 177 920 7 0 0 0 - - -, f 7;
#X floatatom 227 920 7 0 0 0 - - -, f 7;
#X floatatom 277 920 7 0 0 0 - - -, f 7;
#X floatatom 477 920 7 0 0 0 - - -, f 7;
#X floatatom 527 920 7 0 0 0 - - -, f 7;
#X floatatom 327 920 7 0 0 0 - - -, f 7;
#X floatatom 377 920 7 0 0 0 - - -, f 7;
#X floatatom 427 920 7 0 0 0 - - -, f 7;
#X floatatom 77 920 7 0 0 0 - - -, f 7;
#X floatatom 27 920 7 0 0 0 - - -, f 7;
#X obj 148 727 unpack f f f;
#X obj 228 727 unpack f f f;
#X obj 309 727 unpack f f f;
#X obj 194 674 route capsense accl gyro magn fsr piezo, f 62;
#X obj 291 270 s norm;
#X obj 177 654 r norm;
#X text 50 469 Raw (/raw);
#N canvas 0 22 450 278 (subpatch) 0;
#X array Touch2 30 float 1 black black;
#A 0 0 0 0 0 0 0 0 0 0 0 0 0 0 0 0 0 0 0 0 0 0 0 0 0 0 0 0 0 0 0;
#X coords 0 2 29 -1 140 140 1;
#X restore 823 486 graph;
#X text 20 734 Normalized (/norm);
#X text 210 218 Change T-Stick NAME!;
#X obj 338 271 s battery;
#X obj 824 379 r battery;
#X floatatom 824 409 4 0 0 1 % - -, f 4;
#X text 820 250 YPR;
#X obj 564 398 route short long double;
#X obj 618 427 tgl 15 0 empty empty long -4 23 0 10 #fcfcfc #000000
#000000 0 1;
#X obj 654 427 tgl 15 0 empty empty double -9 23 0 10 #fcfcfc #000000
#000000 0 1;
#X obj 564 443 bng 15 250 50 0 empty empty short 17 7 0 10 #fcfcfc
#000000 #000000;
#X obj 564 420 sel 1;
#X text 698 417 button;
#X obj 97 246 route raw orientation ypr info norm battery instrument
;
#X obj 402 272 s instrument;
#X obj 741 637 r instrument;
#X obj 610 733 route all top middle bottom;
#X obj 610 777 vsl 35 135 0 1 0 0 empty empty All 0 -9 0 10 #fcfcfc
#000000 #000000 0 1;
#X floatatom 610 920 6 0 0 0 - - -, f 6;
#X obj 652 777 vsl 35 135 0 1 0 0 empty empty Top 0 -9 0 10 #fcfcfc
#000000 #000000 0 1;
#X floatatom 652 920 6 0 0 0 - - -, f 6;
#X obj 695 777 vsl 35 135 0 1 0 0 empty empty Middle 0 -9 0 10 #fcfcfc
#000000 #000000 0 1;
#X floatatom 695 920 6 0 0 0 - - -, f 6;
#X obj 737 777 vsl 35 135 0 1 0 0 empty empty Bottom 0 -9 0 10 #fcfcfc
#000000 #000000 0 1;
#X floatatom 737 920 6 0 0 0 - - -, f 6;
#X obj 779 777 vsl 35 135 -1 1 0 0 empty empty Brush 0 -9 0 10 #fcfcfc
#000000 #000000 0 1;
#X floatatom 779 920 6 0 0 0 - - -, f 6;
#X text 607 678 Instrument;
#N canvas 0 22 450 278 (subpatch) 0;
#X array multibrush 4 float 3 black black;
#A 0 0 0 0 0;
#X coords 0 -1 4 1 60 140 1;
#X restore 821 775 graph;
#X obj 780 733 array set multibrush;
#X obj 888 777 vsl 35 135 0 10 0 0 empty empty Rub 0 -9 0 10 #fcfcfc
#000000 #000000 0 1;
#X floatatom 888 920 6 0 0 0 - - -, f 6;
#N canvas 0 22 450 278 (subpatch) 0;
#X array multirub 4 float 3 black black;
#A 0 0 0 0 0;
#X coords 0 10 4 -0.1 60 140 1;
#X restore 930 775 graph;
#X obj 907 733 array set multirub;
#X obj 997 777 vsl 35 135 0 100 0 0 empty empty ShakeX 0 -9 0 10 #fcfcfc
#000000 #000000 0 1;
#X floatatom 997 920 6 0 0 0 - - -, f 6;
#X obj 1039 777 vsl 35 135 0 10 0 0 empty empty ShakeY 0 -9 0 10 #fcfcfc
#000000 #000000 0 1;
#X floatatom 1039 920 6 0 0 0 - - -, f 6;
#X obj 1082 777 vsl 35 135 0 10 0 0 empty empty ShakeZ 0 -9 0 10 #fcfcfc
#000000 #000000 0 1;
#X floatatom 1082 920 6 0 0 0 - - -, f 6;
#X obj 1022 733 unpack f f f;
#X obj 741 658 route touch brush multibrush rub multirub shakexyz jabxyz
ypr, f 62;
#X obj 1123 777 vsl 35 135 0 6 0 0 empty empty JabX 0 -9 0 10 #fcfcfc
#000000 #000000 0 1;
#X floatatom 1123 920 6 0 0 0 - - -, f 6;
#X obj 1165 777 vsl 35 135 0 6 0 0 empty empty JabY 0 -9 0 10 #fcfcfc
#000000 #000000 0 1;
#X floatatom 1165 920 6 0 0 0 - - -, f 6;
#X obj 1208 777 vsl 35 135 0 6 0 0 empty empty JabZ 0 -9 0 10 #fcfcfc
#000000 #000000 0 1;
#X floatatom 1208 920 6 0 0 0 - - -, f 6;
#X obj 1102 733 unpack f f f;
#X obj 71 345 route capsense accl gyro magn fsr piezo button touchstrips
, f 62;
#X obj 427 387 array set Touch;
#X obj 26 419 array set Touch;
#X obj 40 372 list split 30;
#X obj 43 396 array set Touch2;
#X obj 70 20 loadbang;
#X text 273 10 T-Stick FW220222;
#X text 273 27 Edu Meneses - IDMIL - Feb/2022;
#X obj 755 263 r ypr;
#X obj 1070 683 s ypr;
#X msg 60 100 8000;
#X obj 97 218 route T-Stick_311;
#X connect 0 0 28 0;
#X connect 1 0 27 0;
#X connect 2 0 18 0;
#X connect 3 0 19 0;
#X connect 4 0 20 0;
#X connect 5 0 21 0;
#X connect 6 0 22 0;
#X connect 7 0 23 0;
#X connect 8 0 24 0;
#X connect 9 0 25 0;
#X connect 10 0 26 0;
#X connect 11 0 12 0;
#X connect 12 0 16 0;
#X connect 13 0 11 0;
#X connect 13 1 11 1;
#X connect 14 0 13 0;
#X connect 16 0 17 0;
#X connect 29 0 30 0;
#X connect 29 0 35 0;
#X connect 30 0 36 0;
#X connect 31 0 29 0;
#X connect 32 0 0 0;
#X connect 32 1 1 0;
#X connect 32 2 2 0;
#X connect 33 0 3 0;
#X connect 33 1 4 0;
#X connect 33 2 5 0;
#X connect 34 0 8 0;
#X connect 34 1 9 0;
#X connect 34 2 10 0;
#X connect 36 0 140 0;
#X connect 37 0 38 0;
#X connect 38 0 139 0;
#X connect 38 1 31 0;
#X connect 39 0 40 0;
#X connect 39 1 41 0;
#X connect 39 2 42 0;
#X connect 39 3 43 0;
#X connect 50 0 47 0;
#X connect 50 1 48 0;
#X connect 50 2 49 0;
#X connect 51 0 72 0;
#X connect 52 0 71 0;
#X connect 53 0 62 0;
#X connect 54 0 63 0;
#X connect 55 0 64 0;
#X connect 56 0 65 0;
#X connect 57 0 66 0;
#X connect 58 0 67 0;
#X connect 59 0 68 0;
#X connect 60 0 69 0;
#X connect 61 0 70 0;
#X connect 73 0 51 0;
#X connect 73 1 52 0;
#X connect 73 2 53 0;
#X connect 74 0 54 0;
#X connect 74 1 55 0;
#X connect 74 2 56 0;
#X connect 75 0 59 0;
#X connect 75 1 60 0;
#X connect 75 2 61 0;
#X connect 76 1 73 0;
#X connect 76 2 74 0;
#X connect 76 3 75 0;
#X connect 76 4 57 0;
#X connect 76 5 58 0;
#X connect 78 0 76 0;
#X connect 84 0 85 0;
#X connect 87 0 91 0;
#X connect 87 1 88 0;
#X connect 87 2 89 0;
#X connect 91 0 90 0;
#X connect 93 0 129 0;
#X connect 93 1 39 0;
#X connect 93 3 46 0;
#X connect 93 4 77 0;
#X connect 93 5 83 0;
#X connect 93 6 94 0;
#X connect 95 0 121 0;
#X connect 96 0 97 0;
#X connect 96 1 99 0;
#X connect 96 2 101 0;
#X connect 96 3 103 0;
#X connect 97 0 98 0;
#X connect 99 0 100 0;
#X connect 101 0 102 0;
#X connect 103 0 104 0;
#X connect 105 0 106 0;
#X connect 110 0 111 0;
#X connect 114 0 115 0;
#X connect 116 0 117 0;
#X connect 118 0 119 0;
#X connect 120 0 114 0;
#X connect 120 1 116 0;
#X connect 120 2 118 0;
#X connect 121 0 96 0;
#X connect 121 1 105 0;
#X connect 121 2 109 0;
#X connect 121 3 110 0;
#X connect 121 4 113 0;
#X connect 121 5 120 0;
#X connect 121 6 128 0;
#X connect 121 7 138 0;
#X connect 122 0 123 0;
#X connect 124 0 125 0;
#X connect 126 0 127 0;
#X connect 128 0 122 0;
#X connect 128 1 124 0;
#X connect 128 2 126 0;
#X connect 129 0 132 0;
#X connect 129 1 32 0;
#X connect 129 2 33 0;
#X connect 129 3 34 0;
#X connect 129 4 6 0;
#X connect 129 5 7 0;
#X connect 129 6 87 0;
#X connect 129 7 130 0;
#X connect 132 0 131 0;
#X connect 132 1 133 0;
#X connect 132 2 131 0;
#X connect 134 0 37 0;
#X connect 137 0 50 0;
#X connect 139 0 31 0;
#X connect 140 0 93 0;
#X coords 0 0 1 1 470 216 0;
