#N canvas 212 23 1393 1005 10;
#X declare -lib Gem;
#X obj 357 25 cnv 15 464 230 empty empty T-Stick 20 12 0 20 -228856
-66577 0;
#X obj 97 510 vsl 45 135 -32767 32767 0 0 empty empty AccelX 0 -9 0
10 -262144 -1 -1 6710 1;
#X obj 147 510 vsl 45 135 -32767 32767 0 0 empty empty AccelY 0 -9
0 10 -262144 -1 -1 6419 1;
#X obj 197 510 vsl 45 135 -32767 32767 0 0 empty empty AccelZ 0 -9
0 10 -262144 -1 -1 6709 1;
#X obj 247 510 vsl 45 135 -41 41 0 0 empty empty GyroX 0 -9 0 10 -262144
-1 -1 6708 1;
#X obj 297 510 vsl 45 135 -41 41 0 0 empty empty GyroY 0 -9 0 10 -262144
-1 -1 6704 1;
#X obj 347 510 vsl 45 135 -41 41 0 0 empty empty GyroZ 0 -9 0 10 -262144
-1 -1 6707 1;
#X obj 547 510 vsl 45 135 0 4095 0 0 empty empty Pressure 0 -9 0 10
-262144 -1 -1 10455 1;
#X obj 597 510 vsl 45 135 0 1023 0 0 empty empty Piezo 0 -9 0 10 -262144
-1 -1 13400 1;
#X obj 397 510 vsl 45 135 -32767 32767 0 0 empty empty MagX 0 -9 0
10 -262144 -1 -1 6680 1;
#X obj 447 510 vsl 45 135 -32767 32767 0 0 empty empty MagY 0 -9 0
10 -262144 -1 -1 6899 1;
#X obj 497 510 vsl 45 135 -32767 32767 0 0 empty empty MagZ 0 -9 0
10 -262144 -1 -1 6638 1;
#X obj 904 561 timer;
#X floatatom 904 585 8 0 0 0 - - -;
#X obj 904 536 t b b;
#X obj 904 511 r rawtimer;
#N canvas 0 22 450 278 (subpatch) 0;
#X array rawtime 100 float 1;
#A 0 15.9637 17.415 15.9637 15.9637 17.415 15.9637 17.415 17.415 15.9637
15.9637 15.9637 17.415 17.415 15.9637 18.8662 15.9637 15.9637 15.9637
17.415 17.415 15.9637 15.9637 15.9637 17.415 14.5125 15.9637 18.8662
15.9637 8.70748 24.6712 17.415 15.9637 15.9637 17.415 17.415 15.9637
17.415 17.415 15.9637 15.9637 17.415 17.415 15.9637 14.5125 18.8662
15.9637 15.9637 17.415 15.9637 17.415 17.415 15.9637 14.5125 17.415
17.415 15.9637 17.415 15.9637 17.415 15.9637 15.9637 15.9637 17.415
15.9637 15.9637 17.415 17.415 15.9637 17.415 15.9637 15.9637 17.415
15.9637 17.415 17.415 14.5125 17.415 17.415 17.415 15.9637 17.415 15.9637
15.9637 17.415 17.415 14.5125 17.415 17.415 14.5125 17.415 17.415 15.9637
17.415 17.415 15.9637 4.35374 29.0249 17.415 13.0612 20.3175;
#X coords 0 100 99 0 200 140 1;
#X restore 698 508 graph;
#N canvas 264 335 568 475 timegraph 0;
#X obj 111 257 list store;
#X obj 117 300 list split 100;
#X msg 148 105 0 0 0 0 0 0 0 0 0 0 0 0 0 0 0 0 0 0 0 0 0 0 0 0 0 0
0 0 0 0 0 0 0 0 0 0 0 0 0 0 0 0 0 0 0 0 0 0 0 0 0 0 0 0 0 0 0 0 0 0
0 0 0 0 0 0 0 0 0 0 0 0 0 0 0 0 0 0 0 0 0 0 0 0 0 0 0 0 0 0 0 0 0 0
0 0 0 0 0 0;
#X obj 54 178 moses 0;
#X obj 78 215 moses 101;
#X obj 57 59 inlet;
#X obj 173 53 loadbang;
#X obj 123 353 outlet;
#X connect 0 0 1 0;
#X connect 1 0 0 1;
#X connect 1 0 7 0;
#X connect 2 0 0 1;
#X connect 2 0 7 0;
#X connect 3 1 4 0;
#X connect 4 0 0 0;
#X connect 5 0 3 0;
#X connect 6 0 2 0;
#X restore 904 609 pd timegraph;
#X obj 904 633 array set rawtime;
#X obj 310 18 inlet;
#X floatatom 197 653 7 0 0 0 - - -;
#X floatatom 247 653 7 0 0 0 - - -;
#X floatatom 297 653 7 0 0 0 - - -;
#X floatatom 347 653 7 0 0 0 - - -;
#X floatatom 547 653 7 0 0 0 - - -;
#X floatatom 597 653 7 0 0 0 - - -;
#X floatatom 397 653 7 0 0 0 - - -;
#X floatatom 447 653 7 0 0 0 - - -;
#X floatatom 497 653 7 0 0 0 - - -;
#X floatatom 147 653 7 0 0 0 - - -;
#X floatatom 97 653 7 0 0 0 - - -;
#X obj 257 278 netreceive -u -b;
#X obj 257 299 oscparse;
#N canvas 475 22 1130 740 cook_touch_sopranino 0;
#X obj 360 19 inlet;
#X obj 18 366 unpack f f;
#X obj 106 304 t b b l;
#X obj 159 426 list;
#N canvas 0 23 450 300 bytestobitsR 0;
#X obj 96 -594 / 2;
#X obj 127 -594 % 2;
#X floatatom 96 -554 5 0 0 0 - - -;
#X obj 96 -574 i;
#X obj 96 -510 / 2;
#X obj 96 -489 i;
#X obj 129 -512 % 2;
#X floatatom 96 -470 5 0 0 0 - - -;
#X obj 97 -423 / 2;
#X obj 124 -423 % 2;
#X obj 97 -403 i;
#X floatatom 96 -383 5 0 0 0 - - -;
#X obj 96 -342 / 2;
#X obj 123 -342 % 2;
#X obj 96 -320 i;
#X floatatom 95 -298 5 0 0 0 - - -;
#X obj 95 -259 / 2;
#X obj 122 -259 % 2;
#X obj 95 -239 i;
#X floatatom 95 -219 5 0 0 0 - - -;
#X obj 95 -181 / 2;
#X obj 122 -181 % 2;
#X obj 95 -162 i;
#X floatatom 94 -142 5 0 0 0 - - -;
#X obj 94 -104 / 2;
#X obj 121 -104 % 2;
#X obj 94 -85 i;
#X floatatom 95 -63 5 0 0 0 - - -;
#X obj 95 -42 % 2;
#X obj 96 -447 t f f;
#X obj 96 -363 t f f;
#X obj 95 -279 t f f;
#X obj 95 -201 t f f;
#X obj 95 -124 t f f;
#X obj 96 -534 t f f;
#X obj 146 -725 inlet;
#X obj 255 102 outlet;
#X obj 146 -655 t b f f;
#X obj 146 -700 moses 0;
#X obj 146 -677 moses 256;
#X obj 393 103 list;
#X obj 393 124 outlet;
#X obj 393 -715 inlet;
#X text 406 -693 bang to output last conversion;
#X obj 255 59 pack f f f f f f f f;
#X obj 255 32 f;
#X connect 0 0 3 0;
#X connect 1 0 45 1;
#X connect 2 0 34 0;
#X connect 3 0 2 0;
#X connect 4 0 5 0;
#X connect 5 0 7 0;
#X connect 6 0 44 1;
#X connect 7 0 29 0;
#X connect 8 0 10 0;
#X connect 9 0 44 2;
#X connect 10 0 11 0;
#X connect 11 0 30 0;
#X connect 12 0 14 0;
#X connect 13 0 44 3;
#X connect 14 0 15 0;
#X connect 15 0 31 0;
#X connect 16 0 18 0;
#X connect 17 0 44 4;
#X connect 18 0 19 0;
#X connect 19 0 32 0;
#X connect 20 0 22 0;
#X connect 21 0 44 5;
#X connect 22 0 23 0;
#X connect 23 0 33 0;
#X connect 24 0 26 0;
#X connect 25 0 44 6;
#X connect 26 0 27 0;
#X connect 27 0 28 0;
#X connect 28 0 44 7;
#X connect 29 0 8 0;
#X connect 29 1 9 0;
#X connect 30 0 12 0;
#X connect 30 1 13 0;
#X connect 31 0 16 0;
#X connect 31 1 17 0;
#X connect 32 0 20 0;
#X connect 32 1 21 0;
#X connect 33 0 24 0;
#X connect 33 1 25 0;
#X connect 34 0 4 0;
#X connect 34 1 6 0;
#X connect 35 0 38 0;
#X connect 37 0 45 0;
#X connect 37 1 0 0;
#X connect 37 2 1 0;
#X connect 38 1 39 0;
#X connect 39 0 37 0;
#X connect 40 0 41 0;
#X connect 42 0 40 0;
#X connect 44 0 40 1;
#X connect 44 0 36 0;
#X connect 45 0 44 0;
#X restore 19 395 pd bytestobitsR;
#N canvas 0 23 450 300 bytestobitsR 0;
#X obj 96 -594 / 2;
#X obj 127 -594 % 2;
#X floatatom 96 -554 5 0 0 0 - - -;
#X obj 96 -574 i;
#X obj 96 -510 / 2;
#X obj 96 -489 i;
#X obj 129 -512 % 2;
#X floatatom 96 -470 5 0 0 0 - - -;
#X obj 97 -423 / 2;
#X obj 124 -423 % 2;
#X obj 97 -403 i;
#X floatatom 96 -383 5 0 0 0 - - -;
#X obj 96 -342 / 2;
#X obj 123 -342 % 2;
#X obj 96 -320 i;
#X floatatom 95 -298 5 0 0 0 - - -;
#X obj 95 -259 / 2;
#X obj 122 -259 % 2;
#X obj 95 -239 i;
#X floatatom 95 -219 5 0 0 0 - - -;
#X obj 95 -181 / 2;
#X obj 122 -181 % 2;
#X obj 95 -162 i;
#X floatatom 94 -142 5 0 0 0 - - -;
#X obj 94 -104 / 2;
#X obj 121 -104 % 2;
#X obj 94 -85 i;
#X floatatom 95 -63 5 0 0 0 - - -;
#X obj 95 -42 % 2;
#X obj 96 -447 t f f;
#X obj 96 -363 t f f;
#X obj 95 -279 t f f;
#X obj 95 -201 t f f;
#X obj 95 -124 t f f;
#X obj 96 -534 t f f;
#X obj 146 -725 inlet;
#X obj 255 102 outlet;
#X obj 146 -655 t b f f;
#X obj 146 -700 moses 0;
#X obj 146 -677 moses 256;
#X obj 393 103 list;
#X obj 393 124 outlet;
#X obj 393 -715 inlet;
#X text 406 -693 bang to output last conversion;
#X obj 255 59 pack f f f f f f f f;
#X obj 255 32 f;
#X connect 0 0 3 0;
#X connect 1 0 45 1;
#X connect 2 0 34 0;
#X connect 3 0 2 0;
#X connect 4 0 5 0;
#X connect 5 0 7 0;
#X connect 6 0 44 1;
#X connect 7 0 29 0;
#X connect 8 0 10 0;
#X connect 9 0 44 2;
#X connect 10 0 11 0;
#X connect 11 0 30 0;
#X connect 12 0 14 0;
#X connect 13 0 44 3;
#X connect 14 0 15 0;
#X connect 15 0 31 0;
#X connect 16 0 18 0;
#X connect 17 0 44 4;
#X connect 18 0 19 0;
#X connect 19 0 32 0;
#X connect 20 0 22 0;
#X connect 21 0 44 5;
#X connect 22 0 23 0;
#X connect 23 0 33 0;
#X connect 24 0 26 0;
#X connect 25 0 44 6;
#X connect 26 0 27 0;
#X connect 27 0 28 0;
#X connect 28 0 44 7;
#X connect 29 0 8 0;
#X connect 29 1 9 0;
#X connect 30 0 12 0;
#X connect 30 1 13 0;
#X connect 31 0 16 0;
#X connect 31 1 17 0;
#X connect 32 0 20 0;
#X connect 32 1 21 0;
#X connect 33 0 24 0;
#X connect 33 1 25 0;
#X connect 34 0 4 0;
#X connect 34 1 6 0;
#X connect 35 0 38 0;
#X connect 37 0 45 0;
#X connect 37 1 0 0;
#X connect 37 2 1 0;
#X connect 38 1 39 0;
#X connect 39 0 37 0;
#X connect 40 0 41 0;
#X connect 42 0 40 0;
#X connect 44 0 40 1;
#X connect 44 0 36 0;
#X connect 45 0 44 0;
#X restore 117 395 pd bytestobitsR;
#X obj 106 282 spigot;
#X obj 434 47 list length;
#X obj 434 100 outlet;
#X obj 434 68 / 2;
#X text 446 84 Capsense qty;
#X obj 214 366 unpack f f;
#X obj 302 304 t b b l;
#X obj 355 426 list;
#N canvas 0 23 450 300 bytestobitsR 0;
#X obj 96 -594 / 2;
#X obj 127 -594 % 2;
#X floatatom 96 -554 5 0 0 0 - - -;
#X obj 96 -574 i;
#X obj 96 -510 / 2;
#X obj 96 -489 i;
#X obj 129 -512 % 2;
#X floatatom 96 -470 5 0 0 0 - - -;
#X obj 97 -423 / 2;
#X obj 124 -423 % 2;
#X obj 97 -403 i;
#X floatatom 96 -383 5 0 0 0 - - -;
#X obj 96 -342 / 2;
#X obj 123 -342 % 2;
#X obj 96 -320 i;
#X floatatom 95 -298 5 0 0 0 - - -;
#X obj 95 -259 / 2;
#X obj 122 -259 % 2;
#X obj 95 -239 i;
#X floatatom 95 -219 5 0 0 0 - - -;
#X obj 95 -181 / 2;
#X obj 122 -181 % 2;
#X obj 95 -162 i;
#X floatatom 94 -142 5 0 0 0 - - -;
#X obj 94 -104 / 2;
#X obj 121 -104 % 2;
#X obj 94 -85 i;
#X floatatom 95 -63 5 0 0 0 - - -;
#X obj 95 -42 % 2;
#X obj 96 -447 t f f;
#X obj 96 -363 t f f;
#X obj 95 -279 t f f;
#X obj 95 -201 t f f;
#X obj 95 -124 t f f;
#X obj 96 -534 t f f;
#X obj 146 -725 inlet;
#X obj 255 102 outlet;
#X obj 146 -655 t b f f;
#X obj 146 -700 moses 0;
#X obj 146 -677 moses 256;
#X obj 393 103 list;
#X obj 393 124 outlet;
#X obj 393 -715 inlet;
#X text 406 -693 bang to output last conversion;
#X obj 255 59 pack f f f f f f f f;
#X obj 255 32 f;
#X connect 0 0 3 0;
#X connect 1 0 45 1;
#X connect 2 0 34 0;
#X connect 3 0 2 0;
#X connect 4 0 5 0;
#X connect 5 0 7 0;
#X connect 6 0 44 1;
#X connect 7 0 29 0;
#X connect 8 0 10 0;
#X connect 9 0 44 2;
#X connect 10 0 11 0;
#X connect 11 0 30 0;
#X connect 12 0 14 0;
#X connect 13 0 44 3;
#X connect 14 0 15 0;
#X connect 15 0 31 0;
#X connect 16 0 18 0;
#X connect 17 0 44 4;
#X connect 18 0 19 0;
#X connect 19 0 32 0;
#X connect 20 0 22 0;
#X connect 21 0 44 5;
#X connect 22 0 23 0;
#X connect 23 0 33 0;
#X connect 24 0 26 0;
#X connect 25 0 44 6;
#X connect 26 0 27 0;
#X connect 27 0 28 0;
#X connect 28 0 44 7;
#X connect 29 0 8 0;
#X connect 29 1 9 0;
#X connect 30 0 12 0;
#X connect 30 1 13 0;
#X connect 31 0 16 0;
#X connect 31 1 17 0;
#X connect 32 0 20 0;
#X connect 32 1 21 0;
#X connect 33 0 24 0;
#X connect 33 1 25 0;
#X connect 34 0 4 0;
#X connect 34 1 6 0;
#X connect 35 0 38 0;
#X connect 37 0 45 0;
#X connect 37 1 0 0;
#X connect 37 2 1 0;
#X connect 38 1 39 0;
#X connect 39 0 37 0;
#X connect 40 0 41 0;
#X connect 42 0 40 0;
#X connect 44 0 40 1;
#X connect 44 0 36 0;
#X connect 45 0 44 0;
#X restore 215 395 pd bytestobitsR;
#N canvas 0 23 450 300 bytestobitsR 0;
#X obj 96 -594 / 2;
#X obj 127 -594 % 2;
#X floatatom 96 -554 5 0 0 0 - - -;
#X obj 96 -574 i;
#X obj 96 -510 / 2;
#X obj 96 -489 i;
#X obj 129 -512 % 2;
#X floatatom 96 -470 5 0 0 0 - - -;
#X obj 97 -423 / 2;
#X obj 124 -423 % 2;
#X obj 97 -403 i;
#X floatatom 96 -383 5 0 0 0 - - -;
#X obj 96 -342 / 2;
#X obj 123 -342 % 2;
#X obj 96 -320 i;
#X floatatom 95 -298 5 0 0 0 - - -;
#X obj 95 -259 / 2;
#X obj 122 -259 % 2;
#X obj 95 -239 i;
#X floatatom 95 -219 5 0 0 0 - - -;
#X obj 95 -181 / 2;
#X obj 122 -181 % 2;
#X obj 95 -162 i;
#X floatatom 94 -142 5 0 0 0 - - -;
#X obj 94 -104 / 2;
#X obj 121 -104 % 2;
#X obj 94 -85 i;
#X floatatom 95 -63 5 0 0 0 - - -;
#X obj 95 -42 % 2;
#X obj 96 -447 t f f;
#X obj 96 -363 t f f;
#X obj 95 -279 t f f;
#X obj 95 -201 t f f;
#X obj 95 -124 t f f;
#X obj 96 -534 t f f;
#X obj 146 -725 inlet;
#X obj 255 102 outlet;
#X obj 146 -655 t b f f;
#X obj 146 -700 moses 0;
#X obj 146 -677 moses 256;
#X obj 393 103 list;
#X obj 393 124 outlet;
#X obj 393 -715 inlet;
#X text 406 -693 bang to output last conversion;
#X obj 255 59 pack f f f f f f f f;
#X obj 255 32 f;
#X connect 0 0 3 0;
#X connect 1 0 45 1;
#X connect 2 0 34 0;
#X connect 3 0 2 0;
#X connect 4 0 5 0;
#X connect 5 0 7 0;
#X connect 6 0 44 1;
#X connect 7 0 29 0;
#X connect 8 0 10 0;
#X connect 9 0 44 2;
#X connect 10 0 11 0;
#X connect 11 0 30 0;
#X connect 12 0 14 0;
#X connect 13 0 44 3;
#X connect 14 0 15 0;
#X connect 15 0 31 0;
#X connect 16 0 18 0;
#X connect 17 0 44 4;
#X connect 18 0 19 0;
#X connect 19 0 32 0;
#X connect 20 0 22 0;
#X connect 21 0 44 5;
#X connect 22 0 23 0;
#X connect 23 0 33 0;
#X connect 24 0 26 0;
#X connect 25 0 44 6;
#X connect 26 0 27 0;
#X connect 27 0 28 0;
#X connect 28 0 44 7;
#X connect 29 0 8 0;
#X connect 29 1 9 0;
#X connect 30 0 12 0;
#X connect 30 1 13 0;
#X connect 31 0 16 0;
#X connect 31 1 17 0;
#X connect 32 0 20 0;
#X connect 32 1 21 0;
#X connect 33 0 24 0;
#X connect 33 1 25 0;
#X connect 34 0 4 0;
#X connect 34 1 6 0;
#X connect 35 0 38 0;
#X connect 37 0 45 0;
#X connect 37 1 0 0;
#X connect 37 2 1 0;
#X connect 38 1 39 0;
#X connect 39 0 37 0;
#X connect 40 0 41 0;
#X connect 42 0 40 0;
#X connect 44 0 40 1;
#X connect 44 0 36 0;
#X connect 45 0 44 0;
#X restore 313 395 pd bytestobitsR;
#X obj 408 366 unpack f f;
#X obj 496 304 t b b l;
#X obj 549 426 list;
#N canvas 0 23 450 300 bytestobitsR 0;
#X obj 96 -594 / 2;
#X obj 127 -594 % 2;
#X floatatom 96 -554 5 0 0 0 - - -;
#X obj 96 -574 i;
#X obj 96 -510 / 2;
#X obj 96 -489 i;
#X obj 129 -512 % 2;
#X floatatom 96 -470 5 0 0 0 - - -;
#X obj 97 -423 / 2;
#X obj 124 -423 % 2;
#X obj 97 -403 i;
#X floatatom 96 -383 5 0 0 0 - - -;
#X obj 96 -342 / 2;
#X obj 123 -342 % 2;
#X obj 96 -320 i;
#X floatatom 95 -298 5 0 0 0 - - -;
#X obj 95 -259 / 2;
#X obj 122 -259 % 2;
#X obj 95 -239 i;
#X floatatom 95 -219 5 0 0 0 - - -;
#X obj 95 -181 / 2;
#X obj 122 -181 % 2;
#X obj 95 -162 i;
#X floatatom 94 -142 5 0 0 0 - - -;
#X obj 94 -104 / 2;
#X obj 121 -104 % 2;
#X obj 94 -85 i;
#X floatatom 95 -63 5 0 0 0 - - -;
#X obj 95 -42 % 2;
#X obj 96 -447 t f f;
#X obj 96 -363 t f f;
#X obj 95 -279 t f f;
#X obj 95 -201 t f f;
#X obj 95 -124 t f f;
#X obj 96 -534 t f f;
#X obj 146 -725 inlet;
#X obj 255 102 outlet;
#X obj 146 -655 t b f f;
#X obj 146 -700 moses 0;
#X obj 146 -677 moses 256;
#X obj 393 103 list;
#X obj 393 124 outlet;
#X obj 393 -715 inlet;
#X text 406 -693 bang to output last conversion;
#X obj 255 59 pack f f f f f f f f;
#X obj 255 32 f;
#X connect 0 0 3 0;
#X connect 1 0 45 1;
#X connect 2 0 34 0;
#X connect 3 0 2 0;
#X connect 4 0 5 0;
#X connect 5 0 7 0;
#X connect 6 0 44 1;
#X connect 7 0 29 0;
#X connect 8 0 10 0;
#X connect 9 0 44 2;
#X connect 10 0 11 0;
#X connect 11 0 30 0;
#X connect 12 0 14 0;
#X connect 13 0 44 3;
#X connect 14 0 15 0;
#X connect 15 0 31 0;
#X connect 16 0 18 0;
#X connect 17 0 44 4;
#X connect 18 0 19 0;
#X connect 19 0 32 0;
#X connect 20 0 22 0;
#X connect 21 0 44 5;
#X connect 22 0 23 0;
#X connect 23 0 33 0;
#X connect 24 0 26 0;
#X connect 25 0 44 6;
#X connect 26 0 27 0;
#X connect 27 0 28 0;
#X connect 28 0 44 7;
#X connect 29 0 8 0;
#X connect 29 1 9 0;
#X connect 30 0 12 0;
#X connect 30 1 13 0;
#X connect 31 0 16 0;
#X connect 31 1 17 0;
#X connect 32 0 20 0;
#X connect 32 1 21 0;
#X connect 33 0 24 0;
#X connect 33 1 25 0;
#X connect 34 0 4 0;
#X connect 34 1 6 0;
#X connect 35 0 38 0;
#X connect 37 0 45 0;
#X connect 37 1 0 0;
#X connect 37 2 1 0;
#X connect 38 1 39 0;
#X connect 39 0 37 0;
#X connect 40 0 41 0;
#X connect 42 0 40 0;
#X connect 44 0 40 1;
#X connect 44 0 36 0;
#X connect 45 0 44 0;
#X restore 409 395 pd bytestobitsR;
#N canvas 0 23 450 300 bytestobitsR 0;
#X obj 96 -594 / 2;
#X obj 127 -594 % 2;
#X floatatom 96 -554 5 0 0 0 - - -;
#X obj 96 -574 i;
#X obj 96 -510 / 2;
#X obj 96 -489 i;
#X obj 129 -512 % 2;
#X floatatom 96 -470 5 0 0 0 - - -;
#X obj 97 -423 / 2;
#X obj 124 -423 % 2;
#X obj 97 -403 i;
#X floatatom 96 -383 5 0 0 0 - - -;
#X obj 96 -342 / 2;
#X obj 123 -342 % 2;
#X obj 96 -320 i;
#X floatatom 95 -298 5 0 0 0 - - -;
#X obj 95 -259 / 2;
#X obj 122 -259 % 2;
#X obj 95 -239 i;
#X floatatom 95 -219 5 0 0 0 - - -;
#X obj 95 -181 / 2;
#X obj 122 -181 % 2;
#X obj 95 -162 i;
#X floatatom 94 -142 5 0 0 0 - - -;
#X obj 94 -104 / 2;
#X obj 121 -104 % 2;
#X obj 94 -85 i;
#X floatatom 95 -63 5 0 0 0 - - -;
#X obj 95 -42 % 2;
#X obj 96 -447 t f f;
#X obj 96 -363 t f f;
#X obj 95 -279 t f f;
#X obj 95 -201 t f f;
#X obj 95 -124 t f f;
#X obj 96 -534 t f f;
#X obj 146 -725 inlet;
#X obj 255 102 outlet;
#X obj 146 -655 t b f f;
#X obj 146 -700 moses 0;
#X obj 146 -677 moses 256;
#X obj 393 103 list;
#X obj 393 124 outlet;
#X obj 393 -715 inlet;
#X text 406 -693 bang to output last conversion;
#X obj 255 59 pack f f f f f f f f;
#X obj 255 32 f;
#X connect 0 0 3 0;
#X connect 1 0 45 1;
#X connect 2 0 34 0;
#X connect 3 0 2 0;
#X connect 4 0 5 0;
#X connect 5 0 7 0;
#X connect 6 0 44 1;
#X connect 7 0 29 0;
#X connect 8 0 10 0;
#X connect 9 0 44 2;
#X connect 10 0 11 0;
#X connect 11 0 30 0;
#X connect 12 0 14 0;
#X connect 13 0 44 3;
#X connect 14 0 15 0;
#X connect 15 0 31 0;
#X connect 16 0 18 0;
#X connect 17 0 44 4;
#X connect 18 0 19 0;
#X connect 19 0 32 0;
#X connect 20 0 22 0;
#X connect 21 0 44 5;
#X connect 22 0 23 0;
#X connect 23 0 33 0;
#X connect 24 0 26 0;
#X connect 25 0 44 6;
#X connect 26 0 27 0;
#X connect 27 0 28 0;
#X connect 28 0 44 7;
#X connect 29 0 8 0;
#X connect 29 1 9 0;
#X connect 30 0 12 0;
#X connect 30 1 13 0;
#X connect 31 0 16 0;
#X connect 31 1 17 0;
#X connect 32 0 20 0;
#X connect 32 1 21 0;
#X connect 33 0 24 0;
#X connect 33 1 25 0;
#X connect 34 0 4 0;
#X connect 34 1 6 0;
#X connect 35 0 38 0;
#X connect 37 0 45 0;
#X connect 37 1 0 0;
#X connect 37 2 1 0;
#X connect 38 1 39 0;
#X connect 39 0 37 0;
#X connect 40 0 41 0;
#X connect 42 0 40 0;
#X connect 44 0 40 1;
#X connect 44 0 36 0;
#X connect 45 0 44 0;
#X restore 507 395 pd bytestobitsR;
#X obj 604 366 unpack f f;
#X obj 692 304 t b b l;
#X obj 745 426 list;
#N canvas 0 23 450 300 bytestobitsR 0;
#X obj 96 -594 / 2;
#X obj 127 -594 % 2;
#X floatatom 96 -554 5 0 0 0 - - -;
#X obj 96 -574 i;
#X obj 96 -510 / 2;
#X obj 96 -489 i;
#X obj 129 -512 % 2;
#X floatatom 96 -470 5 0 0 0 - - -;
#X obj 97 -423 / 2;
#X obj 124 -423 % 2;
#X obj 97 -403 i;
#X floatatom 96 -383 5 0 0 0 - - -;
#X obj 96 -342 / 2;
#X obj 123 -342 % 2;
#X obj 96 -320 i;
#X floatatom 95 -298 5 0 0 0 - - -;
#X obj 95 -259 / 2;
#X obj 122 -259 % 2;
#X obj 95 -239 i;
#X floatatom 95 -219 5 0 0 0 - - -;
#X obj 95 -181 / 2;
#X obj 122 -181 % 2;
#X obj 95 -162 i;
#X floatatom 94 -142 5 0 0 0 - - -;
#X obj 94 -104 / 2;
#X obj 121 -104 % 2;
#X obj 94 -85 i;
#X floatatom 95 -63 5 0 0 0 - - -;
#X obj 95 -42 % 2;
#X obj 96 -447 t f f;
#X obj 96 -363 t f f;
#X obj 95 -279 t f f;
#X obj 95 -201 t f f;
#X obj 95 -124 t f f;
#X obj 96 -534 t f f;
#X obj 146 -725 inlet;
#X obj 255 102 outlet;
#X obj 146 -655 t b f f;
#X obj 146 -700 moses 0;
#X obj 146 -677 moses 256;
#X obj 393 103 list;
#X obj 393 124 outlet;
#X obj 393 -715 inlet;
#X text 406 -693 bang to output last conversion;
#X obj 255 59 pack f f f f f f f f;
#X obj 255 32 f;
#X connect 0 0 3 0;
#X connect 1 0 45 1;
#X connect 2 0 34 0;
#X connect 3 0 2 0;
#X connect 4 0 5 0;
#X connect 5 0 7 0;
#X connect 6 0 44 1;
#X connect 7 0 29 0;
#X connect 8 0 10 0;
#X connect 9 0 44 2;
#X connect 10 0 11 0;
#X connect 11 0 30 0;
#X connect 12 0 14 0;
#X connect 13 0 44 3;
#X connect 14 0 15 0;
#X connect 15 0 31 0;
#X connect 16 0 18 0;
#X connect 17 0 44 4;
#X connect 18 0 19 0;
#X connect 19 0 32 0;
#X connect 20 0 22 0;
#X connect 21 0 44 5;
#X connect 22 0 23 0;
#X connect 23 0 33 0;
#X connect 24 0 26 0;
#X connect 25 0 44 6;
#X connect 26 0 27 0;
#X connect 27 0 28 0;
#X connect 28 0 44 7;
#X connect 29 0 8 0;
#X connect 29 1 9 0;
#X connect 30 0 12 0;
#X connect 30 1 13 0;
#X connect 31 0 16 0;
#X connect 31 1 17 0;
#X connect 32 0 20 0;
#X connect 32 1 21 0;
#X connect 33 0 24 0;
#X connect 33 1 25 0;
#X connect 34 0 4 0;
#X connect 34 1 6 0;
#X connect 35 0 38 0;
#X connect 37 0 45 0;
#X connect 37 1 0 0;
#X connect 37 2 1 0;
#X connect 38 1 39 0;
#X connect 39 0 37 0;
#X connect 40 0 41 0;
#X connect 42 0 40 0;
#X connect 44 0 40 1;
#X connect 44 0 36 0;
#X connect 45 0 44 0;
#X restore 605 395 pd bytestobitsR;
#N canvas 0 23 450 300 bytestobitsR 0;
#X obj 96 -594 / 2;
#X obj 127 -594 % 2;
#X floatatom 96 -554 5 0 0 0 - - -;
#X obj 96 -574 i;
#X obj 96 -510 / 2;
#X obj 96 -489 i;
#X obj 129 -512 % 2;
#X floatatom 96 -470 5 0 0 0 - - -;
#X obj 97 -423 / 2;
#X obj 124 -423 % 2;
#X obj 97 -403 i;
#X floatatom 96 -383 5 0 0 0 - - -;
#X obj 96 -342 / 2;
#X obj 123 -342 % 2;
#X obj 96 -320 i;
#X floatatom 95 -298 5 0 0 0 - - -;
#X obj 95 -259 / 2;
#X obj 122 -259 % 2;
#X obj 95 -239 i;
#X floatatom 95 -219 5 0 0 0 - - -;
#X obj 95 -181 / 2;
#X obj 122 -181 % 2;
#X obj 95 -162 i;
#X floatatom 94 -142 5 0 0 0 - - -;
#X obj 94 -104 / 2;
#X obj 121 -104 % 2;
#X obj 94 -85 i;
#X floatatom 95 -63 5 0 0 0 - - -;
#X obj 95 -42 % 2;
#X obj 96 -447 t f f;
#X obj 96 -363 t f f;
#X obj 95 -279 t f f;
#X obj 95 -201 t f f;
#X obj 95 -124 t f f;
#X obj 96 -534 t f f;
#X obj 146 -725 inlet;
#X obj 255 102 outlet;
#X obj 146 -655 t b f f;
#X obj 146 -700 moses 0;
#X obj 146 -677 moses 256;
#X obj 393 103 list;
#X obj 393 124 outlet;
#X obj 393 -715 inlet;
#X text 406 -693 bang to output last conversion;
#X obj 255 59 pack f f f f f f f f;
#X obj 255 32 f;
#X connect 0 0 3 0;
#X connect 1 0 45 1;
#X connect 2 0 34 0;
#X connect 3 0 2 0;
#X connect 4 0 5 0;
#X connect 5 0 7 0;
#X connect 6 0 44 1;
#X connect 7 0 29 0;
#X connect 8 0 10 0;
#X connect 9 0 44 2;
#X connect 10 0 11 0;
#X connect 11 0 30 0;
#X connect 12 0 14 0;
#X connect 13 0 44 3;
#X connect 14 0 15 0;
#X connect 15 0 31 0;
#X connect 16 0 18 0;
#X connect 17 0 44 4;
#X connect 18 0 19 0;
#X connect 19 0 32 0;
#X connect 20 0 22 0;
#X connect 21 0 44 5;
#X connect 22 0 23 0;
#X connect 23 0 33 0;
#X connect 24 0 26 0;
#X connect 25 0 44 6;
#X connect 26 0 27 0;
#X connect 27 0 28 0;
#X connect 28 0 44 7;
#X connect 29 0 8 0;
#X connect 29 1 9 0;
#X connect 30 0 12 0;
#X connect 30 1 13 0;
#X connect 31 0 16 0;
#X connect 31 1 17 0;
#X connect 32 0 20 0;
#X connect 32 1 21 0;
#X connect 33 0 24 0;
#X connect 33 1 25 0;
#X connect 34 0 4 0;
#X connect 34 1 6 0;
#X connect 35 0 38 0;
#X connect 37 0 45 0;
#X connect 37 1 0 0;
#X connect 37 2 1 0;
#X connect 38 1 39 0;
#X connect 39 0 37 0;
#X connect 40 0 41 0;
#X connect 42 0 40 0;
#X connect 44 0 40 1;
#X connect 44 0 36 0;
#X connect 45 0 44 0;
#X restore 703 395 pd bytestobitsR;
#X obj 800 366 unpack f f;
#X obj 888 304 t b b l;
#X obj 941 426 list;
#N canvas 0 23 450 300 bytestobitsR 0;
#X obj 96 -594 / 2;
#X obj 127 -594 % 2;
#X floatatom 96 -554 5 0 0 0 - - -;
#X obj 96 -574 i;
#X obj 96 -510 / 2;
#X obj 96 -489 i;
#X obj 129 -512 % 2;
#X floatatom 96 -470 5 0 0 0 - - -;
#X obj 97 -423 / 2;
#X obj 124 -423 % 2;
#X obj 97 -403 i;
#X floatatom 96 -383 5 0 0 0 - - -;
#X obj 96 -342 / 2;
#X obj 123 -342 % 2;
#X obj 96 -320 i;
#X floatatom 95 -298 5 0 0 0 - - -;
#X obj 95 -259 / 2;
#X obj 122 -259 % 2;
#X obj 95 -239 i;
#X floatatom 95 -219 5 0 0 0 - - -;
#X obj 95 -181 / 2;
#X obj 122 -181 % 2;
#X obj 95 -162 i;
#X floatatom 94 -142 5 0 0 0 - - -;
#X obj 94 -104 / 2;
#X obj 121 -104 % 2;
#X obj 94 -85 i;
#X floatatom 95 -63 5 0 0 0 - - -;
#X obj 95 -42 % 2;
#X obj 96 -447 t f f;
#X obj 96 -363 t f f;
#X obj 95 -279 t f f;
#X obj 95 -201 t f f;
#X obj 95 -124 t f f;
#X obj 96 -534 t f f;
#X obj 146 -725 inlet;
#X obj 255 102 outlet;
#X obj 146 -655 t b f f;
#X obj 146 -700 moses 0;
#X obj 146 -677 moses 256;
#X obj 393 103 list;
#X obj 393 124 outlet;
#X obj 393 -715 inlet;
#X text 406 -693 bang to output last conversion;
#X obj 255 59 pack f f f f f f f f;
#X obj 255 32 f;
#X connect 0 0 3 0;
#X connect 1 0 45 1;
#X connect 2 0 34 0;
#X connect 3 0 2 0;
#X connect 4 0 5 0;
#X connect 5 0 7 0;
#X connect 6 0 44 1;
#X connect 7 0 29 0;
#X connect 8 0 10 0;
#X connect 9 0 44 2;
#X connect 10 0 11 0;
#X connect 11 0 30 0;
#X connect 12 0 14 0;
#X connect 13 0 44 3;
#X connect 14 0 15 0;
#X connect 15 0 31 0;
#X connect 16 0 18 0;
#X connect 17 0 44 4;
#X connect 18 0 19 0;
#X connect 19 0 32 0;
#X connect 20 0 22 0;
#X connect 21 0 44 5;
#X connect 22 0 23 0;
#X connect 23 0 33 0;
#X connect 24 0 26 0;
#X connect 25 0 44 6;
#X connect 26 0 27 0;
#X connect 27 0 28 0;
#X connect 28 0 44 7;
#X connect 29 0 8 0;
#X connect 29 1 9 0;
#X connect 30 0 12 0;
#X connect 30 1 13 0;
#X connect 31 0 16 0;
#X connect 31 1 17 0;
#X connect 32 0 20 0;
#X connect 32 1 21 0;
#X connect 33 0 24 0;
#X connect 33 1 25 0;
#X connect 34 0 4 0;
#X connect 34 1 6 0;
#X connect 35 0 38 0;
#X connect 37 0 45 0;
#X connect 37 1 0 0;
#X connect 37 2 1 0;
#X connect 38 1 39 0;
#X connect 39 0 37 0;
#X connect 40 0 41 0;
#X connect 42 0 40 0;
#X connect 44 0 40 1;
#X connect 44 0 36 0;
#X connect 45 0 44 0;
#X restore 801 395 pd bytestobitsR;
#N canvas 0 23 450 300 bytestobitsR 0;
#X obj 96 -594 / 2;
#X obj 127 -594 % 2;
#X floatatom 96 -554 5 0 0 0 - - -;
#X obj 96 -574 i;
#X obj 96 -510 / 2;
#X obj 96 -489 i;
#X obj 129 -512 % 2;
#X floatatom 96 -470 5 0 0 0 - - -;
#X obj 97 -423 / 2;
#X obj 124 -423 % 2;
#X obj 97 -403 i;
#X floatatom 96 -383 5 0 0 0 - - -;
#X obj 96 -342 / 2;
#X obj 123 -342 % 2;
#X obj 96 -320 i;
#X floatatom 95 -298 5 0 0 0 - - -;
#X obj 95 -259 / 2;
#X obj 122 -259 % 2;
#X obj 95 -239 i;
#X floatatom 95 -219 5 0 0 0 - - -;
#X obj 95 -181 / 2;
#X obj 122 -181 % 2;
#X obj 95 -162 i;
#X floatatom 94 -142 5 0 0 0 - - -;
#X obj 94 -104 / 2;
#X obj 121 -104 % 2;
#X obj 94 -85 i;
#X floatatom 95 -63 5 0 0 0 - - -;
#X obj 95 -42 % 2;
#X obj 96 -447 t f f;
#X obj 96 -363 t f f;
#X obj 95 -279 t f f;
#X obj 95 -201 t f f;
#X obj 95 -124 t f f;
#X obj 96 -534 t f f;
#X obj 146 -725 inlet;
#X obj 255 102 outlet;
#X obj 146 -655 t b f f;
#X obj 146 -700 moses 0;
#X obj 146 -677 moses 256;
#X obj 393 103 list;
#X obj 393 124 outlet;
#X obj 393 -715 inlet;
#X text 406 -693 bang to output last conversion;
#X obj 255 59 pack f f f f f f f f;
#X obj 255 32 f;
#X connect 0 0 3 0;
#X connect 1 0 45 1;
#X connect 2 0 34 0;
#X connect 3 0 2 0;
#X connect 4 0 5 0;
#X connect 5 0 7 0;
#X connect 6 0 44 1;
#X connect 7 0 29 0;
#X connect 8 0 10 0;
#X connect 9 0 44 2;
#X connect 10 0 11 0;
#X connect 11 0 30 0;
#X connect 12 0 14 0;
#X connect 13 0 44 3;
#X connect 14 0 15 0;
#X connect 15 0 31 0;
#X connect 16 0 18 0;
#X connect 17 0 44 4;
#X connect 18 0 19 0;
#X connect 19 0 32 0;
#X connect 20 0 22 0;
#X connect 21 0 44 5;
#X connect 22 0 23 0;
#X connect 23 0 33 0;
#X connect 24 0 26 0;
#X connect 25 0 44 6;
#X connect 26 0 27 0;
#X connect 27 0 28 0;
#X connect 28 0 44 7;
#X connect 29 0 8 0;
#X connect 29 1 9 0;
#X connect 30 0 12 0;
#X connect 30 1 13 0;
#X connect 31 0 16 0;
#X connect 31 1 17 0;
#X connect 32 0 20 0;
#X connect 32 1 21 0;
#X connect 33 0 24 0;
#X connect 33 1 25 0;
#X connect 34 0 4 0;
#X connect 34 1 6 0;
#X connect 35 0 38 0;
#X connect 37 0 45 0;
#X connect 37 1 0 0;
#X connect 37 2 1 0;
#X connect 38 1 39 0;
#X connect 39 0 37 0;
#X connect 40 0 41 0;
#X connect 42 0 40 0;
#X connect 44 0 40 1;
#X connect 44 0 36 0;
#X connect 45 0 44 0;
#X restore 899 395 pd bytestobitsR;
#X obj 139 260 >= 1;
#X obj 386 100 s gates;
#X obj 139 240 r gates;
#X obj 302 281 spigot;
#X obj 335 240 r gates;
#X obj 495 282 spigot;
#X obj 528 240 r gates;
#X obj 691 282 spigot;
#X obj 724 240 r gates;
#X obj 887 282 spigot;
#X obj 920 240 r gates;
#X obj 335 260 >= 2;
#X obj 528 260 >= 3;
#X obj 724 260 >= 4;
#X obj 920 260 >= 5;
#X obj 362 120 unpack f f f f f f f f f f;
#X obj 106 220 pack f f;
#X obj 106 198 f;
#X obj 131 198 t b f;
#X obj 303 220 pack f f;
#X obj 303 198 f;
#X obj 328 198 t b f;
#X obj 496 220 pack f f;
#X obj 496 198 f;
#X obj 521 198 t b f;
#X obj 693 220 pack f f;
#X obj 693 198 f;
#X obj 718 198 t b f;
#X obj 883 220 pack f f;
#X obj 883 198 f;
#X obj 908 198 t b f;
#X obj 334 64 t b l;
#X obj 304 469 array set Touch;
#X obj 402 469 array set Touch2;
#X obj 505 469 array set Touch3;
#X obj 608 469 array set Touch4;
#X obj 711 469 array set Touch5;
#X connect 0 0 7 0;
#X connect 0 0 62 0;
#X connect 1 0 4 0;
#X connect 1 1 5 0;
#X connect 2 0 4 1;
#X connect 2 1 5 1;
#X connect 2 2 1 0;
#X connect 3 0 63 0;
#X connect 4 1 3 0;
#X connect 5 1 3 1;
#X connect 6 0 2 0;
#X connect 7 0 9 0;
#X connect 9 0 8 0;
#X connect 9 0 32 0;
#X connect 11 0 14 0;
#X connect 11 1 15 0;
#X connect 12 0 14 1;
#X connect 12 1 15 1;
#X connect 12 2 11 0;
#X connect 13 0 64 0;
#X connect 14 1 13 0;
#X connect 15 1 13 1;
#X connect 16 0 19 0;
#X connect 16 1 20 0;
#X connect 17 0 19 1;
#X connect 17 1 20 1;
#X connect 17 2 16 0;
#X connect 18 0 65 0;
#X connect 19 1 18 0;
#X connect 20 1 18 1;
#X connect 21 0 24 0;
#X connect 21 1 25 0;
#X connect 22 0 24 1;
#X connect 22 1 25 1;
#X connect 22 2 21 0;
#X connect 23 0 66 0;
#X connect 24 1 23 0;
#X connect 25 1 23 1;
#X connect 26 0 29 0;
#X connect 26 1 30 0;
#X connect 27 0 29 1;
#X connect 27 1 30 1;
#X connect 27 2 26 0;
#X connect 28 0 67 0;
#X connect 29 1 28 0;
#X connect 30 1 28 1;
#X connect 31 0 6 1;
#X connect 33 0 31 0;
#X connect 34 0 12 0;
#X connect 35 0 42 0;
#X connect 36 0 17 0;
#X connect 37 0 43 0;
#X connect 38 0 22 0;
#X connect 39 0 44 0;
#X connect 40 0 27 0;
#X connect 41 0 45 0;
#X connect 42 0 34 1;
#X connect 43 0 36 1;
#X connect 44 0 38 1;
#X connect 45 0 40 1;
#X connect 46 0 48 1;
#X connect 46 1 49 0;
#X connect 46 2 51 1;
#X connect 46 3 52 0;
#X connect 46 4 54 1;
#X connect 46 5 55 0;
#X connect 46 6 57 1;
#X connect 46 7 58 0;
#X connect 46 8 60 1;
#X connect 46 9 61 0;
#X connect 47 0 6 0;
#X connect 48 0 47 0;
#X connect 49 0 48 0;
#X connect 49 1 47 1;
#X connect 50 0 34 0;
#X connect 51 0 50 0;
#X connect 52 0 51 0;
#X connect 52 1 50 1;
#X connect 53 0 36 0;
#X connect 54 0 53 0;
#X connect 55 0 54 0;
#X connect 55 1 53 1;
#X connect 56 0 38 0;
#X connect 57 0 56 0;
#X connect 58 0 57 0;
#X connect 58 1 56 1;
#X connect 60 0 59 0;
#X connect 61 0 60 0;
#X connect 61 1 59 1;
#X connect 62 1 46 0;
#X restore 115 435 pd cook_touch_sopranino;
#X text 405 168 port to receive messages;
#X msg 257 243 listen \$1;
#X floatatom 366 169 6 0 0 0 - - -;
#X obj 131 15 loadbang;
#X obj 268 435 unpack f f f;
#X obj 348 435 unpack f f f;
#X obj 429 435 unpack f f f;
#X obj 187 299 s rawtimer;
#X obj 366 198 tgl 20 0 empty touch touch_mask 25 10 0 10 -262144 -1
-1 0 1;
#N canvas 406 140 807 693 masks 0;
#X obj 179 227 cnv 15 291 22 empty empty empty 20 12 0 14 -191407 -66577
0;
#X obj 280 12 inlet;
#X obj 280 33 sel 1 0;
#X msg 313 85 255 255;
#X obj 256 116 unpack f f;
#X obj 316 649 outlet;
#X obj 290 231 tgl 15 0 empty empty empty 17 7 0 10 -262144 -1 -1 1
1;
#X obj 218 231 tgl 15 0 empty empty empty 17 7 0 10 -262144 -1 -1 1
1;
#X obj 452 231 tgl 15 0 empty empty empty 17 7 0 10 -262144 -1 -1 1
1;
#X obj 362 231 tgl 15 0 empty empty empty 17 7 0 10 -262144 -1 -1 1
1;
#X obj 254 231 tgl 15 0 empty empty empty 17 7 0 10 -262144 -1 -1 1
1;
#X obj 272 231 tgl 15 0 empty empty empty 17 7 0 10 -262144 -1 -1 1
1;
#X obj 416 231 tgl 15 0 empty empty empty 17 7 0 10 -262144 -1 -1 1
1;
#X obj 434 231 tgl 15 0 empty empty empty 17 7 0 10 -262144 -1 -1 1
1;
#X obj 200 231 tgl 15 0 empty empty empty 17 7 0 10 -262144 -1 -1 1
1;
#X obj 308 231 tgl 15 0 empty empty empty 17 7 0 10 -262144 -1 -1 1
1;
#X obj 326 231 tgl 15 0 empty empty empty 17 7 0 10 -262144 -1 -1 1
1;
#X obj 398 231 tgl 15 0 empty empty empty 17 7 0 10 -262144 -1 -1 1
1;
#X obj 236 231 tgl 15 0 empty empty empty 17 7 0 10 -262144 -1 -1 1
1;
#X obj 182 231 tgl 15 0 empty empty empty 17 7 0 10 -262144 -1 -1 1
1;
#X obj 380 231 tgl 15 0 empty empty empty 17 7 0 10 -262144 -1 -1 1
1;
#X obj 344 231 tgl 15 0 empty empty empty 17 7 0 10 -262144 -1 -1 1
1;
#N canvas 1423 301 708 912 bytetobits 0;
#X obj 98 187 / 2;
#X obj 129 187 % 2;
#X floatatom 98 227 5 0 0 0 - - -;
#X obj 98 207 i;
#X obj 98 271 / 2;
#X obj 98 292 i;
#X obj 131 269 % 2;
#X floatatom 98 311 5 0 0 0 - - -;
#X obj 99 358 / 2;
#X obj 126 358 % 2;
#X obj 99 378 i;
#X floatatom 98 398 5 0 0 0 - - -;
#X obj 98 439 / 2;
#X obj 125 439 % 2;
#X obj 98 461 i;
#X floatatom 97 483 5 0 0 0 - - -;
#X obj 97 522 / 2;
#X obj 124 522 % 2;
#X obj 97 542 i;
#X floatatom 97 562 5 0 0 0 - - -;
#X obj 97 600 / 2;
#X obj 124 600 % 2;
#X obj 97 619 i;
#X floatatom 96 639 5 0 0 0 - - -;
#X obj 96 677 / 2;
#X obj 123 677 % 2;
#X obj 96 696 i;
#X floatatom 97 718 5 0 0 0 - - -;
#X obj 97 739 % 2;
#X obj 98 334 t f f;
#X obj 98 418 t f f;
#X obj 97 502 t f f;
#X obj 97 580 t f f;
#X obj 97 657 t f f;
#X obj 98 247 t f f;
#X obj 148 56 inlet;
#X obj 257 796 pack f f f f f f f f;
#X obj 257 773 f;
#X obj 257 842 outlet;
#X obj 148 126 t b f f;
#X obj 148 81 moses 0;
#X obj 148 104 moses 256;
#X obj 395 843 list;
#X obj 395 864 outlet;
#X obj 395 66 inlet;
#X text 408 88 bang to output last conversion;
#X connect 0 0 3 0;
#X connect 1 0 36 7;
#X connect 2 0 34 0;
#X connect 3 0 2 0;
#X connect 4 0 5 0;
#X connect 5 0 7 0;
#X connect 6 0 36 6;
#X connect 7 0 29 0;
#X connect 8 0 10 0;
#X connect 9 0 36 5;
#X connect 10 0 11 0;
#X connect 11 0 30 0;
#X connect 12 0 14 0;
#X connect 13 0 36 4;
#X connect 14 0 15 0;
#X connect 15 0 31 0;
#X connect 16 0 18 0;
#X connect 17 0 36 3;
#X connect 18 0 19 0;
#X connect 19 0 32 0;
#X connect 20 0 22 0;
#X connect 21 0 36 2;
#X connect 22 0 23 0;
#X connect 23 0 33 0;
#X connect 24 0 26 0;
#X connect 25 0 36 1;
#X connect 26 0 27 0;
#X connect 27 0 28 0;
#X connect 28 0 37 1;
#X connect 29 0 8 0;
#X connect 29 1 9 0;
#X connect 30 0 12 0;
#X connect 30 1 13 0;
#X connect 31 0 16 0;
#X connect 31 1 17 0;
#X connect 32 0 20 0;
#X connect 32 1 21 0;
#X connect 33 0 24 0;
#X connect 33 1 25 0;
#X connect 34 0 4 0;
#X connect 34 1 6 0;
#X connect 35 0 40 0;
#X connect 36 0 38 0;
#X connect 36 0 42 1;
#X connect 37 0 36 0;
#X connect 39 0 37 0;
#X connect 39 1 0 0;
#X connect 39 2 1 0;
#X connect 40 1 41 0;
#X connect 41 0 39 0;
#X connect 42 0 43 0;
#X connect 44 0 42 0;
#X restore 222 149 pd bytetobits;
#N canvas 1423 301 708 912 bytetobits 0;
#X obj 98 187 / 2;
#X obj 129 187 % 2;
#X floatatom 98 227 5 0 0 0 - - -;
#X obj 98 207 i;
#X obj 98 271 / 2;
#X obj 98 292 i;
#X obj 131 269 % 2;
#X floatatom 98 311 5 0 0 0 - - -;
#X obj 99 358 / 2;
#X obj 126 358 % 2;
#X obj 99 378 i;
#X floatatom 98 398 5 0 0 0 - - -;
#X obj 98 439 / 2;
#X obj 125 439 % 2;
#X obj 98 461 i;
#X floatatom 97 483 5 0 0 0 - - -;
#X obj 97 522 / 2;
#X obj 124 522 % 2;
#X obj 97 542 i;
#X floatatom 97 562 5 0 0 0 - - -;
#X obj 97 600 / 2;
#X obj 124 600 % 2;
#X obj 97 619 i;
#X floatatom 96 639 5 0 0 0 - - -;
#X obj 96 677 / 2;
#X obj 123 677 % 2;
#X obj 96 696 i;
#X floatatom 97 718 5 0 0 0 - - -;
#X obj 97 739 % 2;
#X obj 98 334 t f f;
#X obj 98 418 t f f;
#X obj 97 502 t f f;
#X obj 97 580 t f f;
#X obj 97 657 t f f;
#X obj 98 247 t f f;
#X obj 148 56 inlet;
#X obj 257 796 pack f f f f f f f f;
#X obj 257 773 f;
#X obj 257 842 outlet;
#X obj 148 126 t b f f;
#X obj 148 81 moses 0;
#X obj 148 104 moses 256;
#X obj 395 843 list;
#X obj 395 864 outlet;
#X obj 395 66 inlet;
#X text 408 88 bang to output last conversion;
#X connect 0 0 3 0;
#X connect 1 0 36 7;
#X connect 2 0 34 0;
#X connect 3 0 2 0;
#X connect 4 0 5 0;
#X connect 5 0 7 0;
#X connect 6 0 36 6;
#X connect 7 0 29 0;
#X connect 8 0 10 0;
#X connect 9 0 36 5;
#X connect 10 0 11 0;
#X connect 11 0 30 0;
#X connect 12 0 14 0;
#X connect 13 0 36 4;
#X connect 14 0 15 0;
#X connect 15 0 31 0;
#X connect 16 0 18 0;
#X connect 17 0 36 3;
#X connect 18 0 19 0;
#X connect 19 0 32 0;
#X connect 20 0 22 0;
#X connect 21 0 36 2;
#X connect 22 0 23 0;
#X connect 23 0 33 0;
#X connect 24 0 26 0;
#X connect 25 0 36 1;
#X connect 26 0 27 0;
#X connect 27 0 28 0;
#X connect 28 0 37 1;
#X connect 29 0 8 0;
#X connect 29 1 9 0;
#X connect 30 0 12 0;
#X connect 30 1 13 0;
#X connect 31 0 16 0;
#X connect 31 1 17 0;
#X connect 32 0 20 0;
#X connect 32 1 21 0;
#X connect 33 0 24 0;
#X connect 33 1 25 0;
#X connect 34 0 4 0;
#X connect 34 1 6 0;
#X connect 35 0 40 0;
#X connect 36 0 38 0;
#X connect 36 0 42 1;
#X connect 37 0 36 0;
#X connect 39 0 37 0;
#X connect 39 1 0 0;
#X connect 39 2 1 0;
#X connect 40 1 41 0;
#X connect 41 0 39 0;
#X connect 42 0 43 0;
#X connect 44 0 42 0;
#X restore 313 149 pd bytetobits;
#X obj 186 186 unpack f f f f f f f f;
#X obj 326 186 unpack f f f f f f f f;
#N canvas 519 124 692 867 bitstobyte 0;
#X floatatom 184 76 5 0 0 0 - - -;
#X floatatom 185 166 5 0 0 0 - - -;
#X obj 135 113 * 2;
#X floatatom 187 250 5 0 0 0 - - -;
#X obj 137 197 * 2;
#X floatatom 189 331 5 0 0 0 - - -;
#X obj 139 278 * 2;
#X floatatom 197 413 5 0 0 0 - - -;
#X obj 142 359 * 2;
#X floatatom 189 486 5 0 0 0 - - -;
#X obj 139 433 * 2;
#X floatatom 187 565 5 0 0 0 - - -;
#X obj 137 512 * 2;
#X floatatom 183 644 5 0 0 0 - - -;
#X obj 133 591 * 2;
#X obj 135 140 pow 1;
#X obj 137 224 pow 2;
#X obj 139 305 pow 3;
#X obj 142 386 pow 4;
#X obj 139 460 pow 5;
#X obj 137 539 pow 6;
#X obj 133 618 pow 7;
#X obj 224 209 +;
#X obj 223 285 +;
#X obj 223 355 +;
#X obj 235 439 +;
#X obj 229 507 +;
#X obj 225 588 +;
#X obj 230 662 +;
#X obj 20 21 inlet;
#X obj 229 693 outlet;
#X obj 20 52 unpack f f f f f f f f;
#X connect 0 0 22 1;
#X connect 1 0 22 0;
#X connect 2 0 15 0;
#X connect 3 0 23 0;
#X connect 4 0 16 0;
#X connect 5 0 24 0;
#X connect 6 0 17 0;
#X connect 7 0 25 0;
#X connect 8 0 18 0;
#X connect 9 0 26 0;
#X connect 10 0 19 0;
#X connect 11 0 27 0;
#X connect 12 0 20 0;
#X connect 13 0 28 0;
#X connect 14 0 21 0;
#X connect 15 0 1 0;
#X connect 16 0 3 0;
#X connect 17 0 5 0;
#X connect 18 0 7 0;
#X connect 19 0 9 0;
#X connect 20 0 11 0;
#X connect 21 0 13 0;
#X connect 22 0 23 1;
#X connect 23 0 24 1;
#X connect 24 0 25 1;
#X connect 25 0 26 1;
#X connect 26 0 27 1;
#X connect 27 0 28 1;
#X connect 28 0 30 0;
#X connect 29 0 31 0;
#X connect 31 0 14 0;
#X connect 31 1 12 0;
#X connect 31 2 10 0;
#X connect 31 3 8 0;
#X connect 31 4 6 0;
#X connect 31 5 4 0;
#X connect 31 6 2 0;
#X connect 31 7 0 0;
#X restore 334 546 pd bitstobyte;
#X obj 334 520 pack f f f f f f f f, f 45;
#X obj 430 474 t b f;
#X obj 394 474 t b f;
#X obj 358 474 t b f;
#X obj 574 474 t b f;
#X obj 538 474 t b f;
#X obj 502 474 t b f;
#X obj 466 474 t b f;
#N canvas 494 74 692 867 bitstobyte 0;
#X floatatom 184 76 5 0 0 0 - - -;
#X floatatom 185 166 5 0 0 0 - - -;
#X obj 135 113 * 2;
#X floatatom 187 250 5 0 0 0 - - -;
#X obj 137 197 * 2;
#X floatatom 189 331 5 0 0 0 - - -;
#X obj 139 278 * 2;
#X floatatom 197 413 5 0 0 0 - - -;
#X obj 142 359 * 2;
#X floatatom 189 486 5 0 0 0 - - -;
#X obj 139 433 * 2;
#X floatatom 187 565 5 0 0 0 - - -;
#X obj 137 512 * 2;
#X floatatom 183 644 5 0 0 0 - - -;
#X obj 133 591 * 2;
#X obj 135 140 pow 1;
#X obj 137 224 pow 2;
#X obj 139 305 pow 3;
#X obj 142 386 pow 4;
#X obj 139 460 pow 5;
#X obj 137 539 pow 6;
#X obj 133 618 pow 7;
#X obj 224 209 +;
#X obj 223 285 +;
#X obj 223 355 +;
#X obj 235 439 +;
#X obj 229 507 +;
#X obj 225 588 +;
#X obj 230 662 +;
#X obj 20 21 inlet;
#X obj 229 693 outlet;
#X obj 20 52 unpack f f f f f f f f;
#X connect 0 0 22 1;
#X connect 1 0 22 0;
#X connect 2 0 15 0;
#X connect 3 0 23 0;
#X connect 4 0 16 0;
#X connect 5 0 24 0;
#X connect 6 0 17 0;
#X connect 7 0 25 0;
#X connect 8 0 18 0;
#X connect 9 0 26 0;
#X connect 10 0 19 0;
#X connect 11 0 27 0;
#X connect 12 0 20 0;
#X connect 13 0 28 0;
#X connect 14 0 21 0;
#X connect 15 0 1 0;
#X connect 16 0 3 0;
#X connect 17 0 5 0;
#X connect 18 0 7 0;
#X connect 19 0 9 0;
#X connect 20 0 11 0;
#X connect 21 0 13 0;
#X connect 22 0 23 1;
#X connect 23 0 24 1;
#X connect 24 0 25 1;
#X connect 25 0 26 1;
#X connect 26 0 27 1;
#X connect 27 0 28 1;
#X connect 28 0 30 0;
#X connect 29 0 31 0;
#X connect 31 0 14 0;
#X connect 31 1 12 0;
#X connect 31 2 10 0;
#X connect 31 3 8 0;
#X connect 31 4 6 0;
#X connect 31 5 4 0;
#X connect 31 6 2 0;
#X connect 31 7 0 0;
#X restore 57 546 pd bitstobyte;
#X obj 57 520 pack f f f f f f f f, f 45;
#X obj 153 474 t b f;
#X obj 117 474 t b f;
#X obj 81 474 t b f;
#X obj 297 474 t b f;
#X obj 261 474 t b f;
#X obj 225 474 t b f;
#X obj 189 474 t b f;
#X obj 316 605 pack f f;
#X obj 77 334 i;
#X obj 103 334 i;
#X obj 77 417 i;
#X obj 103 417 i;
#X obj 128 334 i;
#X obj 154 334 i;
#X obj 128 417 i;
#X obj 154 417 i;
#X obj 180 334 i;
#X obj 206 334 i;
#X obj 180 417 i;
#X obj 206 417 i;
#X obj 231 334 i;
#X obj 257 334 i;
#X obj 231 417 i;
#X obj 257 417 i;
#X obj 357 334 i;
#X obj 383 334 i;
#X obj 357 417 i;
#X obj 383 417 i;
#X obj 408 334 i;
#X obj 434 334 i;
#X obj 408 417 i;
#X obj 434 417 i;
#X obj 460 334 i;
#X obj 486 334 i;
#X obj 460 417 i;
#X obj 486 417 i;
#X obj 511 334 i;
#X obj 537 334 i;
#X obj 511 417 i;
#X obj 537 417 i;
#X text 550 367 patchcords flipped due to position;
#X text 551 382 of capsense inside of Sopranino;
#X obj 334 579 t b f;
#X obj 130 97 r touchdata1;
#X obj 387 96 r touchdata2;
#X msg 256 85 0 0;
#N canvas 573 238 283 254 debounce 0;
#X obj 129 31 inlet;
#X obj 136 131 outlet;
#X obj 91 74 delay 200;
#X obj 136 101 list;
#X obj 129 52 t b l;
#X connect 0 0 4 0;
#X connect 2 0 3 0;
#X connect 3 0 1 0;
#X connect 4 0 2 0;
#X connect 4 1 3 1;
#X restore 316 626 pd debounce;
#X connect 1 0 2 0;
#X connect 2 0 82 0;
#X connect 2 1 3 0;
#X connect 3 0 4 0;
#X connect 4 0 22 0;
#X connect 4 1 23 0;
#X connect 6 0 58 0;
#X connect 7 0 57 0;
#X connect 8 0 74 0;
#X connect 9 0 73 0;
#X connect 10 0 54 0;
#X connect 11 0 53 0;
#X connect 12 0 70 0;
#X connect 13 0 69 0;
#X connect 14 0 50 0;
#X connect 15 0 49 0;
#X connect 16 0 66 0;
#X connect 17 0 65 0;
#X connect 18 0 46 0;
#X connect 19 0 45 0;
#X connect 20 0 62 0;
#X connect 21 0 61 0;
#X connect 22 0 24 0;
#X connect 23 0 25 0;
#X connect 24 0 19 0;
#X connect 24 1 18 0;
#X connect 24 2 15 0;
#X connect 24 3 14 0;
#X connect 24 4 11 0;
#X connect 24 5 10 0;
#X connect 24 6 7 0;
#X connect 24 7 6 0;
#X connect 25 0 21 0;
#X connect 25 1 20 0;
#X connect 25 2 17 0;
#X connect 25 3 16 0;
#X connect 25 4 13 0;
#X connect 25 5 12 0;
#X connect 25 6 9 0;
#X connect 25 7 8 0;
#X connect 26 0 44 0;
#X connect 27 0 26 0;
#X connect 28 0 27 0;
#X connect 28 1 27 3;
#X connect 29 0 27 0;
#X connect 29 1 27 2;
#X connect 30 0 27 0;
#X connect 30 1 27 1;
#X connect 31 0 27 0;
#X connect 31 1 27 7;
#X connect 32 0 27 0;
#X connect 32 1 27 6;
#X connect 33 0 27 0;
#X connect 33 1 27 5;
#X connect 34 0 27 0;
#X connect 34 1 27 4;
#X connect 35 0 79 0;
#X connect 36 0 35 0;
#X connect 37 0 36 0;
#X connect 37 1 36 3;
#X connect 38 0 36 0;
#X connect 38 1 36 2;
#X connect 39 0 36 0;
#X connect 39 1 36 1;
#X connect 40 0 36 0;
#X connect 40 1 36 7;
#X connect 41 0 36 0;
#X connect 41 1 36 6;
#X connect 42 0 36 0;
#X connect 42 1 36 5;
#X connect 43 0 36 0;
#X connect 43 1 36 4;
#X connect 44 0 83 0;
#X connect 45 0 47 0;
#X connect 46 0 52 0;
#X connect 47 0 36 0;
#X connect 48 0 39 0;
#X connect 49 0 55 0;
#X connect 50 0 48 0;
#X connect 51 0 38 0;
#X connect 52 0 37 0;
#X connect 53 0 59 0;
#X connect 54 0 56 0;
#X connect 55 0 43 0;
#X connect 56 0 42 0;
#X connect 57 0 51 0;
#X connect 58 0 60 0;
#X connect 59 0 41 0;
#X connect 60 0 40 0;
#X connect 61 0 63 0;
#X connect 62 0 68 0;
#X connect 63 0 27 0;
#X connect 64 0 30 0;
#X connect 65 0 71 0;
#X connect 66 0 64 0;
#X connect 67 0 29 0;
#X connect 68 0 28 0;
#X connect 69 0 75 0;
#X connect 70 0 72 0;
#X connect 71 0 34 0;
#X connect 72 0 33 0;
#X connect 73 0 67 0;
#X connect 74 0 76 0;
#X connect 75 0 32 0;
#X connect 76 0 31 0;
#X connect 79 0 44 0;
#X connect 79 1 44 1;
#X connect 80 0 22 0;
#X connect 81 0 23 0;
#X connect 82 0 4 0;
#X connect 83 0 5 0;
#X coords 0 -1 1 1 295 26 2 177 225;
#X restore 366 221 pd masks;
#X msg 916 384 disconnect;
#X obj 916 407 netsend -u -b;
#X obj 1042 351 pack s f;
#X symbolatom 366 87 20 0 0 2 T-Stick_IP toip ip;
#X floatatom 496 87 5 0 0 2 port toport port;
#X obj 1072 331 i;
#X obj 1042 311 t b f;
#X floatatom 594 160 10 0 1 1 FSR_offset(between_0_and_1) fsr fsr-send
;
#X obj 595 52 bng 15 250 50 0 write empty Write 17 7 0 10 -262144 -1
-1;
#X obj 647 52 bng 15 250 50 0 read empty Read 17 7 0 10 -262144 -1
-1;
#X text 594 32 T-Stick memory;
#X obj 115 102 unpack s f;
#X obj 257 320 route list;
#X msg 69 88 8000;
#X obj 367 122 tgl 25 0 empty empty Receive_OSC_messages 30 14 0 14
-262144 -1 -1 1 1;
#X obj 314 147 sel 1;
#X msg 130 38 0;
#X obj 76 48 t 1 b b;
#X obj 3 88 delay 500;
#X obj 743 441 unpack f f f f;
#X floatatom 677 472 10 0 0 0 - - -;
#X floatatom 743 472 10 0 0 0 - - -;
#X floatatom 809 472 10 0 0 0 - - -;
#X floatatom 875 472 10 0 0 0 - - -;
#X obj 244 410 route capsense accl gyro magn fsr piezo, f 62;
#X text 752 422 Quaternions;
#X text 833 37 Edu Meneses - IDMIL - Nov/2019;
#X obj 763 269 oscformat state touchMask;
#X obj 810 336 list prepend send;
#X obj 810 360 list trim;
#X obj 76 20 bng 15 250 50 0 empty empty empty 17 7 0 10 -262144 -1
-1;
#X obj 921 269 oscformat state json;
#X msg 927 241 1;
#X msg 986 240 2;
#N canvas 0 22 450 278 (subpatch) 0;
#X array Touch 16 float 1;
#A 0 0 0 0 0 0 0 0 0 0 0 0 0 0 0 0 0;
#X coords 0 2 15 -1 60 140 1;
#X restore 659 767 graph;
#X obj 295 390 s info;
#X obj 888 80 r info;
#X obj 850 171 s serial;
#X obj 867 151 s firmware;
#X obj 972 151 s touchdata1;
#X obj 981 131 s touchdata2;
#X obj 1042 391 list trim;
#X obj 366 55 tgl 15 0 empty empty Send_OSC_messages_to_T-Stick 17
7 0 10 -262144 -1 -1 0 1;
#X obj 52 130 sel 1 0;
#X obj 53 180 t b b;
#X obj 1042 371 list prepend connect;
#X obj 652 363 oscformat state info;
#X msg 652 344 1;
#X floatatom 594 106 7 0 0 3 Serial_number serial sserial;
#X floatatom 694 106 7 0 0 3 Firmware_version firmware sfirmware;
#X obj 595 86 bng 15 250 50 0 getinfo empty Get_T-Stick_info 17 7 0
10 -262144 -1 -1;
#X obj 594 180 bng 15 250 50 0 empty empty send_FSR_offset 17 7 0 10
-262144 -1 -1;
#X obj 1063 243 f;
#X obj 548 267 spigot;
#X obj 621 322 delay 1000;
#X msg 711 287 0;
#X msg 621 343 1;
#X obj 620 302 t b b b;
#N canvas 179 102 723 542 visual_orientation 0;
#X obj 30 158 gemwin;
#X msg 30 83 0 \, destroy;
#X obj 296 328 gemhead;
#X obj 422 280 gemhead;
#X obj 422 318 world_light;
#X msg 131 109 reset \, dimen 800 600 \, lighting 1 \, create \, 1
;
#X obj 295 358 rotateXYZ 0 0 0;
#X obj 295 411 model;
#X msg 105 138 open T-Stick.obj;
#X obj 274 303 tgl 15 0 empty empty empty 17 7 0 10 -262144 -1 -1 1
1;
#X obj 536 282 tgl 15 0 empty empty empty 17 7 0 10 -262144 -1 -1 0
1;
#X msg 536 302 debug \$1;
#X obj 422 299 rotateXYZ 0 40 0;
#X obj 276 242 loadbang;
#X msg 274 280 1;
#X obj 617 220 vsl 15 128 0 2 0 0 empty empty empty 0 -9 0 10 -262144
-1 -1 0 1;
#X obj 30 30 inlet;
#X obj 30 51 sel 0 1;
#X obj 400 150 inlet;
#X obj 400 174 unpack f f f;
#X text 637 321 zoom;
#X obj 617 39 inlet;
#X obj 617 66 moses 0;
#X obj 617 91 moses 2;
#X obj 295 383 scale 1.3;
#X obj 299 23 declare -lib Gem;
#X obj 104 83 t b b;
#X obj 451 215 f;
#X obj 436 241 - 0;
#X obj 509 85 inlet;
#X text 69 31 create/destroy window;
#X text 434 150 YPR;
#X text 523 108 align/reset;
#X text 656 39 zoom;
#X obj 518 156 sel 1;
#X obj 481 214 f;
#X obj 466 240 - 0;
#X obj 511 214 f;
#X obj 496 240 - 0;
#X connect 1 0 0 0;
#X connect 2 0 6 0;
#X connect 3 0 12 0;
#X connect 5 0 0 0;
#X connect 6 0 24 0;
#X connect 8 0 7 0;
#X connect 9 0 4 0;
#X connect 10 0 11 0;
#X connect 11 0 4 0;
#X connect 12 0 4 0;
#X connect 13 0 14 0;
#X connect 14 0 9 0;
#X connect 15 0 24 1;
#X connect 16 0 17 0;
#X connect 17 0 1 0;
#X connect 17 1 26 0;
#X connect 18 0 19 0;
#X connect 19 0 27 1;
#X connect 19 0 28 0;
#X connect 19 1 35 1;
#X connect 19 1 36 0;
#X connect 19 2 37 1;
#X connect 19 2 38 0;
#X connect 21 0 22 0;
#X connect 22 1 23 0;
#X connect 23 0 15 0;
#X connect 24 0 7 0;
#X connect 26 0 8 0;
#X connect 26 1 5 0;
#X connect 27 0 28 1;
#X connect 28 0 6 1;
#X connect 28 0 12 1;
#X connect 29 0 34 0;
#X connect 34 0 27 0;
#X connect 34 0 35 0;
#X connect 34 0 37 0;
#X connect 34 1 28 1;
#X connect 34 1 38 1;
#X connect 34 1 36 1;
#X connect 35 0 36 1;
#X connect 36 0 6 2;
#X connect 37 0 38 1;
#X connect 38 0 6 3;
#X connect 38 0 12 2;
#X restore 1002 480 pd visual_orientation;
#X obj 1002 458 tgl 15 0 empty empty empty 17 7 0 10 -262144 -1 -1
0 1;
#X text 1020 458 Click here to check orientation;
#X text 833 20 T-Stick Sopranino 2GW FW19111;
#X floatatom 1036 563 10 0 0 0 - - -;
#X floatatom 1102 563 10 0 0 0 - - -;
#X floatatom 1168 563 10 0 0 0 - - -;
#X obj 1072 522 unpack f f f;
#X text 1094 503 YPR;
#X obj 130 59 s touch;
#X obj 927 214 r write;
#X obj 986 215 r read;
#X obj 1042 291 r port;
#X obj 71 158 s todisconect;
#X obj 916 362 r todisconect;
#X obj 93 250 s toport;
#X obj 120 231 s toip;
#X obj 1009 312 r ip;
#X obj 1078 220 r fsr-send;
#X obj 1063 267 oscformat state FSRoffset;
#X obj 620 274 r getinfo;
#X msg 115 81 192.168.1.132 8888;
#X obj 888 105 unpack f f f f f;
#X obj 932 171 s fsr;
#X obj 97 769 vsl 45 135 -1 1 0 0 empty empty AccelX 0 -9 0 10 -262144
-1 -1 6710 1;
#X obj 147 769 vsl 45 135 -1 1 0 0 empty empty AccelY 0 -9 0 10 -262144
-1 -1 6419 1;
#X obj 197 769 vsl 45 135 -1 1 0 0 empty empty AccelZ 0 -9 0 10 -262144
-1 -1 6709 1;
#X obj 247 769 vsl 45 135 -1 1 0 0 empty empty GyroX 0 -9 0 10 -262144
-1 -1 6708 1;
#X obj 297 769 vsl 45 135 -1 1 0 0 empty empty GyroY 0 -9 0 10 -262144
-1 -1 6704 1;
#X obj 347 769 vsl 45 135 -1 1 0 0 empty empty GyroZ 0 -9 0 10 -262144
-1 -1 6707 1;
#X obj 547 769 vsl 45 135 0 1 0 0 empty empty Pressure 0 -9 0 10 -262144
-1 -1 0 1;
#X obj 597 769 vsl 45 135 0 1 0 0 empty empty Piezo 0 -9 0 10 -262144
-1 -1 13400 1;
#X obj 397 769 vsl 45 135 -1 1 0 0 empty empty MagX 0 -9 0 10 -262144
-1 -1 6680 1;
#X obj 447 769 vsl 45 135 -1 1 0 0 empty empty MagY 0 -9 0 10 -262144
-1 -1 6899 1;
#X obj 497 769 vsl 45 135 -1 1 0 0 empty empty MagZ 0 -9 0 10 -262144
-1 -1 6638 1;
#X floatatom 197 912 7 0 0 0 - - -;
#X floatatom 247 912 7 0 0 0 - - -;
#X floatatom 297 912 7 0 0 0 - - -;
#X floatatom 347 912 7 0 0 0 - - -;
#X floatatom 547 912 7 0 0 0 - - -;
#X floatatom 597 912 7 0 0 0 - - -;
#X floatatom 397 912 7 0 0 0 - - -;
#X floatatom 447 912 7 0 0 0 - - -;
#X floatatom 497 912 7 0 0 0 - - -;
#X floatatom 147 912 7 0 0 0 - - -;
#X floatatom 97 912 7 0 0 0 - - -;
#X obj 218 719 unpack f f f;
#X obj 298 719 unpack f f f;
#X obj 379 719 unpack f f f;
#X obj 194 696 route capsense accl gyro magn fsr piezo, f 62;
#X obj 509 382 s norm;
#X obj 147 680 r norm;
#X text 20 491 Raw (/raw);
#N canvas 0 22 450 278 (subpatch) 0;
#X array Touch2 16 float 1;
#A 0 0 0 0 0 0 0 0 0 0 0 0 0 0 0 0 0;
#X coords 0 2 15 -1 60 140 1;
#X restore 721 767 graph;
#N canvas 0 22 450 278 (subpatch) 0;
#X array Touch3 16 float 1;
#A 0 0 0 0 0 0 0 0 0 0 0 0 0 0 0 0 0;
#X coords 0 2 15 -1 60 140 1;
#X restore 783 767 graph;
#N canvas 0 22 450 278 (subpatch) 0;
#X array Touch4 16 float 1;
#A 0 0 0 0 0 0 0 0 0 0 0 0 0 0 0 0 0;
#X coords 0 2 15 -1 60 140 1;
#X restore 845 767 graph;
#N canvas 0 22 450 278 (subpatch) 0;
#X array Touch5 16 float 1;
#A 0 0 0 0 0 0 0 0 0 0 0 0 0 0 0 0 0;
#X coords 0 2 15 -1 60 140 1;
#X restore 907 767 graph;
#X text 20 726 Normalized (/norm);
#X text 124 341 Change T-Stick NAME!;
#X obj 257 341 route TStick_202;
#X obj 257 362 route raw orientation ypr info norm battery;
#X obj 554 378 s battery;
#X obj 1043 730 r battery;
#X floatatom 1039 791 10 0 0 0 - - -;
#X obj 1137 481 tgl 15 0 empty empty empty 17 7 0 10 -262144 -1 -1
0 1;
#X text 1156 481 align;
#X connect 1 0 30 0;
#X connect 2 0 29 0;
#X connect 3 0 20 0;
#X connect 4 0 21 0;
#X connect 5 0 22 0;
#X connect 6 0 23 0;
#X connect 7 0 24 0;
#X connect 8 0 25 0;
#X connect 9 0 26 0;
#X connect 10 0 27 0;
#X connect 11 0 28 0;
#X connect 12 0 13 0;
#X connect 13 0 17 0;
#X connect 14 0 12 0;
#X connect 14 1 12 1;
#X connect 15 0 14 0;
#X connect 17 0 18 0;
#X connect 19 0 58 0;
#X connect 31 0 32 0;
#X connect 31 0 41 0;
#X connect 32 0 56 0;
#X connect 35 0 31 0;
#X connect 36 0 35 0;
#X connect 37 0 60 0;
#X connect 37 0 61 0;
#X connect 38 0 1 0;
#X connect 38 1 2 0;
#X connect 38 2 3 0;
#X connect 39 0 4 0;
#X connect 39 1 5 0;
#X connect 39 2 6 0;
#X connect 40 0 9 0;
#X connect 40 1 10 0;
#X connect 40 2 11 0;
#X connect 42 0 43 0;
#X connect 43 0 97 0;
#X connect 44 0 45 0;
#X connect 46 0 89 0;
#X connect 49 0 46 1;
#X connect 50 0 46 0;
#X connect 50 1 49 0;
#X connect 55 0 118 0;
#X connect 55 1 117 0;
#X connect 56 0 161 0;
#X connect 57 0 36 0;
#X connect 58 0 59 0;
#X connect 59 0 36 0;
#X connect 59 1 35 0;
#X connect 60 0 111 0;
#X connect 61 0 62 0;
#X connect 61 1 57 0;
#X connect 61 2 123 0;
#X connect 62 0 58 0;
#X connect 63 0 64 0;
#X connect 63 1 65 0;
#X connect 63 2 66 0;
#X connect 63 3 67 0;
#X connect 68 0 33 0;
#X connect 68 1 38 0;
#X connect 68 2 39 0;
#X connect 68 3 40 0;
#X connect 68 4 7 0;
#X connect 68 5 8 0;
#X connect 71 0 72 0;
#X connect 72 0 73 0;
#X connect 73 0 45 0;
#X connect 74 0 61 0;
#X connect 75 0 72 0;
#X connect 76 0 75 0;
#X connect 77 0 75 0;
#X connect 80 0 124 0;
#X connect 85 0 45 0;
#X connect 86 0 87 0;
#X connect 87 0 88 0;
#X connect 87 1 115 0;
#X connect 88 0 117 0;
#X connect 88 1 118 0;
#X connect 89 0 85 0;
#X connect 90 0 72 0;
#X connect 91 0 90 0;
#X connect 95 0 96 0;
#X connect 96 0 121 0;
#X connect 97 0 71 0;
#X connect 98 0 100 0;
#X connect 99 0 97 1;
#X connect 100 0 97 1;
#X connect 101 0 98 0;
#X connect 101 1 91 0;
#X connect 101 2 99 0;
#X connect 103 0 102 0;
#X connect 109 0 106 0;
#X connect 109 1 107 0;
#X connect 109 2 108 0;
#X connect 112 0 76 0;
#X connect 113 0 77 0;
#X connect 114 0 50 0;
#X connect 116 0 44 0;
#X connect 119 0 46 0;
#X connect 120 0 96 1;
#X connect 121 0 72 0;
#X connect 122 0 101 0;
#X connect 123 0 55 0;
#X connect 124 0 81 0;
#X connect 124 1 82 0;
#X connect 124 2 125 0;
#X connect 124 3 83 0;
#X connect 124 4 84 0;
#X connect 126 0 147 0;
#X connect 127 0 146 0;
#X connect 128 0 137 0;
#X connect 129 0 138 0;
#X connect 130 0 139 0;
#X connect 131 0 140 0;
#X connect 132 0 141 0;
#X connect 133 0 142 0;
#X connect 134 0 143 0;
#X connect 135 0 144 0;
#X connect 136 0 145 0;
#X connect 148 0 126 0;
#X connect 148 1 127 0;
#X connect 148 2 128 0;
#X connect 149 0 129 0;
#X connect 149 1 130 0;
#X connect 149 2 131 0;
#X connect 150 0 134 0;
#X connect 150 1 135 0;
#X connect 150 2 136 0;
#X connect 151 1 148 0;
#X connect 151 2 149 0;
#X connect 151 3 150 0;
#X connect 151 4 132 0;
#X connect 151 5 133 0;
#X connect 153 0 151 0;
#X connect 161 0 162 0;
#X connect 162 0 68 0;
#X connect 162 1 63 0;
#X connect 162 2 109 0;
#X connect 162 2 102 1;
#X connect 162 3 79 0;
#X connect 162 4 152 0;
#X connect 162 5 163 0;
#X connect 164 0 165 0;
#X connect 166 0 102 2;
#X coords 0 -1 1 1 470 236 1 354 22;
