{
	"patcher" : 	{
		"fileversion" : 1,
		"rect" : [ 1276.0, 63.0, 1228.0, 805.0 ],
		"bglocked" : 0,
		"defrect" : [ 1276.0, 63.0, 1228.0, 805.0 ],
		"openrect" : [ 0.0, 0.0, 0.0, 0.0 ],
		"openinpresentation" : 0,
		"default_fontsize" : 12.0,
		"default_fontface" : 0,
		"default_fontname" : "Arial",
		"gridonopen" : 0,
		"gridsize" : [ 15.0, 15.0 ],
		"gridsnaponopen" : 0,
		"toolbarvisible" : 1,
		"boxanimatetime" : 200,
		"imprint" : 0,
		"enablehscroll" : 1,
		"enablevscroll" : 1,
		"devicewidth" : 0.0,
		"boxes" : [ 			{
				"box" : 				{
					"fontname" : "Arial",
					"fontsize" : 12.0,
					"id" : "obj-64",
					"maxclass" : "newobj",
					"numinlets" : 1,
					"numoutlets" : 1,
					"outlettype" : [ "int" ],
					"patching_rect" : [ 195.0, 255.0, 35.0, 20.0 ],
					"text" : "spell"
				}

			}
, 			{
				"box" : 				{
					"fontname" : "Arial",
					"fontsize" : 12.0,
					"id" : "obj-65",
					"maxclass" : "message",
					"numinlets" : 2,
					"numoutlets" : 1,
					"outlettype" : [ "" ],
					"patching_rect" : [ 195.0, 225.0, 32.5, 18.0 ],
					"text" : "x"
				}

			}
, 			{
				"box" : 				{
					"id" : "obj-63",
					"maxclass" : "button",
					"numinlets" : 1,
					"numoutlets" : 1,
					"outlettype" : [ "bang" ],
					"patching_rect" : [ 990.0, 510.0, 20.0, 20.0 ]
				}

			}
, 			{
				"box" : 				{
					"id" : "obj-61",
					"maxclass" : "toggle",
					"numinlets" : 1,
					"numoutlets" : 1,
					"outlettype" : [ "int" ],
					"patching_rect" : [ 15.0, 30.0, 20.0, 20.0 ]
				}

			}
, 			{
				"box" : 				{
					"id" : "obj-59",
					"maxclass" : "toggle",
					"numinlets" : 1,
					"numoutlets" : 1,
					"outlettype" : [ "int" ],
					"patching_rect" : [ 45.0, 165.0, 20.0, 20.0 ]
				}

			}
, 			{
				"box" : 				{
					"fontname" : "Arial",
					"fontsize" : 12.0,
					"id" : "obj-57",
					"maxclass" : "newobj",
					"numinlets" : 1,
					"numoutlets" : 2,
					"outlettype" : [ "int", "bang" ],
					"patching_rect" : [ 45.0, 105.0, 64.0, 20.0 ],
					"text" : "t 1 b"
				}

			}
, 			{
				"box" : 				{
					"fontname" : "Arial",
					"fontsize" : 12.0,
					"id" : "obj-56",
					"maxclass" : "newobj",
					"numinlets" : 2,
					"numoutlets" : 1,
					"outlettype" : [ "bang" ],
					"patching_rect" : [ 45.0, 195.0, 71.0, 20.0 ],
					"text" : "metro 1500"
				}

			}
, 			{
				"box" : 				{
					"color" : [ 0.741176, 0.184314, 0.756863, 1.0 ],
					"fontname" : "Arial",
					"fontsize" : 12.0,
					"id" : "obj-1",
					"maxclass" : "newobj",
					"numinlets" : 2,
					"numoutlets" : 1,
					"outlettype" : [ "int" ],
					"patcher" : 					{
						"fileversion" : 1,
						"rect" : [ 1672.0, 527.0, 128.0, 186.0 ],
						"bglocked" : 0,
						"defrect" : [ 1672.0, 527.0, 128.0, 186.0 ],
						"openrect" : [ 0.0, 0.0, 0.0, 0.0 ],
						"openinpresentation" : 0,
						"default_fontsize" : 12.0,
						"default_fontface" : 0,
						"default_fontname" : "Arial",
						"gridonopen" : 0,
						"gridsize" : [ 15.0, 15.0 ],
						"gridsnaponopen" : 0,
						"toolbarvisible" : 1,
						"boxanimatetime" : 200,
						"imprint" : 0,
						"enablehscroll" : 1,
						"enablevscroll" : 1,
						"devicewidth" : 0.0,
						"boxes" : [ 							{
								"box" : 								{
									"fontname" : "Arial",
									"fontsize" : 12.0,
									"id" : "obj-1",
									"maxclass" : "newobj",
									"numinlets" : 2,
									"numoutlets" : 1,
									"outlettype" : [ "int" ],
									"patching_rect" : [ 30.0, 75.0, 39.0, 20.0 ],
									"text" : "* 256"
								}

							}
, 							{
								"box" : 								{
									"fontname" : "Arial",
									"fontsize" : 12.0,
									"id" : "obj-66",
									"maxclass" : "newobj",
									"numinlets" : 2,
									"numoutlets" : 1,
									"outlettype" : [ "int" ],
									"patching_rect" : [ 30.0, 105.0, 48.5, 20.0 ],
									"text" : "+"
								}

							}
, 							{
								"box" : 								{
									"comment" : "",
									"id" : "obj-110",
									"maxclass" : "inlet",
									"numinlets" : 0,
									"numoutlets" : 1,
									"outlettype" : [ "int" ],
									"patching_rect" : [ 30.0, 30.0, 25.0, 25.0 ]
								}

							}
, 							{
								"box" : 								{
									"comment" : "",
									"id" : "obj-111",
									"maxclass" : "inlet",
									"numinlets" : 0,
									"numoutlets" : 1,
									"outlettype" : [ "int" ],
									"patching_rect" : [ 60.0, 30.0, 25.0, 25.0 ]
								}

							}
, 							{
								"box" : 								{
									"comment" : "",
									"id" : "obj-112",
									"maxclass" : "outlet",
									"numinlets" : 1,
									"numoutlets" : 0,
									"patching_rect" : [ 30.0, 135.0, 25.0, 25.0 ]
								}

							}
 ],
						"lines" : [ 							{
								"patchline" : 								{
									"destination" : [ "obj-66", 0 ],
									"hidden" : 0,
									"midpoints" : [  ],
									"source" : [ "obj-1", 0 ]
								}

							}
, 							{
								"patchline" : 								{
									"destination" : [ "obj-1", 0 ],
									"hidden" : 0,
									"midpoints" : [  ],
									"source" : [ "obj-110", 0 ]
								}

							}
, 							{
								"patchline" : 								{
									"destination" : [ "obj-66", 1 ],
									"hidden" : 0,
									"midpoints" : [  ],
									"source" : [ "obj-111", 0 ]
								}

							}
, 							{
								"patchline" : 								{
									"destination" : [ "obj-112", 0 ],
									"hidden" : 0,
									"midpoints" : [  ],
									"source" : [ "obj-66", 0 ]
								}

							}
 ]
					}
,
					"patching_rect" : [ 885.0, 480.0, 49.0, 20.0 ],
					"saved_object_attributes" : 					{
						"fontface" : 0,
						"fontsize" : 12.0,
						"globalpatchername" : "",
						"default_fontface" : 0,
						"default_fontname" : "Arial",
						"fontname" : "Arial",
						"default_fontsize" : 12.0
					}
,
					"text" : "p 10bit"
				}

			}
, 			{
				"box" : 				{
					"color" : [ 0.741176, 0.184314, 0.756863, 1.0 ],
					"fontname" : "Arial",
					"fontsize" : 12.0,
					"id" : "obj-3",
					"maxclass" : "newobj",
					"numinlets" : 2,
					"numoutlets" : 1,
					"outlettype" : [ "int" ],
					"patcher" : 					{
						"fileversion" : 1,
						"rect" : [ 1672.0, 527.0, 128.0, 186.0 ],
						"bglocked" : 0,
						"defrect" : [ 1672.0, 527.0, 128.0, 186.0 ],
						"openrect" : [ 0.0, 0.0, 0.0, 0.0 ],
						"openinpresentation" : 0,
						"default_fontsize" : 12.0,
						"default_fontface" : 0,
						"default_fontname" : "Arial",
						"gridonopen" : 0,
						"gridsize" : [ 15.0, 15.0 ],
						"gridsnaponopen" : 0,
						"toolbarvisible" : 1,
						"boxanimatetime" : 200,
						"imprint" : 0,
						"enablehscroll" : 1,
						"enablevscroll" : 1,
						"devicewidth" : 0.0,
						"boxes" : [ 							{
								"box" : 								{
									"fontname" : "Arial",
									"fontsize" : 12.0,
									"id" : "obj-1",
									"maxclass" : "newobj",
									"numinlets" : 2,
									"numoutlets" : 1,
									"outlettype" : [ "int" ],
									"patching_rect" : [ 30.0, 75.0, 39.0, 20.0 ],
									"text" : "* 256"
								}

							}
, 							{
								"box" : 								{
									"fontname" : "Arial",
									"fontsize" : 12.0,
									"id" : "obj-66",
									"maxclass" : "newobj",
									"numinlets" : 2,
									"numoutlets" : 1,
									"outlettype" : [ "int" ],
									"patching_rect" : [ 30.0, 105.0, 48.5, 20.0 ],
									"text" : "+"
								}

							}
, 							{
								"box" : 								{
									"comment" : "",
									"id" : "obj-110",
									"maxclass" : "inlet",
									"numinlets" : 0,
									"numoutlets" : 1,
									"outlettype" : [ "int" ],
									"patching_rect" : [ 30.0, 30.0, 25.0, 25.0 ]
								}

							}
, 							{
								"box" : 								{
									"comment" : "",
									"id" : "obj-111",
									"maxclass" : "inlet",
									"numinlets" : 0,
									"numoutlets" : 1,
									"outlettype" : [ "int" ],
									"patching_rect" : [ 60.0, 30.0, 25.0, 25.0 ]
								}

							}
, 							{
								"box" : 								{
									"comment" : "",
									"id" : "obj-112",
									"maxclass" : "outlet",
									"numinlets" : 1,
									"numoutlets" : 0,
									"patching_rect" : [ 30.0, 135.0, 25.0, 25.0 ]
								}

							}
 ],
						"lines" : [ 							{
								"patchline" : 								{
									"destination" : [ "obj-66", 0 ],
									"hidden" : 0,
									"midpoints" : [  ],
									"source" : [ "obj-1", 0 ]
								}

							}
, 							{
								"patchline" : 								{
									"destination" : [ "obj-1", 0 ],
									"hidden" : 0,
									"midpoints" : [  ],
									"source" : [ "obj-110", 0 ]
								}

							}
, 							{
								"patchline" : 								{
									"destination" : [ "obj-66", 1 ],
									"hidden" : 0,
									"midpoints" : [  ],
									"source" : [ "obj-111", 0 ]
								}

							}
, 							{
								"patchline" : 								{
									"destination" : [ "obj-112", 0 ],
									"hidden" : 0,
									"midpoints" : [  ],
									"source" : [ "obj-66", 0 ]
								}

							}
 ]
					}
,
					"patching_rect" : [ 825.0, 480.0, 49.0, 20.0 ],
					"saved_object_attributes" : 					{
						"fontface" : 0,
						"fontsize" : 12.0,
						"globalpatchername" : "",
						"default_fontface" : 0,
						"default_fontname" : "Arial",
						"fontname" : "Arial",
						"default_fontsize" : 12.0
					}
,
					"text" : "p 10bit"
				}

			}
, 			{
				"box" : 				{
					"color" : [ 0.741176, 0.184314, 0.756863, 1.0 ],
					"fontname" : "Arial",
					"fontsize" : 12.0,
					"id" : "obj-4",
					"maxclass" : "newobj",
					"numinlets" : 2,
					"numoutlets" : 1,
					"outlettype" : [ "int" ],
					"patcher" : 					{
						"fileversion" : 1,
						"rect" : [ 1672.0, 527.0, 128.0, 186.0 ],
						"bglocked" : 0,
						"defrect" : [ 1672.0, 527.0, 128.0, 186.0 ],
						"openrect" : [ 0.0, 0.0, 0.0, 0.0 ],
						"openinpresentation" : 0,
						"default_fontsize" : 12.0,
						"default_fontface" : 0,
						"default_fontname" : "Arial",
						"gridonopen" : 0,
						"gridsize" : [ 15.0, 15.0 ],
						"gridsnaponopen" : 0,
						"toolbarvisible" : 1,
						"boxanimatetime" : 200,
						"imprint" : 0,
						"enablehscroll" : 1,
						"enablevscroll" : 1,
						"devicewidth" : 0.0,
						"boxes" : [ 							{
								"box" : 								{
									"fontname" : "Arial",
									"fontsize" : 12.0,
									"id" : "obj-1",
									"maxclass" : "newobj",
									"numinlets" : 2,
									"numoutlets" : 1,
									"outlettype" : [ "int" ],
									"patching_rect" : [ 30.0, 75.0, 39.0, 20.0 ],
									"text" : "* 256"
								}

							}
, 							{
								"box" : 								{
									"fontname" : "Arial",
									"fontsize" : 12.0,
									"id" : "obj-66",
									"maxclass" : "newobj",
									"numinlets" : 2,
									"numoutlets" : 1,
									"outlettype" : [ "int" ],
									"patching_rect" : [ 30.0, 105.0, 48.5, 20.0 ],
									"text" : "+"
								}

							}
, 							{
								"box" : 								{
									"comment" : "",
									"id" : "obj-110",
									"maxclass" : "inlet",
									"numinlets" : 0,
									"numoutlets" : 1,
									"outlettype" : [ "int" ],
									"patching_rect" : [ 30.0, 30.0, 25.0, 25.0 ]
								}

							}
, 							{
								"box" : 								{
									"comment" : "",
									"id" : "obj-111",
									"maxclass" : "inlet",
									"numinlets" : 0,
									"numoutlets" : 1,
									"outlettype" : [ "int" ],
									"patching_rect" : [ 60.0, 30.0, 25.0, 25.0 ]
								}

							}
, 							{
								"box" : 								{
									"comment" : "",
									"id" : "obj-112",
									"maxclass" : "outlet",
									"numinlets" : 1,
									"numoutlets" : 0,
									"patching_rect" : [ 30.0, 135.0, 25.0, 25.0 ]
								}

							}
 ],
						"lines" : [ 							{
								"patchline" : 								{
									"destination" : [ "obj-66", 0 ],
									"hidden" : 0,
									"midpoints" : [  ],
									"source" : [ "obj-1", 0 ]
								}

							}
, 							{
								"patchline" : 								{
									"destination" : [ "obj-1", 0 ],
									"hidden" : 0,
									"midpoints" : [  ],
									"source" : [ "obj-110", 0 ]
								}

							}
, 							{
								"patchline" : 								{
									"destination" : [ "obj-66", 1 ],
									"hidden" : 0,
									"midpoints" : [  ],
									"source" : [ "obj-111", 0 ]
								}

							}
, 							{
								"patchline" : 								{
									"destination" : [ "obj-112", 0 ],
									"hidden" : 0,
									"midpoints" : [  ],
									"source" : [ "obj-66", 0 ]
								}

							}
 ]
					}
,
					"patching_rect" : [ 765.0, 480.0, 49.0, 20.0 ],
					"saved_object_attributes" : 					{
						"fontface" : 0,
						"fontsize" : 12.0,
						"globalpatchername" : "",
						"default_fontface" : 0,
						"default_fontname" : "Arial",
						"fontname" : "Arial",
						"default_fontsize" : 12.0
					}
,
					"text" : "p 10bit"
				}

			}
, 			{
				"box" : 				{
					"color" : [ 0.741176, 0.184314, 0.756863, 1.0 ],
					"fontname" : "Arial",
					"fontsize" : 12.0,
					"id" : "obj-9",
					"maxclass" : "newobj",
					"numinlets" : 2,
					"numoutlets" : 1,
					"outlettype" : [ "int" ],
					"patcher" : 					{
						"fileversion" : 1,
						"rect" : [ 1672.0, 527.0, 128.0, 186.0 ],
						"bglocked" : 0,
						"defrect" : [ 1672.0, 527.0, 128.0, 186.0 ],
						"openrect" : [ 0.0, 0.0, 0.0, 0.0 ],
						"openinpresentation" : 0,
						"default_fontsize" : 12.0,
						"default_fontface" : 0,
						"default_fontname" : "Arial",
						"gridonopen" : 0,
						"gridsize" : [ 15.0, 15.0 ],
						"gridsnaponopen" : 0,
						"toolbarvisible" : 1,
						"boxanimatetime" : 200,
						"imprint" : 0,
						"enablehscroll" : 1,
						"enablevscroll" : 1,
						"devicewidth" : 0.0,
						"boxes" : [ 							{
								"box" : 								{
									"fontname" : "Arial",
									"fontsize" : 12.0,
									"id" : "obj-1",
									"maxclass" : "newobj",
									"numinlets" : 2,
									"numoutlets" : 1,
									"outlettype" : [ "int" ],
									"patching_rect" : [ 30.0, 75.0, 39.0, 20.0 ],
									"text" : "* 256"
								}

							}
, 							{
								"box" : 								{
									"fontname" : "Arial",
									"fontsize" : 12.0,
									"id" : "obj-66",
									"maxclass" : "newobj",
									"numinlets" : 2,
									"numoutlets" : 1,
									"outlettype" : [ "int" ],
									"patching_rect" : [ 30.0, 105.0, 48.5, 20.0 ],
									"text" : "+"
								}

							}
, 							{
								"box" : 								{
									"comment" : "",
									"id" : "obj-110",
									"maxclass" : "inlet",
									"numinlets" : 0,
									"numoutlets" : 1,
									"outlettype" : [ "int" ],
									"patching_rect" : [ 30.0, 30.0, 25.0, 25.0 ]
								}

							}
, 							{
								"box" : 								{
									"comment" : "",
									"id" : "obj-111",
									"maxclass" : "inlet",
									"numinlets" : 0,
									"numoutlets" : 1,
									"outlettype" : [ "int" ],
									"patching_rect" : [ 60.0, 30.0, 25.0, 25.0 ]
								}

							}
, 							{
								"box" : 								{
									"comment" : "",
									"id" : "obj-112",
									"maxclass" : "outlet",
									"numinlets" : 1,
									"numoutlets" : 0,
									"patching_rect" : [ 30.0, 135.0, 25.0, 25.0 ]
								}

							}
 ],
						"lines" : [ 							{
								"patchline" : 								{
									"destination" : [ "obj-66", 0 ],
									"hidden" : 0,
									"midpoints" : [  ],
									"source" : [ "obj-1", 0 ]
								}

							}
, 							{
								"patchline" : 								{
									"destination" : [ "obj-1", 0 ],
									"hidden" : 0,
									"midpoints" : [  ],
									"source" : [ "obj-110", 0 ]
								}

							}
, 							{
								"patchline" : 								{
									"destination" : [ "obj-66", 1 ],
									"hidden" : 0,
									"midpoints" : [  ],
									"source" : [ "obj-111", 0 ]
								}

							}
, 							{
								"patchline" : 								{
									"destination" : [ "obj-112", 0 ],
									"hidden" : 0,
									"midpoints" : [  ],
									"source" : [ "obj-66", 0 ]
								}

							}
 ]
					}
,
					"patching_rect" : [ 705.0, 480.0, 49.0, 20.0 ],
					"saved_object_attributes" : 					{
						"fontface" : 0,
						"fontsize" : 12.0,
						"globalpatchername" : "",
						"default_fontface" : 0,
						"default_fontname" : "Arial",
						"fontname" : "Arial",
						"default_fontsize" : 12.0
					}
,
					"text" : "p 10bit"
				}

			}
, 			{
				"box" : 				{
					"id" : "obj-10",
					"maxclass" : "multislider",
					"numinlets" : 1,
					"numoutlets" : 2,
					"outlettype" : [ "", "" ],
					"patching_rect" : [ 885.0, 510.0, 48.0, 140.0 ],
					"setminmax" : [ 0.0, 1023.0 ]
				}

			}
, 			{
				"box" : 				{
					"id" : "obj-11",
					"maxclass" : "multislider",
					"numinlets" : 1,
					"numoutlets" : 2,
					"outlettype" : [ "", "" ],
					"patching_rect" : [ 825.0, 510.0, 48.0, 140.0 ],
					"setminmax" : [ 0.0, 1023.0 ]
				}

			}
, 			{
				"box" : 				{
					"id" : "obj-53",
					"maxclass" : "multislider",
					"numinlets" : 1,
					"numoutlets" : 2,
					"outlettype" : [ "", "" ],
					"patching_rect" : [ 765.0, 510.0, 48.0, 140.0 ],
					"setminmax" : [ 0.0, 1023.0 ]
				}

			}
, 			{
				"box" : 				{
					"id" : "obj-54",
					"maxclass" : "multislider",
					"numinlets" : 1,
					"numoutlets" : 2,
					"outlettype" : [ "", "" ],
					"patching_rect" : [ 705.0, 510.0, 48.0, 140.0 ],
					"setminmax" : [ 0.0, 1023.0 ]
				}

			}
, 			{
				"box" : 				{
					"color" : [ 0.741176, 0.184314, 0.756863, 1.0 ],
					"fontname" : "Arial",
					"fontsize" : 12.0,
					"id" : "obj-48",
					"maxclass" : "newobj",
					"numinlets" : 10,
					"numoutlets" : 1,
					"outlettype" : [ "" ],
					"patcher" : 					{
						"fileversion" : 1,
						"rect" : [ 25.0, 69.0, 1399.0, 221.0 ],
						"bglocked" : 0,
						"defrect" : [ 25.0, 69.0, 1399.0, 221.0 ],
						"openrect" : [ 0.0, 0.0, 0.0, 0.0 ],
						"openinpresentation" : 0,
						"default_fontsize" : 12.0,
						"default_fontface" : 0,
						"default_fontname" : "Arial",
						"gridonopen" : 0,
						"gridsize" : [ 15.0, 15.0 ],
						"gridsnaponopen" : 0,
						"toolbarvisible" : 1,
						"boxanimatetime" : 200,
						"imprint" : 0,
						"enablehscroll" : 1,
						"enablevscroll" : 1,
						"devicewidth" : 0.0,
						"boxes" : [ 							{
								"box" : 								{
									"fontname" : "Arial",
									"fontsize" : 12.0,
									"id" : "obj-9",
									"maxclass" : "newobj",
									"numinlets" : 1,
									"numoutlets" : 1,
									"outlettype" : [ "" ],
									"patching_rect" : [ 1155.0, 75.0, 93.0, 20.0 ],
									"text" : "prepend /light/2"
								}

							}
, 							{
								"box" : 								{
									"comment" : "",
									"id" : "obj-10",
									"maxclass" : "inlet",
									"numinlets" : 0,
									"numoutlets" : 1,
									"outlettype" : [ "" ],
									"patching_rect" : [ 1155.0, 30.0, 25.0, 25.0 ]
								}

							}
, 							{
								"box" : 								{
									"fontname" : "Arial",
									"fontsize" : 12.0,
									"id" : "obj-5",
									"maxclass" : "newobj",
									"numinlets" : 1,
									"numoutlets" : 1,
									"outlettype" : [ "" ],
									"patching_rect" : [ 1050.0, 75.0, 93.0, 20.0 ],
									"text" : "prepend /light/1"
								}

							}
, 							{
								"box" : 								{
									"comment" : "",
									"id" : "obj-8",
									"maxclass" : "inlet",
									"numinlets" : 0,
									"numoutlets" : 1,
									"outlettype" : [ "" ],
									"patching_rect" : [ 1050.0, 30.0, 25.0, 25.0 ]
								}

							}
, 							{
								"box" : 								{
									"fontname" : "Arial",
									"fontsize" : 12.0,
									"id" : "obj-3",
									"maxclass" : "newobj",
									"numinlets" : 1,
									"numoutlets" : 1,
									"outlettype" : [ "" ],
									"patching_rect" : [ 945.0, 75.0, 92.0, 20.0 ],
									"text" : "prepend /range"
								}

							}
, 							{
								"box" : 								{
									"comment" : "",
									"id" : "obj-4",
									"maxclass" : "inlet",
									"numinlets" : 0,
									"numoutlets" : 1,
									"outlettype" : [ "" ],
									"patching_rect" : [ 945.0, 30.0, 25.0, 25.0 ]
								}

							}
, 							{
								"box" : 								{
									"fontname" : "Arial",
									"fontsize" : 12.0,
									"id" : "obj-1",
									"maxclass" : "newobj",
									"numinlets" : 1,
									"numoutlets" : 1,
									"outlettype" : [ "" ],
									"patching_rect" : [ 810.0, 75.0, 121.0, 20.0 ],
									"text" : "prepend /airpressure"
								}

							}
, 							{
								"box" : 								{
									"comment" : "",
									"id" : "obj-2",
									"maxclass" : "inlet",
									"numinlets" : 0,
									"numoutlets" : 1,
									"outlettype" : [ "" ],
									"patching_rect" : [ 810.0, 30.0, 25.0, 25.0 ]
								}

							}
, 							{
								"box" : 								{
									"fontname" : "Arial",
									"fontsize" : 12.0,
									"id" : "obj-6",
									"maxclass" : "newobj",
									"numinlets" : 2,
									"numoutlets" : 1,
									"outlettype" : [ "" ],
									"patching_rect" : [ 135.0, 120.0, 125.0, 20.0 ],
									"text" : "dot.prependaddr /raw"
								}

							}
, 							{
								"box" : 								{
									"fontname" : "Arial",
									"fontsize" : 12.0,
									"id" : "obj-55",
									"maxclass" : "newobj",
									"numinlets" : 1,
									"numoutlets" : 1,
									"outlettype" : [ "" ],
									"patching_rect" : [ 30.0, 75.0, 91.0, 20.0 ],
									"text" : "prepend /touch"
								}

							}
, 							{
								"box" : 								{
									"fontname" : "Arial",
									"fontsize" : 12.0,
									"id" : "obj-54",
									"maxclass" : "newobj",
									"numinlets" : 1,
									"numoutlets" : 1,
									"outlettype" : [ "" ],
									"patching_rect" : [ 435.0, 75.0, 147.0, 20.0 ],
									"text" : "prepend /accelerometer/z"
								}

							}
, 							{
								"box" : 								{
									"fontname" : "Arial",
									"fontsize" : 12.0,
									"id" : "obj-53",
									"maxclass" : "newobj",
									"numinlets" : 1,
									"numoutlets" : 1,
									"outlettype" : [ "" ],
									"patching_rect" : [ 285.0, 75.0, 147.0, 20.0 ],
									"text" : "prepend /accelerometer/y"
								}

							}
, 							{
								"box" : 								{
									"fontname" : "Arial",
									"fontsize" : 12.0,
									"id" : "obj-52",
									"maxclass" : "newobj",
									"numinlets" : 1,
									"numoutlets" : 1,
									"outlettype" : [ "" ],
									"patching_rect" : [ 135.0, 75.0, 147.0, 20.0 ],
									"text" : "prepend /accelerometer/x"
								}

							}
, 							{
								"box" : 								{
									"fontname" : "Arial",
									"fontsize" : 12.0,
									"id" : "obj-51",
									"maxclass" : "newobj",
									"numinlets" : 1,
									"numoutlets" : 1,
									"outlettype" : [ "" ],
									"patching_rect" : [ 705.0, 75.0, 90.0, 20.0 ],
									"text" : "prepend /piezo"
								}

							}
, 							{
								"box" : 								{
									"fontname" : "Arial",
									"fontsize" : 12.0,
									"id" : "obj-50",
									"maxclass" : "newobj",
									"numinlets" : 1,
									"numoutlets" : 1,
									"outlettype" : [ "" ],
									"patching_rect" : [ 585.0, 75.0, 108.0, 20.0 ],
									"text" : "prepend /pressure"
								}

							}
, 							{
								"box" : 								{
									"comment" : "",
									"id" : "obj-7",
									"maxclass" : "inlet",
									"numinlets" : 0,
									"numoutlets" : 1,
									"outlettype" : [ "" ],
									"patching_rect" : [ 135.0, 30.0, 25.0, 25.0 ]
								}

							}
, 							{
								"box" : 								{
									"comment" : "",
									"id" : "obj-18",
									"maxclass" : "inlet",
									"numinlets" : 0,
									"numoutlets" : 1,
									"outlettype" : [ "" ],
									"patching_rect" : [ 285.0, 30.0, 25.0, 25.0 ]
								}

							}
, 							{
								"box" : 								{
									"comment" : "",
									"id" : "obj-21",
									"maxclass" : "inlet",
									"numinlets" : 0,
									"numoutlets" : 1,
									"outlettype" : [ "" ],
									"patching_rect" : [ 435.0, 30.0, 25.0, 25.0 ]
								}

							}
, 							{
								"box" : 								{
									"comment" : "",
									"id" : "obj-33",
									"maxclass" : "inlet",
									"numinlets" : 0,
									"numoutlets" : 1,
									"outlettype" : [ "" ],
									"patching_rect" : [ 585.0, 30.0, 25.0, 25.0 ]
								}

							}
, 							{
								"box" : 								{
									"comment" : "",
									"id" : "obj-36",
									"maxclass" : "inlet",
									"numinlets" : 0,
									"numoutlets" : 1,
									"outlettype" : [ "" ],
									"patching_rect" : [ 705.0, 30.0, 25.0, 25.0 ]
								}

							}
, 							{
								"box" : 								{
									"comment" : "",
									"id" : "obj-37",
									"maxclass" : "inlet",
									"numinlets" : 0,
									"numoutlets" : 1,
									"outlettype" : [ "" ],
									"patching_rect" : [ 30.0, 30.0, 25.0, 25.0 ]
								}

							}
, 							{
								"box" : 								{
									"comment" : "",
									"id" : "obj-43",
									"maxclass" : "outlet",
									"numinlets" : 1,
									"numoutlets" : 0,
									"patching_rect" : [ 135.0, 150.0, 25.0, 25.0 ]
								}

							}
 ],
						"lines" : [ 							{
								"patchline" : 								{
									"destination" : [ "obj-6", 0 ],
									"hidden" : 0,
									"midpoints" : [ 819.5, 107.0, 144.5, 107.0 ],
									"source" : [ "obj-1", 0 ]
								}

							}
, 							{
								"patchline" : 								{
									"destination" : [ "obj-9", 0 ],
									"hidden" : 0,
									"midpoints" : [  ],
									"source" : [ "obj-10", 0 ]
								}

							}
, 							{
								"patchline" : 								{
									"destination" : [ "obj-53", 0 ],
									"hidden" : 0,
									"midpoints" : [  ],
									"source" : [ "obj-18", 0 ]
								}

							}
, 							{
								"patchline" : 								{
									"destination" : [ "obj-1", 0 ],
									"hidden" : 0,
									"midpoints" : [  ],
									"source" : [ "obj-2", 0 ]
								}

							}
, 							{
								"patchline" : 								{
									"destination" : [ "obj-54", 0 ],
									"hidden" : 0,
									"midpoints" : [  ],
									"source" : [ "obj-21", 0 ]
								}

							}
, 							{
								"patchline" : 								{
									"destination" : [ "obj-6", 0 ],
									"hidden" : 0,
									"midpoints" : [ 954.5, 107.0, 144.5, 107.0 ],
									"source" : [ "obj-3", 0 ]
								}

							}
, 							{
								"patchline" : 								{
									"destination" : [ "obj-50", 0 ],
									"hidden" : 0,
									"midpoints" : [  ],
									"source" : [ "obj-33", 0 ]
								}

							}
, 							{
								"patchline" : 								{
									"destination" : [ "obj-51", 0 ],
									"hidden" : 0,
									"midpoints" : [  ],
									"source" : [ "obj-36", 0 ]
								}

							}
, 							{
								"patchline" : 								{
									"destination" : [ "obj-55", 0 ],
									"hidden" : 0,
									"midpoints" : [  ],
									"source" : [ "obj-37", 0 ]
								}

							}
, 							{
								"patchline" : 								{
									"destination" : [ "obj-3", 0 ],
									"hidden" : 0,
									"midpoints" : [  ],
									"source" : [ "obj-4", 0 ]
								}

							}
, 							{
								"patchline" : 								{
									"destination" : [ "obj-6", 0 ],
									"hidden" : 0,
									"midpoints" : [ 1059.5, 107.0, 144.5, 107.0 ],
									"source" : [ "obj-5", 0 ]
								}

							}
, 							{
								"patchline" : 								{
									"destination" : [ "obj-6", 0 ],
									"hidden" : 0,
									"midpoints" : [ 594.5, 107.0, 144.5, 107.0 ],
									"source" : [ "obj-50", 0 ]
								}

							}
, 							{
								"patchline" : 								{
									"destination" : [ "obj-6", 0 ],
									"hidden" : 0,
									"midpoints" : [ 714.5, 107.0, 144.5, 107.0 ],
									"source" : [ "obj-51", 0 ]
								}

							}
, 							{
								"patchline" : 								{
									"destination" : [ "obj-6", 0 ],
									"hidden" : 0,
									"midpoints" : [ 144.5, 107.0, 144.5, 107.0 ],
									"source" : [ "obj-52", 0 ]
								}

							}
, 							{
								"patchline" : 								{
									"destination" : [ "obj-6", 0 ],
									"hidden" : 0,
									"midpoints" : [ 294.5, 107.0, 144.5, 107.0 ],
									"source" : [ "obj-53", 0 ]
								}

							}
, 							{
								"patchline" : 								{
									"destination" : [ "obj-6", 0 ],
									"hidden" : 0,
									"midpoints" : [ 444.5, 107.0, 144.5, 107.0 ],
									"source" : [ "obj-54", 0 ]
								}

							}
, 							{
								"patchline" : 								{
									"destination" : [ "obj-6", 0 ],
									"hidden" : 0,
									"midpoints" : [ 39.5, 107.0, 144.5, 107.0 ],
									"source" : [ "obj-55", 0 ]
								}

							}
, 							{
								"patchline" : 								{
									"destination" : [ "obj-43", 0 ],
									"hidden" : 0,
									"midpoints" : [  ],
									"source" : [ "obj-6", 0 ]
								}

							}
, 							{
								"patchline" : 								{
									"destination" : [ "obj-52", 0 ],
									"hidden" : 0,
									"midpoints" : [  ],
									"source" : [ "obj-7", 0 ]
								}

							}
, 							{
								"patchline" : 								{
									"destination" : [ "obj-5", 0 ],
									"hidden" : 0,
									"midpoints" : [  ],
									"source" : [ "obj-8", 0 ]
								}

							}
, 							{
								"patchline" : 								{
									"destination" : [ "obj-6", 0 ],
									"hidden" : 0,
									"midpoints" : [ 1164.5, 107.0, 144.5, 107.0 ],
									"source" : [ "obj-9", 0 ]
								}

							}
 ]
					}
,
					"patching_rect" : [ 345.0, 660.0, 559.0, 20.0 ],
					"saved_object_attributes" : 					{
						"fontface" : 0,
						"fontsize" : 12.0,
						"globalpatchername" : "",
						"default_fontface" : 0,
						"default_fontname" : "Arial",
						"fontname" : "Arial",
						"default_fontsize" : 12.0
					}
,
					"text" : "p namespaces"
				}

			}
, 			{
				"box" : 				{
					"color" : [ 0.741176, 0.184314, 0.756863, 1.0 ],
					"fontname" : "Arial",
					"fontsize" : 12.0,
					"id" : "obj-31",
					"maxclass" : "newobj",
					"numinlets" : 2,
					"numoutlets" : 1,
					"outlettype" : [ "int" ],
					"patcher" : 					{
						"fileversion" : 1,
						"rect" : [ 1672.0, 527.0, 128.0, 186.0 ],
						"bglocked" : 0,
						"defrect" : [ 1672.0, 527.0, 128.0, 186.0 ],
						"openrect" : [ 0.0, 0.0, 0.0, 0.0 ],
						"openinpresentation" : 0,
						"default_fontsize" : 12.0,
						"default_fontface" : 0,
						"default_fontname" : "Arial",
						"gridonopen" : 0,
						"gridsize" : [ 15.0, 15.0 ],
						"gridsnaponopen" : 0,
						"toolbarvisible" : 1,
						"boxanimatetime" : 200,
						"imprint" : 0,
						"enablehscroll" : 1,
						"enablevscroll" : 1,
						"devicewidth" : 0.0,
						"boxes" : [ 							{
								"box" : 								{
									"fontname" : "Arial",
									"fontsize" : 12.0,
									"id" : "obj-1",
									"maxclass" : "newobj",
									"numinlets" : 2,
									"numoutlets" : 1,
									"outlettype" : [ "int" ],
									"patching_rect" : [ 30.0, 75.0, 39.0, 20.0 ],
									"text" : "* 256"
								}

							}
, 							{
								"box" : 								{
									"fontname" : "Arial",
									"fontsize" : 12.0,
									"id" : "obj-66",
									"maxclass" : "newobj",
									"numinlets" : 2,
									"numoutlets" : 1,
									"outlettype" : [ "int" ],
									"patching_rect" : [ 30.0, 105.0, 48.5, 20.0 ],
									"text" : "+"
								}

							}
, 							{
								"box" : 								{
									"comment" : "",
									"id" : "obj-110",
									"maxclass" : "inlet",
									"numinlets" : 0,
									"numoutlets" : 1,
									"outlettype" : [ "int" ],
									"patching_rect" : [ 30.0, 30.0, 25.0, 25.0 ]
								}

							}
, 							{
								"box" : 								{
									"comment" : "",
									"id" : "obj-111",
									"maxclass" : "inlet",
									"numinlets" : 0,
									"numoutlets" : 1,
									"outlettype" : [ "int" ],
									"patching_rect" : [ 60.0, 30.0, 25.0, 25.0 ]
								}

							}
, 							{
								"box" : 								{
									"comment" : "",
									"id" : "obj-112",
									"maxclass" : "outlet",
									"numinlets" : 1,
									"numoutlets" : 0,
									"patching_rect" : [ 30.0, 135.0, 25.0, 25.0 ]
								}

							}
 ],
						"lines" : [ 							{
								"patchline" : 								{
									"destination" : [ "obj-66", 0 ],
									"hidden" : 0,
									"midpoints" : [  ],
									"source" : [ "obj-1", 0 ]
								}

							}
, 							{
								"patchline" : 								{
									"destination" : [ "obj-1", 0 ],
									"hidden" : 0,
									"midpoints" : [  ],
									"source" : [ "obj-110", 0 ]
								}

							}
, 							{
								"patchline" : 								{
									"destination" : [ "obj-66", 1 ],
									"hidden" : 0,
									"midpoints" : [  ],
									"source" : [ "obj-111", 0 ]
								}

							}
, 							{
								"patchline" : 								{
									"destination" : [ "obj-112", 0 ],
									"hidden" : 0,
									"midpoints" : [  ],
									"source" : [ "obj-66", 0 ]
								}

							}
 ]
					}
,
					"patching_rect" : [ 645.0, 480.0, 49.0, 20.0 ],
					"saved_object_attributes" : 					{
						"fontface" : 0,
						"fontsize" : 12.0,
						"globalpatchername" : "",
						"default_fontface" : 0,
						"default_fontname" : "Arial",
						"fontname" : "Arial",
						"default_fontsize" : 12.0
					}
,
					"text" : "p 10bit"
				}

			}
, 			{
				"box" : 				{
					"color" : [ 0.741176, 0.184314, 0.756863, 1.0 ],
					"fontname" : "Arial",
					"fontsize" : 12.0,
					"id" : "obj-28",
					"maxclass" : "newobj",
					"numinlets" : 2,
					"numoutlets" : 1,
					"outlettype" : [ "int" ],
					"patcher" : 					{
						"fileversion" : 1,
						"rect" : [ 1672.0, 527.0, 128.0, 186.0 ],
						"bglocked" : 0,
						"defrect" : [ 1672.0, 527.0, 128.0, 186.0 ],
						"openrect" : [ 0.0, 0.0, 0.0, 0.0 ],
						"openinpresentation" : 0,
						"default_fontsize" : 12.0,
						"default_fontface" : 0,
						"default_fontname" : "Arial",
						"gridonopen" : 0,
						"gridsize" : [ 15.0, 15.0 ],
						"gridsnaponopen" : 0,
						"toolbarvisible" : 1,
						"boxanimatetime" : 200,
						"imprint" : 0,
						"enablehscroll" : 1,
						"enablevscroll" : 1,
						"devicewidth" : 0.0,
						"boxes" : [ 							{
								"box" : 								{
									"fontname" : "Arial",
									"fontsize" : 12.0,
									"id" : "obj-1",
									"maxclass" : "newobj",
									"numinlets" : 2,
									"numoutlets" : 1,
									"outlettype" : [ "int" ],
									"patching_rect" : [ 30.0, 75.0, 39.0, 20.0 ],
									"text" : "* 256"
								}

							}
, 							{
								"box" : 								{
									"fontname" : "Arial",
									"fontsize" : 12.0,
									"id" : "obj-66",
									"maxclass" : "newobj",
									"numinlets" : 2,
									"numoutlets" : 1,
									"outlettype" : [ "int" ],
									"patching_rect" : [ 30.0, 105.0, 48.5, 20.0 ],
									"text" : "+"
								}

							}
, 							{
								"box" : 								{
									"comment" : "",
									"id" : "obj-110",
									"maxclass" : "inlet",
									"numinlets" : 0,
									"numoutlets" : 1,
									"outlettype" : [ "int" ],
									"patching_rect" : [ 30.0, 30.0, 25.0, 25.0 ]
								}

							}
, 							{
								"box" : 								{
									"comment" : "",
									"id" : "obj-111",
									"maxclass" : "inlet",
									"numinlets" : 0,
									"numoutlets" : 1,
									"outlettype" : [ "int" ],
									"patching_rect" : [ 60.0, 30.0, 25.0, 25.0 ]
								}

							}
, 							{
								"box" : 								{
									"comment" : "",
									"id" : "obj-112",
									"maxclass" : "outlet",
									"numinlets" : 1,
									"numoutlets" : 0,
									"patching_rect" : [ 30.0, 135.0, 25.0, 25.0 ]
								}

							}
 ],
						"lines" : [ 							{
								"patchline" : 								{
									"destination" : [ "obj-66", 0 ],
									"hidden" : 0,
									"midpoints" : [  ],
									"source" : [ "obj-1", 0 ]
								}

							}
, 							{
								"patchline" : 								{
									"destination" : [ "obj-1", 0 ],
									"hidden" : 0,
									"midpoints" : [  ],
									"source" : [ "obj-110", 0 ]
								}

							}
, 							{
								"patchline" : 								{
									"destination" : [ "obj-66", 1 ],
									"hidden" : 0,
									"midpoints" : [  ],
									"source" : [ "obj-111", 0 ]
								}

							}
, 							{
								"patchline" : 								{
									"destination" : [ "obj-112", 0 ],
									"hidden" : 0,
									"midpoints" : [  ],
									"source" : [ "obj-66", 0 ]
								}

							}
 ]
					}
,
					"patching_rect" : [ 585.0, 480.0, 49.0, 20.0 ],
					"saved_object_attributes" : 					{
						"fontface" : 0,
						"fontsize" : 12.0,
						"globalpatchername" : "",
						"default_fontface" : 0,
						"default_fontname" : "Arial",
						"fontname" : "Arial",
						"default_fontsize" : 12.0
					}
,
					"text" : "p 10bit"
				}

			}
, 			{
				"box" : 				{
					"color" : [ 0.741176, 0.184314, 0.756863, 1.0 ],
					"fontname" : "Arial",
					"fontsize" : 12.0,
					"id" : "obj-26",
					"maxclass" : "newobj",
					"numinlets" : 2,
					"numoutlets" : 1,
					"outlettype" : [ "int" ],
					"patcher" : 					{
						"fileversion" : 1,
						"rect" : [ 1672.0, 527.0, 128.0, 186.0 ],
						"bglocked" : 0,
						"defrect" : [ 1672.0, 527.0, 128.0, 186.0 ],
						"openrect" : [ 0.0, 0.0, 0.0, 0.0 ],
						"openinpresentation" : 0,
						"default_fontsize" : 12.0,
						"default_fontface" : 0,
						"default_fontname" : "Arial",
						"gridonopen" : 0,
						"gridsize" : [ 15.0, 15.0 ],
						"gridsnaponopen" : 0,
						"toolbarvisible" : 1,
						"boxanimatetime" : 200,
						"imprint" : 0,
						"enablehscroll" : 1,
						"enablevscroll" : 1,
						"devicewidth" : 0.0,
						"boxes" : [ 							{
								"box" : 								{
									"fontname" : "Arial",
									"fontsize" : 12.0,
									"id" : "obj-1",
									"maxclass" : "newobj",
									"numinlets" : 2,
									"numoutlets" : 1,
									"outlettype" : [ "int" ],
									"patching_rect" : [ 30.0, 75.0, 39.0, 20.0 ],
									"text" : "* 256"
								}

							}
, 							{
								"box" : 								{
									"fontname" : "Arial",
									"fontsize" : 12.0,
									"id" : "obj-66",
									"maxclass" : "newobj",
									"numinlets" : 2,
									"numoutlets" : 1,
									"outlettype" : [ "int" ],
									"patching_rect" : [ 30.0, 105.0, 48.5, 20.0 ],
									"text" : "+"
								}

							}
, 							{
								"box" : 								{
									"comment" : "",
									"id" : "obj-110",
									"maxclass" : "inlet",
									"numinlets" : 0,
									"numoutlets" : 1,
									"outlettype" : [ "int" ],
									"patching_rect" : [ 30.0, 30.0, 25.0, 25.0 ]
								}

							}
, 							{
								"box" : 								{
									"comment" : "",
									"id" : "obj-111",
									"maxclass" : "inlet",
									"numinlets" : 0,
									"numoutlets" : 1,
									"outlettype" : [ "int" ],
									"patching_rect" : [ 60.0, 30.0, 25.0, 25.0 ]
								}

							}
, 							{
								"box" : 								{
									"comment" : "",
									"id" : "obj-112",
									"maxclass" : "outlet",
									"numinlets" : 1,
									"numoutlets" : 0,
									"patching_rect" : [ 30.0, 135.0, 25.0, 25.0 ]
								}

							}
 ],
						"lines" : [ 							{
								"patchline" : 								{
									"destination" : [ "obj-66", 0 ],
									"hidden" : 0,
									"midpoints" : [  ],
									"source" : [ "obj-1", 0 ]
								}

							}
, 							{
								"patchline" : 								{
									"destination" : [ "obj-1", 0 ],
									"hidden" : 0,
									"midpoints" : [  ],
									"source" : [ "obj-110", 0 ]
								}

							}
, 							{
								"patchline" : 								{
									"destination" : [ "obj-66", 1 ],
									"hidden" : 0,
									"midpoints" : [  ],
									"source" : [ "obj-111", 0 ]
								}

							}
, 							{
								"patchline" : 								{
									"destination" : [ "obj-112", 0 ],
									"hidden" : 0,
									"midpoints" : [  ],
									"source" : [ "obj-66", 0 ]
								}

							}
 ]
					}
,
					"patching_rect" : [ 525.0, 480.0, 49.0, 20.0 ],
					"saved_object_attributes" : 					{
						"fontface" : 0,
						"fontsize" : 12.0,
						"globalpatchername" : "",
						"default_fontface" : 0,
						"default_fontname" : "Arial",
						"fontname" : "Arial",
						"default_fontsize" : 12.0
					}
,
					"text" : "p 10bit"
				}

			}
, 			{
				"box" : 				{
					"color" : [ 0.741176, 0.184314, 0.756863, 1.0 ],
					"fontname" : "Arial",
					"fontsize" : 12.0,
					"id" : "obj-25",
					"maxclass" : "newobj",
					"numinlets" : 2,
					"numoutlets" : 1,
					"outlettype" : [ "int" ],
					"patcher" : 					{
						"fileversion" : 1,
						"rect" : [ 1672.0, 527.0, 128.0, 186.0 ],
						"bglocked" : 0,
						"defrect" : [ 1672.0, 527.0, 128.0, 186.0 ],
						"openrect" : [ 0.0, 0.0, 0.0, 0.0 ],
						"openinpresentation" : 0,
						"default_fontsize" : 12.0,
						"default_fontface" : 0,
						"default_fontname" : "Arial",
						"gridonopen" : 0,
						"gridsize" : [ 15.0, 15.0 ],
						"gridsnaponopen" : 0,
						"toolbarvisible" : 1,
						"boxanimatetime" : 200,
						"imprint" : 0,
						"enablehscroll" : 1,
						"enablevscroll" : 1,
						"devicewidth" : 0.0,
						"boxes" : [ 							{
								"box" : 								{
									"fontname" : "Arial",
									"fontsize" : 12.0,
									"id" : "obj-1",
									"maxclass" : "newobj",
									"numinlets" : 2,
									"numoutlets" : 1,
									"outlettype" : [ "int" ],
									"patching_rect" : [ 30.0, 75.0, 39.0, 20.0 ],
									"text" : "* 256"
								}

							}
, 							{
								"box" : 								{
									"fontname" : "Arial",
									"fontsize" : 12.0,
									"id" : "obj-66",
									"maxclass" : "newobj",
									"numinlets" : 2,
									"numoutlets" : 1,
									"outlettype" : [ "int" ],
									"patching_rect" : [ 30.0, 105.0, 48.5, 20.0 ],
									"text" : "+"
								}

							}
, 							{
								"box" : 								{
									"comment" : "",
									"id" : "obj-110",
									"maxclass" : "inlet",
									"numinlets" : 0,
									"numoutlets" : 1,
									"outlettype" : [ "int" ],
									"patching_rect" : [ 30.0, 30.0, 25.0, 25.0 ]
								}

							}
, 							{
								"box" : 								{
									"comment" : "",
									"id" : "obj-111",
									"maxclass" : "inlet",
									"numinlets" : 0,
									"numoutlets" : 1,
									"outlettype" : [ "int" ],
									"patching_rect" : [ 60.0, 30.0, 25.0, 25.0 ]
								}

							}
, 							{
								"box" : 								{
									"comment" : "",
									"id" : "obj-112",
									"maxclass" : "outlet",
									"numinlets" : 1,
									"numoutlets" : 0,
									"patching_rect" : [ 30.0, 135.0, 25.0, 25.0 ]
								}

							}
 ],
						"lines" : [ 							{
								"patchline" : 								{
									"destination" : [ "obj-66", 0 ],
									"hidden" : 0,
									"midpoints" : [  ],
									"source" : [ "obj-1", 0 ]
								}

							}
, 							{
								"patchline" : 								{
									"destination" : [ "obj-1", 0 ],
									"hidden" : 0,
									"midpoints" : [  ],
									"source" : [ "obj-110", 0 ]
								}

							}
, 							{
								"patchline" : 								{
									"destination" : [ "obj-66", 1 ],
									"hidden" : 0,
									"midpoints" : [  ],
									"source" : [ "obj-111", 0 ]
								}

							}
, 							{
								"patchline" : 								{
									"destination" : [ "obj-112", 0 ],
									"hidden" : 0,
									"midpoints" : [  ],
									"source" : [ "obj-66", 0 ]
								}

							}
 ]
					}
,
					"patching_rect" : [ 465.0, 480.0, 49.0, 20.0 ],
					"saved_object_attributes" : 					{
						"fontface" : 0,
						"fontsize" : 12.0,
						"globalpatchername" : "",
						"default_fontface" : 0,
						"default_fontname" : "Arial",
						"fontname" : "Arial",
						"default_fontsize" : 12.0
					}
,
					"text" : "p 10bit"
				}

			}
, 			{
				"box" : 				{
					"id" : "obj-12",
					"maxclass" : "multislider",
					"numinlets" : 1,
					"numoutlets" : 2,
					"outlettype" : [ "", "" ],
					"patching_rect" : [ 645.0, 510.0, 48.0, 140.0 ],
					"setminmax" : [ 0.0, 1023.0 ]
				}

			}
, 			{
				"box" : 				{
					"id" : "obj-37",
					"maxclass" : "multislider",
					"numinlets" : 1,
					"numoutlets" : 2,
					"outlettype" : [ "", "" ],
					"patching_rect" : [ 585.0, 510.0, 48.0, 140.0 ],
					"setminmax" : [ 0.0, 1023.0 ]
				}

			}
, 			{
				"box" : 				{
					"id" : "obj-44",
					"maxclass" : "multislider",
					"numinlets" : 1,
					"numoutlets" : 2,
					"outlettype" : [ "", "" ],
					"patching_rect" : [ 525.0, 510.0, 48.0, 140.0 ],
					"setminmax" : [ 0.0, 1023.0 ]
				}

			}
, 			{
				"box" : 				{
					"id" : "obj-49",
					"maxclass" : "multislider",
					"numinlets" : 1,
					"numoutlets" : 2,
					"outlettype" : [ "", "" ],
					"patching_rect" : [ 465.0, 510.0, 48.0, 140.0 ],
					"setminmax" : [ 0.0, 1023.0 ]
				}

			}
, 			{
				"box" : 				{
					"id" : "obj-50",
					"maxclass" : "multislider",
					"numinlets" : 1,
					"numoutlets" : 2,
					"outlettype" : [ "", "" ],
					"patching_rect" : [ 405.0, 510.0, 48.0, 140.0 ],
					"setminmax" : [ 0.0, 1023.0 ]
				}

			}
, 			{
				"box" : 				{
					"color" : [ 0.741176, 0.184314, 0.756863, 1.0 ],
					"fontname" : "Arial",
					"fontsize" : 12.0,
					"id" : "obj-51",
					"maxclass" : "newobj",
					"numinlets" : 2,
					"numoutlets" : 1,
					"outlettype" : [ "int" ],
					"patcher" : 					{
						"fileversion" : 1,
						"rect" : [ 1672.0, 527.0, 128.0, 186.0 ],
						"bglocked" : 0,
						"defrect" : [ 1672.0, 527.0, 128.0, 186.0 ],
						"openrect" : [ 0.0, 0.0, 0.0, 0.0 ],
						"openinpresentation" : 0,
						"default_fontsize" : 12.0,
						"default_fontface" : 0,
						"default_fontname" : "Arial",
						"gridonopen" : 0,
						"gridsize" : [ 15.0, 15.0 ],
						"gridsnaponopen" : 0,
						"toolbarvisible" : 1,
						"boxanimatetime" : 200,
						"imprint" : 0,
						"enablehscroll" : 1,
						"enablevscroll" : 1,
						"devicewidth" : 0.0,
						"boxes" : [ 							{
								"box" : 								{
									"fontname" : "Arial",
									"fontsize" : 12.0,
									"id" : "obj-1",
									"maxclass" : "newobj",
									"numinlets" : 2,
									"numoutlets" : 1,
									"outlettype" : [ "int" ],
									"patching_rect" : [ 30.0, 75.0, 39.0, 20.0 ],
									"text" : "* 256"
								}

							}
, 							{
								"box" : 								{
									"fontname" : "Arial",
									"fontsize" : 12.0,
									"id" : "obj-66",
									"maxclass" : "newobj",
									"numinlets" : 2,
									"numoutlets" : 1,
									"outlettype" : [ "int" ],
									"patching_rect" : [ 30.0, 105.0, 48.5, 20.0 ],
									"text" : "+"
								}

							}
, 							{
								"box" : 								{
									"comment" : "",
									"id" : "obj-110",
									"maxclass" : "inlet",
									"numinlets" : 0,
									"numoutlets" : 1,
									"outlettype" : [ "int" ],
									"patching_rect" : [ 30.0, 30.0, 25.0, 25.0 ]
								}

							}
, 							{
								"box" : 								{
									"comment" : "",
									"id" : "obj-111",
									"maxclass" : "inlet",
									"numinlets" : 0,
									"numoutlets" : 1,
									"outlettype" : [ "int" ],
									"patching_rect" : [ 60.0, 30.0, 25.0, 25.0 ]
								}

							}
, 							{
								"box" : 								{
									"comment" : "",
									"id" : "obj-112",
									"maxclass" : "outlet",
									"numinlets" : 1,
									"numoutlets" : 0,
									"patching_rect" : [ 30.0, 135.0, 25.0, 25.0 ]
								}

							}
 ],
						"lines" : [ 							{
								"patchline" : 								{
									"destination" : [ "obj-66", 0 ],
									"hidden" : 0,
									"midpoints" : [  ],
									"source" : [ "obj-1", 0 ]
								}

							}
, 							{
								"patchline" : 								{
									"destination" : [ "obj-1", 0 ],
									"hidden" : 0,
									"midpoints" : [  ],
									"source" : [ "obj-110", 0 ]
								}

							}
, 							{
								"patchline" : 								{
									"destination" : [ "obj-66", 1 ],
									"hidden" : 0,
									"midpoints" : [  ],
									"source" : [ "obj-111", 0 ]
								}

							}
, 							{
								"patchline" : 								{
									"destination" : [ "obj-112", 0 ],
									"hidden" : 0,
									"midpoints" : [  ],
									"source" : [ "obj-66", 0 ]
								}

							}
 ]
					}
,
					"patching_rect" : [ 405.0, 480.0, 49.0, 20.0 ],
					"saved_object_attributes" : 					{
						"fontface" : 0,
						"fontsize" : 12.0,
						"globalpatchername" : "",
						"default_fontface" : 0,
						"default_fontname" : "Arial",
						"fontname" : "Arial",
						"default_fontsize" : 12.0
					}
,
					"text" : "p 10bit"
				}

			}
, 			{
				"box" : 				{
					"fontname" : "Arial",
					"fontsize" : 12.0,
					"id" : "obj-55",
					"maxclass" : "newobj",
					"numinlets" : 1,
					"numoutlets" : 18,
					"outlettype" : [ "int", "int", "int", "int", "int", "int", "int", "int", "int", "int", "int", "int", "int", "int", "int", "int", "int", "int" ],
					"patching_rect" : [ 405.0, 450.0, 528.5, 20.0 ],
					"text" : "unpack i i i i i i i i i i i i i i i i i i"
				}

			}
, 			{
				"box" : 				{
					"fontname" : "Arial",
					"fontsize" : 12.0,
					"id" : "obj-19",
					"maxclass" : "newobj",
					"numinlets" : 1,
					"numoutlets" : 1,
					"outlettype" : [ "int" ],
					"patching_rect" : [ 165.0, 45.0, 24.0, 20.0 ],
					"text" : "t 0"
				}

			}
, 			{
				"box" : 				{
					"fontname" : "Arial",
					"fontsize" : 12.0,
					"id" : "obj-7",
					"maxclass" : "newobj",
					"numinlets" : 0,
					"numoutlets" : 1,
					"outlettype" : [ "bang" ],
					"patching_rect" : [ 165.0, 15.0, 58.0, 20.0 ],
					"text" : "freebang"
				}

			}
, 			{
				"box" : 				{
					"fontname" : "Arial",
					"fontsize" : 12.0,
					"frgb" : [ 0.0, 0.0, 0.0, 1.0 ],
					"id" : "obj-18",
					"maxclass" : "comment",
					"numinlets" : 1,
					"numoutlets" : 0,
					"patching_rect" : [ 495.0, 30.0, 228.0, 20.0 ],
					"text" : "choose serial device (bang to reload list)"
				}

			}
, 			{
				"box" : 				{
					"fontname" : "Arial",
					"fontsize" : 12.0,
					"frgb" : [ 0.0, 0.0, 0.0, 1.0 ],
					"id" : "obj-13",
					"maxclass" : "comment",
					"numinlets" : 1,
					"numoutlets" : 0,
					"patching_rect" : [ 75.0, 30.0, 85.0, 20.0 ],
					"text" : "start/stop"
				}

			}
, 			{
				"box" : 				{
					"id" : "obj-8",
					"maxclass" : "button",
					"numinlets" : 1,
					"numoutlets" : 1,
					"outlettype" : [ "bang" ],
					"patching_rect" : [ 450.0, 315.0, 20.0, 20.0 ]
				}

			}
, 			{
				"box" : 				{
					"id" : "obj-2",
					"maxclass" : "multislider",
					"numinlets" : 1,
					"numoutlets" : 2,
					"outlettype" : [ "", "" ],
					"patching_rect" : [ 45.0, 510.0, 48.0, 140.0 ],
					"setminmax" : [ 0.0, 255.0 ],
					"size" : 6
				}

			}
, 			{
				"box" : 				{
					"comment" : "choose serial device (bang to reload list)",
					"id" : "obj-47",
					"maxclass" : "inlet",
					"numinlets" : 0,
					"numoutlets" : 1,
					"outlettype" : [ "" ],
					"patching_rect" : [ 465.0, 30.0, 25.0, 25.0 ]
				}

			}
, 			{
				"box" : 				{
					"comment" : "List of available serial devices",
					"id" : "obj-46",
					"maxclass" : "outlet",
					"numinlets" : 1,
					"numoutlets" : 0,
					"patching_rect" : [ 465.0, 375.0, 25.0, 25.0 ]
				}

			}
, 			{
				"box" : 				{
					"fontname" : "Arial",
					"fontsize" : 12.0,
					"hidden" : 1,
					"id" : "obj-21",
					"maxclass" : "newobj",
					"numinlets" : 1,
					"numoutlets" : 1,
					"outlettype" : [ "" ],
					"patching_rect" : [ 960.0, 570.0, 81.0, 20.0 ],
					"text" : "loadmess set"
				}

			}
, 			{
				"box" : 				{
					"fontname" : "Arial",
					"fontsize" : 12.0,
					"frgb" : [ 0.0, 0.0, 0.0, 1.0 ],
					"id" : "obj-27",
					"linecount" : 2,
					"maxclass" : "comment",
					"numinlets" : 1,
					"numoutlets" : 0,
					"patching_rect" : [ 1005.0, 660.0, 58.0, 34.0 ],
					"text" : "firmware revision"
				}

			}
, 			{
				"box" : 				{
					"fontname" : "Arial",
					"fontsize" : 24.0,
					"id" : "obj-29",
					"maxclass" : "message",
					"numinlets" : 2,
					"numoutlets" : 1,
					"outlettype" : [ "" ],
					"patching_rect" : [ 945.0, 660.0, 70.0, 32.0 ],
					"text" : "1793"
				}

			}
, 			{
				"box" : 				{
					"fontname" : "Arial",
					"fontsize" : 12.0,
					"frgb" : [ 0.0, 0.0, 0.0, 1.0 ],
					"id" : "obj-33",
					"maxclass" : "comment",
					"numinlets" : 1,
					"numoutlets" : 0,
					"patching_rect" : [ 1005.0, 615.0, 50.0, 20.0 ],
					"text" : "serial#"
				}

			}
, 			{
				"box" : 				{
					"fontname" : "Arial",
					"fontsize" : 24.0,
					"id" : "obj-36",
					"maxclass" : "message",
					"numinlets" : 2,
					"numoutlets" : 1,
					"outlettype" : [ "" ],
					"patching_rect" : [ 945.0, 615.0, 70.0, 32.0 ],
					"text" : "#015"
				}

			}
, 			{
				"box" : 				{
					"color" : [ 0.741176, 0.184314, 0.756863, 1.0 ],
					"fontname" : "Arial",
					"fontsize" : 12.0,
					"id" : "obj-45",
					"maxclass" : "newobj",
					"numinlets" : 1,
					"numoutlets" : 2,
					"outlettype" : [ "", "int" ],
					"patcher" : 					{
						"fileversion" : 1,
						"rect" : [ 959.0, 460.0, 568.0, 278.0 ],
						"bglocked" : 0,
						"defrect" : [ 959.0, 460.0, 568.0, 278.0 ],
						"openrect" : [ 0.0, 0.0, 0.0, 0.0 ],
						"openinpresentation" : 0,
						"default_fontsize" : 12.0,
						"default_fontface" : 0,
						"default_fontname" : "Arial",
						"gridonopen" : 0,
						"gridsize" : [ 15.0, 15.0 ],
						"gridsnaponopen" : 0,
						"toolbarvisible" : 1,
						"boxanimatetime" : 200,
						"imprint" : 0,
						"enablehscroll" : 1,
						"enablevscroll" : 1,
						"devicewidth" : 0.0,
						"boxes" : [ 							{
								"box" : 								{
									"color" : [ 0.741176, 0.184314, 0.756863, 1.0 ],
									"fontname" : "Arial",
									"fontsize" : 12.0,
									"id" : "obj-5",
									"maxclass" : "newobj",
									"numinlets" : 2,
									"numoutlets" : 1,
									"outlettype" : [ "int" ],
									"patcher" : 									{
										"fileversion" : 1,
										"rect" : [ 1672.0, 527.0, 128.0, 186.0 ],
										"bglocked" : 0,
										"defrect" : [ 1672.0, 527.0, 128.0, 186.0 ],
										"openrect" : [ 0.0, 0.0, 0.0, 0.0 ],
										"openinpresentation" : 0,
										"default_fontsize" : 12.0,
										"default_fontface" : 0,
										"default_fontname" : "Arial",
										"gridonopen" : 0,
										"gridsize" : [ 15.0, 15.0 ],
										"gridsnaponopen" : 0,
										"toolbarvisible" : 1,
										"boxanimatetime" : 200,
										"imprint" : 0,
										"enablehscroll" : 1,
										"enablevscroll" : 1,
										"devicewidth" : 0.0,
										"boxes" : [ 											{
												"box" : 												{
													"fontname" : "Arial",
													"fontsize" : 12.0,
													"id" : "obj-1",
													"maxclass" : "newobj",
													"numinlets" : 2,
													"numoutlets" : 1,
													"outlettype" : [ "int" ],
													"patching_rect" : [ 30.0, 75.0, 39.0, 20.0 ],
													"text" : "* 256"
												}

											}
, 											{
												"box" : 												{
													"fontname" : "Arial",
													"fontsize" : 12.0,
													"id" : "obj-66",
													"maxclass" : "newobj",
													"numinlets" : 2,
													"numoutlets" : 1,
													"outlettype" : [ "int" ],
													"patching_rect" : [ 30.0, 105.0, 48.5, 20.0 ],
													"text" : "+"
												}

											}
, 											{
												"box" : 												{
													"comment" : "",
													"id" : "obj-110",
													"maxclass" : "inlet",
													"numinlets" : 0,
													"numoutlets" : 1,
													"outlettype" : [ "int" ],
													"patching_rect" : [ 30.0, 30.0, 25.0, 25.0 ]
												}

											}
, 											{
												"box" : 												{
													"comment" : "",
													"id" : "obj-111",
													"maxclass" : "inlet",
													"numinlets" : 0,
													"numoutlets" : 1,
													"outlettype" : [ "int" ],
													"patching_rect" : [ 60.0, 30.0, 25.0, 25.0 ]
												}

											}
, 											{
												"box" : 												{
													"comment" : "",
													"id" : "obj-112",
													"maxclass" : "outlet",
													"numinlets" : 1,
													"numoutlets" : 0,
													"patching_rect" : [ 30.0, 135.0, 25.0, 25.0 ]
												}

											}
 ],
										"lines" : [ 											{
												"patchline" : 												{
													"destination" : [ "obj-66", 0 ],
													"hidden" : 0,
													"midpoints" : [  ],
													"source" : [ "obj-1", 0 ]
												}

											}
, 											{
												"patchline" : 												{
													"destination" : [ "obj-1", 0 ],
													"hidden" : 0,
													"midpoints" : [  ],
													"source" : [ "obj-110", 0 ]
												}

											}
, 											{
												"patchline" : 												{
													"destination" : [ "obj-66", 1 ],
													"hidden" : 0,
													"midpoints" : [  ],
													"source" : [ "obj-111", 0 ]
												}

											}
, 											{
												"patchline" : 												{
													"destination" : [ "obj-112", 0 ],
													"hidden" : 0,
													"midpoints" : [  ],
													"source" : [ "obj-66", 0 ]
												}

											}
 ]
									}
,
									"patching_rect" : [ 30.0, 90.0, 48.0, 20.0 ],
									"saved_object_attributes" : 									{
										"fontface" : 0,
										"fontsize" : 12.0,
										"globalpatchername" : "",
										"default_fontface" : 0,
										"default_fontname" : "Arial",
										"fontname" : "Arial",
										"default_fontsize" : 12.0
									}
,
									"text" : "p 16bit"
								}

							}
, 							{
								"box" : 								{
									"fontname" : "Arial",
									"fontsize" : 12.0,
									"id" : "obj-21",
									"maxclass" : "newobj",
									"numinlets" : 1,
									"numoutlets" : 1,
									"outlettype" : [ "" ],
									"patching_rect" : [ 360.0, 180.0, 73.0, 20.0 ],
									"text" : "sprintf \\\\#%i"
								}

							}
, 							{
								"box" : 								{
									"fontname" : "Arial",
									"fontsize" : 12.0,
									"id" : "obj-17",
									"maxclass" : "newobj",
									"numinlets" : 1,
									"numoutlets" : 1,
									"outlettype" : [ "" ],
									"patching_rect" : [ 30.0, 180.0, 87.0, 20.0 ],
									"text" : "sprintf \\\\#00%i"
								}

							}
, 							{
								"box" : 								{
									"fontname" : "Arial",
									"fontsize" : 12.0,
									"id" : "obj-13",
									"maxclass" : "newobj",
									"numinlets" : 1,
									"numoutlets" : 1,
									"outlettype" : [ "" ],
									"patching_rect" : [ 195.0, 180.0, 80.0, 20.0 ],
									"text" : "sprintf \\\\#0%i"
								}

							}
, 							{
								"box" : 								{
									"fontname" : "Arial",
									"fontsize" : 12.0,
									"id" : "obj-10",
									"maxclass" : "newobj",
									"numinlets" : 1,
									"numoutlets" : 2,
									"outlettype" : [ "", "" ],
									"patching_rect" : [ 195.0, 150.0, 184.0, 20.0 ],
									"text" : "if $i1<100 then $i1 else out2 $i1"
								}

							}
, 							{
								"box" : 								{
									"fontname" : "Arial",
									"fontsize" : 12.0,
									"id" : "obj-7",
									"maxclass" : "newobj",
									"numinlets" : 1,
									"numoutlets" : 2,
									"outlettype" : [ "", "" ],
									"patching_rect" : [ 30.0, 120.0, 184.0, 20.0 ],
									"text" : "if $i1<10 then $i1 else out2 $i1"
								}

							}
, 							{
								"box" : 								{
									"comment" : "",
									"id" : "obj-4",
									"maxclass" : "outlet",
									"numinlets" : 1,
									"numoutlets" : 0,
									"patching_rect" : [ 465.0, 225.0, 25.0, 25.0 ]
								}

							}
, 							{
								"box" : 								{
									"comment" : "",
									"id" : "obj-3",
									"maxclass" : "outlet",
									"numinlets" : 1,
									"numoutlets" : 0,
									"patching_rect" : [ 30.0, 225.0, 25.0, 25.0 ]
								}

							}
, 							{
								"box" : 								{
									"color" : [ 0.741176, 0.184314, 0.756863, 1.0 ],
									"fontname" : "Arial",
									"fontsize" : 12.0,
									"id" : "obj-31",
									"maxclass" : "newobj",
									"numinlets" : 2,
									"numoutlets" : 1,
									"outlettype" : [ "int" ],
									"patcher" : 									{
										"fileversion" : 1,
										"rect" : [ 1672.0, 527.0, 128.0, 186.0 ],
										"bglocked" : 0,
										"defrect" : [ 1672.0, 527.0, 128.0, 186.0 ],
										"openrect" : [ 0.0, 0.0, 0.0, 0.0 ],
										"openinpresentation" : 0,
										"default_fontsize" : 12.0,
										"default_fontface" : 0,
										"default_fontname" : "Arial",
										"gridonopen" : 0,
										"gridsize" : [ 15.0, 15.0 ],
										"gridsnaponopen" : 0,
										"toolbarvisible" : 1,
										"boxanimatetime" : 200,
										"imprint" : 0,
										"enablehscroll" : 1,
										"enablevscroll" : 1,
										"devicewidth" : 0.0,
										"boxes" : [ 											{
												"box" : 												{
													"fontname" : "Arial",
													"fontsize" : 12.0,
													"id" : "obj-1",
													"maxclass" : "newobj",
													"numinlets" : 2,
													"numoutlets" : 1,
													"outlettype" : [ "int" ],
													"patching_rect" : [ 30.0, 75.0, 39.0, 20.0 ],
													"text" : "* 256"
												}

											}
, 											{
												"box" : 												{
													"fontname" : "Arial",
													"fontsize" : 12.0,
													"id" : "obj-66",
													"maxclass" : "newobj",
													"numinlets" : 2,
													"numoutlets" : 1,
													"outlettype" : [ "int" ],
													"patching_rect" : [ 30.0, 105.0, 48.5, 20.0 ],
													"text" : "+"
												}

											}
, 											{
												"box" : 												{
													"comment" : "",
													"id" : "obj-110",
													"maxclass" : "inlet",
													"numinlets" : 0,
													"numoutlets" : 1,
													"outlettype" : [ "int" ],
													"patching_rect" : [ 30.0, 30.0, 25.0, 25.0 ]
												}

											}
, 											{
												"box" : 												{
													"comment" : "",
													"id" : "obj-111",
													"maxclass" : "inlet",
													"numinlets" : 0,
													"numoutlets" : 1,
													"outlettype" : [ "int" ],
													"patching_rect" : [ 60.0, 30.0, 25.0, 25.0 ]
												}

											}
, 											{
												"box" : 												{
													"comment" : "",
													"id" : "obj-112",
													"maxclass" : "outlet",
													"numinlets" : 1,
													"numoutlets" : 0,
													"patching_rect" : [ 30.0, 135.0, 25.0, 25.0 ]
												}

											}
 ],
										"lines" : [ 											{
												"patchline" : 												{
													"destination" : [ "obj-66", 0 ],
													"hidden" : 0,
													"midpoints" : [  ],
													"source" : [ "obj-1", 0 ]
												}

											}
, 											{
												"patchline" : 												{
													"destination" : [ "obj-1", 0 ],
													"hidden" : 0,
													"midpoints" : [  ],
													"source" : [ "obj-110", 0 ]
												}

											}
, 											{
												"patchline" : 												{
													"destination" : [ "obj-66", 1 ],
													"hidden" : 0,
													"midpoints" : [  ],
													"source" : [ "obj-111", 0 ]
												}

											}
, 											{
												"patchline" : 												{
													"destination" : [ "obj-112", 0 ],
													"hidden" : 0,
													"midpoints" : [  ],
													"source" : [ "obj-66", 0 ]
												}

											}
 ]
									}
,
									"patching_rect" : [ 465.0, 90.0, 48.0, 20.0 ],
									"saved_object_attributes" : 									{
										"fontface" : 0,
										"fontsize" : 12.0,
										"globalpatchername" : "",
										"default_fontface" : 0,
										"default_fontname" : "Arial",
										"fontname" : "Arial",
										"default_fontsize" : 12.0
									}
,
									"text" : "p 16bit"
								}

							}
, 							{
								"box" : 								{
									"fontname" : "Arial",
									"fontsize" : 12.0,
									"id" : "obj-2",
									"maxclass" : "newobj",
									"numinlets" : 1,
									"numoutlets" : 4,
									"outlettype" : [ "int", "int", "int", "int" ],
									"patching_rect" : [ 30.0, 60.0, 483.0, 20.0 ],
									"text" : "unpack i i i i"
								}

							}
, 							{
								"box" : 								{
									"comment" : "",
									"id" : "obj-1",
									"maxclass" : "inlet",
									"numinlets" : 0,
									"numoutlets" : 1,
									"outlettype" : [ "" ],
									"patching_rect" : [ 30.0, 30.0, 25.0, 25.0 ]
								}

							}
 ],
						"lines" : [ 							{
								"patchline" : 								{
									"destination" : [ "obj-2", 0 ],
									"hidden" : 0,
									"midpoints" : [  ],
									"source" : [ "obj-1", 0 ]
								}

							}
, 							{
								"patchline" : 								{
									"destination" : [ "obj-13", 0 ],
									"hidden" : 0,
									"midpoints" : [  ],
									"source" : [ "obj-10", 0 ]
								}

							}
, 							{
								"patchline" : 								{
									"destination" : [ "obj-21", 0 ],
									"hidden" : 0,
									"midpoints" : [  ],
									"source" : [ "obj-10", 1 ]
								}

							}
, 							{
								"patchline" : 								{
									"destination" : [ "obj-3", 0 ],
									"hidden" : 0,
									"midpoints" : [ 204.5, 212.0, 39.5, 212.0 ],
									"source" : [ "obj-13", 0 ]
								}

							}
, 							{
								"patchline" : 								{
									"destination" : [ "obj-3", 0 ],
									"hidden" : 0,
									"midpoints" : [  ],
									"source" : [ "obj-17", 0 ]
								}

							}
, 							{
								"patchline" : 								{
									"destination" : [ "obj-31", 1 ],
									"hidden" : 0,
									"midpoints" : [  ],
									"source" : [ "obj-2", 3 ]
								}

							}
, 							{
								"patchline" : 								{
									"destination" : [ "obj-31", 0 ],
									"hidden" : 0,
									"midpoints" : [  ],
									"source" : [ "obj-2", 2 ]
								}

							}
, 							{
								"patchline" : 								{
									"destination" : [ "obj-5", 1 ],
									"hidden" : 0,
									"midpoints" : [  ],
									"source" : [ "obj-2", 1 ]
								}

							}
, 							{
								"patchline" : 								{
									"destination" : [ "obj-5", 0 ],
									"hidden" : 0,
									"midpoints" : [  ],
									"source" : [ "obj-2", 0 ]
								}

							}
, 							{
								"patchline" : 								{
									"destination" : [ "obj-3", 0 ],
									"hidden" : 0,
									"midpoints" : [ 369.5, 212.0, 39.5, 212.0 ],
									"source" : [ "obj-21", 0 ]
								}

							}
, 							{
								"patchline" : 								{
									"destination" : [ "obj-4", 0 ],
									"hidden" : 0,
									"midpoints" : [  ],
									"source" : [ "obj-31", 0 ]
								}

							}
, 							{
								"patchline" : 								{
									"destination" : [ "obj-7", 0 ],
									"hidden" : 0,
									"midpoints" : [  ],
									"source" : [ "obj-5", 0 ]
								}

							}
, 							{
								"patchline" : 								{
									"destination" : [ "obj-10", 0 ],
									"hidden" : 0,
									"midpoints" : [  ],
									"source" : [ "obj-7", 1 ]
								}

							}
, 							{
								"patchline" : 								{
									"destination" : [ "obj-17", 0 ],
									"hidden" : 0,
									"midpoints" : [  ],
									"source" : [ "obj-7", 0 ]
								}

							}
 ]
					}
,
					"patching_rect" : [ 945.0, 450.0, 40.0, 20.0 ],
					"saved_object_attributes" : 					{
						"fontface" : 0,
						"fontsize" : 12.0,
						"globalpatchername" : "",
						"default_fontface" : 0,
						"default_fontname" : "Arial",
						"fontname" : "Arial",
						"default_fontsize" : 12.0
					}
,
					"text" : "p info"
				}

			}
, 			{
				"box" : 				{
					"comment" : "Touch Mask (list of 6 bytes)",
					"id" : "obj-6",
					"maxclass" : "inlet",
					"numinlets" : 0,
					"numoutlets" : 1,
					"outlettype" : [ "" ],
					"patching_rect" : [ 270.0, 30.0, 25.0, 25.0 ]
				}

			}
, 			{
				"box" : 				{
					"id" : "obj-52",
					"maxclass" : "toggle",
					"numinlets" : 1,
					"numoutlets" : 1,
					"outlettype" : [ "int" ],
					"patching_rect" : [ 270.0, 75.0, 20.0, 20.0 ]
				}

			}
, 			{
				"box" : 				{
					"fontname" : "Arial",
					"fontsize" : 12.0,
					"id" : "obj-35",
					"maxclass" : "newobj",
					"numinlets" : 1,
					"numoutlets" : 6,
					"outlettype" : [ "int", "int", "int", "int", "int", "int" ],
					"patcher" : 					{
						"fileversion" : 1,
						"rect" : [ 25.0, 69.0, 640.0, 480.0 ],
						"bglocked" : 0,
						"defrect" : [ 25.0, 69.0, 640.0, 480.0 ],
						"openrect" : [ 0.0, 0.0, 0.0, 0.0 ],
						"openinpresentation" : 0,
						"default_fontsize" : 12.0,
						"default_fontface" : 0,
						"default_fontname" : "Arial",
						"gridonopen" : 0,
						"gridsize" : [ 15.0, 15.0 ],
						"gridsnaponopen" : 0,
						"toolbarvisible" : 1,
						"boxanimatetime" : 200,
						"imprint" : 0,
						"enablehscroll" : 1,
						"enablevscroll" : 1,
						"devicewidth" : 0.0,
						"boxes" : [ 							{
								"box" : 								{
									"comment" : "",
									"id" : "obj-9",
									"maxclass" : "outlet",
									"numinlets" : 1,
									"numoutlets" : 0,
									"patching_rect" : [ 225.0, 240.0, 25.0, 25.0 ]
								}

							}
, 							{
								"box" : 								{
									"comment" : "",
									"id" : "obj-10",
									"maxclass" : "outlet",
									"numinlets" : 1,
									"numoutlets" : 0,
									"patching_rect" : [ 195.0, 240.0, 25.0, 25.0 ]
								}

							}
, 							{
								"box" : 								{
									"comment" : "",
									"id" : "obj-7",
									"maxclass" : "outlet",
									"numinlets" : 1,
									"numoutlets" : 0,
									"patching_rect" : [ 165.0, 240.0, 25.0, 25.0 ]
								}

							}
, 							{
								"box" : 								{
									"comment" : "",
									"id" : "obj-8",
									"maxclass" : "outlet",
									"numinlets" : 1,
									"numoutlets" : 0,
									"patching_rect" : [ 135.0, 240.0, 25.0, 25.0 ]
								}

							}
, 							{
								"box" : 								{
									"comment" : "",
									"id" : "obj-6",
									"maxclass" : "outlet",
									"numinlets" : 1,
									"numoutlets" : 0,
									"patching_rect" : [ 105.0, 240.0, 25.0, 25.0 ]
								}

							}
, 							{
								"box" : 								{
									"comment" : "",
									"id" : "obj-5",
									"maxclass" : "outlet",
									"numinlets" : 1,
									"numoutlets" : 0,
									"patching_rect" : [ 75.0, 240.0, 25.0, 25.0 ]
								}

							}
, 							{
								"box" : 								{
									"fontname" : "Arial",
									"fontsize" : 12.0,
									"id" : "obj-4",
									"maxclass" : "newobj",
									"numinlets" : 1,
									"numoutlets" : 6,
									"outlettype" : [ "int", "int", "int", "int", "int", "int" ],
									"patching_rect" : [ 75.0, 210.0, 168.5, 20.0 ],
									"text" : "unpack i i i i i i"
								}

							}
, 							{
								"box" : 								{
									"fontname" : "Arial",
									"fontsize" : 12.0,
									"id" : "obj-3",
									"maxclass" : "message",
									"numinlets" : 2,
									"numoutlets" : 1,
									"outlettype" : [ "" ],
									"patching_rect" : [ 210.0, 150.0, 147.0, 18.0 ],
									"text" : "255 255 255 255 255 255"
								}

							}
, 							{
								"box" : 								{
									"fontname" : "Arial",
									"fontsize" : 12.0,
									"id" : "obj-33",
									"linecount" : 2,
									"maxclass" : "message",
									"numinlets" : 2,
									"numoutlets" : 1,
									"outlettype" : [ "" ],
									"patching_rect" : [ 75.0, 150.0, 134.0, 32.0 ],
									"text" : "159 231 121 158 231 249"
								}

							}
, 							{
								"box" : 								{
									"fontname" : "Arial",
									"fontsize" : 12.0,
									"id" : "obj-2",
									"maxclass" : "newobj",
									"numinlets" : 1,
									"numoutlets" : 3,
									"outlettype" : [ "bang", "bang", "" ],
									"patching_rect" : [ 75.0, 105.0, 288.0, 20.0 ],
									"text" : "sel 1 0"
								}

							}
, 							{
								"box" : 								{
									"comment" : "",
									"id" : "obj-1",
									"maxclass" : "inlet",
									"numinlets" : 0,
									"numoutlets" : 1,
									"outlettype" : [ "int" ],
									"patching_rect" : [ 75.0, 45.0, 25.0, 25.0 ]
								}

							}
 ],
						"lines" : [ 							{
								"patchline" : 								{
									"destination" : [ "obj-2", 0 ],
									"hidden" : 0,
									"midpoints" : [  ],
									"source" : [ "obj-1", 0 ]
								}

							}
, 							{
								"patchline" : 								{
									"destination" : [ "obj-3", 0 ],
									"hidden" : 0,
									"midpoints" : [  ],
									"source" : [ "obj-2", 1 ]
								}

							}
, 							{
								"patchline" : 								{
									"destination" : [ "obj-33", 0 ],
									"hidden" : 0,
									"midpoints" : [  ],
									"source" : [ "obj-2", 0 ]
								}

							}
, 							{
								"patchline" : 								{
									"destination" : [ "obj-4", 0 ],
									"hidden" : 0,
									"midpoints" : [ 219.5, 188.5, 84.5, 188.5 ],
									"source" : [ "obj-3", 0 ]
								}

							}
, 							{
								"patchline" : 								{
									"destination" : [ "obj-4", 0 ],
									"hidden" : 0,
									"midpoints" : [  ],
									"source" : [ "obj-33", 0 ]
								}

							}
, 							{
								"patchline" : 								{
									"destination" : [ "obj-10", 0 ],
									"hidden" : 0,
									"midpoints" : [  ],
									"source" : [ "obj-4", 4 ]
								}

							}
, 							{
								"patchline" : 								{
									"destination" : [ "obj-5", 0 ],
									"hidden" : 0,
									"midpoints" : [  ],
									"source" : [ "obj-4", 0 ]
								}

							}
, 							{
								"patchline" : 								{
									"destination" : [ "obj-6", 0 ],
									"hidden" : 0,
									"midpoints" : [  ],
									"source" : [ "obj-4", 1 ]
								}

							}
, 							{
								"patchline" : 								{
									"destination" : [ "obj-7", 0 ],
									"hidden" : 0,
									"midpoints" : [  ],
									"source" : [ "obj-4", 3 ]
								}

							}
, 							{
								"patchline" : 								{
									"destination" : [ "obj-8", 0 ],
									"hidden" : 0,
									"midpoints" : [  ],
									"source" : [ "obj-4", 2 ]
								}

							}
, 							{
								"patchline" : 								{
									"destination" : [ "obj-9", 0 ],
									"hidden" : 0,
									"midpoints" : [  ],
									"source" : [ "obj-4", 5 ]
								}

							}
 ]
					}
,
					"patching_rect" : [ 270.0, 105.0, 94.0, 20.0 ],
					"saved_object_attributes" : 					{
						"fontface" : 0,
						"fontsize" : 12.0,
						"globalpatchername" : "",
						"default_fontface" : 0,
						"default_fontname" : "Arial",
						"fontname" : "Arial",
						"default_fontsize" : 12.0
					}
,
					"text" : "p masks"
				}

			}
, 			{
				"box" : 				{
					"fontname" : "Arial",
					"fontsize" : 12.0,
					"id" : "obj-169",
					"maxclass" : "newobj",
					"numinlets" : 2,
					"numoutlets" : 1,
					"outlettype" : [ "bang" ],
					"patching_rect" : [ 135.0, 225.0, 50.0, 20.0 ],
					"text" : "del 500"
				}

			}
, 			{
				"box" : 				{
					"fontname" : "Arial",
					"fontsize" : 12.0,
					"frgb" : [ 0.0, 0.0, 0.0, 1.0 ],
					"id" : "obj-152",
					"maxclass" : "comment",
					"numinlets" : 1,
					"numoutlets" : 0,
					"patching_rect" : [ 300.0, 30.0, 85.0, 20.0 ],
					"text" : "touch mask"
				}

			}
, 			{
				"box" : 				{
					"fontname" : "Arial",
					"fontsize" : 12.0,
					"id" : "obj-151",
					"maxclass" : "newobj",
					"numinlets" : 1,
					"numoutlets" : 1,
					"outlettype" : [ "" ],
					"patching_rect" : [ 195.0, 300.0, 20.0, 20.0 ],
					"text" : "t l"
				}

			}
, 			{
				"box" : 				{
					"fontname" : "Arial",
					"fontsize" : 12.0,
					"id" : "obj-150",
					"maxclass" : "newobj",
					"numinlets" : 1,
					"numoutlets" : 1,
					"outlettype" : [ "" ],
					"patching_rect" : [ 45.0, 300.0, 20.0, 20.0 ],
					"text" : "t l"
				}

			}
, 			{
				"box" : 				{
					"fontname" : "Arial",
					"fontsize" : 12.0,
					"id" : "obj-148",
					"maxclass" : "newobj",
					"numinlets" : 1,
					"numoutlets" : 1,
					"outlettype" : [ "" ],
					"patching_rect" : [ 270.0, 300.0, 94.0, 20.0 ],
					"text" : "prepend 119 84"
				}

			}
, 			{
				"box" : 				{
					"disabled" : [ 0, 0, 0, 0, 0, 0, 0, 0 ],
					"flagmode" : 1,
					"id" : "obj-147",
					"itemtype" : 1,
					"maxclass" : "radiogroup",
					"numinlets" : 1,
					"numoutlets" : 1,
					"outlettype" : [ "" ],
					"patching_rect" : [ 345.0, 135.0, 18.0, 130.0 ],
					"size" : 8,
					"values" : [ 1, 0, 0, 1, 1, 1, 1, 1 ]
				}

			}
, 			{
				"box" : 				{
					"disabled" : [ 0, 0, 0, 0, 0, 0, 0, 0 ],
					"flagmode" : 1,
					"id" : "obj-146",
					"itemtype" : 1,
					"maxclass" : "radiogroup",
					"numinlets" : 1,
					"numoutlets" : 1,
					"outlettype" : [ "" ],
					"patching_rect" : [ 330.0, 135.0, 18.0, 130.0 ],
					"size" : 8,
					"values" : [ 1, 1, 1, 0, 0, 1, 1, 1 ]
				}

			}
, 			{
				"box" : 				{
					"disabled" : [ 0, 0, 0, 0, 0, 0, 0, 0 ],
					"flagmode" : 1,
					"id" : "obj-145",
					"itemtype" : 1,
					"maxclass" : "radiogroup",
					"numinlets" : 1,
					"numoutlets" : 1,
					"outlettype" : [ "" ],
					"patching_rect" : [ 315.0, 135.0, 18.0, 130.0 ],
					"size" : 8,
					"values" : [ 0, 1, 1, 1, 1, 0, 0, 1 ]
				}

			}
, 			{
				"box" : 				{
					"disabled" : [ 0, 0, 0, 0, 0, 0, 0, 0 ],
					"flagmode" : 1,
					"id" : "obj-144",
					"itemtype" : 1,
					"maxclass" : "radiogroup",
					"numinlets" : 1,
					"numoutlets" : 1,
					"outlettype" : [ "" ],
					"patching_rect" : [ 300.0, 135.0, 18.0, 130.0 ],
					"size" : 8,
					"values" : [ 1, 0, 0, 1, 1, 1, 1, 0 ]
				}

			}
, 			{
				"box" : 				{
					"disabled" : [ 0, 0, 0, 0, 0, 0, 0, 0 ],
					"flagmode" : 1,
					"id" : "obj-143",
					"itemtype" : 1,
					"maxclass" : "radiogroup",
					"numinlets" : 1,
					"numoutlets" : 1,
					"outlettype" : [ "" ],
					"patching_rect" : [ 285.0, 135.0, 18.0, 130.0 ],
					"size" : 8,
					"values" : [ 1, 1, 1, 0, 0, 1, 1, 1 ]
				}

			}
, 			{
				"box" : 				{
					"fontname" : "Arial",
					"fontsize" : 12.0,
					"id" : "obj-142",
					"maxclass" : "newobj",
					"numinlets" : 6,
					"numoutlets" : 1,
					"outlettype" : [ "" ],
					"patching_rect" : [ 270.0, 270.0, 93.5, 20.0 ],
					"text" : "pak i i i i i i"
				}

			}
, 			{
				"box" : 				{
					"disabled" : [ 0, 0, 0, 0, 0, 0, 0, 0 ],
					"flagmode" : 1,
					"id" : "obj-139",
					"itemtype" : 1,
					"maxclass" : "radiogroup",
					"numinlets" : 1,
					"numoutlets" : 1,
					"outlettype" : [ "" ],
					"patching_rect" : [ 270.0, 135.0, 18.0, 130.0 ],
					"size" : 8,
					"values" : [ 1, 1, 1, 1, 1, 0, 0, 1 ]
				}

			}
, 			{
				"box" : 				{
					"fontname" : "Arial",
					"fontsize" : 12.0,
					"id" : "obj-43",
					"maxclass" : "newobj",
					"numinlets" : 1,
					"numoutlets" : 3,
					"outlettype" : [ "bang", "bang", "" ],
					"patching_rect" : [ 45.0, 75.0, 199.0, 20.0 ],
					"text" : "sel 1 0"
				}

			}
, 			{
				"box" : 				{
					"annotation" : "",
					"comment" : "start/stop (0/1)",
					"hint" : "",
					"id" : "obj-40",
					"maxclass" : "inlet",
					"numinlets" : 0,
					"numoutlets" : 1,
					"outlettype" : [ "" ],
					"patching_rect" : [ 45.0, 30.0, 25.0, 25.0 ]
				}

			}
, 			{
				"box" : 				{
					"comment" : "OSC output data",
					"id" : "obj-5",
					"maxclass" : "outlet",
					"numinlets" : 1,
					"numoutlets" : 0,
					"patching_rect" : [ 345.0, 705.0, 25.0, 25.0 ]
				}

			}
, 			{
				"box" : 				{
					"fontname" : "Arial",
					"fontsize" : 12.0,
					"id" : "obj-42",
					"maxclass" : "newobj",
					"numinlets" : 1,
					"numoutlets" : 3,
					"outlettype" : [ "bang", "bang", "int" ],
					"patching_rect" : [ 135.0, 120.0, 46.0, 20.0 ],
					"text" : "t b b 0"
				}

			}
, 			{
				"box" : 				{
					"fontname" : "Arial",
					"fontsize" : 12.0,
					"frgb" : [ 0.0, 0.0, 0.0, 1.0 ],
					"id" : "obj-39",
					"maxclass" : "comment",
					"numinlets" : 1,
					"numoutlets" : 0,
					"patching_rect" : [ 165.0, 105.0, 32.0, 20.0 ],
					"text" : "stop"
				}

			}
, 			{
				"box" : 				{
					"fontname" : "Arial",
					"fontsize" : 12.0,
					"frgb" : [ 0.0, 0.0, 0.0, 1.0 ],
					"id" : "obj-38",
					"maxclass" : "comment",
					"numinlets" : 1,
					"numoutlets" : 0,
					"patching_rect" : [ 75.0, 225.0, 32.0, 20.0 ],
					"text" : "start"
				}

			}
, 			{
				"box" : 				{
					"fontname" : "Arial",
					"fontsize" : 12.0,
					"id" : "obj-32",
					"maxclass" : "message",
					"numinlets" : 2,
					"numoutlets" : 1,
					"outlettype" : [ "" ],
					"patching_rect" : [ 45.0, 225.0, 32.5, 18.0 ],
					"text" : "s"
				}

			}
, 			{
				"box" : 				{
					"fontname" : "Arial",
					"fontsize" : 12.0,
					"id" : "obj-22",
					"maxclass" : "newobj",
					"numinlets" : 1,
					"numoutlets" : 1,
					"outlettype" : [ "int" ],
					"patching_rect" : [ 45.0, 255.0, 35.0, 20.0 ],
					"text" : "spell"
				}

			}
, 			{
				"box" : 				{
					"fontname" : "Arial",
					"fontsize" : 12.0,
					"id" : "obj-30",
					"maxclass" : "message",
					"numinlets" : 2,
					"numoutlets" : 1,
					"outlettype" : [ "" ],
					"patching_rect" : [ 135.0, 255.0, 45.0, 18.0 ],
					"text" : "read 0"
				}

			}
, 			{
				"box" : 				{
					"fontname" : "Arial",
					"fontsize" : 12.0,
					"id" : "obj-16",
					"maxclass" : "newobj",
					"numinlets" : 1,
					"numoutlets" : 6,
					"outlettype" : [ "", "", "", "", "", "" ],
					"patching_rect" : [ 45.0, 405.0, 619.0, 20.0 ],
					"text" : "route 1 2 3 4 0"
				}

			}
, 			{
				"box" : 				{
					"id" : "obj-20",
					"maxclass" : "button",
					"numinlets" : 1,
					"numoutlets" : 1,
					"outlettype" : [ "bang" ],
					"patching_rect" : [ 255.0, 375.0, 20.0, 20.0 ]
				}

			}
, 			{
				"box" : 				{
					"fontname" : "Arial",
					"fontsize" : 12.0,
					"id" : "obj-17",
					"maxclass" : "message",
					"numinlets" : 2,
					"numoutlets" : 1,
					"outlettype" : [ "" ],
					"patching_rect" : [ 90.0, 255.0, 45.0, 18.0 ],
					"text" : "read 1"
				}

			}
, 			{
				"box" : 				{
					"fontname" : "Arial",
					"fontsize" : 12.0,
					"id" : "obj-15",
					"items" : "usbserial-A6004m45",
					"maxclass" : "umenu",
					"numinlets" : 1,
					"numoutlets" : 3,
					"outlettype" : [ "int", "", "" ],
					"patching_rect" : [ 510.0, 345.0, 183.0, 20.0 ],
					"types" : [  ]
				}

			}
, 			{
				"box" : 				{
					"color" : [ 0.741176, 0.184314, 0.756863, 1.0 ],
					"fontname" : "Arial",
					"fontsize" : 12.0,
					"id" : "obj-14",
					"maxclass" : "newobj",
					"numinlets" : 1,
					"numoutlets" : 1,
					"outlettype" : [ "" ],
					"patching_rect" : [ 45.0, 375.0, 135.0, 20.0 ],
					"text" : "dot.slipdecode 100 101"
				}

			}
, 			{
				"box" : 				{
					"color" : [ 0.741176, 0.184314, 0.756863, 1.0 ],
					"fontname" : "Arial",
					"fontsize" : 12.0,
					"id" : "obj-34",
					"maxclass" : "newobj",
					"numinlets" : 2,
					"numoutlets" : 3,
					"outlettype" : [ "int", "", "clear" ],
					"patching_rect" : [ 45.0, 345.0, 439.0, 20.0 ],
					"text" : "dot.serial a 115200 8 1 0"
				}

			}
 ],
		"lines" : [ 			{
				"patchline" : 				{
					"destination" : [ "obj-10", 0 ],
					"hidden" : 0,
					"midpoints" : [  ],
					"source" : [ "obj-1", 0 ]
				}

			}
, 			{
				"patchline" : 				{
					"destination" : [ "obj-48", 9 ],
					"hidden" : 0,
					"midpoints" : [  ],
					"source" : [ "obj-10", 0 ]
				}

			}
, 			{
				"patchline" : 				{
					"destination" : [ "obj-48", 8 ],
					"hidden" : 0,
					"midpoints" : [  ],
					"source" : [ "obj-11", 0 ]
				}

			}
, 			{
				"patchline" : 				{
					"destination" : [ "obj-48", 5 ],
					"hidden" : 0,
					"midpoints" : [  ],
					"source" : [ "obj-12", 0 ]
				}

			}
, 			{
				"patchline" : 				{
					"destination" : [ "obj-142", 0 ],
					"hidden" : 0,
					"midpoints" : [  ],
					"source" : [ "obj-139", 0 ]
				}

			}
, 			{
				"patchline" : 				{
					"destination" : [ "obj-16", 0 ],
					"hidden" : 0,
					"midpoints" : [  ],
					"source" : [ "obj-14", 0 ]
				}

			}
, 			{
				"patchline" : 				{
					"destination" : [ "obj-148", 0 ],
					"hidden" : 0,
					"midpoints" : [  ],
					"source" : [ "obj-142", 0 ]
				}

			}
, 			{
				"patchline" : 				{
					"destination" : [ "obj-142", 1 ],
					"hidden" : 0,
					"midpoints" : [  ],
					"source" : [ "obj-143", 0 ]
				}

			}
, 			{
				"patchline" : 				{
					"destination" : [ "obj-142", 2 ],
					"hidden" : 0,
					"midpoints" : [  ],
					"source" : [ "obj-144", 0 ]
				}

			}
, 			{
				"patchline" : 				{
					"destination" : [ "obj-142", 3 ],
					"hidden" : 0,
					"midpoints" : [  ],
					"source" : [ "obj-145", 0 ]
				}

			}
, 			{
				"patchline" : 				{
					"destination" : [ "obj-142", 4 ],
					"hidden" : 0,
					"midpoints" : [  ],
					"source" : [ "obj-146", 0 ]
				}

			}
, 			{
				"patchline" : 				{
					"destination" : [ "obj-142", 5 ],
					"hidden" : 0,
					"midpoints" : [  ],
					"source" : [ "obj-147", 0 ]
				}

			}
, 			{
				"patchline" : 				{
					"destination" : [ "obj-34", 0 ],
					"hidden" : 0,
					"midpoints" : [ 279.5, 332.0, 54.5, 332.0 ],
					"source" : [ "obj-148", 0 ]
				}

			}
, 			{
				"patchline" : 				{
					"destination" : [ "obj-34", 1 ],
					"hidden" : 0,
					"midpoints" : [  ],
					"source" : [ "obj-15", 0 ]
				}

			}
, 			{
				"patchline" : 				{
					"destination" : [ "obj-34", 0 ],
					"hidden" : 0,
					"midpoints" : [ 54.5, 347.0, 54.5, 347.0 ],
					"source" : [ "obj-150", 0 ]
				}

			}
, 			{
				"patchline" : 				{
					"destination" : [ "obj-34", 0 ],
					"hidden" : 0,
					"midpoints" : [ 204.5, 332.0, 54.5, 332.0 ],
					"source" : [ "obj-151", 0 ]
				}

			}
, 			{
				"patchline" : 				{
					"destination" : [ "obj-2", 0 ],
					"hidden" : 0,
					"midpoints" : [  ],
					"source" : [ "obj-16", 0 ]
				}

			}
, 			{
				"patchline" : 				{
					"destination" : [ "obj-45", 0 ],
					"hidden" : 0,
					"midpoints" : [ 534.5, 437.0, 954.5, 437.0 ],
					"source" : [ "obj-16", 4 ]
				}

			}
, 			{
				"patchline" : 				{
					"destination" : [ "obj-55", 0 ],
					"hidden" : 0,
					"midpoints" : [  ],
					"source" : [ "obj-16", 3 ]
				}

			}
, 			{
				"patchline" : 				{
					"destination" : [ "obj-30", 0 ],
					"hidden" : 0,
					"midpoints" : [  ],
					"source" : [ "obj-169", 0 ]
				}

			}
, 			{
				"patchline" : 				{
					"destination" : [ "obj-150", 0 ],
					"hidden" : 0,
					"midpoints" : [ 99.5, 286.0, 54.5, 286.0 ],
					"source" : [ "obj-17", 0 ]
				}

			}
, 			{
				"patchline" : 				{
					"destination" : [ "obj-43", 0 ],
					"hidden" : 0,
					"midpoints" : [ 174.5, 69.5, 54.5, 69.5 ],
					"source" : [ "obj-19", 0 ]
				}

			}
, 			{
				"patchline" : 				{
					"destination" : [ "obj-48", 0 ],
					"hidden" : 0,
					"midpoints" : [ 54.5, 654.5, 354.5, 654.5 ],
					"source" : [ "obj-2", 0 ]
				}

			}
, 			{
				"patchline" : 				{
					"destination" : [ "obj-29", 0 ],
					"hidden" : 1,
					"midpoints" : [  ],
					"source" : [ "obj-21", 0 ]
				}

			}
, 			{
				"patchline" : 				{
					"destination" : [ "obj-36", 0 ],
					"hidden" : 1,
					"midpoints" : [  ],
					"source" : [ "obj-21", 0 ]
				}

			}
, 			{
				"patchline" : 				{
					"destination" : [ "obj-150", 0 ],
					"hidden" : 0,
					"midpoints" : [  ],
					"source" : [ "obj-22", 0 ]
				}

			}
, 			{
				"patchline" : 				{
					"destination" : [ "obj-49", 0 ],
					"hidden" : 0,
					"midpoints" : [  ],
					"source" : [ "obj-25", 0 ]
				}

			}
, 			{
				"patchline" : 				{
					"destination" : [ "obj-44", 0 ],
					"hidden" : 0,
					"midpoints" : [  ],
					"source" : [ "obj-26", 0 ]
				}

			}
, 			{
				"patchline" : 				{
					"destination" : [ "obj-37", 0 ],
					"hidden" : 0,
					"midpoints" : [  ],
					"source" : [ "obj-28", 0 ]
				}

			}
, 			{
				"patchline" : 				{
					"destination" : [ "obj-11", 0 ],
					"hidden" : 0,
					"midpoints" : [  ],
					"source" : [ "obj-3", 0 ]
				}

			}
, 			{
				"patchline" : 				{
					"destination" : [ "obj-151", 0 ],
					"hidden" : 0,
					"midpoints" : [ 144.5, 286.0, 204.5, 286.0 ],
					"source" : [ "obj-30", 0 ]
				}

			}
, 			{
				"patchline" : 				{
					"destination" : [ "obj-12", 0 ],
					"hidden" : 0,
					"midpoints" : [  ],
					"source" : [ "obj-31", 0 ]
				}

			}
, 			{
				"patchline" : 				{
					"destination" : [ "obj-22", 0 ],
					"hidden" : 0,
					"midpoints" : [  ],
					"source" : [ "obj-32", 0 ]
				}

			}
, 			{
				"patchline" : 				{
					"destination" : [ "obj-14", 0 ],
					"hidden" : 0,
					"midpoints" : [  ],
					"source" : [ "obj-34", 0 ]
				}

			}
, 			{
				"patchline" : 				{
					"destination" : [ "obj-15", 0 ],
					"hidden" : 0,
					"midpoints" : [  ],
					"source" : [ "obj-34", 2 ]
				}

			}
, 			{
				"patchline" : 				{
					"destination" : [ "obj-20", 0 ],
					"hidden" : 0,
					"midpoints" : [  ],
					"source" : [ "obj-34", 1 ]
				}

			}
, 			{
				"patchline" : 				{
					"destination" : [ "obj-46", 0 ],
					"hidden" : 0,
					"midpoints" : [  ],
					"source" : [ "obj-34", 2 ]
				}

			}
, 			{
				"patchline" : 				{
					"destination" : [ "obj-139", 0 ],
					"hidden" : 0,
					"midpoints" : [  ],
					"source" : [ "obj-35", 0 ]
				}

			}
, 			{
				"patchline" : 				{
					"destination" : [ "obj-143", 0 ],
					"hidden" : 0,
					"midpoints" : [  ],
					"source" : [ "obj-35", 1 ]
				}

			}
, 			{
				"patchline" : 				{
					"destination" : [ "obj-144", 0 ],
					"hidden" : 0,
					"midpoints" : [  ],
					"source" : [ "obj-35", 2 ]
				}

			}
, 			{
				"patchline" : 				{
					"destination" : [ "obj-145", 0 ],
					"hidden" : 0,
					"midpoints" : [  ],
					"source" : [ "obj-35", 3 ]
				}

			}
, 			{
				"patchline" : 				{
					"destination" : [ "obj-146", 0 ],
					"hidden" : 0,
					"midpoints" : [  ],
					"source" : [ "obj-35", 4 ]
				}

			}
, 			{
				"patchline" : 				{
					"destination" : [ "obj-147", 0 ],
					"hidden" : 0,
					"midpoints" : [  ],
					"source" : [ "obj-35", 5 ]
				}

			}
, 			{
				"patchline" : 				{
					"destination" : [ "obj-48", 4 ],
					"hidden" : 0,
					"midpoints" : [  ],
					"source" : [ "obj-37", 0 ]
				}

			}
, 			{
				"patchline" : 				{
					"destination" : [ "obj-53", 0 ],
					"hidden" : 0,
					"midpoints" : [  ],
					"source" : [ "obj-4", 0 ]
				}

			}
, 			{
				"patchline" : 				{
					"destination" : [ "obj-43", 0 ],
					"hidden" : 0,
					"midpoints" : [  ],
					"source" : [ "obj-40", 0 ]
				}

			}
, 			{
				"patchline" : 				{
					"destination" : [ "obj-169", 0 ],
					"hidden" : 0,
					"midpoints" : [  ],
					"source" : [ "obj-42", 0 ]
				}

			}
, 			{
				"patchline" : 				{
					"destination" : [ "obj-59", 0 ],
					"hidden" : 0,
					"midpoints" : [ 171.5, 152.0, 54.5, 152.0 ],
					"source" : [ "obj-42", 2 ]
				}

			}
, 			{
				"patchline" : 				{
					"destination" : [ "obj-65", 0 ],
					"hidden" : 0,
					"midpoints" : [ 158.0, 182.0, 204.5, 182.0 ],
					"source" : [ "obj-42", 1 ]
				}

			}
, 			{
				"patchline" : 				{
					"destination" : [ "obj-42", 0 ],
					"hidden" : 0,
					"midpoints" : [  ],
					"source" : [ "obj-43", 1 ]
				}

			}
, 			{
				"patchline" : 				{
					"destination" : [ "obj-57", 0 ],
					"hidden" : 0,
					"midpoints" : [  ],
					"source" : [ "obj-43", 0 ]
				}

			}
, 			{
				"patchline" : 				{
					"destination" : [ "obj-48", 3 ],
					"hidden" : 0,
					"midpoints" : [  ],
					"source" : [ "obj-44", 0 ]
				}

			}
, 			{
				"patchline" : 				{
					"destination" : [ "obj-29", 1 ],
					"hidden" : 1,
					"midpoints" : [ 975.5, 549.5, 1005.5, 549.5 ],
					"source" : [ "obj-45", 1 ]
				}

			}
, 			{
				"patchline" : 				{
					"destination" : [ "obj-36", 1 ],
					"hidden" : 0,
					"midpoints" : [ 954.5, 606.0, 1005.5, 606.0 ],
					"source" : [ "obj-45", 0 ]
				}

			}
, 			{
				"patchline" : 				{
					"destination" : [ "obj-63", 0 ],
					"hidden" : 0,
					"midpoints" : [  ],
					"source" : [ "obj-45", 0 ]
				}

			}
, 			{
				"patchline" : 				{
					"destination" : [ "obj-34", 1 ],
					"hidden" : 0,
					"midpoints" : [  ],
					"source" : [ "obj-47", 0 ]
				}

			}
, 			{
				"patchline" : 				{
					"destination" : [ "obj-5", 0 ],
					"hidden" : 0,
					"midpoints" : [  ],
					"source" : [ "obj-48", 0 ]
				}

			}
, 			{
				"patchline" : 				{
					"destination" : [ "obj-48", 2 ],
					"hidden" : 0,
					"midpoints" : [  ],
					"source" : [ "obj-49", 0 ]
				}

			}
, 			{
				"patchline" : 				{
					"destination" : [ "obj-48", 1 ],
					"hidden" : 0,
					"midpoints" : [  ],
					"source" : [ "obj-50", 0 ]
				}

			}
, 			{
				"patchline" : 				{
					"destination" : [ "obj-50", 0 ],
					"hidden" : 0,
					"midpoints" : [  ],
					"source" : [ "obj-51", 0 ]
				}

			}
, 			{
				"patchline" : 				{
					"destination" : [ "obj-35", 0 ],
					"hidden" : 0,
					"midpoints" : [  ],
					"source" : [ "obj-52", 0 ]
				}

			}
, 			{
				"patchline" : 				{
					"destination" : [ "obj-48", 7 ],
					"hidden" : 0,
					"midpoints" : [  ],
					"source" : [ "obj-53", 0 ]
				}

			}
, 			{
				"patchline" : 				{
					"destination" : [ "obj-48", 6 ],
					"hidden" : 0,
					"midpoints" : [  ],
					"source" : [ "obj-54", 0 ]
				}

			}
, 			{
				"patchline" : 				{
					"destination" : [ "obj-1", 1 ],
					"hidden" : 0,
					"midpoints" : [  ],
					"source" : [ "obj-55", 17 ]
				}

			}
, 			{
				"patchline" : 				{
					"destination" : [ "obj-1", 0 ],
					"hidden" : 0,
					"midpoints" : [  ],
					"source" : [ "obj-55", 16 ]
				}

			}
, 			{
				"patchline" : 				{
					"destination" : [ "obj-25", 1 ],
					"hidden" : 0,
					"midpoints" : [  ],
					"source" : [ "obj-55", 3 ]
				}

			}
, 			{
				"patchline" : 				{
					"destination" : [ "obj-25", 0 ],
					"hidden" : 0,
					"midpoints" : [  ],
					"source" : [ "obj-55", 2 ]
				}

			}
, 			{
				"patchline" : 				{
					"destination" : [ "obj-26", 1 ],
					"hidden" : 0,
					"midpoints" : [  ],
					"source" : [ "obj-55", 5 ]
				}

			}
, 			{
				"patchline" : 				{
					"destination" : [ "obj-26", 0 ],
					"hidden" : 0,
					"midpoints" : [  ],
					"source" : [ "obj-55", 4 ]
				}

			}
, 			{
				"patchline" : 				{
					"destination" : [ "obj-28", 1 ],
					"hidden" : 0,
					"midpoints" : [  ],
					"source" : [ "obj-55", 7 ]
				}

			}
, 			{
				"patchline" : 				{
					"destination" : [ "obj-28", 0 ],
					"hidden" : 0,
					"midpoints" : [  ],
					"source" : [ "obj-55", 6 ]
				}

			}
, 			{
				"patchline" : 				{
					"destination" : [ "obj-3", 1 ],
					"hidden" : 0,
					"midpoints" : [  ],
					"source" : [ "obj-55", 15 ]
				}

			}
, 			{
				"patchline" : 				{
					"destination" : [ "obj-3", 0 ],
					"hidden" : 0,
					"midpoints" : [  ],
					"source" : [ "obj-55", 14 ]
				}

			}
, 			{
				"patchline" : 				{
					"destination" : [ "obj-31", 1 ],
					"hidden" : 0,
					"midpoints" : [  ],
					"source" : [ "obj-55", 9 ]
				}

			}
, 			{
				"patchline" : 				{
					"destination" : [ "obj-31", 0 ],
					"hidden" : 0,
					"midpoints" : [  ],
					"source" : [ "obj-55", 8 ]
				}

			}
, 			{
				"patchline" : 				{
					"destination" : [ "obj-4", 1 ],
					"hidden" : 0,
					"midpoints" : [  ],
					"source" : [ "obj-55", 13 ]
				}

			}
, 			{
				"patchline" : 				{
					"destination" : [ "obj-4", 0 ],
					"hidden" : 0,
					"midpoints" : [  ],
					"source" : [ "obj-55", 12 ]
				}

			}
, 			{
				"patchline" : 				{
					"destination" : [ "obj-51", 1 ],
					"hidden" : 0,
					"midpoints" : [  ],
					"source" : [ "obj-55", 1 ]
				}

			}
, 			{
				"patchline" : 				{
					"destination" : [ "obj-51", 0 ],
					"hidden" : 0,
					"midpoints" : [  ],
					"source" : [ "obj-55", 0 ]
				}

			}
, 			{
				"patchline" : 				{
					"destination" : [ "obj-9", 1 ],
					"hidden" : 0,
					"midpoints" : [  ],
					"source" : [ "obj-55", 11 ]
				}

			}
, 			{
				"patchline" : 				{
					"destination" : [ "obj-9", 0 ],
					"hidden" : 0,
					"midpoints" : [  ],
					"source" : [ "obj-55", 10 ]
				}

			}
, 			{
				"patchline" : 				{
					"destination" : [ "obj-32", 0 ],
					"hidden" : 0,
					"midpoints" : [  ],
					"source" : [ "obj-56", 0 ]
				}

			}
, 			{
				"patchline" : 				{
					"destination" : [ "obj-17", 0 ],
					"hidden" : 0,
					"midpoints" : [  ],
					"source" : [ "obj-57", 1 ]
				}

			}
, 			{
				"patchline" : 				{
					"destination" : [ "obj-59", 0 ],
					"hidden" : 0,
					"midpoints" : [  ],
					"source" : [ "obj-57", 0 ]
				}

			}
, 			{
				"patchline" : 				{
					"destination" : [ "obj-56", 0 ],
					"hidden" : 0,
					"midpoints" : [  ],
					"source" : [ "obj-59", 0 ]
				}

			}
, 			{
				"patchline" : 				{
					"destination" : [ "obj-52", 0 ],
					"hidden" : 0,
					"midpoints" : [  ],
					"source" : [ "obj-6", 0 ]
				}

			}
, 			{
				"patchline" : 				{
					"destination" : [ "obj-43", 0 ],
					"hidden" : 0,
					"midpoints" : [ 24.5, 62.0, 54.5, 62.0 ],
					"source" : [ "obj-61", 0 ]
				}

			}
, 			{
				"patchline" : 				{
					"destination" : [ "obj-151", 0 ],
					"hidden" : 0,
					"midpoints" : [  ],
					"source" : [ "obj-64", 0 ]
				}

			}
, 			{
				"patchline" : 				{
					"destination" : [ "obj-64", 0 ],
					"hidden" : 0,
					"midpoints" : [  ],
					"source" : [ "obj-65", 0 ]
				}

			}
, 			{
				"patchline" : 				{
					"destination" : [ "obj-19", 0 ],
					"hidden" : 0,
					"midpoints" : [  ],
					"source" : [ "obj-7", 0 ]
				}

			}
, 			{
				"patchline" : 				{
					"destination" : [ "obj-34", 1 ],
					"hidden" : 0,
					"midpoints" : [  ],
					"source" : [ "obj-8", 0 ]
				}

			}
, 			{
				"patchline" : 				{
					"destination" : [ "obj-54", 0 ],
					"hidden" : 0,
					"midpoints" : [  ],
					"source" : [ "obj-9", 0 ]
				}

			}
 ]
	}

}
