#N canvas -239 -1057 1920 1035 10;
#X obj 364 89 cnv 15 416 210 empty empty T-Stick 20 12 0 20 -228856
-66577 0;
#X obj 189 231 metro 800;
#X msg 192 256 115;
#N canvas 0 23 450 278 (subpatch) 0;
#X array Touch 16 float 1;
#A 0 0 0 0 0 0 0 0 0 0 0 0 0 0 0 0 0;
#X coords 0 1.5 15 0 120 140 1 0 0;
#X restore 136 709 graph;
#X obj 196 633 array set Touch;
#X obj 261 711 vsl 45 135 -6 6 0 0 empty empty AccelX 0 -9 0 10 -262144
-1 -1 7515 1;
#X obj 311 711 vsl 45 135 -6 6 0 0 empty empty AccelY 0 -9 0 10 -262144
-1 -1 6054 1;
#X obj 361 711 vsl 45 135 -6 6 0 0 empty empty AccelZ 0 -9 0 10 -262144
-1 -1 6367 1;
#X obj 411 711 vsl 45 135 -350 350 0 0 empty empty GyroX 0 -9 0 10
-262144 -1 -1 6669 1;
#X obj 461 711 vsl 45 135 -350 350 0 0 empty empty GyroY 0 -9 0 10
-262144 -1 -1 6732 1;
#X obj 511 711 vsl 45 135 -350 350 0 0 empty empty GyroZ 0 -9 0 10
-262144 -1 -1 6621 1;
#X obj 561 711 vsl 45 135 0 4095 0 0 empty empty Pressure 0 -9 0 10
-262144 -1 -1 10239 1;
#X obj 611 711 vsl 45 135 0 1023 0 0 empty empty Piezo 0 -9 0 10 -262144
-1 -1 0 1;
#X obj 661 711 vsl 45 135 -1 1 0 0 empty empty MagX 0 -9 0 10 -262144
-1 -1 10215 1;
#X obj 711 711 vsl 45 135 -1 1 0 0 empty empty MagY 0 -9 0 10 -262144
-1 -1 10594 1;
#X obj 761 711 vsl 45 135 -1 1 0 0 empty empty MagZ 0 -9 0 10 -262144
-1 -1 6859 1;
#X obj 1022 762 timer;
#X floatatom 1022 786 8 0 0 0 - - -;
#X obj 1022 737 t b b;
#X obj 1022 712 r rawtimer;
#N canvas 0 22 450 278 (subpatch) 0;
#X array rawtime 100 float 1;
#A 0 0 1.45125 0 1.45125 0 0 2.90249 23.22 1.45125 0 1.45125 0 0 1.45125
1.45125 20.3175 0 0 1.45125 2.90249 1.45125 0 1.45125 24.6712 0 0 0
2.90249 0 0 2.90249 23.22 0 1.45125 0 0 1.45125 1.45125 0 24.6712 1.45125
0 1.45125 0 1.45125 1.45125 0 24.6712 0 1.45125 0 1.45125 0 1.45125
0 24.6712 0 0 1.45125 0 1.45125 0 1.45125 23.22 1.45125 1.45125 0 1.45125
0 0 1.45125 24.6712 1.45125 0 0 1.45125 1.45125 0 0 26.1224 0 0 0 1.45125
1.45125 0 0 24.6712 1.45125 0 0 1.45125 1.45125 0 1.45125 24.6712 0
1.45125 0 1.45125;
#X coords 0 100 99 0 200 140 1;
#X restore 816 709 graph;
#N canvas 264 335 568 475 timegraph 0;
#X obj 111 257 list store;
#X obj 117 300 list split 100;
#X msg 148 105 0 0 0 0 0 0 0 0 0 0 0 0 0 0 0 0 0 0 0 0 0 0 0 0 0 0
0 0 0 0 0 0 0 0 0 0 0 0 0 0 0 0 0 0 0 0 0 0 0 0 0 0 0 0 0 0 0 0 0 0
0 0 0 0 0 0 0 0 0 0 0 0 0 0 0 0 0 0 0 0 0 0 0 0 0 0 0 0 0 0 0 0 0 0
0 0 0 0 0 0;
#X obj 54 178 moses 0;
#X obj 78 215 moses 101;
#X obj 57 59 inlet;
#X obj 173 53 loadbang;
#X obj 123 353 outlet;
#X connect 0 0 1 0;
#X connect 1 0 0 1;
#X connect 1 0 7 0;
#X connect 2 0 0 1;
#X connect 2 0 7 0;
#X connect 3 1 4 0;
#X connect 4 0 0 0;
#X connect 5 0 3 0;
#X connect 6 0 2 0;
#X restore 1022 810 pd timegraph;
#X obj 1022 834 array set rawtime;
#X obj 124 622 outlet;
#X obj 392 54 inlet;
#X obj 392 117 tgl 30 0 empty empty empty 17 7 0 10 -254287 -1 -1 1
1;
#X text 367 147 Start / Stop;
#X obj 256 231 == 0;
#X msg 254 257 120;
#X text 282 258 "x";
#X text 215 256 "s";
#X symbolatom 370 266 10 0 0 3 Serial_number serial sserial;
#X symbolatom 475 266 10 0 0 3 Firmware_version firmware sfirmware
;
#X obj 679 627 s serial;
#X obj 739 627 s firmware;
#X text 690 645 to boxes in GUI;
#X floatatom 361 854 5 0 0 0 - - -;
#X floatatom 411 854 5 0 0 0 - - -;
#X floatatom 461 854 5 0 0 0 - - -;
#X floatatom 511 854 5 0 0 0 - - -;
#X floatatom 561 856 5 0 0 0 - - -;
#X floatatom 611 854 5 0 0 0 - - -;
#X floatatom 661 854 5 0 0 0 - - -;
#X floatatom 711 854 5 0 0 0 - - -;
#X floatatom 761 854 5 0 0 0 - - -;
#X floatatom 311 854 5 0 0 0 - - -;
#X floatatom 261 854 5 0 0 0 - - -;
#X obj 321 503 netreceive -u -b;
#X msg 333 476 listen 0;
#X text 460 503 UDP packets \, binary output, f 13;
#X obj 321 524 oscparse;
#N canvas 1168 510 399 333 cook_touch_sopranino 0;
#X obj 101 37 inlet;
#X obj 180 92 unpack f f;
#N canvas 1423 301 708 912 bytetobits 0;
#X obj 98 187 / 2;
#X obj 129 187 % 2;
#X floatatom 98 227 5 0 0 0 - - -;
#X obj 98 207 i;
#X obj 98 271 / 2;
#X obj 98 292 i;
#X obj 131 269 % 2;
#X floatatom 98 311 5 0 0 0 - - -;
#X obj 99 358 / 2;
#X obj 126 358 % 2;
#X obj 99 378 i;
#X floatatom 98 398 5 0 0 0 - - -;
#X obj 98 439 / 2;
#X obj 125 439 % 2;
#X obj 98 461 i;
#X floatatom 97 483 5 0 0 0 - - -;
#X obj 97 522 / 2;
#X obj 124 522 % 2;
#X obj 97 542 i;
#X floatatom 97 562 5 0 0 0 - - -;
#X obj 97 600 / 2;
#X obj 124 600 % 2;
#X obj 97 619 i;
#X floatatom 96 639 5 0 0 0 - - -;
#X obj 96 677 / 2;
#X obj 123 677 % 2;
#X obj 96 696 i;
#X floatatom 97 718 5 0 0 0 - - -;
#X obj 97 739 % 2;
#X obj 98 334 t f f;
#X obj 98 418 t f f;
#X obj 97 502 t f f;
#X obj 97 580 t f f;
#X obj 97 657 t f f;
#X obj 98 247 t f f;
#X obj 148 56 inlet;
#X obj 257 796 pack f f f f f f f f;
#X obj 257 773 f;
#X obj 257 842 outlet;
#X obj 148 126 t b f f;
#X obj 148 81 moses 0;
#X obj 148 104 moses 256;
#X obj 395 843 list;
#X obj 395 864 outlet;
#X obj 395 66 inlet;
#X text 408 88 bang to output last conversion;
#X connect 0 0 3 0;
#X connect 1 0 36 7;
#X connect 2 0 34 0;
#X connect 3 0 2 0;
#X connect 4 0 5 0;
#X connect 5 0 7 0;
#X connect 6 0 36 6;
#X connect 7 0 29 0;
#X connect 8 0 10 0;
#X connect 9 0 36 5;
#X connect 10 0 11 0;
#X connect 11 0 30 0;
#X connect 12 0 14 0;
#X connect 13 0 36 4;
#X connect 14 0 15 0;
#X connect 15 0 31 0;
#X connect 16 0 18 0;
#X connect 17 0 36 3;
#X connect 18 0 19 0;
#X connect 19 0 32 0;
#X connect 20 0 22 0;
#X connect 21 0 36 2;
#X connect 22 0 23 0;
#X connect 23 0 33 0;
#X connect 24 0 26 0;
#X connect 25 0 36 1;
#X connect 26 0 27 0;
#X connect 27 0 28 0;
#X connect 28 0 37 1;
#X connect 29 0 8 0;
#X connect 29 1 9 0;
#X connect 30 0 12 0;
#X connect 30 1 13 0;
#X connect 31 0 16 0;
#X connect 31 1 17 0;
#X connect 32 0 20 0;
#X connect 32 1 21 0;
#X connect 33 0 24 0;
#X connect 33 1 25 0;
#X connect 34 0 4 0;
#X connect 34 1 6 0;
#X connect 35 0 40 0;
#X connect 36 0 38 0;
#X connect 36 0 42 1;
#X connect 37 0 36 0;
#X connect 39 0 37 0;
#X connect 39 1 0 0;
#X connect 39 2 1 0;
#X connect 40 1 41 0;
#X connect 41 0 39 0;
#X connect 42 0 43 0;
#X connect 44 0 42 0;
#X restore 84 182 pd bytetobits;
#X text 301 161 CHIP 1;
#X text 46 157 CHIP 2;
#N canvas 1423 301 708 912 bytetobits 0;
#X obj 98 187 / 2;
#X obj 129 187 % 2;
#X floatatom 98 227 5 0 0 0 - - -;
#X obj 98 207 i;
#X obj 98 271 / 2;
#X obj 98 292 i;
#X obj 131 269 % 2;
#X floatatom 98 311 5 0 0 0 - - -;
#X obj 99 358 / 2;
#X obj 126 358 % 2;
#X obj 99 378 i;
#X floatatom 98 398 5 0 0 0 - - -;
#X obj 98 439 / 2;
#X obj 125 439 % 2;
#X obj 98 461 i;
#X floatatom 97 483 5 0 0 0 - - -;
#X obj 97 522 / 2;
#X obj 124 522 % 2;
#X obj 97 542 i;
#X floatatom 97 562 5 0 0 0 - - -;
#X obj 97 600 / 2;
#X obj 124 600 % 2;
#X obj 97 619 i;
#X floatatom 96 639 5 0 0 0 - - -;
#X obj 96 677 / 2;
#X obj 123 677 % 2;
#X obj 96 696 i;
#X floatatom 97 718 5 0 0 0 - - -;
#X obj 97 739 % 2;
#X obj 98 334 t f f;
#X obj 98 418 t f f;
#X obj 97 502 t f f;
#X obj 97 580 t f f;
#X obj 97 657 t f f;
#X obj 98 247 t f f;
#X obj 148 56 inlet;
#X obj 257 796 pack f f f f f f f f;
#X obj 257 773 f;
#X obj 257 842 outlet;
#X obj 148 126 t b f f;
#X obj 148 81 moses 0;
#X obj 148 104 moses 256;
#X obj 395 843 list;
#X obj 395 864 outlet;
#X obj 395 66 inlet;
#X text 408 88 bang to output last conversion;
#X connect 0 0 3 0;
#X connect 1 0 36 7;
#X connect 2 0 34 0;
#X connect 3 0 2 0;
#X connect 4 0 5 0;
#X connect 5 0 7 0;
#X connect 6 0 36 6;
#X connect 7 0 29 0;
#X connect 8 0 10 0;
#X connect 9 0 36 5;
#X connect 10 0 11 0;
#X connect 11 0 30 0;
#X connect 12 0 14 0;
#X connect 13 0 36 4;
#X connect 14 0 15 0;
#X connect 15 0 31 0;
#X connect 16 0 18 0;
#X connect 17 0 36 3;
#X connect 18 0 19 0;
#X connect 19 0 32 0;
#X connect 20 0 22 0;
#X connect 21 0 36 2;
#X connect 22 0 23 0;
#X connect 23 0 33 0;
#X connect 24 0 26 0;
#X connect 25 0 36 1;
#X connect 26 0 27 0;
#X connect 27 0 28 0;
#X connect 28 0 37 1;
#X connect 29 0 8 0;
#X connect 29 1 9 0;
#X connect 30 0 12 0;
#X connect 30 1 13 0;
#X connect 31 0 16 0;
#X connect 31 1 17 0;
#X connect 32 0 20 0;
#X connect 32 1 21 0;
#X connect 33 0 24 0;
#X connect 33 1 25 0;
#X connect 34 0 4 0;
#X connect 34 1 6 0;
#X connect 35 0 40 0;
#X connect 36 0 38 0;
#X connect 36 0 42 1;
#X connect 37 0 36 0;
#X connect 39 0 37 0;
#X connect 39 1 0 0;
#X connect 39 2 1 0;
#X connect 40 1 41 0;
#X connect 41 0 39 0;
#X connect 42 0 43 0;
#X connect 44 0 42 0;
#X restore 224 182 pd bytetobits;
#X obj 103 64 t b b l;
#X obj 159 236 list;
#X obj 159 270 outlet;
#X connect 0 0 6 0;
#X connect 1 0 5 0;
#X connect 1 1 2 0;
#X connect 2 1 7 0;
#X connect 5 1 7 1;
#X connect 6 0 2 1;
#X connect 6 1 5 1;
#X connect 6 2 1 0;
#X connect 7 0 8 0;
#X restore 257 606 pd cook_touch_sopranino;
#X text 396 475 stop receiving OSC messages;
#X text 409 228 port to receive messages;
#X msg 321 448 listen \$1;
#X floatatom 370 229 6 0 0 0 - - -;
#X obj 214 18 loadbang;
#X obj 172 245 bng 15 250 50 0 empty empty empty 17 7 0 10 -262144
-1 -1;
#X obj 410 606 unpack f f f;
#X obj 490 606 unpack f f f;
#X obj 571 606 unpack f f f;
#X obj 251 524 s rawtimer;
#X obj 706 593 unpack f f f f f f f;
#X obj 705 182 tgl 25 0 scalibrate calibrate Calibrate -14 38 0 10
-262144 -1 -1 0 1;
#X obj 809 627 s calibrate;
#X obj 598 109 tgl 20 0 empty empty touch_mask -2 -8 0 10 -262144 -1
-1 0 1;
#N canvas 763 322 860 822 masks 0;
#X obj 307 252 cnv 15 35 155 empty empty empty 20 12 0 14 -233017 -66577
0;
#X obj 280 12 inlet;
#X obj 280 33 sel 1 0;
#X msg 256 85 127 255;
#X msg 313 85 255 255;
#X obj 256 116 unpack f f;
#X obj 376 769 outlet;
#X obj 307 252 tgl 15 0 empty empty empty 17 7 0 10 -262144 -1 -1 1
1;
#X obj 307 272 tgl 15 0 empty empty empty 17 7 0 10 -262144 -1 -1 1
1;
#X obj 327 252 tgl 15 0 empty empty empty 17 7 0 10 -262144 -1 -1 1
1;
#X obj 327 272 tgl 15 0 empty empty empty 17 7 0 10 -262144 -1 -1 1
1;
#X obj 307 292 tgl 15 0 empty empty empty 17 7 0 10 -262144 -1 -1 1
1;
#X obj 307 312 tgl 15 0 empty empty empty 17 7 0 10 -262144 -1 -1 1
1;
#X obj 327 292 tgl 15 0 empty empty empty 17 7 0 10 -262144 -1 -1 1
1;
#X obj 327 312 tgl 15 0 empty empty empty 17 7 0 10 -262144 -1 -1 1
1;
#X obj 307 332 tgl 15 0 empty empty empty 17 7 0 10 -262144 -1 -1 1
1;
#X obj 307 352 tgl 15 0 empty empty empty 17 7 0 10 -262144 -1 -1 1
1;
#X obj 327 332 tgl 15 0 empty empty empty 17 7 0 10 -262144 -1 -1 1
1;
#X obj 327 352 tgl 15 0 empty empty empty 17 7 0 10 -262144 -1 -1 1
1;
#X obj 307 372 tgl 15 0 empty empty empty 17 7 0 10 -262144 -1 -1 1
1;
#X obj 307 392 tgl 15 0 empty empty empty 17 7 0 10 -262144 -1 -1 1
1;
#X obj 327 372 tgl 15 0 empty empty empty 17 7 0 10 -262144 -1 -1 1
1;
#X obj 327 392 tgl 15 0 empty empty empty 17 7 0 10 -262144 -1 -1 1
1;
#N canvas 1423 301 708 912 bytetobits 0;
#X obj 98 187 / 2;
#X obj 129 187 % 2;
#X floatatom 98 227 5 0 0 0 - - -;
#X obj 98 207 i;
#X obj 98 271 / 2;
#X obj 98 292 i;
#X obj 131 269 % 2;
#X floatatom 98 311 5 0 0 0 - - -;
#X obj 99 358 / 2;
#X obj 126 358 % 2;
#X obj 99 378 i;
#X floatatom 98 398 5 0 0 0 - - -;
#X obj 98 439 / 2;
#X obj 125 439 % 2;
#X obj 98 461 i;
#X floatatom 97 483 5 0 0 0 - - -;
#X obj 97 522 / 2;
#X obj 124 522 % 2;
#X obj 97 542 i;
#X floatatom 97 562 5 0 0 0 - - -;
#X obj 97 600 / 2;
#X obj 124 600 % 2;
#X obj 97 619 i;
#X floatatom 96 639 5 0 0 0 - - -;
#X obj 96 677 / 2;
#X obj 123 677 % 2;
#X obj 96 696 i;
#X floatatom 97 718 5 0 0 0 - - -;
#X obj 97 739 % 2;
#X obj 98 334 t f f;
#X obj 98 418 t f f;
#X obj 97 502 t f f;
#X obj 97 580 t f f;
#X obj 97 657 t f f;
#X obj 98 247 t f f;
#X obj 148 56 inlet;
#X obj 257 796 pack f f f f f f f f;
#X obj 257 773 f;
#X obj 257 842 outlet;
#X obj 148 126 t b f f;
#X obj 148 81 moses 0;
#X obj 148 104 moses 256;
#X obj 395 843 list;
#X obj 395 864 outlet;
#X obj 395 66 inlet;
#X text 408 88 bang to output last conversion;
#X connect 0 0 3 0;
#X connect 1 0 36 7;
#X connect 2 0 34 0;
#X connect 3 0 2 0;
#X connect 4 0 5 0;
#X connect 5 0 7 0;
#X connect 6 0 36 6;
#X connect 7 0 29 0;
#X connect 8 0 10 0;
#X connect 9 0 36 5;
#X connect 10 0 11 0;
#X connect 11 0 30 0;
#X connect 12 0 14 0;
#X connect 13 0 36 4;
#X connect 14 0 15 0;
#X connect 15 0 31 0;
#X connect 16 0 18 0;
#X connect 17 0 36 3;
#X connect 18 0 19 0;
#X connect 19 0 32 0;
#X connect 20 0 22 0;
#X connect 21 0 36 2;
#X connect 22 0 23 0;
#X connect 23 0 33 0;
#X connect 24 0 26 0;
#X connect 25 0 36 1;
#X connect 26 0 27 0;
#X connect 27 0 28 0;
#X connect 28 0 37 1;
#X connect 29 0 8 0;
#X connect 29 1 9 0;
#X connect 30 0 12 0;
#X connect 30 1 13 0;
#X connect 31 0 16 0;
#X connect 31 1 17 0;
#X connect 32 0 20 0;
#X connect 32 1 21 0;
#X connect 33 0 24 0;
#X connect 33 1 25 0;
#X connect 34 0 4 0;
#X connect 34 1 6 0;
#X connect 35 0 40 0;
#X connect 36 0 38 0;
#X connect 36 0 42 1;
#X connect 37 0 36 0;
#X connect 39 0 37 0;
#X connect 39 1 0 0;
#X connect 39 2 1 0;
#X connect 40 1 41 0;
#X connect 41 0 39 0;
#X connect 42 0 43 0;
#X connect 44 0 42 0;
#X restore 222 149 pd bytetobits;
#N canvas 1423 301 708 912 bytetobits 0;
#X obj 98 187 / 2;
#X obj 129 187 % 2;
#X floatatom 98 227 5 0 0 0 - - -;
#X obj 98 207 i;
#X obj 98 271 / 2;
#X obj 98 292 i;
#X obj 131 269 % 2;
#X floatatom 98 311 5 0 0 0 - - -;
#X obj 99 358 / 2;
#X obj 126 358 % 2;
#X obj 99 378 i;
#X floatatom 98 398 5 0 0 0 - - -;
#X obj 98 439 / 2;
#X obj 125 439 % 2;
#X obj 98 461 i;
#X floatatom 97 483 5 0 0 0 - - -;
#X obj 97 522 / 2;
#X obj 124 522 % 2;
#X obj 97 542 i;
#X floatatom 97 562 5 0 0 0 - - -;
#X obj 97 600 / 2;
#X obj 124 600 % 2;
#X obj 97 619 i;
#X floatatom 96 639 5 0 0 0 - - -;
#X obj 96 677 / 2;
#X obj 123 677 % 2;
#X obj 96 696 i;
#X floatatom 97 718 5 0 0 0 - - -;
#X obj 97 739 % 2;
#X obj 98 334 t f f;
#X obj 98 418 t f f;
#X obj 97 502 t f f;
#X obj 97 580 t f f;
#X obj 97 657 t f f;
#X obj 98 247 t f f;
#X obj 148 56 inlet;
#X obj 257 796 pack f f f f f f f f;
#X obj 257 773 f;
#X obj 257 842 outlet;
#X obj 148 126 t b f f;
#X obj 148 81 moses 0;
#X obj 148 104 moses 256;
#X obj 395 843 list;
#X obj 395 864 outlet;
#X obj 395 66 inlet;
#X text 408 88 bang to output last conversion;
#X connect 0 0 3 0;
#X connect 1 0 36 7;
#X connect 2 0 34 0;
#X connect 3 0 2 0;
#X connect 4 0 5 0;
#X connect 5 0 7 0;
#X connect 6 0 36 6;
#X connect 7 0 29 0;
#X connect 8 0 10 0;
#X connect 9 0 36 5;
#X connect 10 0 11 0;
#X connect 11 0 30 0;
#X connect 12 0 14 0;
#X connect 13 0 36 4;
#X connect 14 0 15 0;
#X connect 15 0 31 0;
#X connect 16 0 18 0;
#X connect 17 0 36 3;
#X connect 18 0 19 0;
#X connect 19 0 32 0;
#X connect 20 0 22 0;
#X connect 21 0 36 2;
#X connect 22 0 23 0;
#X connect 23 0 33 0;
#X connect 24 0 26 0;
#X connect 25 0 36 1;
#X connect 26 0 27 0;
#X connect 27 0 28 0;
#X connect 28 0 37 1;
#X connect 29 0 8 0;
#X connect 29 1 9 0;
#X connect 30 0 12 0;
#X connect 30 1 13 0;
#X connect 31 0 16 0;
#X connect 31 1 17 0;
#X connect 32 0 20 0;
#X connect 32 1 21 0;
#X connect 33 0 24 0;
#X connect 33 1 25 0;
#X connect 34 0 4 0;
#X connect 34 1 6 0;
#X connect 35 0 40 0;
#X connect 36 0 38 0;
#X connect 36 0 42 1;
#X connect 37 0 36 0;
#X connect 39 0 37 0;
#X connect 39 1 0 0;
#X connect 39 2 1 0;
#X connect 40 1 41 0;
#X connect 41 0 39 0;
#X connect 42 0 43 0;
#X connect 44 0 42 0;
#X restore 313 149 pd bytetobits;
#X obj 186 186 unpack f f f f f f f f;
#X obj 326 186 unpack f f f f f f f f;
#N canvas 494 74 692 867 bitstobyte 0;
#X floatatom 184 76 5 0 0 0 - - -;
#X floatatom 185 166 5 0 0 0 - - -;
#X obj 135 113 * 2;
#X floatatom 187 250 5 0 0 0 - - -;
#X obj 137 197 * 2;
#X floatatom 189 331 5 0 0 0 - - -;
#X obj 139 278 * 2;
#X floatatom 197 413 5 0 0 0 - - -;
#X obj 142 359 * 2;
#X floatatom 189 486 5 0 0 0 - - -;
#X obj 139 433 * 2;
#X floatatom 187 565 5 0 0 0 - - -;
#X obj 137 512 * 2;
#X floatatom 183 644 5 0 0 0 - - -;
#X obj 133 591 * 2;
#X obj 135 140 pow 1;
#X obj 137 224 pow 2;
#X obj 139 305 pow 3;
#X obj 142 386 pow 4;
#X obj 139 460 pow 5;
#X obj 137 539 pow 6;
#X obj 133 618 pow 7;
#X obj 224 209 +;
#X obj 223 285 +;
#X obj 223 355 +;
#X obj 235 439 +;
#X obj 229 507 +;
#X obj 225 588 +;
#X obj 230 662 +;
#X obj 20 21 inlet;
#X obj 229 693 outlet;
#X obj 20 52 unpack f f f f f f f f;
#X connect 0 0 22 1;
#X connect 1 0 22 0;
#X connect 2 0 15 0;
#X connect 3 0 23 0;
#X connect 4 0 16 0;
#X connect 5 0 24 0;
#X connect 6 0 17 0;
#X connect 7 0 25 0;
#X connect 8 0 18 0;
#X connect 9 0 26 0;
#X connect 10 0 19 0;
#X connect 11 0 27 0;
#X connect 12 0 20 0;
#X connect 13 0 28 0;
#X connect 14 0 21 0;
#X connect 15 0 1 0;
#X connect 16 0 3 0;
#X connect 17 0 5 0;
#X connect 18 0 7 0;
#X connect 19 0 9 0;
#X connect 20 0 11 0;
#X connect 21 0 13 0;
#X connect 22 0 23 1;
#X connect 23 0 24 1;
#X connect 24 0 25 1;
#X connect 25 0 26 1;
#X connect 26 0 27 1;
#X connect 27 0 28 1;
#X connect 28 0 30 0;
#X connect 29 0 31 0;
#X connect 31 0 14 0;
#X connect 31 1 12 0;
#X connect 31 2 10 0;
#X connect 31 3 8 0;
#X connect 31 4 6 0;
#X connect 31 5 4 0;
#X connect 31 6 2 0;
#X connect 31 7 0 0;
#X restore 394 686 pd bitstobyte;
#X obj 394 660 pack f f f f f f f f, f 45;
#X obj 490 614 t b f;
#X obj 454 614 t b f;
#X obj 418 614 t b f;
#X obj 634 614 t b f;
#X obj 598 614 t b f;
#X obj 562 614 t b f;
#X obj 526 614 t b f;
#N canvas 494 74 692 867 bitstobyte 0;
#X floatatom 184 76 5 0 0 0 - - -;
#X floatatom 185 166 5 0 0 0 - - -;
#X obj 135 113 * 2;
#X floatatom 187 250 5 0 0 0 - - -;
#X obj 137 197 * 2;
#X floatatom 189 331 5 0 0 0 - - -;
#X obj 139 278 * 2;
#X floatatom 197 413 5 0 0 0 - - -;
#X obj 142 359 * 2;
#X floatatom 189 486 5 0 0 0 - - -;
#X obj 139 433 * 2;
#X floatatom 187 565 5 0 0 0 - - -;
#X obj 137 512 * 2;
#X floatatom 183 644 5 0 0 0 - - -;
#X obj 133 591 * 2;
#X obj 135 140 pow 1;
#X obj 137 224 pow 2;
#X obj 139 305 pow 3;
#X obj 142 386 pow 4;
#X obj 139 460 pow 5;
#X obj 137 539 pow 6;
#X obj 133 618 pow 7;
#X obj 224 209 +;
#X obj 223 285 +;
#X obj 223 355 +;
#X obj 235 439 +;
#X obj 229 507 +;
#X obj 225 588 +;
#X obj 230 662 +;
#X obj 20 21 inlet;
#X obj 229 693 outlet;
#X obj 20 52 unpack f f f f f f f f;
#X connect 0 0 22 1;
#X connect 1 0 22 0;
#X connect 2 0 15 0;
#X connect 3 0 23 0;
#X connect 4 0 16 0;
#X connect 5 0 24 0;
#X connect 6 0 17 0;
#X connect 7 0 25 0;
#X connect 8 0 18 0;
#X connect 9 0 26 0;
#X connect 10 0 19 0;
#X connect 11 0 27 0;
#X connect 12 0 20 0;
#X connect 13 0 28 0;
#X connect 14 0 21 0;
#X connect 15 0 1 0;
#X connect 16 0 3 0;
#X connect 17 0 5 0;
#X connect 18 0 7 0;
#X connect 19 0 9 0;
#X connect 20 0 11 0;
#X connect 21 0 13 0;
#X connect 22 0 23 1;
#X connect 23 0 24 1;
#X connect 24 0 25 1;
#X connect 25 0 26 1;
#X connect 26 0 27 1;
#X connect 27 0 28 1;
#X connect 28 0 30 0;
#X connect 29 0 31 0;
#X connect 31 0 14 0;
#X connect 31 1 12 0;
#X connect 31 2 10 0;
#X connect 31 3 8 0;
#X connect 31 4 6 0;
#X connect 31 5 4 0;
#X connect 31 6 2 0;
#X connect 31 7 0 0;
#X restore 117 686 pd bitstobyte;
#X obj 117 660 pack f f f f f f f f, f 45;
#X obj 213 614 t b f;
#X obj 177 614 t b f;
#X obj 141 614 t b f;
#X obj 357 614 t b f;
#X obj 321 614 t b f;
#X obj 285 614 t b f;
#X obj 249 614 t b f;
#X obj 376 745 pack f f;
#X obj 137 474 i;
#X obj 163 474 i;
#X obj 137 557 i;
#X obj 163 557 i;
#X obj 188 474 i;
#X obj 214 474 i;
#X obj 188 557 i;
#X obj 214 557 i;
#X obj 240 474 i;
#X obj 266 474 i;
#X obj 240 557 i;
#X obj 266 557 i;
#X obj 291 474 i;
#X obj 317 474 i;
#X obj 291 557 i;
#X obj 317 557 i;
#X obj 417 474 i;
#X obj 443 474 i;
#X obj 417 557 i;
#X obj 443 557 i;
#X obj 468 474 i;
#X obj 494 474 i;
#X obj 468 557 i;
#X obj 494 557 i;
#X obj 520 474 i;
#X obj 546 474 i;
#X obj 520 557 i;
#X obj 546 557 i;
#X obj 571 474 i;
#X obj 597 474 i;
#X obj 571 557 i;
#X obj 597 557 i;
#X text 610 507 patchcords flipped due to position;
#X text 611 522 of capsense inside of Sopranino;
#X obj 394 719 t b f;
#X connect 1 0 2 0;
#X connect 2 0 3 0;
#X connect 2 1 4 0;
#X connect 3 0 5 0;
#X connect 4 0 5 0;
#X connect 5 0 23 0;
#X connect 5 1 24 0;
#X connect 7 0 59 0;
#X connect 8 0 58 0;
#X connect 9 0 75 0;
#X connect 10 0 74 0;
#X connect 11 0 55 0;
#X connect 12 0 54 0;
#X connect 13 0 71 0;
#X connect 14 0 70 0;
#X connect 15 0 51 0;
#X connect 16 0 50 0;
#X connect 17 0 67 0;
#X connect 18 0 66 0;
#X connect 19 0 47 0;
#X connect 20 0 46 0;
#X connect 21 0 63 0;
#X connect 22 0 62 0;
#X connect 23 0 25 0;
#X connect 24 0 26 0;
#X connect 25 0 20 0;
#X connect 25 1 19 0;
#X connect 25 2 16 0;
#X connect 25 3 15 0;
#X connect 25 4 12 0;
#X connect 25 5 11 0;
#X connect 25 6 8 0;
#X connect 25 7 7 0;
#X connect 26 0 22 0;
#X connect 26 1 21 0;
#X connect 26 2 18 0;
#X connect 26 3 17 0;
#X connect 26 4 14 0;
#X connect 26 5 13 0;
#X connect 26 6 10 0;
#X connect 26 7 9 0;
#X connect 27 0 45 0;
#X connect 28 0 27 0;
#X connect 29 0 28 0;
#X connect 29 1 28 3;
#X connect 30 0 28 0;
#X connect 30 1 28 2;
#X connect 31 0 28 0;
#X connect 31 1 28 1;
#X connect 32 0 28 0;
#X connect 32 1 28 7;
#X connect 33 0 28 0;
#X connect 33 1 28 6;
#X connect 34 0 28 0;
#X connect 34 1 28 5;
#X connect 35 0 28 0;
#X connect 35 1 28 4;
#X connect 36 0 80 0;
#X connect 37 0 36 0;
#X connect 38 0 37 0;
#X connect 38 1 37 3;
#X connect 39 0 37 0;
#X connect 39 1 37 2;
#X connect 40 0 37 0;
#X connect 40 1 37 1;
#X connect 41 0 37 0;
#X connect 41 1 37 7;
#X connect 42 0 37 0;
#X connect 42 1 37 6;
#X connect 43 0 37 0;
#X connect 43 1 37 5;
#X connect 44 0 37 0;
#X connect 44 1 37 4;
#X connect 45 0 6 0;
#X connect 46 0 48 0;
#X connect 47 0 53 0;
#X connect 48 0 37 0;
#X connect 49 0 40 0;
#X connect 50 0 56 0;
#X connect 51 0 49 0;
#X connect 52 0 39 0;
#X connect 53 0 38 0;
#X connect 54 0 60 0;
#X connect 55 0 57 0;
#X connect 56 0 44 0;
#X connect 57 0 43 0;
#X connect 58 0 52 0;
#X connect 59 0 61 0;
#X connect 60 0 42 0;
#X connect 61 0 41 0;
#X connect 62 0 64 0;
#X connect 63 0 69 0;
#X connect 64 0 28 0;
#X connect 65 0 31 0;
#X connect 66 0 72 0;
#X connect 67 0 65 0;
#X connect 68 0 30 0;
#X connect 69 0 29 0;
#X connect 70 0 76 0;
#X connect 71 0 73 0;
#X connect 72 0 35 0;
#X connect 73 0 34 0;
#X connect 74 0 68 0;
#X connect 75 0 77 0;
#X connect 76 0 33 0;
#X connect 77 0 32 0;
#X connect 80 0 45 0;
#X connect 80 1 45 1;
#X coords 0 -1 1 1 39 159 2 305 250;
#X restore 598 135 pd masks;
#X msg 513 407 disconnect;
#X obj 509 452 netsend -u -b;
#X msg 584 430 connect \$1 \$2;
#X obj 619 358 pack s f;
#X symbolatom 370 187 20 0 0 2 T-Stick_IP - -;
#X floatatom 500 187 5 0 0 2 port - -;
#X obj 646 339 i;
#X obj 619 318 t b f;
#X text 670 226 Pressure sensor;
#X floatatom 683 252 5 0 0 0 - - -;
#X floatatom 721 252 5 0 0 0 - - -;
#X text 672 272 calibration data;
#X obj 702 117 bng 15 250 50 0 empty empty Write 17 7 0 10 -262144
-1 -1;
#X obj 702 137 bng 15 250 50 0 empty empty Read 17 7 0 10 -262144 -1
-1;
#X text 671 96 T-Stick memory;
#X msg 685 162 119;
#X msg 715 162 114;
#X obj 584 408 list;
#X obj 214 80 unpack s f;
#X obj 321 545 route list;
#X msg 168 79 8000;
#X text 491 913 Accel: from -6 to 6;
#X text 473 927 Gyro: from -350 to 350;
#X text 461 941 Pressure: from 0 to 1024;
#X text 557 955 Piezo: ?;
#X text 509 969 Mag: from-1 to 1;
#X text 359 899 Accel: Touch: 0 or 1 for each sensor (16);
#X obj 371 207 tgl 15 0 empty empty connect 17 7 0 10 -262144 -1 -1
1 1;
#X obj 565 379 sel 0 1;
#X obj 318 230 sel 1;
#N canvas 140 748 735 484 status 0;
#X text 48 364 OBS: The oscformat object doesn't deal very well with
integers in OSC messages (it sends as floats. This is a temporary workaround
;
#X obj 95 38 inlet;
#X obj 234 37 inlet;
#X text 92 16 "s" and "x";
#X text 223 17 calibrate;
#X text 345 19 touch mask;
#X obj 364 40 inlet;
#X text 484 18 Write / read memory;
#X obj 527 43 inlet;
#X obj 188 272 outlet;
#X msg 175 208 send 47 115 116 97 116 117 115 0 44 105 105 105 105
0 0 0 0 0 0 119 0 0 0 84 0 0 0 \$1 0 0 0 \$2;
#X msg 152 177 send 47 115 116 97 116 117 115 0 44 105 105 0 0 0 0
99 0 0 0 \$1;
#X msg 201 241 send 47 115 116 97 116 117 115 0 44 105 105 0 0 0 0
119 0 0 0 \$1;
#X msg 124 156 send 47 115 116 97 116 117 115 0 44 105 0 0 0 0 0 \$1
;
#X connect 1 0 13 0;
#X connect 2 0 11 0;
#X connect 6 0 10 0;
#X connect 8 0 12 0;
#X connect 10 0 9 0;
#X connect 11 0 9 0;
#X connect 12 0 9 0;
#X connect 13 0 9 0;
#X restore 431 427 pd status;
#X msg 590 31 0;
#X obj 175 39 t 1 b b;
#X obj 102 79 delay 500;
#X text 949 931 T-Stick Sopranino #19X;
#X text 949 946 Edu Meneses - IDMIL - May/2019;
#X obj 308 571 route rawcapsense rawaccel rawgyro rawmag rawpressure
rawpiezo information orientation, f 106;
#X obj 892 630 unpack f f f f;
#X floatatom 877 671 5 0 0 0 - - -;
#X floatatom 911 671 5 0 0 0 - - -;
#X floatatom 945 671 5 0 0 0 - - -;
#X floatatom 979 671 5 0 0 0 - - -;
#X msg 214 59 192.168.10.10 8888;
#X obj 894 597 route ypr ypr_at quaternion;
#X obj 1032 630 unpack f f f f;
#X floatatom 1017 671 5 0 0 0 - - -;
#X floatatom 1051 671 5 0 0 0 - - -;
#X floatatom 1085 671 5 0 0 0 - - -;
#X floatatom 1119 671 5 0 0 0 - - -;
#X obj 1172 630 unpack f f f f;
#X floatatom 1157 671 5 0 0 0 - - -;
#X floatatom 1191 671 5 0 0 0 - - -;
#X floatatom 1225 671 5 0 0 0 - - -;
#X floatatom 1259 671 5 0 0 0 - - -;
#X connect 1 0 2 0;
#X connect 1 0 57 0;
#X connect 2 0 97 0;
#X connect 5 0 46 0;
#X connect 6 0 45 0;
#X connect 7 0 36 0;
#X connect 8 0 37 0;
#X connect 9 0 38 0;
#X connect 10 0 39 0;
#X connect 11 0 40 0;
#X connect 12 0 41 0;
#X connect 13 0 42 0;
#X connect 14 0 43 0;
#X connect 15 0 44 0;
#X connect 16 0 17 0;
#X connect 17 0 21 0;
#X connect 18 0 16 0;
#X connect 18 1 16 1;
#X connect 19 0 18 0;
#X connect 21 0 22 0;
#X connect 24 0 25 0;
#X connect 25 0 1 0;
#X connect 25 0 27 0;
#X connect 27 0 28 0;
#X connect 28 0 97 0;
#X connect 47 0 50 0;
#X connect 47 0 61 0;
#X connect 48 0 47 0;
#X connect 50 0 86 0;
#X connect 51 0 4 0;
#X connect 54 0 47 0;
#X connect 55 0 54 0;
#X connect 56 0 98 0;
#X connect 56 0 99 0;
#X connect 58 0 5 0;
#X connect 58 1 6 0;
#X connect 58 2 7 0;
#X connect 59 0 8 0;
#X connect 59 1 9 0;
#X connect 59 2 10 0;
#X connect 60 0 13 0;
#X connect 60 1 14 0;
#X connect 60 2 15 0;
#X connect 62 0 33 0;
#X connect 62 1 34 0;
#X connect 62 2 64 0;
#X connect 62 3 76 0;
#X connect 62 4 77 0;
#X connect 63 0 97 1;
#X connect 65 0 66 0;
#X connect 66 0 97 2;
#X connect 67 0 68 0;
#X connect 69 0 68 0;
#X connect 70 0 84 1;
#X connect 71 0 70 0;
#X connect 72 0 74 0;
#X connect 73 0 70 1;
#X connect 74 0 70 0;
#X connect 74 1 73 0;
#X connect 79 0 82 0;
#X connect 80 0 83 0;
#X connect 82 0 97 3;
#X connect 83 0 97 3;
#X connect 84 0 69 0;
#X connect 85 0 71 0;
#X connect 85 1 72 0;
#X connect 86 0 23 0;
#X connect 86 0 103 0;
#X connect 87 0 55 0;
#X connect 94 0 95 0;
#X connect 94 0 48 0;
#X connect 94 0 96 0;
#X connect 95 0 67 0;
#X connect 95 1 84 0;
#X connect 96 0 55 0;
#X connect 97 0 68 0;
#X connect 98 0 65 0;
#X connect 99 0 100 0;
#X connect 99 1 87 0;
#X connect 99 2 109 0;
#X connect 100 0 94 0;
#X connect 103 0 51 0;
#X connect 103 1 58 0;
#X connect 103 2 59 0;
#X connect 103 3 60 0;
#X connect 103 4 11 0;
#X connect 103 5 12 0;
#X connect 103 6 62 0;
#X connect 103 7 110 0;
#X connect 104 0 105 0;
#X connect 104 1 106 0;
#X connect 104 2 107 0;
#X connect 104 3 108 0;
#X connect 109 0 85 0;
#X connect 110 0 104 0;
#X connect 110 1 111 0;
#X connect 110 2 116 0;
#X connect 111 0 112 0;
#X connect 111 1 113 0;
#X connect 111 2 114 0;
#X connect 111 3 115 0;
#X connect 116 0 117 0;
#X connect 116 1 118 0;
#X connect 116 2 119 0;
#X connect 116 3 120 0;
#X coords 0 -1 1 1 420 215 1 362 87;
