#N canvas 0 23 1680 1005 12;
#X text 13 13 GuitarAMI module tester;
#X text 13 29 Edu Meneses (2020);
#X text 12 45 IDMIL | CIRMMT | McGill University;
#X obj 17 84 cnv 15 1300 520 empty empty empty 20 12 0 14 -1 -66577
0;
#X obj 12 79 cnv 15 1300 520 empty empty OSC 20 12 0 14 -228856 -66577
0;
#X obj 730 159 timer;
#X floatatom 730 183 8 0 0 0 - - -;
#X obj 730 134 t b b;
#X obj 730 109 r rawtimer;
#N canvas 0 22 450 278 (subpatch) 0;
#X array rawtime 100 float 1;
#A 0 0 0 0 0 0 0 0 0 0 0 0 0 0 0 0 0 0 0 0 0 0 0 0 0 0 0 0 0 0 0 0
0 0 0 0 0 0 0 0 0 0 0 0 0 0 0 0 0 0 0 0 0 0 0 0 0 0 0 0 0 0 0 0 0 0
0 0 0 0 0 0 0 0 0 0 0 0 0 0 0 0 0 0 0 0 0 0 0 0 0 0 0 0 0 0 0 0 0 0
0;
#X coords 0 100 99 0 200 140 1;
#X restore 524 106 graph;
#N canvas 264 335 568 475 timegraph 0;
#X obj 111 257 list store;
#X obj 117 300 list split 100;
#X msg 148 105 0 0 0 0 0 0 0 0 0 0 0 0 0 0 0 0 0 0 0 0 0 0 0 0 0 0
0 0 0 0 0 0 0 0 0 0 0 0 0 0 0 0 0 0 0 0 0 0 0 0 0 0 0 0 0 0 0 0 0 0
0 0 0 0 0 0 0 0 0 0 0 0 0 0 0 0 0 0 0 0 0 0 0 0 0 0 0 0 0 0 0 0 0 0
0 0 0 0 0 0;
#X obj 54 178 moses 0;
#X obj 78 215 moses 101;
#X obj 57 59 inlet;
#X obj 173 53 loadbang;
#X obj 123 353 outlet;
#X connect 0 0 1 0;
#X connect 1 0 0 1;
#X connect 1 0 7 0;
#X connect 2 0 0 1;
#X connect 2 0 7 0;
#X connect 3 1 4 0;
#X connect 4 0 0 0;
#X connect 5 0 3 0;
#X connect 6 0 2 0;
#X restore 730 207 pd timegraph;
#X obj 730 231 array set rawtime;
#X obj 96 131 netreceive -u -b;
#X obj 96 152 oscparse;
#X obj 19 152 s rawtimer;
#X obj 96 176 route list;
#X msg 96 97 listen 8000;
#X obj 96 197 route GuitarAMI_001;
#X obj 184 304 vsl 15 90 0 800 0 0 empty empty empty 0 -9 0 10 -262144
-1 -1 0 1;
#X floatatom 184 278 5 0 0 0 - - -;
#X text 236 119 Change the instrument's NAME!;
#X floatatom 39 278 5 0 0 0 - - -;
#X floatatom 287 372 10 0 0 2 _____X_____ - -;
#X floatatom 364 372 10 0 0 2 _____Y_____ - -;
#X floatatom 439 372 10 0 0 2 _____Z_____ - -;
#X obj 324 326 unpack f f f;
#X floatatom 553 372 10 0 0 2 _____X_____ - -;
#X floatatom 629 372 10 0 0 2 _____Y_____ - -;
#X floatatom 705 372 10 0 0 2 _____Z_____ - -;
#X obj 608 326 unpack f f f;
#X floatatom 274 538 10 0 0 2 ___Q1(I)___ - -;
#X floatatom 348 538 10 0 0 2 ___Q2(J)___ - -;
#X floatatom 423 538 10 0 0 2 ___Q3(K)___ - -;
#X floatatom 584 538 10 0 0 2 ____yaw____ - -;
#X floatatom 661 538 10 0 0 2 ___pitch___ - -;
#X floatatom 737 538 10 0 0 2 ___roll___ - -;
#X obj 623 482 unpack f f f;
#X obj 326 482 unpack f f f f;
#X floatatom 500 538 10 0 0 2 _Q4(Real)_ - -;
#X floatatom 97 270 2 0 0 0 - - -;
#X obj 97 293 tgl 15 0 empty empty empty 17 7 0 10 -262144 -1 -1 0
1;
#X obj 97 314 bng 15 250 50 0 empty empty empty 17 7 0 10 -262144 -1
-1;
#X floatatom 119 270 2 0 0 0 - - -;
#X obj 119 293 tgl 15 0 empty empty empty 17 7 0 10 -262144 -1 -1 0
1;
#X obj 119 314 bng 15 250 50 0 empty empty empty 17 7 0 10 -262144
-1 -1;
#X floatatom 139 270 2 0 0 0 - - -;
#X obj 139 293 tgl 15 0 empty empty empty 17 7 0 10 -262144 -1 -1 0
1;
#X obj 139 314 bng 15 250 50 0 empty empty empty 17 7 0 10 -262144
-1 -1;
#X text 105 400 ultrasonic sensor (cm);
#X obj 354 271 s quat;
#X obj 326 453 r quat;
#X obj 623 453 r ypr;
#X obj 405 271 s ypr;
#X obj 111 454 r magn;
#X obj 303 271 s magn;
#X text 92 331 tap;
#X text 92 346 double tap;
#X text 92 362 triple tap;
#X text 36 299 touch;
#X text 36 314 count;
#X text 288 392 accelerometer (IMU) (in m/s^2);
#X text 529 392 Gyroscope (IMU)(in radians per second);
#X floatatom 44 537 10 0 0 2 _____X_____ - -;
#X floatatom 121 537 10 0 0 2 _____Y_____ - -;
#X floatatom 196 537 10 0 0 2 _____Z_____ - -;
#X obj 91 481 unpack f f f;
#X text 48 559 Magnetometer (IMU) (in uTesla);
#X text 595 557 Euler (software) (in degrees);
#X text 330 556 Quaternions (software);
#X obj 17 622 cnv 15 1400 350 empty empty empty 20 12 0 14 -1 -66577
0;
#X obj 12 617 cnv 15 1400 350 empty empty MIDI 20 12 0 14 -228856 -66577
0;
#X floatatom 34 692 0 0 0 0 - - -;
#X text 62 693 value;
#X obj 34 662 ctlin 20 1;
#X floatatom 34 752 0 0 0 0 - - -;
#X text 62 753 value;
#X obj 34 722 ctlin 21 1;
#X floatatom 34 812 0 0 0 0 - - -;
#X text 62 813 value;
#X floatatom 34 872 0 0 0 0 - - -;
#X text 62 873 value;
#X obj 34 782 ctlin 22 1;
#X obj 34 842 ctlin 23 1;
#X floatatom 34 932 0 0 0 0 - - -;
#X text 62 933 value;
#X obj 34 902 ctlin 24 1;
#X text 111 659 Ultrasonic sensor;
#X text 110 676 (scaled from 0 to 300 mm);
#X text 111 719 Absolute X-axis acceleration;
#X text 110 736 (scaled from 0 to 50 m/s^2);
#X text 112 779 Absolute Y-axis acceleration;
#X text 110 795 (scaled from 0 to 50 m/s^2);
#X text 111 840 Absolute Z-axis acceleration;
#X text 110 855 (scaled from 0 to 50 m/s^2);
#X text 111 899 Absolute X-axis angular velocity (gyroscope);
#X text 110 915 (scaled from 0 to 25 rad/s);
#X floatatom 427 672 0 0 0 0 - - -;
#X text 455 673 value;
#X floatatom 427 724 0 0 0 0 - - -;
#X text 455 725 value;
#X floatatom 427 776 0 0 0 0 - - -;
#X text 455 777 value;
#X floatatom 427 828 0 0 0 0 - - -;
#X text 455 829 value;
#X floatatom 427 880 0 0 0 0 - - -;
#X text 455 881 value;
#X obj 427 642 ctlin 25 1;
#X obj 427 698 ctlin 26 1;
#X obj 427 750 ctlin 27 1;
#X obj 427 802 ctlin 28 1;
#X obj 427 854 ctlin 29 1;
#X text 504 639 Absolute Y-axis angular velocity (gyroscope);
#X text 503 656 (scaled from 0 to 25 rad/s);
#X text 504 695 Absolute Z-axis angular velocity (gyroscope);
#X text 503 712 (scaled from 0 to 25 rad/s);
#X text 505 747 yaw;
#X text 504 800 pitch;
#X text 504 851 roll;
#X text 503 763 (from -180 to 180 degrees);
#X text 503 815 (from -180 to 180 degrees);
#X text 503 867 (from -180 to 180 degrees);
#X floatatom 821 667 0 0 0 0 - - -;
#X text 849 668 value;
#X floatatom 821 719 0 0 0 0 - - -;
#X text 849 720 value;
#X floatatom 821 771 0 0 0 0 - - -;
#X text 849 772 value;
#X floatatom 821 823 0 0 0 0 - - -;
#X text 849 824 value;
#X obj 821 641 ctlin 30 1;
#X obj 821 693 ctlin 31 1;
#X obj 821 745 ctlin 14 1;
#X obj 821 797 ctlin 15 1;
#X text 898 638 tap [0 or 127];
#X text 898 690 double tap [0 or 127];
#X text 899 742 triple tap [0 or 127];
#X text 898 795 touch count starting from 0;
#X text 894 91 ## OSC namespaces;
#X text 894 110 - continuous:;
#X text 907 129 - /GuitarAMI_module_XXX/ult [int] (in mm);
#X text 907 145 - /GuitarAMI_module_XXX/accl [float] [float] [float]
(in m/s^2);
#X text 907 172 - /GuitarAMI_module_XXX/gyro [float] [float] [float]
(in radians per second);
#X text 908 199 - /GuitarAMI_module_XXX/magn [float] [float] [float]
(in uTesla);
#X text 909 227 - /GuitarAMI_module_XXX/quat [float] [float] [float]
;
#X text 910 423 - /GuitarAMI_module_XXX/ypr [float] [float] [float]
(in degrees);
#X text 894 246 - discrete:;
#X text 909 262 - /GuitarAMI_module_XXX/tap [0 or 1];
#X text 909 278 - /GuitarAMI_module_XXX/dtap [0 or 1];
#X text 909 296 - /GuitarAMI_module_XXX/ttap [0 or 1];
#X text 909 406 - /GuitarAMI_module_XXX/count [int];
#X obj 608 302 r gyro;
#X obj 252 271 s gyro;
#X obj 450 271 s shake;
#X obj 508 271 s jab;
#X floatatom 823 538 10 0 0 2 _____X_____ - -;
#X floatatom 899 538 10 0 0 2 _____Y_____ - -;
#X floatatom 975 538 10 0 0 2 _____Z_____ - -;
#X obj 878 492 unpack f f f;
#X obj 878 468 r shake;
#X floatatom 1061 538 10 0 0 2 _____X_____ - -;
#X floatatom 1137 538 10 0 0 2 _____Y_____ - -;
#X floatatom 1213 538 10 0 0 2 _____Z_____ - -;
#X obj 1116 492 unpack f f f;
#X obj 1116 468 r jab;
#X floatatom 820 928 0 0 0 0 - - -;
#X text 848 929 value;
#X floatatom 1097 665 0 0 0 0 - - -;
#X text 1125 666 value;
#X floatatom 1097 717 0 0 0 0 - - -;
#X text 1125 718 value;
#X floatatom 1097 769 0 0 0 0 - - -;
#X text 1125 770 value;
#X floatatom 1097 821 0 0 0 0 - - -;
#X text 1125 822 value;
#X floatatom 821 875 0 0 0 0 - - -;
#X text 849 876 value;
#X obj 821 850 ctlin 85 1;
#X obj 820 902 ctlin 86 1;
#X obj 1097 639 ctlin 87 1;
#X text 898 847 Shake X;
#X text 897 899 Shake Y;
#X text 1174 636 Shake Z;
#X text 1184 690 Jab X;
#X text 1183 743 Jab Y;
#X text 1183 794 Jab Z;
#X text 894 335 - Instrument:;
#X text 909 352 - /GuitarAMI_module_XXX/shake [float] [float] [float]
;
#X text 909 369 - /GuitarAMI_module_XXX/jab [float] [float] [float]
;
#X text 1060 557 Jab (instrument data) (in rad/sec);
#X text 815 557 Shake (instrument data) (in rad/sec);
#X floatatom 612 272 6 0 0 1 battery_percentage - -;
#X text 908 314 - /GuitarAMI_module_XXX/battery [int] (percentage)
;
#X obj 554 271 s touch;
#X obj 22 364 r touch;
#X floatatom 22 388 5 0 0 0 - - -;
#X text 19 409 touch;
#X text 19 424 value;
#X obj 1330 363 cnv 15 340 242 empty empty empty 20 12 0 14 -1 -66577
0;
#X obj 1325 357 cnv 15 340 242 empty empty SPU_emulator 20 12 0 14
-228856 -66577 0;
#X obj 1354 407 adc~ 1;
#X floatatom 1435 533 5 0 0 3 Frequency - -;
#X obj 1513 531 bng 30 250 50 0 empty empty Onsets -15 40 0 18 -262144
-1 -1;
#X floatatom 1481 438 5 0 127 0 - - -;
#X obj 1333 531 tgl 30 0 empty empty B1 6 40 0 15 -262144 -1 -1 0 1
;
#N canvas 358 126 507 364 emulator 0;
#X obj 343 220 bonk~;
#X obj 216 196 sigmund~ hop;
#X obj 216 219 mtof;
#X obj 343 151 loadbang;
#X msg 343 173 64;
#X msg 343 197 minvel \$1;
#X text 248 48 configure sensitivity;
#X text 290 302 onsets;
#X obj 80 128 keyname;
#X obj 80 195 route 1 2 3;
#X obj 80 173 list prepend;
#X obj 60 218 change;
#X obj 109 218 change;
#X obj 158 218 change;
#X obj 126 150 f;
#X text 99 299 B1;
#X text 149 299 B2;
#X text 198 299 B3;
#X obj 302 68 inlet;
#X obj 159 69 inlet~;
#X obj 86 279 outlet;
#X obj 136 279 outlet;
#X obj 186 279 outlet;
#X obj 236 279 outlet;
#X obj 286 279 outlet;
#X text 239 300 Freq;
#X connect 0 1 24 0;
#X connect 1 0 2 0;
#X connect 2 0 23 0;
#X connect 3 0 4 0;
#X connect 4 0 5 0;
#X connect 5 0 0 0;
#X connect 8 0 10 0;
#X connect 8 1 14 0;
#X connect 9 0 11 0;
#X connect 9 1 12 0;
#X connect 9 2 13 0;
#X connect 10 0 9 0;
#X connect 11 0 20 0;
#X connect 12 0 21 0;
#X connect 13 0 22 0;
#X connect 14 0 10 1;
#X connect 18 0 5 0;
#X connect 19 0 1 0;
#X connect 19 0 0 0;
#X restore 1384 455 pd emulator;
#X text 1403 407 Audio input;
#X text 1524 438 Onset sensitivity;
#X obj 1367 531 tgl 30 0 empty empty B2 6 40 0 15 -262144 -1 -1 0 1
;
#X obj 1401 531 tgl 30 0 empty empty B3 6 40 0 15 -262144 -1 -1 0 1
;
#N canvas 505 91 793 453 xy 0;
#X obj 53 53 cnv 15 200 200 \$0-xy_fundo_send \$0-xy_fundo_r empty
20 12 0 14 -233017 -66577 0;
#X obj 63 153 cnv 10 44 20 \$0-xy_mao_send \$0-xy_mao_r Head 6 10 0
14 -148809 -262144 0;
#X obj 153 153 cnv 10 42 20 \$0-xy_corpo_send \$0-xy_corpo_r Body 4
10 0 14 -148809 -262144 0;
#X obj 344 63 inlet;
#X obj 514 53 inlet;
#X floatatom 344 184 5 53 233 0 - - -;
#X obj 344 228 pack \$0 f;
#X obj 514 228 pack \$0 f;
#X obj 344 206 t b f;
#X floatatom 514 184 5 53 253 0 - - -;
#X obj 514 206 t b f;
#X text 352 18 inserir X e Y entre 0 e 199;
#X obj 344 159 + 53;
#X obj 514 159 + 53;
#X obj 411 87 loadbang;
#X msg 411 110 153;
#X text 250 329 Edu Meneses (2015);
#X text 239 357 Released under GNU GPL;
#X text 250 343 www.edumeneses.com;
#X msg 344 248 \; \$1-xy_mao_r pos 63 \$2;
#X obj 344 84 moses 0;
#X obj 344 109 moses 181;
#X obj 514 84 moses 0;
#X obj 514 109 moses 181;
#X msg 514 248 \; \$1-xy_corpo_r pos 153 \$2;
#X msg 523 134 179;
#X msg 355 135 179;
#X msg 316 109 0;
#X msg 456 109 0;
#X obj 423 214 s mao;
#X obj 592 202 s corpo;
#X obj 592 159 - 232;
#X obj 592 180 * -1;
#X connect 3 0 20 0;
#X connect 4 0 22 0;
#X connect 5 0 8 0;
#X connect 6 0 19 0;
#X connect 7 0 24 0;
#X connect 8 0 6 0;
#X connect 8 1 6 1;
#X connect 8 1 29 0;
#X connect 9 0 10 0;
#X connect 10 0 7 0;
#X connect 10 1 7 1;
#X connect 10 1 31 0;
#X connect 12 0 5 0;
#X connect 13 0 9 0;
#X connect 14 0 15 0;
#X connect 15 0 9 0;
#X connect 15 0 5 0;
#X connect 20 0 27 0;
#X connect 20 1 21 0;
#X connect 21 0 12 0;
#X connect 21 1 26 0;
#X connect 22 0 28 0;
#X connect 22 1 23 0;
#X connect 23 0 13 0;
#X connect 23 1 25 0;
#X connect 25 0 13 0;
#X connect 26 0 12 0;
#X connect 27 0 12 0;
#X connect 28 0 13 0;
#X connect 31 0 32 0;
#X connect 32 0 30 0;
#X coords 0 -1 1 1 206 206 2 50 50;
#X restore 1387 139 pd xy;
#X obj 737 575 s head;
#X obj 583 577 s body;
#X obj 1385 12 r head;
#X obj 1494 12 r body;
#X obj 1385 40 * -1;
#X floatatom 1385 86 5 0 0 0 - - -;
#X obj 1385 63 - 10;
#X obj 1385 108 moses 0;
#X obj 1495 40 * -1;
#X floatatom 1495 86 5 0 0 0 - - -;
#X obj 1495 108 moses 0;
#X obj 1495 63 + 60;
#X text 909 387 - /GuitarAMI_module_XXX/ultTrig [int] [0 or 1];
#X obj 96 224 route count tap dtap ttap ult accl gyro magn quat ypr
shake jab battery touch ultTrig;
#X obj 229 320 bng 15 250 50 0 empty empty empty 17 7 0 10 -262144
-1 -1;
#X text 201 335 Ultrasonic;
#X text 211 351 trigger;
#X obj 1097 691 ctlin 102 1;
#X obj 1097 743 ctlin 103 1;
#X obj 1097 795 ctlin 104 1;
#X floatatom 427 933 0 0 0 0 - - -;
#X text 455 934 value;
#X obj 427 907 ctlin 89 1;
#X text 504 904 Ultrasonic trig [0 or 127];
#X msg 226 97 symbol GuitarAMI_module_00X;
#X floatatom 1247 717 0 0 0 0 - - -;
#X text 1275 718 value;
#X floatatom 1247 769 0 0 0 0 - - -;
#X text 1275 770 value;
#X obj 1247 691 ctlin 105 1;
#X obj 1247 743 ctlin 106 1;
#X text 1333 691 Onsets;
#X text 1333 742 Freq;
#X floatatom 1247 821 0 0 0 0 - - -;
#X text 1275 822 value;
#X floatatom 1247 877 0 0 0 0 - - -;
#X text 1275 878 value;
#X floatatom 1247 929 0 0 0 0 - - -;
#X text 1275 930 value;
#X text 1333 794 Button 1;
#X text 1333 851 Button 2;
#X text 1333 902 Button 3;
#X obj 1247 795 ctlin 107 1;
#X obj 1247 851 ctlin 108 1;
#X obj 1247 903 ctlin 109 1;
#X connect 5 0 6 0;
#X connect 6 0 10 0;
#X connect 7 0 5 0;
#X connect 7 1 5 1;
#X connect 8 0 7 0;
#X connect 10 0 11 0;
#X connect 12 0 13 0;
#X connect 12 0 14 0;
#X connect 13 0 15 0;
#X connect 15 0 17 0;
#X connect 16 0 12 0;
#X connect 17 0 223 0;
#X connect 19 0 18 0;
#X connect 25 0 22 0;
#X connect 25 1 23 0;
#X connect 25 2 24 0;
#X connect 29 0 26 0;
#X connect 29 1 27 0;
#X connect 29 2 28 0;
#X connect 33 0 211 0;
#X connect 35 0 210 0;
#X connect 36 0 33 0;
#X connect 36 1 34 0;
#X connect 36 2 35 0;
#X connect 37 0 30 0;
#X connect 37 1 31 0;
#X connect 37 2 32 0;
#X connect 37 3 38 0;
#X connect 39 0 40 0;
#X connect 40 0 41 0;
#X connect 42 0 43 0;
#X connect 43 0 44 0;
#X connect 45 0 46 0;
#X connect 46 0 47 0;
#X connect 50 0 37 0;
#X connect 51 0 36 0;
#X connect 53 0 65 0;
#X connect 65 0 62 0;
#X connect 65 1 63 0;
#X connect 65 2 64 0;
#X connect 73 0 71 0;
#X connect 76 0 74 0;
#X connect 81 0 77 0;
#X connect 82 0 79 0;
#X connect 85 0 83 0;
#X connect 106 0 96 0;
#X connect 107 0 98 0;
#X connect 108 0 100 0;
#X connect 109 0 102 0;
#X connect 110 0 104 0;
#X connect 129 0 121 0;
#X connect 130 0 123 0;
#X connect 131 0 125 0;
#X connect 132 0 127 0;
#X connect 150 0 29 0;
#X connect 157 0 154 0;
#X connect 157 1 155 0;
#X connect 157 2 156 0;
#X connect 158 0 157 0;
#X connect 162 0 159 0;
#X connect 162 1 160 0;
#X connect 162 2 161 0;
#X connect 163 0 162 0;
#X connect 176 0 174 0;
#X connect 177 0 164 0;
#X connect 178 0 166 0;
#X connect 193 0 194 0;
#X connect 199 0 204 0;
#X connect 202 0 204 1;
#X connect 204 0 203 0;
#X connect 204 1 207 0;
#X connect 204 2 208 0;
#X connect 204 3 200 0;
#X connect 204 4 201 0;
#X connect 212 0 214 0;
#X connect 213 0 218 0;
#X connect 214 0 216 0;
#X connect 215 0 217 0;
#X connect 216 0 215 0;
#X connect 217 1 209 0;
#X connect 218 0 221 0;
#X connect 219 0 220 0;
#X connect 220 1 209 1;
#X connect 221 0 219 0;
#X connect 223 0 21 0;
#X connect 223 1 39 0;
#X connect 223 2 42 0;
#X connect 223 3 45 0;
#X connect 223 4 19 0;
#X connect 223 5 25 0;
#X connect 223 6 151 0;
#X connect 223 7 54 0;
#X connect 223 8 49 0;
#X connect 223 9 52 0;
#X connect 223 10 152 0;
#X connect 223 11 153 0;
#X connect 223 12 190 0;
#X connect 223 13 192 0;
#X connect 223 14 224 0;
#X connect 227 0 168 0;
#X connect 228 0 170 0;
#X connect 229 0 172 0;
#X connect 232 0 230 0;
#X connect 234 0 17 1;
#X connect 239 0 235 0;
#X connect 240 0 237 0;
#X connect 252 0 243 0;
#X connect 253 0 245 0;
#X connect 254 0 247 0;
