#N canvas 0 -1057 1920 1035 10;
#X declare -lib Gem;
#X obj 357 25 cnv 15 464 230 empty empty T-Stick 20 12 0 20 -228856
-66577 0;
#X obj 54 650 array set Touch;
#X obj 147 688 vsl 45 135 -32767 32767 0 0 empty empty AccelX 0 -9
0 10 -262144 -1 -1 3650 1;
#X obj 197 688 vsl 45 135 -32767 32767 0 0 empty empty AccelY 0 -9
0 10 -262144 -1 -1 5778 1;
#X obj 247 688 vsl 45 135 -32767 32767 0 0 empty empty AccelZ 0 -9
0 10 -262144 -1 -1 7807 1;
#X obj 297 688 vsl 45 135 -2000 2000 0 0 empty empty GyroX 0 -9 0 10
-262144 -1 -1 6725 1;
#X obj 347 688 vsl 45 135 -35 35 0 0 empty empty GyroY 0 -9 0 10 -262144
-1 -1 6692 1;
#X obj 397 688 vsl 45 135 -35 35 0 0 empty empty GyroZ 0 -9 0 10 -262144
-1 -1 6690 1;
#X obj 597 688 vsl 45 135 0 1 0 0 empty empty Pressure 0 -9 0 10 -262144
-1 -1 4967 1;
#X obj 647 688 vsl 45 135 0 1 0 0 empty empty Piezo 0 -9 0 10 -262144
-1 -1 0 1;
#X obj 447 688 vsl 45 135 -32767 32767 0 0 empty empty MagX 0 -9 0
10 -262144 -1 -1 6058 1;
#X obj 497 688 vsl 45 135 -32767 32767 0 0 empty empty MagY 0 -9 0
10 -262144 -1 -1 7419 1;
#X obj 547 688 vsl 45 135 -32767 32767 0 0 empty empty MagZ 0 -9 0
10 -262144 -1 -1 6141 1;
#X obj 904 739 timer;
#X floatatom 904 763 8 0 0 0 - - -;
#X obj 904 714 t b b;
#X obj 904 689 r rawtimer;
#N canvas 0 22 450 278 (subpatch) 0;
#X array rawtime 100 float 1;
#A 0 5.80499 7.25624 5.80499 5.80499 4.35374 8.70748 5.80499 5.80499
5.80499 5.80499 5.80499 2.90249 8.70748 7.25624 5.80499 5.80499 5.80499
4.35374 7.25624 5.80499 7.25624 7.25624 5.80499 5.80499 7.25624 0 11.61
2.90249 2.90249 11.61 4.35374 8.70748 2.90249 5.80499 8.70748 5.80499
5.80499 1.45125 10.1587 5.80499 5.80499 8.70748 4.35374 5.80499 4.35374
2.90249 11.61 5.80499 5.80499 1.45125 7.25624 10.1587 5.80499 5.80499
7.25624 5.80499 5.80499 5.80499 5.80499 5.80499 7.25624 5.80499 5.80499
5.80499 5.80499 2.90249 8.70748 4.35374 8.70748 7.25624 5.80499 5.80499
4.35374 7.25624 5.80499 7.25624 4.35374 7.25624 4.35374 0 11.61 5.80499
4.35374 8.70748 5.80499 5.80499 4.35374 7.25624 7.25624 4.35374 8.70748
4.35374 5.80499 5.80499 5.80499 7.25624 2.90249 8.70748 4.35374 7.25624
;
#X coords 0 100 99 0 200 140 1;
#X restore 698 686 graph;
#N canvas 264 335 568 475 timegraph 0;
#X obj 111 257 list store;
#X obj 117 300 list split 100;
#X msg 148 105 0 0 0 0 0 0 0 0 0 0 0 0 0 0 0 0 0 0 0 0 0 0 0 0 0 0
0 0 0 0 0 0 0 0 0 0 0 0 0 0 0 0 0 0 0 0 0 0 0 0 0 0 0 0 0 0 0 0 0 0
0 0 0 0 0 0 0 0 0 0 0 0 0 0 0 0 0 0 0 0 0 0 0 0 0 0 0 0 0 0 0 0 0 0
0 0 0 0 0 0;
#X obj 54 178 moses 0;
#X obj 78 215 moses 101;
#X obj 57 59 inlet;
#X obj 173 53 loadbang;
#X obj 123 353 outlet;
#X connect 0 0 1 0;
#X connect 1 0 0 1;
#X connect 1 0 7 0;
#X connect 2 0 0 1;
#X connect 2 0 7 0;
#X connect 3 1 4 0;
#X connect 4 0 0 0;
#X connect 5 0 3 0;
#X connect 6 0 2 0;
#X restore 904 787 pd timegraph;
#X obj 904 811 array set rawtime;
#X obj 110 581 outlet;
#X obj 231 128 inlet;
#X floatatom 247 831 7 0 0 0 - - -;
#X floatatom 297 831 7 0 0 0 - - -;
#X floatatom 347 831 7 0 0 0 - - -;
#X floatatom 397 831 7 0 0 0 - - -;
#X floatatom 597 831 7 0 0 0 - - -;
#X floatatom 647 831 7 0 0 0 - - -;
#X floatatom 447 831 7 0 0 0 - - -;
#X floatatom 497 831 7 0 0 0 - - -;
#X floatatom 547 831 7 0 0 0 - - -;
#X floatatom 197 831 7 0 0 0 - - -;
#X floatatom 147 831 7 0 0 0 - - -;
#X obj 257 451 netreceive -u -b;
#X obj 257 472 oscparse;
#N canvas 1168 510 399 333 cook_touch_sopranino 0;
#X obj 101 37 inlet;
#X obj 180 92 unpack f f;
#N canvas 1423 301 708 912 bytetobits 0;
#X obj 98 187 / 2;
#X obj 129 187 % 2;
#X floatatom 98 227 5 0 0 0 - - -;
#X obj 98 207 i;
#X obj 98 271 / 2;
#X obj 98 292 i;
#X obj 131 269 % 2;
#X floatatom 98 311 5 0 0 0 - - -;
#X obj 99 358 / 2;
#X obj 126 358 % 2;
#X obj 99 378 i;
#X floatatom 98 398 5 0 0 0 - - -;
#X obj 98 439 / 2;
#X obj 125 439 % 2;
#X obj 98 461 i;
#X floatatom 97 483 5 0 0 0 - - -;
#X obj 97 522 / 2;
#X obj 124 522 % 2;
#X obj 97 542 i;
#X floatatom 97 562 5 0 0 0 - - -;
#X obj 97 600 / 2;
#X obj 124 600 % 2;
#X obj 97 619 i;
#X floatatom 96 639 5 0 0 0 - - -;
#X obj 96 677 / 2;
#X obj 123 677 % 2;
#X obj 96 696 i;
#X floatatom 97 718 5 0 0 0 - - -;
#X obj 97 739 % 2;
#X obj 98 334 t f f;
#X obj 98 418 t f f;
#X obj 97 502 t f f;
#X obj 97 580 t f f;
#X obj 97 657 t f f;
#X obj 98 247 t f f;
#X obj 148 56 inlet;
#X obj 257 796 pack f f f f f f f f;
#X obj 257 773 f;
#X obj 257 842 outlet;
#X obj 148 126 t b f f;
#X obj 148 81 moses 0;
#X obj 148 104 moses 256;
#X obj 395 843 list;
#X obj 395 864 outlet;
#X obj 395 66 inlet;
#X text 408 88 bang to output last conversion;
#X connect 0 0 3 0;
#X connect 1 0 36 7;
#X connect 2 0 34 0;
#X connect 3 0 2 0;
#X connect 4 0 5 0;
#X connect 5 0 7 0;
#X connect 6 0 36 6;
#X connect 7 0 29 0;
#X connect 8 0 10 0;
#X connect 9 0 36 5;
#X connect 10 0 11 0;
#X connect 11 0 30 0;
#X connect 12 0 14 0;
#X connect 13 0 36 4;
#X connect 14 0 15 0;
#X connect 15 0 31 0;
#X connect 16 0 18 0;
#X connect 17 0 36 3;
#X connect 18 0 19 0;
#X connect 19 0 32 0;
#X connect 20 0 22 0;
#X connect 21 0 36 2;
#X connect 22 0 23 0;
#X connect 23 0 33 0;
#X connect 24 0 26 0;
#X connect 25 0 36 1;
#X connect 26 0 27 0;
#X connect 27 0 28 0;
#X connect 28 0 37 1;
#X connect 29 0 8 0;
#X connect 29 1 9 0;
#X connect 30 0 12 0;
#X connect 30 1 13 0;
#X connect 31 0 16 0;
#X connect 31 1 17 0;
#X connect 32 0 20 0;
#X connect 32 1 21 0;
#X connect 33 0 24 0;
#X connect 33 1 25 0;
#X connect 34 0 4 0;
#X connect 34 1 6 0;
#X connect 35 0 40 0;
#X connect 36 0 38 0;
#X connect 36 0 42 1;
#X connect 37 0 36 0;
#X connect 39 0 37 0;
#X connect 39 1 0 0;
#X connect 39 2 1 0;
#X connect 40 1 41 0;
#X connect 41 0 39 0;
#X connect 42 0 43 0;
#X connect 44 0 42 0;
#X restore 84 182 pd bytetobits;
#X text 301 161 CHIP 1;
#X text 46 157 CHIP 2;
#N canvas 1423 301 708 912 bytetobits 0;
#X obj 98 187 / 2;
#X obj 129 187 % 2;
#X floatatom 98 227 5 0 0 0 - - -;
#X obj 98 207 i;
#X obj 98 271 / 2;
#X obj 98 292 i;
#X obj 131 269 % 2;
#X floatatom 98 311 5 0 0 0 - - -;
#X obj 99 358 / 2;
#X obj 126 358 % 2;
#X obj 99 378 i;
#X floatatom 98 398 5 0 0 0 - - -;
#X obj 98 439 / 2;
#X obj 125 439 % 2;
#X obj 98 461 i;
#X floatatom 97 483 5 0 0 0 - - -;
#X obj 97 522 / 2;
#X obj 124 522 % 2;
#X obj 97 542 i;
#X floatatom 97 562 5 0 0 0 - - -;
#X obj 97 600 / 2;
#X obj 124 600 % 2;
#X obj 97 619 i;
#X floatatom 96 639 5 0 0 0 - - -;
#X obj 96 677 / 2;
#X obj 123 677 % 2;
#X obj 96 696 i;
#X floatatom 97 718 5 0 0 0 - - -;
#X obj 97 739 % 2;
#X obj 98 334 t f f;
#X obj 98 418 t f f;
#X obj 97 502 t f f;
#X obj 97 580 t f f;
#X obj 97 657 t f f;
#X obj 98 247 t f f;
#X obj 148 56 inlet;
#X obj 257 796 pack f f f f f f f f;
#X obj 257 773 f;
#X obj 257 842 outlet;
#X obj 148 126 t b f f;
#X obj 148 81 moses 0;
#X obj 148 104 moses 256;
#X obj 395 843 list;
#X obj 395 864 outlet;
#X obj 395 66 inlet;
#X text 408 88 bang to output last conversion;
#X connect 0 0 3 0;
#X connect 1 0 36 7;
#X connect 2 0 34 0;
#X connect 3 0 2 0;
#X connect 4 0 5 0;
#X connect 5 0 7 0;
#X connect 6 0 36 6;
#X connect 7 0 29 0;
#X connect 8 0 10 0;
#X connect 9 0 36 5;
#X connect 10 0 11 0;
#X connect 11 0 30 0;
#X connect 12 0 14 0;
#X connect 13 0 36 4;
#X connect 14 0 15 0;
#X connect 15 0 31 0;
#X connect 16 0 18 0;
#X connect 17 0 36 3;
#X connect 18 0 19 0;
#X connect 19 0 32 0;
#X connect 20 0 22 0;
#X connect 21 0 36 2;
#X connect 22 0 23 0;
#X connect 23 0 33 0;
#X connect 24 0 26 0;
#X connect 25 0 36 1;
#X connect 26 0 27 0;
#X connect 27 0 28 0;
#X connect 28 0 37 1;
#X connect 29 0 8 0;
#X connect 29 1 9 0;
#X connect 30 0 12 0;
#X connect 30 1 13 0;
#X connect 31 0 16 0;
#X connect 31 1 17 0;
#X connect 32 0 20 0;
#X connect 32 1 21 0;
#X connect 33 0 24 0;
#X connect 33 1 25 0;
#X connect 34 0 4 0;
#X connect 34 1 6 0;
#X connect 35 0 40 0;
#X connect 36 0 38 0;
#X connect 36 0 42 1;
#X connect 37 0 36 0;
#X connect 39 0 37 0;
#X connect 39 1 0 0;
#X connect 39 2 1 0;
#X connect 40 1 41 0;
#X connect 41 0 39 0;
#X connect 42 0 43 0;
#X connect 44 0 42 0;
#X restore 224 182 pd bytetobits;
#X obj 103 64 t b b l;
#X obj 159 236 list;
#X obj 159 270 outlet;
#X connect 0 0 6 0;
#X connect 1 0 5 0;
#X connect 1 1 2 0;
#X connect 2 1 7 0;
#X connect 5 1 7 1;
#X connect 6 0 2 1;
#X connect 6 1 5 1;
#X connect 6 2 1 0;
#X connect 7 0 8 0;
#X restore 115 623 pd cook_touch_sopranino;
#X text 405 168 port to receive messages;
#X msg 257 396 listen \$1;
#X floatatom 366 169 6 0 0 0 - - -;
#X obj 168 15 loadbang;
#X obj 268 623 unpack f f f;
#X obj 348 623 unpack f f f;
#X obj 429 623 unpack f f f;
#X obj 187 472 s rawtimer;
#X obj 366 198 tgl 20 0 empty touch touch_mask 25 10 0 10 -262144 -1
-1 0 1;
#N canvas 406 140 807 693 masks 0;
#X obj 179 227 cnv 15 291 22 empty empty empty 20 12 0 14 -191407 -66577
0;
#X obj 280 12 inlet;
#X obj 280 33 sel 1 0;
#X msg 313 85 255 255;
#X obj 256 116 unpack f f;
#X obj 316 649 outlet;
#X obj 290 231 tgl 15 0 empty empty empty 17 7 0 10 -262144 -1 -1 1
1;
#X obj 218 231 tgl 15 0 empty empty empty 17 7 0 10 -262144 -1 -1 1
1;
#X obj 452 231 tgl 15 0 empty empty empty 17 7 0 10 -262144 -1 -1 1
1;
#X obj 362 231 tgl 15 0 empty empty empty 17 7 0 10 -262144 -1 -1 1
1;
#X obj 254 231 tgl 15 0 empty empty empty 17 7 0 10 -262144 -1 -1 1
1;
#X obj 272 231 tgl 15 0 empty empty empty 17 7 0 10 -262144 -1 -1 1
1;
#X obj 416 231 tgl 15 0 empty empty empty 17 7 0 10 -262144 -1 -1 1
1;
#X obj 434 231 tgl 15 0 empty empty empty 17 7 0 10 -262144 -1 -1 1
1;
#X obj 200 231 tgl 15 0 empty empty empty 17 7 0 10 -262144 -1 -1 1
1;
#X obj 308 231 tgl 15 0 empty empty empty 17 7 0 10 -262144 -1 -1 1
1;
#X obj 326 231 tgl 15 0 empty empty empty 17 7 0 10 -262144 -1 -1 1
1;
#X obj 398 231 tgl 15 0 empty empty empty 17 7 0 10 -262144 -1 -1 1
1;
#X obj 236 231 tgl 15 0 empty empty empty 17 7 0 10 -262144 -1 -1 1
1;
#X obj 182 231 tgl 15 0 empty empty empty 17 7 0 10 -262144 -1 -1 1
1;
#X obj 380 231 tgl 15 0 empty empty empty 17 7 0 10 -262144 -1 -1 1
1;
#X obj 344 231 tgl 15 0 empty empty empty 17 7 0 10 -262144 -1 -1 1
1;
#N canvas 1423 301 708 912 bytetobits 0;
#X obj 98 187 / 2;
#X obj 129 187 % 2;
#X floatatom 98 227 5 0 0 0 - - -;
#X obj 98 207 i;
#X obj 98 271 / 2;
#X obj 98 292 i;
#X obj 131 269 % 2;
#X floatatom 98 311 5 0 0 0 - - -;
#X obj 99 358 / 2;
#X obj 126 358 % 2;
#X obj 99 378 i;
#X floatatom 98 398 5 0 0 0 - - -;
#X obj 98 439 / 2;
#X obj 125 439 % 2;
#X obj 98 461 i;
#X floatatom 97 483 5 0 0 0 - - -;
#X obj 97 522 / 2;
#X obj 124 522 % 2;
#X obj 97 542 i;
#X floatatom 97 562 5 0 0 0 - - -;
#X obj 97 600 / 2;
#X obj 124 600 % 2;
#X obj 97 619 i;
#X floatatom 96 639 5 0 0 0 - - -;
#X obj 96 677 / 2;
#X obj 123 677 % 2;
#X obj 96 696 i;
#X floatatom 97 718 5 0 0 0 - - -;
#X obj 97 739 % 2;
#X obj 98 334 t f f;
#X obj 98 418 t f f;
#X obj 97 502 t f f;
#X obj 97 580 t f f;
#X obj 97 657 t f f;
#X obj 98 247 t f f;
#X obj 148 56 inlet;
#X obj 257 796 pack f f f f f f f f;
#X obj 257 773 f;
#X obj 257 842 outlet;
#X obj 148 126 t b f f;
#X obj 148 81 moses 0;
#X obj 148 104 moses 256;
#X obj 395 843 list;
#X obj 395 864 outlet;
#X obj 395 66 inlet;
#X text 408 88 bang to output last conversion;
#X connect 0 0 3 0;
#X connect 1 0 36 7;
#X connect 2 0 34 0;
#X connect 3 0 2 0;
#X connect 4 0 5 0;
#X connect 5 0 7 0;
#X connect 6 0 36 6;
#X connect 7 0 29 0;
#X connect 8 0 10 0;
#X connect 9 0 36 5;
#X connect 10 0 11 0;
#X connect 11 0 30 0;
#X connect 12 0 14 0;
#X connect 13 0 36 4;
#X connect 14 0 15 0;
#X connect 15 0 31 0;
#X connect 16 0 18 0;
#X connect 17 0 36 3;
#X connect 18 0 19 0;
#X connect 19 0 32 0;
#X connect 20 0 22 0;
#X connect 21 0 36 2;
#X connect 22 0 23 0;
#X connect 23 0 33 0;
#X connect 24 0 26 0;
#X connect 25 0 36 1;
#X connect 26 0 27 0;
#X connect 27 0 28 0;
#X connect 28 0 37 1;
#X connect 29 0 8 0;
#X connect 29 1 9 0;
#X connect 30 0 12 0;
#X connect 30 1 13 0;
#X connect 31 0 16 0;
#X connect 31 1 17 0;
#X connect 32 0 20 0;
#X connect 32 1 21 0;
#X connect 33 0 24 0;
#X connect 33 1 25 0;
#X connect 34 0 4 0;
#X connect 34 1 6 0;
#X connect 35 0 40 0;
#X connect 36 0 38 0;
#X connect 36 0 42 1;
#X connect 37 0 36 0;
#X connect 39 0 37 0;
#X connect 39 1 0 0;
#X connect 39 2 1 0;
#X connect 40 1 41 0;
#X connect 41 0 39 0;
#X connect 42 0 43 0;
#X connect 44 0 42 0;
#X restore 222 149 pd bytetobits;
#N canvas 1423 301 708 912 bytetobits 0;
#X obj 98 187 / 2;
#X obj 129 187 % 2;
#X floatatom 98 227 5 0 0 0 - - -;
#X obj 98 207 i;
#X obj 98 271 / 2;
#X obj 98 292 i;
#X obj 131 269 % 2;
#X floatatom 98 311 5 0 0 0 - - -;
#X obj 99 358 / 2;
#X obj 126 358 % 2;
#X obj 99 378 i;
#X floatatom 98 398 5 0 0 0 - - -;
#X obj 98 439 / 2;
#X obj 125 439 % 2;
#X obj 98 461 i;
#X floatatom 97 483 5 0 0 0 - - -;
#X obj 97 522 / 2;
#X obj 124 522 % 2;
#X obj 97 542 i;
#X floatatom 97 562 5 0 0 0 - - -;
#X obj 97 600 / 2;
#X obj 124 600 % 2;
#X obj 97 619 i;
#X floatatom 96 639 5 0 0 0 - - -;
#X obj 96 677 / 2;
#X obj 123 677 % 2;
#X obj 96 696 i;
#X floatatom 97 718 5 0 0 0 - - -;
#X obj 97 739 % 2;
#X obj 98 334 t f f;
#X obj 98 418 t f f;
#X obj 97 502 t f f;
#X obj 97 580 t f f;
#X obj 97 657 t f f;
#X obj 98 247 t f f;
#X obj 148 56 inlet;
#X obj 257 796 pack f f f f f f f f;
#X obj 257 773 f;
#X obj 257 842 outlet;
#X obj 148 126 t b f f;
#X obj 148 81 moses 0;
#X obj 148 104 moses 256;
#X obj 395 843 list;
#X obj 395 864 outlet;
#X obj 395 66 inlet;
#X text 408 88 bang to output last conversion;
#X connect 0 0 3 0;
#X connect 1 0 36 7;
#X connect 2 0 34 0;
#X connect 3 0 2 0;
#X connect 4 0 5 0;
#X connect 5 0 7 0;
#X connect 6 0 36 6;
#X connect 7 0 29 0;
#X connect 8 0 10 0;
#X connect 9 0 36 5;
#X connect 10 0 11 0;
#X connect 11 0 30 0;
#X connect 12 0 14 0;
#X connect 13 0 36 4;
#X connect 14 0 15 0;
#X connect 15 0 31 0;
#X connect 16 0 18 0;
#X connect 17 0 36 3;
#X connect 18 0 19 0;
#X connect 19 0 32 0;
#X connect 20 0 22 0;
#X connect 21 0 36 2;
#X connect 22 0 23 0;
#X connect 23 0 33 0;
#X connect 24 0 26 0;
#X connect 25 0 36 1;
#X connect 26 0 27 0;
#X connect 27 0 28 0;
#X connect 28 0 37 1;
#X connect 29 0 8 0;
#X connect 29 1 9 0;
#X connect 30 0 12 0;
#X connect 30 1 13 0;
#X connect 31 0 16 0;
#X connect 31 1 17 0;
#X connect 32 0 20 0;
#X connect 32 1 21 0;
#X connect 33 0 24 0;
#X connect 33 1 25 0;
#X connect 34 0 4 0;
#X connect 34 1 6 0;
#X connect 35 0 40 0;
#X connect 36 0 38 0;
#X connect 36 0 42 1;
#X connect 37 0 36 0;
#X connect 39 0 37 0;
#X connect 39 1 0 0;
#X connect 39 2 1 0;
#X connect 40 1 41 0;
#X connect 41 0 39 0;
#X connect 42 0 43 0;
#X connect 44 0 42 0;
#X restore 313 149 pd bytetobits;
#X obj 186 186 unpack f f f f f f f f;
#X obj 326 186 unpack f f f f f f f f;
#N canvas 519 124 692 867 bitstobyte 0;
#X floatatom 184 76 5 0 0 0 - - -;
#X floatatom 185 166 5 0 0 0 - - -;
#X obj 135 113 * 2;
#X floatatom 187 250 5 0 0 0 - - -;
#X obj 137 197 * 2;
#X floatatom 189 331 5 0 0 0 - - -;
#X obj 139 278 * 2;
#X floatatom 197 413 5 0 0 0 - - -;
#X obj 142 359 * 2;
#X floatatom 189 486 5 0 0 0 - - -;
#X obj 139 433 * 2;
#X floatatom 187 565 5 0 0 0 - - -;
#X obj 137 512 * 2;
#X floatatom 183 644 5 0 0 0 - - -;
#X obj 133 591 * 2;
#X obj 135 140 pow 1;
#X obj 137 224 pow 2;
#X obj 139 305 pow 3;
#X obj 142 386 pow 4;
#X obj 139 460 pow 5;
#X obj 137 539 pow 6;
#X obj 133 618 pow 7;
#X obj 224 209 +;
#X obj 223 285 +;
#X obj 223 355 +;
#X obj 235 439 +;
#X obj 229 507 +;
#X obj 225 588 +;
#X obj 230 662 +;
#X obj 20 21 inlet;
#X obj 229 693 outlet;
#X obj 20 52 unpack f f f f f f f f;
#X connect 0 0 22 1;
#X connect 1 0 22 0;
#X connect 2 0 15 0;
#X connect 3 0 23 0;
#X connect 4 0 16 0;
#X connect 5 0 24 0;
#X connect 6 0 17 0;
#X connect 7 0 25 0;
#X connect 8 0 18 0;
#X connect 9 0 26 0;
#X connect 10 0 19 0;
#X connect 11 0 27 0;
#X connect 12 0 20 0;
#X connect 13 0 28 0;
#X connect 14 0 21 0;
#X connect 15 0 1 0;
#X connect 16 0 3 0;
#X connect 17 0 5 0;
#X connect 18 0 7 0;
#X connect 19 0 9 0;
#X connect 20 0 11 0;
#X connect 21 0 13 0;
#X connect 22 0 23 1;
#X connect 23 0 24 1;
#X connect 24 0 25 1;
#X connect 25 0 26 1;
#X connect 26 0 27 1;
#X connect 27 0 28 1;
#X connect 28 0 30 0;
#X connect 29 0 31 0;
#X connect 31 0 14 0;
#X connect 31 1 12 0;
#X connect 31 2 10 0;
#X connect 31 3 8 0;
#X connect 31 4 6 0;
#X connect 31 5 4 0;
#X connect 31 6 2 0;
#X connect 31 7 0 0;
#X restore 334 546 pd bitstobyte;
#X obj 334 520 pack f f f f f f f f, f 45;
#X obj 430 474 t b f;
#X obj 394 474 t b f;
#X obj 358 474 t b f;
#X obj 574 474 t b f;
#X obj 538 474 t b f;
#X obj 502 474 t b f;
#X obj 466 474 t b f;
#N canvas 494 74 692 867 bitstobyte 0;
#X floatatom 184 76 5 0 0 0 - - -;
#X floatatom 185 166 5 0 0 0 - - -;
#X obj 135 113 * 2;
#X floatatom 187 250 5 0 0 0 - - -;
#X obj 137 197 * 2;
#X floatatom 189 331 5 0 0 0 - - -;
#X obj 139 278 * 2;
#X floatatom 197 413 5 0 0 0 - - -;
#X obj 142 359 * 2;
#X floatatom 189 486 5 0 0 0 - - -;
#X obj 139 433 * 2;
#X floatatom 187 565 5 0 0 0 - - -;
#X obj 137 512 * 2;
#X floatatom 183 644 5 0 0 0 - - -;
#X obj 133 591 * 2;
#X obj 135 140 pow 1;
#X obj 137 224 pow 2;
#X obj 139 305 pow 3;
#X obj 142 386 pow 4;
#X obj 139 460 pow 5;
#X obj 137 539 pow 6;
#X obj 133 618 pow 7;
#X obj 224 209 +;
#X obj 223 285 +;
#X obj 223 355 +;
#X obj 235 439 +;
#X obj 229 507 +;
#X obj 225 588 +;
#X obj 230 662 +;
#X obj 20 21 inlet;
#X obj 229 693 outlet;
#X obj 20 52 unpack f f f f f f f f;
#X connect 0 0 22 1;
#X connect 1 0 22 0;
#X connect 2 0 15 0;
#X connect 3 0 23 0;
#X connect 4 0 16 0;
#X connect 5 0 24 0;
#X connect 6 0 17 0;
#X connect 7 0 25 0;
#X connect 8 0 18 0;
#X connect 9 0 26 0;
#X connect 10 0 19 0;
#X connect 11 0 27 0;
#X connect 12 0 20 0;
#X connect 13 0 28 0;
#X connect 14 0 21 0;
#X connect 15 0 1 0;
#X connect 16 0 3 0;
#X connect 17 0 5 0;
#X connect 18 0 7 0;
#X connect 19 0 9 0;
#X connect 20 0 11 0;
#X connect 21 0 13 0;
#X connect 22 0 23 1;
#X connect 23 0 24 1;
#X connect 24 0 25 1;
#X connect 25 0 26 1;
#X connect 26 0 27 1;
#X connect 27 0 28 1;
#X connect 28 0 30 0;
#X connect 29 0 31 0;
#X connect 31 0 14 0;
#X connect 31 1 12 0;
#X connect 31 2 10 0;
#X connect 31 3 8 0;
#X connect 31 4 6 0;
#X connect 31 5 4 0;
#X connect 31 6 2 0;
#X connect 31 7 0 0;
#X restore 57 546 pd bitstobyte;
#X obj 57 520 pack f f f f f f f f, f 45;
#X obj 153 474 t b f;
#X obj 117 474 t b f;
#X obj 81 474 t b f;
#X obj 297 474 t b f;
#X obj 261 474 t b f;
#X obj 225 474 t b f;
#X obj 189 474 t b f;
#X obj 316 605 pack f f;
#X obj 77 334 i;
#X obj 103 334 i;
#X obj 77 417 i;
#X obj 103 417 i;
#X obj 128 334 i;
#X obj 154 334 i;
#X obj 128 417 i;
#X obj 154 417 i;
#X obj 180 334 i;
#X obj 206 334 i;
#X obj 180 417 i;
#X obj 206 417 i;
#X obj 231 334 i;
#X obj 257 334 i;
#X obj 231 417 i;
#X obj 257 417 i;
#X obj 357 334 i;
#X obj 383 334 i;
#X obj 357 417 i;
#X obj 383 417 i;
#X obj 408 334 i;
#X obj 434 334 i;
#X obj 408 417 i;
#X obj 434 417 i;
#X obj 460 334 i;
#X obj 486 334 i;
#X obj 460 417 i;
#X obj 486 417 i;
#X obj 511 334 i;
#X obj 537 334 i;
#X obj 511 417 i;
#X obj 537 417 i;
#X text 550 367 patchcords flipped due to position;
#X text 551 382 of capsense inside of Sopranino;
#X obj 334 579 t b f;
#X obj 130 97 r touchdata1;
#X obj 387 96 r touchdata2;
#X msg 256 85 0 0;
#N canvas 573 238 283 254 debounce 0;
#X obj 129 31 inlet;
#X obj 136 131 outlet;
#X obj 91 74 delay 200;
#X obj 136 101 list;
#X obj 129 52 t b l;
#X connect 0 0 4 0;
#X connect 2 0 3 0;
#X connect 3 0 1 0;
#X connect 4 0 2 0;
#X connect 4 1 3 1;
#X restore 316 626 pd debounce;
#X connect 1 0 2 0;
#X connect 2 0 82 0;
#X connect 2 1 3 0;
#X connect 3 0 4 0;
#X connect 4 0 22 0;
#X connect 4 1 23 0;
#X connect 6 0 58 0;
#X connect 7 0 57 0;
#X connect 8 0 74 0;
#X connect 9 0 73 0;
#X connect 10 0 54 0;
#X connect 11 0 53 0;
#X connect 12 0 70 0;
#X connect 13 0 69 0;
#X connect 14 0 50 0;
#X connect 15 0 49 0;
#X connect 16 0 66 0;
#X connect 17 0 65 0;
#X connect 18 0 46 0;
#X connect 19 0 45 0;
#X connect 20 0 62 0;
#X connect 21 0 61 0;
#X connect 22 0 24 0;
#X connect 23 0 25 0;
#X connect 24 0 19 0;
#X connect 24 1 18 0;
#X connect 24 2 15 0;
#X connect 24 3 14 0;
#X connect 24 4 11 0;
#X connect 24 5 10 0;
#X connect 24 6 7 0;
#X connect 24 7 6 0;
#X connect 25 0 21 0;
#X connect 25 1 20 0;
#X connect 25 2 17 0;
#X connect 25 3 16 0;
#X connect 25 4 13 0;
#X connect 25 5 12 0;
#X connect 25 6 9 0;
#X connect 25 7 8 0;
#X connect 26 0 44 0;
#X connect 27 0 26 0;
#X connect 28 0 27 0;
#X connect 28 1 27 3;
#X connect 29 0 27 0;
#X connect 29 1 27 2;
#X connect 30 0 27 0;
#X connect 30 1 27 1;
#X connect 31 0 27 0;
#X connect 31 1 27 7;
#X connect 32 0 27 0;
#X connect 32 1 27 6;
#X connect 33 0 27 0;
#X connect 33 1 27 5;
#X connect 34 0 27 0;
#X connect 34 1 27 4;
#X connect 35 0 79 0;
#X connect 36 0 35 0;
#X connect 37 0 36 0;
#X connect 37 1 36 3;
#X connect 38 0 36 0;
#X connect 38 1 36 2;
#X connect 39 0 36 0;
#X connect 39 1 36 1;
#X connect 40 0 36 0;
#X connect 40 1 36 7;
#X connect 41 0 36 0;
#X connect 41 1 36 6;
#X connect 42 0 36 0;
#X connect 42 1 36 5;
#X connect 43 0 36 0;
#X connect 43 1 36 4;
#X connect 44 0 83 0;
#X connect 45 0 47 0;
#X connect 46 0 52 0;
#X connect 47 0 36 0;
#X connect 48 0 39 0;
#X connect 49 0 55 0;
#X connect 50 0 48 0;
#X connect 51 0 38 0;
#X connect 52 0 37 0;
#X connect 53 0 59 0;
#X connect 54 0 56 0;
#X connect 55 0 43 0;
#X connect 56 0 42 0;
#X connect 57 0 51 0;
#X connect 58 0 60 0;
#X connect 59 0 41 0;
#X connect 60 0 40 0;
#X connect 61 0 63 0;
#X connect 62 0 68 0;
#X connect 63 0 27 0;
#X connect 64 0 30 0;
#X connect 65 0 71 0;
#X connect 66 0 64 0;
#X connect 67 0 29 0;
#X connect 68 0 28 0;
#X connect 69 0 75 0;
#X connect 70 0 72 0;
#X connect 71 0 34 0;
#X connect 72 0 33 0;
#X connect 73 0 67 0;
#X connect 74 0 76 0;
#X connect 75 0 32 0;
#X connect 76 0 31 0;
#X connect 79 0 44 0;
#X connect 79 1 44 1;
#X connect 80 0 22 0;
#X connect 81 0 23 0;
#X connect 82 0 4 0;
#X connect 83 0 5 0;
#X coords 0 -1 1 1 295 26 2 177 225;
#X restore 366 221 pd masks;
#X msg 557 495 disconnect;
#X obj 557 518 netsend -u -b;
#X obj 683 462 pack s f;
#X symbolatom 366 87 20 0 0 2 T-Stick_IP toip ip;
#X floatatom 496 87 5 0 0 2 port toport port;
#X obj 713 442 i;
#X obj 683 422 t b f;
#X floatatom 594 160 10 0 1 1 FSR_offset(between_0_and_1) fsr fsr-send
;
#X obj 595 52 bng 15 250 50 0 write empty Write 17 7 0 10 -262144 -1
-1;
#X obj 647 52 bng 15 250 50 0 read empty Read 17 7 0 10 -262144 -1
-1;
#X text 594 32 T-Stick memory;
#X obj 152 102 unpack s f;
#X obj 257 493 route list;
#X msg 106 88 8000;
#X obj 367 122 tgl 25 0 empty empty Receive_OSC_messages 30 14 0 14
-262144 -1 -1 1 1;
#X obj 252 197 sel 1;
#X msg 167 38 0;
#X obj 113 48 t 1 b b;
#X obj 40 88 delay 500;
#X obj 672 588 unpack f f f f;
#X floatatom 606 629 10 0 0 0 - - -;
#X floatatom 672 629 10 0 0 0 - - -;
#X floatatom 738 629 10 0 0 0 - - -;
#X floatatom 804 629 10 0 0 0 - - -;
#X text 295 859 Touch: 0 or 1 for each sensor (16 in the T-Stick Sopranino)
;
#X obj 244 588 route capsense accl gyro magn fsr piezo, f 62;
#X text 681 569 Quaternions;
#X text 803 913 Edu Meneses - IDMIL - Nov/2019;
#X obj 404 380 oscformat state touchMask;
#X obj 451 447 list prepend send;
#X obj 451 471 list trim;
#X obj 113 20 bng 15 250 50 0 empty empty empty 17 7 0 10 -262144 -1
-1;
#X obj 562 380 oscformat state json;
#X msg 568 352 1;
#X msg 627 351 2;
#N canvas 0 22 450 278 (subpatch) 0;
#X array Touch 16 float 3;
#A 0 0 0 1 1 1 1 1 1 1 0 0 0 0 0 0 1;
#X coords 0 2 16 -1 120 140 1;
#X restore 22 686 graph;
#X obj 257 515 route raw orientation ypr info;
#X obj 389 555 s info;
#X obj 818 265 r info;
#X obj 780 356 s serial;
#X obj 797 336 s firmware;
#X obj 902 336 s touchdata1;
#X obj 911 316 s touchdata2;
#X obj 683 502 list trim;
#X obj 366 55 tgl 15 0 empty empty Send_OSC_messages_to_T-Stick 17
7 0 10 -262144 -1 -1 1 1;
#X obj 89 130 sel 1 0;
#X obj 90 180 t b b;
#X obj 683 482 list prepend connect;
#X obj 315 348 oscformat state info;
#X msg 315 329 1;
#X floatatom 594 106 7 0 0 3 Serial_number serial sserial;
#X floatatom 694 106 7 0 0 3 Firmware_version firmware sfirmware;
#X obj 595 86 bng 15 250 50 0 getinfo empty Get_T-Stick_info 17 7 0
10 -262144 -1 -1;
#X obj 594 180 bng 15 250 50 0 empty empty send_FSR_offset 17 7 0 10
-262144 -1 -1;
#X obj 704 354 f;
#X obj 572 288 spigot;
#X obj 216 298 delay 1000;
#X msg 254 279 0;
#X msg 216 319 1;
#X obj 215 258 t b b b;
#N canvas 696 227 721 509 visual_orientation 0;
#X obj 30 158 gemwin;
#X msg 30 83 0 \, destroy;
#X obj 296 328 gemhead;
#X obj 422 280 gemhead;
#X obj 422 318 world_light;
#X msg 131 109 reset \, dimen 800 600 \, lighting 1 \, create \, 1
;
#X obj 295 358 rotateXYZ 0 0 0;
#X obj 295 411 model;
#X msg 105 138 open T-Stick.obj;
#X obj 274 303 tgl 15 0 empty empty empty 17 7 0 10 -262144 -1 -1 1
1;
#X obj 536 282 tgl 15 0 empty empty empty 17 7 0 10 -262144 -1 -1 0
1;
#X msg 536 302 debug \$1;
#X obj 422 299 rotateXYZ 0 40 0;
#X obj 276 242 loadbang;
#X msg 274 280 1;
#X obj 617 220 vsl 15 128 0 2 0 0 empty empty empty 0 -9 0 10 -262144
-1 -1 0 1;
#X obj 30 30 inlet;
#X obj 30 51 sel 0 1;
#X obj 400 150 inlet;
#X obj 400 171 unpack f f f;
#X text 637 321 zoom;
#X obj 617 39 inlet;
#X obj 617 66 moses 0;
#X obj 617 91 moses 2;
#X obj 295 383 scale 1.3;
#X obj 299 23 declare -lib Gem;
#X obj 104 83 t b b;
#X connect 1 0 0 0;
#X connect 2 0 6 0;
#X connect 3 0 12 0;
#X connect 5 0 0 0;
#X connect 6 0 24 0;
#X connect 8 0 7 0;
#X connect 9 0 4 0;
#X connect 10 0 11 0;
#X connect 11 0 4 0;
#X connect 12 0 4 0;
#X connect 13 0 14 0;
#X connect 14 0 9 0;
#X connect 15 0 24 1;
#X connect 16 0 17 0;
#X connect 17 0 1 0;
#X connect 17 1 26 0;
#X connect 18 0 19 0;
#X connect 19 0 6 1;
#X connect 19 0 12 1;
#X connect 19 1 6 2;
#X connect 19 2 6 3;
#X connect 19 2 12 2;
#X connect 21 0 22 0;
#X connect 22 1 23 0;
#X connect 23 0 15 0;
#X connect 24 0 7 0;
#X connect 26 0 8 0;
#X connect 26 1 5 0;
#X restore 842 546 pd visual_orientation;
#X obj 842 524 tgl 15 0 empty empty empty 17 7 0 10 -262144 -1 -1 0
1;
#X text 860 524 Click here to check orientation;
#X text 803 896 T-Stick Sopranino 2GW FW19111;
#X floatatom 876 629 10 0 0 0 - - -;
#X floatatom 942 629 10 0 0 0 - - -;
#X floatatom 1008 629 10 0 0 0 - - -;
#X obj 912 588 unpack f f f;
#X text 934 569 YPR;
#X obj 167 59 s touch;
#X obj 568 325 r write;
#X obj 627 326 r read;
#X obj 683 402 r port;
#X obj 108 158 s todisconect;
#X obj 557 473 r todisconect;
#X obj 130 250 s toport;
#X obj 157 231 s toip;
#X obj 650 423 r ip;
#X obj 719 331 r fsr-send;
#X obj 704 378 oscformat state FSRoffset;
#X obj 215 230 r getinfo;
#X text 295 875 Accel: floats from -1 to 1 (+/-16g);
#X text 295 891 Gyro: floats fom -1 to 1 (+/-2000dps);
#X text 295 908 Mag: floats fom -1 to 1 (+/-8g);
#X text 295 925 Pressure/Piezo: floats from 0 to 1;
#X msg 152 81 192.168.1.132 8888;
#X obj 818 290 unpack f f f f f;
#X obj 862 356 s fsr;
#X connect 2 0 32 0;
#X connect 3 0 31 0;
#X connect 4 0 22 0;
#X connect 5 0 23 0;
#X connect 6 0 24 0;
#X connect 7 0 25 0;
#X connect 8 0 26 0;
#X connect 9 0 27 0;
#X connect 10 0 28 0;
#X connect 11 0 29 0;
#X connect 12 0 30 0;
#X connect 13 0 14 0;
#X connect 14 0 18 0;
#X connect 15 0 13 0;
#X connect 15 1 13 1;
#X connect 16 0 15 0;
#X connect 18 0 19 0;
#X connect 21 0 60 0;
#X connect 33 0 34 0;
#X connect 33 0 43 0;
#X connect 34 0 58 0;
#X connect 35 0 1 0;
#X connect 37 0 33 0;
#X connect 38 0 37 0;
#X connect 39 0 62 0;
#X connect 39 0 63 0;
#X connect 40 0 2 0;
#X connect 40 1 3 0;
#X connect 40 2 4 0;
#X connect 41 0 5 0;
#X connect 41 1 6 0;
#X connect 41 2 7 0;
#X connect 42 0 10 0;
#X connect 42 1 11 0;
#X connect 42 2 12 0;
#X connect 44 0 45 0;
#X connect 45 0 101 0;
#X connect 46 0 47 0;
#X connect 48 0 93 0;
#X connect 51 0 48 1;
#X connect 52 0 48 0;
#X connect 52 1 51 0;
#X connect 57 0 122 0;
#X connect 57 1 121 0;
#X connect 58 0 82 0;
#X connect 58 0 20 0;
#X connect 59 0 38 0;
#X connect 60 0 61 0;
#X connect 61 0 38 0;
#X connect 61 1 37 0;
#X connect 62 0 115 0;
#X connect 63 0 64 0;
#X connect 63 1 59 0;
#X connect 63 2 131 0;
#X connect 64 0 60 0;
#X connect 65 0 66 0;
#X connect 65 1 67 0;
#X connect 65 2 68 0;
#X connect 65 3 69 0;
#X connect 71 0 35 0;
#X connect 71 1 40 0;
#X connect 71 2 41 0;
#X connect 71 3 42 0;
#X connect 71 4 8 0;
#X connect 71 5 9 0;
#X connect 74 0 75 0;
#X connect 75 0 76 0;
#X connect 76 0 47 0;
#X connect 77 0 63 0;
#X connect 78 0 75 0;
#X connect 79 0 78 0;
#X connect 80 0 78 0;
#X connect 82 0 71 0;
#X connect 82 1 65 0;
#X connect 82 2 113 0;
#X connect 82 2 106 1;
#X connect 82 3 83 0;
#X connect 84 0 132 0;
#X connect 89 0 47 0;
#X connect 90 0 91 0;
#X connect 91 0 92 0;
#X connect 91 1 119 0;
#X connect 92 0 121 0;
#X connect 92 1 122 0;
#X connect 93 0 89 0;
#X connect 94 0 75 0;
#X connect 95 0 94 0;
#X connect 99 0 100 0;
#X connect 100 0 125 0;
#X connect 101 0 74 0;
#X connect 102 0 104 0;
#X connect 103 0 101 1;
#X connect 104 0 101 1;
#X connect 105 0 102 0;
#X connect 105 1 95 0;
#X connect 105 2 103 0;
#X connect 107 0 106 0;
#X connect 113 0 110 0;
#X connect 113 1 111 0;
#X connect 113 2 112 0;
#X connect 116 0 79 0;
#X connect 117 0 80 0;
#X connect 118 0 52 0;
#X connect 120 0 46 0;
#X connect 123 0 48 0;
#X connect 124 0 100 1;
#X connect 125 0 75 0;
#X connect 126 0 105 0;
#X connect 131 0 57 0;
#X connect 132 0 85 0;
#X connect 132 1 86 0;
#X connect 132 2 133 0;
#X connect 132 3 87 0;
#X connect 132 4 88 0;
#X coords 0 -1 1 1 470 236 1 354 22;
