#N canvas 1388 52 1289 978 10;
#X obj 420 109 cnv 15 338 210 empty empty T-Stick 20 12 0 20 -228856
-66577 0;
#X obj 235 609 array set Touch;
#X obj 1077 738 timer;
#X floatatom 1077 762 8 0 0 0 - - -, f 8;
#X obj 1077 713 t b b;
#X obj 1077 688 r rawtimer;
#N canvas 264 335 568 475 timegraph 0;
#X obj 111 257 list store;
#X obj 117 300 list split 100;
#X msg 148 105 0 0 0 0 0 0 0 0 0 0 0 0 0 0 0 0 0 0 0 0 0 0 0 0 0 0
0 0 0 0 0 0 0 0 0 0 0 0 0 0 0 0 0 0 0 0 0 0 0 0 0 0 0 0 0 0 0 0 0 0
0 0 0 0 0 0 0 0 0 0 0 0 0 0 0 0 0 0 0 0 0 0 0 0 0 0 0 0 0 0 0 0 0 0
0 0 0 0 0 0;
#X obj 54 178 moses 0;
#X obj 78 215 moses 101;
#X obj 57 59 inlet;
#X obj 173 53 loadbang;
#X obj 123 353 outlet;
#X connect 0 0 1 0;
#X connect 1 0 0 1;
#X connect 1 0 7 0;
#X connect 2 0 0 1;
#X connect 2 0 7 0;
#X connect 3 1 4 0;
#X connect 4 0 0 0;
#X connect 5 0 3 0;
#X connect 6 0 2 0;
#X restore 1077 786 pd timegraph;
#X obj 1077 810 array set rawtime;
#X obj 176 598 outlet;
#X obj 797 613 s serial;
#X obj 857 613 s firmware;
#X text 808 631 to boxes in GUI;
#X obj 376 479 netreceive -u -b;
#X msg 388 448 listen 0;
#X text 515 479 UDP packets \, binary output, f 13;
#X obj 376 500 oscparse;
#X text 451 447 stop receiving OSC messages;
#X text 464 239 port to receive messages;
#X msg 376 420 listen \$1;
#X floatatom 425 240 6 0 0 0 - - -, f 6;
#X obj 248 43 loadbang;
#X obj 418 582 unpack f f f;
#X obj 498 582 unpack f f f;
#X obj 651 583 unpack f f f;
#X obj 306 500 s rawtimer;
#X obj 653 129 tgl 20 0 empty empty touch_mask -2 -8 0 10 -262144 -1
-1 0 1;
#N canvas 89 34 2164 974 masks 0;
#X obj 823 282 cnv 15 35 155 empty empty empty 20 12 0 14 -233017 -66577
0;
#X obj 531 21 inlet;
#X obj 531 42 sel 1 0;
#X obj 929 884 outlet;
#X obj 823 282 tgl 15 0 empty empty empty 17 7 0 10 -262144 -1 -1 1
1;
#X obj 823 302 tgl 15 0 empty empty empty 17 7 0 10 -262144 -1 -1 1
1;
#X obj 843 282 tgl 15 0 empty empty empty 17 7 0 10 -262144 -1 -1 1
1;
#X obj 843 302 tgl 15 0 empty empty empty 17 7 0 10 -262144 -1 -1 1
1;
#X obj 823 322 tgl 15 0 empty empty empty 17 7 0 10 -262144 -1 -1 1
1;
#X obj 823 342 tgl 15 0 empty empty empty 17 7 0 10 -262144 -1 -1 1
1;
#X obj 843 322 tgl 15 0 empty empty empty 17 7 0 10 -262144 -1 -1 1
1;
#X obj 843 342 tgl 15 0 empty empty empty 17 7 0 10 -262144 -1 -1 1
1;
#X obj 823 362 tgl 15 0 empty empty empty 17 7 0 10 -262144 -1 -1 1
1;
#X obj 823 382 tgl 15 0 empty empty empty 17 7 0 10 -262144 -1 -1 1
1;
#X obj 843 362 tgl 15 0 empty empty empty 17 7 0 10 -262144 -1 -1 1
1;
#X obj 843 382 tgl 15 0 empty empty empty 17 7 0 10 -262144 -1 -1 1
1;
#X obj 823 402 tgl 15 0 empty empty empty 17 7 0 10 -262144 -1 -1 1
1;
#X obj 823 422 tgl 15 0 empty empty empty 17 7 0 10 -262144 -1 -1 1
1;
#X obj 843 402 tgl 15 0 empty empty empty 17 7 0 10 -262144 -1 -1 1
1;
#X obj 843 422 tgl 15 0 empty empty empty 17 7 0 10 -262144 -1 -1 1
1;
#N canvas 1423 301 708 912 bytetobits 0;
#X obj 98 187 / 2;
#X obj 129 187 % 2;
#X floatatom 98 227 5 0 0 0 - - -, f 5;
#X obj 98 207 i;
#X obj 98 271 / 2;
#X obj 98 292 i;
#X obj 131 269 % 2;
#X floatatom 98 311 5 0 0 0 - - -, f 5;
#X obj 99 358 / 2;
#X obj 126 358 % 2;
#X obj 99 378 i;
#X floatatom 98 398 5 0 0 0 - - -, f 5;
#X obj 98 439 / 2;
#X obj 125 439 % 2;
#X obj 98 461 i;
#X floatatom 97 483 5 0 0 0 - - -, f 5;
#X obj 97 522 / 2;
#X obj 124 522 % 2;
#X obj 97 542 i;
#X floatatom 97 562 5 0 0 0 - - -, f 5;
#X obj 97 600 / 2;
#X obj 124 600 % 2;
#X obj 97 619 i;
#X floatatom 96 639 5 0 0 0 - - -, f 5;
#X obj 96 677 / 2;
#X obj 123 677 % 2;
#X obj 96 696 i;
#X floatatom 97 718 5 0 0 0 - - -, f 5;
#X obj 97 739 % 2;
#X obj 98 334 t f f;
#X obj 98 418 t f f;
#X obj 97 502 t f f;
#X obj 97 580 t f f;
#X obj 97 657 t f f;
#X obj 98 247 t f f;
#X obj 148 56 inlet;
#X obj 257 796 pack f f f f f f f f;
#X obj 257 773 f;
#X obj 257 842 outlet;
#X obj 148 126 t b f f;
#X obj 148 81 moses 0;
#X obj 148 104 moses 256;
#X obj 395 843 list;
#X obj 395 864 outlet;
#X obj 395 66 inlet;
#X text 408 88 bang to output last conversion;
#X connect 0 0 3 0;
#X connect 1 0 36 7;
#X connect 2 0 34 0;
#X connect 3 0 2 0;
#X connect 4 0 5 0;
#X connect 5 0 7 0;
#X connect 6 0 36 6;
#X connect 7 0 29 0;
#X connect 8 0 10 0;
#X connect 9 0 36 5;
#X connect 10 0 11 0;
#X connect 11 0 30 0;
#X connect 12 0 14 0;
#X connect 13 0 36 4;
#X connect 14 0 15 0;
#X connect 15 0 31 0;
#X connect 16 0 18 0;
#X connect 17 0 36 3;
#X connect 18 0 19 0;
#X connect 19 0 32 0;
#X connect 20 0 22 0;
#X connect 21 0 36 2;
#X connect 22 0 23 0;
#X connect 23 0 33 0;
#X connect 24 0 26 0;
#X connect 25 0 36 1;
#X connect 26 0 27 0;
#X connect 27 0 28 0;
#X connect 28 0 37 1;
#X connect 29 0 8 0;
#X connect 29 1 9 0;
#X connect 30 0 12 0;
#X connect 30 1 13 0;
#X connect 31 0 16 0;
#X connect 31 1 17 0;
#X connect 32 0 20 0;
#X connect 32 1 21 0;
#X connect 33 0 24 0;
#X connect 33 1 25 0;
#X connect 34 0 4 0;
#X connect 34 1 6 0;
#X connect 35 0 40 0;
#X connect 36 0 38 0;
#X connect 36 0 42 1;
#X connect 37 0 36 0;
#X connect 39 0 37 0;
#X connect 39 1 0 0;
#X connect 39 2 1 0;
#X connect 40 1 41 0;
#X connect 41 0 39 0;
#X connect 42 0 43 0;
#X connect 44 0 42 0;
#X restore 496 179 pd bytetobits;
#N canvas 1423 301 708 912 bytetobits 0;
#X obj 98 187 / 2;
#X obj 129 187 % 2;
#X floatatom 98 227 5 0 0 0 - - -, f 5;
#X obj 98 207 i;
#X obj 98 271 / 2;
#X obj 98 292 i;
#X obj 131 269 % 2;
#X floatatom 98 311 5 0 0 0 - - -, f 5;
#X obj 99 358 / 2;
#X obj 126 358 % 2;
#X obj 99 378 i;
#X floatatom 98 398 5 0 0 0 - - -, f 5;
#X obj 98 439 / 2;
#X obj 125 439 % 2;
#X obj 98 461 i;
#X floatatom 97 483 5 0 0 0 - - -, f 5;
#X obj 97 522 / 2;
#X obj 124 522 % 2;
#X obj 97 542 i;
#X floatatom 97 562 5 0 0 0 - - -, f 5;
#X obj 97 600 / 2;
#X obj 124 600 % 2;
#X obj 97 619 i;
#X floatatom 96 639 5 0 0 0 - - -, f 5;
#X obj 96 677 / 2;
#X obj 123 677 % 2;
#X obj 96 696 i;
#X floatatom 97 718 5 0 0 0 - - -, f 5;
#X obj 97 739 % 2;
#X obj 98 334 t f f;
#X obj 98 418 t f f;
#X obj 97 502 t f f;
#X obj 97 580 t f f;
#X obj 97 657 t f f;
#X obj 98 247 t f f;
#X obj 148 56 inlet;
#X obj 257 796 pack f f f f f f f f;
#X obj 257 773 f;
#X obj 257 842 outlet;
#X obj 148 126 t b f f;
#X obj 148 81 moses 0;
#X obj 148 104 moses 256;
#X obj 395 843 list;
#X obj 395 864 outlet;
#X obj 395 66 inlet;
#X text 408 88 bang to output last conversion;
#X connect 0 0 3 0;
#X connect 1 0 36 7;
#X connect 2 0 34 0;
#X connect 3 0 2 0;
#X connect 4 0 5 0;
#X connect 5 0 7 0;
#X connect 6 0 36 6;
#X connect 7 0 29 0;
#X connect 8 0 10 0;
#X connect 9 0 36 5;
#X connect 10 0 11 0;
#X connect 11 0 30 0;
#X connect 12 0 14 0;
#X connect 13 0 36 4;
#X connect 14 0 15 0;
#X connect 15 0 31 0;
#X connect 16 0 18 0;
#X connect 17 0 36 3;
#X connect 18 0 19 0;
#X connect 19 0 32 0;
#X connect 20 0 22 0;
#X connect 21 0 36 2;
#X connect 22 0 23 0;
#X connect 23 0 33 0;
#X connect 24 0 26 0;
#X connect 25 0 36 1;
#X connect 26 0 27 0;
#X connect 27 0 28 0;
#X connect 28 0 37 1;
#X connect 29 0 8 0;
#X connect 29 1 9 0;
#X connect 30 0 12 0;
#X connect 30 1 13 0;
#X connect 31 0 16 0;
#X connect 31 1 17 0;
#X connect 32 0 20 0;
#X connect 32 1 21 0;
#X connect 33 0 24 0;
#X connect 33 1 25 0;
#X connect 34 0 4 0;
#X connect 34 1 6 0;
#X connect 35 0 40 0;
#X connect 36 0 38 0;
#X connect 36 0 42 1;
#X connect 37 0 36 0;
#X connect 39 0 37 0;
#X connect 39 1 0 0;
#X connect 39 2 1 0;
#X connect 40 1 41 0;
#X connect 41 0 39 0;
#X connect 42 0 43 0;
#X connect 44 0 42 0;
#X restore 587 179 pd bytetobits;
#X obj 458 216 unpack f f f f f f f f;
#X obj 600 216 unpack f f f f f f f f;
#N canvas 494 74 692 867 bitstobyte 0;
#X floatatom 184 76 5 0 0 0 - - -, f 5;
#X floatatom 185 166 5 0 0 0 - - -, f 5;
#X obj 135 113 * 2;
#X floatatom 187 250 5 0 0 0 - - -, f 5;
#X obj 137 197 * 2;
#X floatatom 189 331 5 0 0 0 - - -, f 5;
#X obj 139 278 * 2;
#X floatatom 197 413 5 0 0 0 - - -, f 5;
#X obj 142 359 * 2;
#X floatatom 189 486 5 0 0 0 - - -, f 5;
#X obj 139 433 * 2;
#X floatatom 187 565 5 0 0 0 - - -, f 5;
#X obj 137 512 * 2;
#X floatatom 183 644 5 0 0 0 - - -, f 5;
#X obj 133 591 * 2;
#X obj 135 140 pow 1;
#X obj 137 224 pow 2;
#X obj 139 305 pow 3;
#X obj 142 386 pow 4;
#X obj 139 460 pow 5;
#X obj 137 539 pow 6;
#X obj 133 618 pow 7;
#X obj 224 209 +;
#X obj 223 285 +;
#X obj 223 355 +;
#X obj 235 439 +;
#X obj 229 507 +;
#X obj 225 588 +;
#X obj 230 662 +;
#X obj 20 21 inlet;
#X obj 229 693 outlet;
#X obj 20 52 unpack f f f f f f f f;
#X connect 0 0 22 1;
#X connect 1 0 22 0;
#X connect 2 0 15 0;
#X connect 3 0 23 0;
#X connect 4 0 16 0;
#X connect 5 0 24 0;
#X connect 6 0 17 0;
#X connect 7 0 25 0;
#X connect 8 0 18 0;
#X connect 9 0 26 0;
#X connect 10 0 19 0;
#X connect 11 0 27 0;
#X connect 12 0 20 0;
#X connect 13 0 28 0;
#X connect 14 0 21 0;
#X connect 15 0 1 0;
#X connect 16 0 3 0;
#X connect 17 0 5 0;
#X connect 18 0 7 0;
#X connect 19 0 9 0;
#X connect 20 0 11 0;
#X connect 21 0 13 0;
#X connect 22 0 23 1;
#X connect 23 0 24 1;
#X connect 24 0 25 1;
#X connect 25 0 26 1;
#X connect 26 0 27 1;
#X connect 27 0 28 1;
#X connect 28 0 30 0;
#X connect 29 0 31 0;
#X connect 31 0 14 0;
#X connect 31 1 12 0;
#X connect 31 2 10 0;
#X connect 31 3 8 0;
#X connect 31 4 6 0;
#X connect 31 5 4 0;
#X connect 31 6 2 0;
#X connect 31 7 0 0;
#X restore 394 716 pd bitstobyte;
#X obj 394 690 pack f f f f f f f f, f 45;
#X obj 490 644 t b f;
#X obj 454 644 t b f;
#X obj 418 644 t b f;
#X obj 634 644 t b f;
#X obj 598 644 t b f;
#X obj 562 644 t b f;
#X obj 526 644 t b f;
#N canvas 494 74 692 867 bitstobyte 0;
#X floatatom 184 76 5 0 0 0 - - -, f 5;
#X floatatom 185 166 5 0 0 0 - - -, f 5;
#X obj 135 113 * 2;
#X floatatom 187 250 5 0 0 0 - - -, f 5;
#X obj 137 197 * 2;
#X floatatom 189 331 5 0 0 0 - - -, f 5;
#X obj 139 278 * 2;
#X floatatom 197 413 5 0 0 0 - - -, f 5;
#X obj 142 359 * 2;
#X floatatom 189 486 5 0 0 0 - - -, f 5;
#X obj 139 433 * 2;
#X floatatom 187 565 5 0 0 0 - - -, f 5;
#X obj 137 512 * 2;
#X floatatom 183 644 5 0 0 0 - - -, f 5;
#X obj 133 591 * 2;
#X obj 135 140 pow 1;
#X obj 137 224 pow 2;
#X obj 139 305 pow 3;
#X obj 142 386 pow 4;
#X obj 139 460 pow 5;
#X obj 137 539 pow 6;
#X obj 133 618 pow 7;
#X obj 224 209 +;
#X obj 223 285 +;
#X obj 223 355 +;
#X obj 235 439 +;
#X obj 229 507 +;
#X obj 225 588 +;
#X obj 230 662 +;
#X obj 20 21 inlet;
#X obj 229 693 outlet;
#X obj 20 52 unpack f f f f f f f f;
#X connect 0 0 22 1;
#X connect 1 0 22 0;
#X connect 2 0 15 0;
#X connect 3 0 23 0;
#X connect 4 0 16 0;
#X connect 5 0 24 0;
#X connect 6 0 17 0;
#X connect 7 0 25 0;
#X connect 8 0 18 0;
#X connect 9 0 26 0;
#X connect 10 0 19 0;
#X connect 11 0 27 0;
#X connect 12 0 20 0;
#X connect 13 0 28 0;
#X connect 14 0 21 0;
#X connect 15 0 1 0;
#X connect 16 0 3 0;
#X connect 17 0 5 0;
#X connect 18 0 7 0;
#X connect 19 0 9 0;
#X connect 20 0 11 0;
#X connect 21 0 13 0;
#X connect 22 0 23 1;
#X connect 23 0 24 1;
#X connect 24 0 25 1;
#X connect 25 0 26 1;
#X connect 26 0 27 1;
#X connect 27 0 28 1;
#X connect 28 0 30 0;
#X connect 29 0 31 0;
#X connect 31 0 14 0;
#X connect 31 1 12 0;
#X connect 31 2 10 0;
#X connect 31 3 8 0;
#X connect 31 4 6 0;
#X connect 31 5 4 0;
#X connect 31 6 2 0;
#X connect 31 7 0 0;
#X restore 117 716 pd bitstobyte;
#X obj 117 690 pack f f f f f f f f, f 45;
#X obj 213 644 t b f;
#X obj 177 644 t b f;
#X obj 141 644 t b f;
#X obj 357 644 t b f;
#X obj 321 644 t b f;
#X obj 285 644 t b f;
#X obj 249 644 t b f;
#X obj 137 504 i;
#X obj 163 504 i;
#X obj 137 587 i;
#X obj 163 587 i;
#X obj 188 504 i;
#X obj 214 504 i;
#X obj 188 587 i;
#X obj 214 587 i;
#X obj 240 504 i;
#X obj 266 504 i;
#X obj 240 587 i;
#X obj 266 587 i;
#X obj 291 504 i;
#X obj 317 504 i;
#X obj 291 587 i;
#X obj 317 587 i;
#X obj 417 504 i;
#X obj 443 504 i;
#X obj 417 587 i;
#X obj 443 587 i;
#X obj 468 504 i;
#X obj 494 504 i;
#X obj 468 587 i;
#X obj 494 587 i;
#X obj 520 504 i;
#X obj 546 504 i;
#X obj 520 587 i;
#X obj 546 587 i;
#X obj 571 504 i;
#X obj 597 504 i;
#X obj 571 587 i;
#X obj 597 587 i;
#X obj 899 809 t b f;
#X msg 614 70 255 255 255 255 255 255;
#X msg 457 70 127 255 255 255 255 255;
#X obj 507 125 unpack f f f f f f;
#X obj 863 282 cnv 15 35 155 empty empty empty 20 12 0 14 -233017 -66577
0;
#X obj 863 282 tgl 15 0 empty empty empty 17 7 0 10 -262144 -1 -1 1
1;
#X obj 863 302 tgl 15 0 empty empty empty 17 7 0 10 -262144 -1 -1 1
1;
#X obj 883 282 tgl 15 0 empty empty empty 17 7 0 10 -262144 -1 -1 1
1;
#X obj 883 302 tgl 15 0 empty empty empty 17 7 0 10 -262144 -1 -1 1
1;
#X obj 863 322 tgl 15 0 empty empty empty 17 7 0 10 -262144 -1 -1 1
1;
#X obj 863 342 tgl 15 0 empty empty empty 17 7 0 10 -262144 -1 -1 1
1;
#X obj 883 322 tgl 15 0 empty empty empty 17 7 0 10 -262144 -1 -1 1
1;
#X obj 883 342 tgl 15 0 empty empty empty 17 7 0 10 -262144 -1 -1 1
1;
#X obj 863 362 tgl 15 0 empty empty empty 17 7 0 10 -262144 -1 -1 1
1;
#X obj 863 382 tgl 15 0 empty empty empty 17 7 0 10 -262144 -1 -1 1
1;
#X obj 883 362 tgl 15 0 empty empty empty 17 7 0 10 -262144 -1 -1 1
1;
#X obj 883 382 tgl 15 0 empty empty empty 17 7 0 10 -262144 -1 -1 1
1;
#X obj 863 402 tgl 15 0 empty empty empty 17 7 0 10 -262144 -1 -1 1
1;
#X obj 863 422 tgl 15 0 empty empty empty 17 7 0 10 -262144 -1 -1 1
1;
#X obj 883 402 tgl 15 0 empty empty empty 17 7 0 10 -262144 -1 -1 1
1;
#X obj 883 422 tgl 15 0 empty empty empty 17 7 0 10 -262144 -1 -1 1
1;
#N canvas 1423 301 708 912 bytetobits 0;
#X obj 98 187 / 2;
#X obj 129 187 % 2;
#X floatatom 98 227 5 0 0 0 - - -, f 5;
#X obj 98 207 i;
#X obj 98 271 / 2;
#X obj 98 292 i;
#X obj 131 269 % 2;
#X floatatom 98 311 5 0 0 0 - - -, f 5;
#X obj 99 358 / 2;
#X obj 126 358 % 2;
#X obj 99 378 i;
#X floatatom 98 398 5 0 0 0 - - -, f 5;
#X obj 98 439 / 2;
#X obj 125 439 % 2;
#X obj 98 461 i;
#X floatatom 97 483 5 0 0 0 - - -, f 5;
#X obj 97 522 / 2;
#X obj 124 522 % 2;
#X obj 97 542 i;
#X floatatom 97 562 5 0 0 0 - - -, f 5;
#X obj 97 600 / 2;
#X obj 124 600 % 2;
#X obj 97 619 i;
#X floatatom 96 639 5 0 0 0 - - -, f 5;
#X obj 96 677 / 2;
#X obj 123 677 % 2;
#X obj 96 696 i;
#X floatatom 97 718 5 0 0 0 - - -, f 5;
#X obj 97 739 % 2;
#X obj 98 334 t f f;
#X obj 98 418 t f f;
#X obj 97 502 t f f;
#X obj 97 580 t f f;
#X obj 97 657 t f f;
#X obj 98 247 t f f;
#X obj 148 56 inlet;
#X obj 257 796 pack f f f f f f f f;
#X obj 257 773 f;
#X obj 257 842 outlet;
#X obj 148 126 t b f f;
#X obj 148 81 moses 0;
#X obj 148 104 moses 256;
#X obj 395 843 list;
#X obj 395 864 outlet;
#X obj 395 66 inlet;
#X text 408 88 bang to output last conversion;
#X connect 0 0 3 0;
#X connect 1 0 36 7;
#X connect 2 0 34 0;
#X connect 3 0 2 0;
#X connect 4 0 5 0;
#X connect 5 0 7 0;
#X connect 6 0 36 6;
#X connect 7 0 29 0;
#X connect 8 0 10 0;
#X connect 9 0 36 5;
#X connect 10 0 11 0;
#X connect 11 0 30 0;
#X connect 12 0 14 0;
#X connect 13 0 36 4;
#X connect 14 0 15 0;
#X connect 15 0 31 0;
#X connect 16 0 18 0;
#X connect 17 0 36 3;
#X connect 18 0 19 0;
#X connect 19 0 32 0;
#X connect 20 0 22 0;
#X connect 21 0 36 2;
#X connect 22 0 23 0;
#X connect 23 0 33 0;
#X connect 24 0 26 0;
#X connect 25 0 36 1;
#X connect 26 0 27 0;
#X connect 27 0 28 0;
#X connect 28 0 37 1;
#X connect 29 0 8 0;
#X connect 29 1 9 0;
#X connect 30 0 12 0;
#X connect 30 1 13 0;
#X connect 31 0 16 0;
#X connect 31 1 17 0;
#X connect 32 0 20 0;
#X connect 32 1 21 0;
#X connect 33 0 24 0;
#X connect 33 1 25 0;
#X connect 34 0 4 0;
#X connect 34 1 6 0;
#X connect 35 0 40 0;
#X connect 36 0 38 0;
#X connect 36 0 42 1;
#X connect 37 0 36 0;
#X connect 39 0 37 0;
#X connect 39 1 0 0;
#X connect 39 2 1 0;
#X connect 40 1 41 0;
#X connect 41 0 39 0;
#X connect 42 0 43 0;
#X connect 44 0 42 0;
#X restore 778 179 pd bytetobits;
#N canvas 1423 301 708 912 bytetobits 0;
#X obj 98 187 / 2;
#X obj 129 187 % 2;
#X floatatom 98 227 5 0 0 0 - - -, f 5;
#X obj 98 207 i;
#X obj 98 271 / 2;
#X obj 98 292 i;
#X obj 131 269 % 2;
#X floatatom 98 311 5 0 0 0 - - -, f 5;
#X obj 99 358 / 2;
#X obj 126 358 % 2;
#X obj 99 378 i;
#X floatatom 98 398 5 0 0 0 - - -, f 5;
#X obj 98 439 / 2;
#X obj 125 439 % 2;
#X obj 98 461 i;
#X floatatom 97 483 5 0 0 0 - - -, f 5;
#X obj 97 522 / 2;
#X obj 124 522 % 2;
#X obj 97 542 i;
#X floatatom 97 562 5 0 0 0 - - -, f 5;
#X obj 97 600 / 2;
#X obj 124 600 % 2;
#X obj 97 619 i;
#X floatatom 96 639 5 0 0 0 - - -, f 5;
#X obj 96 677 / 2;
#X obj 123 677 % 2;
#X obj 96 696 i;
#X floatatom 97 718 5 0 0 0 - - -, f 5;
#X obj 97 739 % 2;
#X obj 98 334 t f f;
#X obj 98 418 t f f;
#X obj 97 502 t f f;
#X obj 97 580 t f f;
#X obj 97 657 t f f;
#X obj 98 247 t f f;
#X obj 148 56 inlet;
#X obj 257 796 pack f f f f f f f f;
#X obj 257 773 f;
#X obj 257 842 outlet;
#X obj 148 126 t b f f;
#X obj 148 81 moses 0;
#X obj 148 104 moses 256;
#X obj 395 843 list;
#X obj 395 864 outlet;
#X obj 395 66 inlet;
#X text 408 88 bang to output last conversion;
#X connect 0 0 3 0;
#X connect 1 0 36 7;
#X connect 2 0 34 0;
#X connect 3 0 2 0;
#X connect 4 0 5 0;
#X connect 5 0 7 0;
#X connect 6 0 36 6;
#X connect 7 0 29 0;
#X connect 8 0 10 0;
#X connect 9 0 36 5;
#X connect 10 0 11 0;
#X connect 11 0 30 0;
#X connect 12 0 14 0;
#X connect 13 0 36 4;
#X connect 14 0 15 0;
#X connect 15 0 31 0;
#X connect 16 0 18 0;
#X connect 17 0 36 3;
#X connect 18 0 19 0;
#X connect 19 0 32 0;
#X connect 20 0 22 0;
#X connect 21 0 36 2;
#X connect 22 0 23 0;
#X connect 23 0 33 0;
#X connect 24 0 26 0;
#X connect 25 0 36 1;
#X connect 26 0 27 0;
#X connect 27 0 28 0;
#X connect 28 0 37 1;
#X connect 29 0 8 0;
#X connect 29 1 9 0;
#X connect 30 0 12 0;
#X connect 30 1 13 0;
#X connect 31 0 16 0;
#X connect 31 1 17 0;
#X connect 32 0 20 0;
#X connect 32 1 21 0;
#X connect 33 0 24 0;
#X connect 33 1 25 0;
#X connect 34 0 4 0;
#X connect 34 1 6 0;
#X connect 35 0 40 0;
#X connect 36 0 38 0;
#X connect 36 0 42 1;
#X connect 37 0 36 0;
#X connect 39 0 37 0;
#X connect 39 1 0 0;
#X connect 39 2 1 0;
#X connect 40 1 41 0;
#X connect 41 0 39 0;
#X connect 42 0 43 0;
#X connect 44 0 42 0;
#X restore 869 179 pd bytetobits;
#X obj 740 216 unpack f f f f f f f f;
#X obj 882 216 unpack f f f f f f f f;
#N canvas 494 74 692 867 bitstobyte 0;
#X floatatom 184 76 5 0 0 0 - - -, f 5;
#X floatatom 185 166 5 0 0 0 - - -, f 5;
#X obj 135 113 * 2;
#X floatatom 187 250 5 0 0 0 - - -, f 5;
#X obj 137 197 * 2;
#X floatatom 189 331 5 0 0 0 - - -, f 5;
#X obj 139 278 * 2;
#X floatatom 197 413 5 0 0 0 - - -, f 5;
#X obj 142 359 * 2;
#X floatatom 189 486 5 0 0 0 - - -, f 5;
#X obj 139 433 * 2;
#X floatatom 187 565 5 0 0 0 - - -, f 5;
#X obj 137 512 * 2;
#X floatatom 183 644 5 0 0 0 - - -, f 5;
#X obj 133 591 * 2;
#X obj 135 140 pow 1;
#X obj 137 224 pow 2;
#X obj 139 305 pow 3;
#X obj 142 386 pow 4;
#X obj 139 460 pow 5;
#X obj 137 539 pow 6;
#X obj 133 618 pow 7;
#X obj 224 209 +;
#X obj 223 285 +;
#X obj 223 355 +;
#X obj 235 439 +;
#X obj 229 507 +;
#X obj 225 588 +;
#X obj 230 662 +;
#X obj 20 21 inlet;
#X obj 229 693 outlet;
#X obj 20 52 unpack f f f f f f f f;
#X connect 0 0 22 1;
#X connect 1 0 22 0;
#X connect 2 0 15 0;
#X connect 3 0 23 0;
#X connect 4 0 16 0;
#X connect 5 0 24 0;
#X connect 6 0 17 0;
#X connect 7 0 25 0;
#X connect 8 0 18 0;
#X connect 9 0 26 0;
#X connect 10 0 19 0;
#X connect 11 0 27 0;
#X connect 12 0 20 0;
#X connect 13 0 28 0;
#X connect 14 0 21 0;
#X connect 15 0 1 0;
#X connect 16 0 3 0;
#X connect 17 0 5 0;
#X connect 18 0 7 0;
#X connect 19 0 9 0;
#X connect 20 0 11 0;
#X connect 21 0 13 0;
#X connect 22 0 23 1;
#X connect 23 0 24 1;
#X connect 24 0 25 1;
#X connect 25 0 26 1;
#X connect 26 0 27 1;
#X connect 27 0 28 1;
#X connect 28 0 30 0;
#X connect 29 0 31 0;
#X connect 31 0 14 0;
#X connect 31 1 12 0;
#X connect 31 2 10 0;
#X connect 31 3 8 0;
#X connect 31 4 6 0;
#X connect 31 5 4 0;
#X connect 31 6 2 0;
#X connect 31 7 0 0;
#X restore 950 716 pd bitstobyte;
#X obj 950 690 pack f f f f f f f f, f 45;
#X obj 1046 644 t b f;
#X obj 1010 644 t b f;
#X obj 974 644 t b f;
#X obj 1190 644 t b f;
#X obj 1154 644 t b f;
#X obj 1118 644 t b f;
#X obj 1082 644 t b f;
#N canvas 494 74 692 867 bitstobyte 0;
#X floatatom 184 76 5 0 0 0 - - -, f 5;
#X floatatom 185 166 5 0 0 0 - - -, f 5;
#X obj 135 113 * 2;
#X floatatom 187 250 5 0 0 0 - - -, f 5;
#X obj 137 197 * 2;
#X floatatom 189 331 5 0 0 0 - - -, f 5;
#X obj 139 278 * 2;
#X floatatom 197 413 5 0 0 0 - - -, f 5;
#X obj 142 359 * 2;
#X floatatom 189 486 5 0 0 0 - - -, f 5;
#X obj 139 433 * 2;
#X floatatom 187 565 5 0 0 0 - - -, f 5;
#X obj 137 512 * 2;
#X floatatom 183 644 5 0 0 0 - - -, f 5;
#X obj 133 591 * 2;
#X obj 135 140 pow 1;
#X obj 137 224 pow 2;
#X obj 139 305 pow 3;
#X obj 142 386 pow 4;
#X obj 139 460 pow 5;
#X obj 137 539 pow 6;
#X obj 133 618 pow 7;
#X obj 224 209 +;
#X obj 223 285 +;
#X obj 223 355 +;
#X obj 235 439 +;
#X obj 229 507 +;
#X obj 225 588 +;
#X obj 230 662 +;
#X obj 20 21 inlet;
#X obj 229 693 outlet;
#X obj 20 52 unpack f f f f f f f f;
#X connect 0 0 22 1;
#X connect 1 0 22 0;
#X connect 2 0 15 0;
#X connect 3 0 23 0;
#X connect 4 0 16 0;
#X connect 5 0 24 0;
#X connect 6 0 17 0;
#X connect 7 0 25 0;
#X connect 8 0 18 0;
#X connect 9 0 26 0;
#X connect 10 0 19 0;
#X connect 11 0 27 0;
#X connect 12 0 20 0;
#X connect 13 0 28 0;
#X connect 14 0 21 0;
#X connect 15 0 1 0;
#X connect 16 0 3 0;
#X connect 17 0 5 0;
#X connect 18 0 7 0;
#X connect 19 0 9 0;
#X connect 20 0 11 0;
#X connect 21 0 13 0;
#X connect 22 0 23 1;
#X connect 23 0 24 1;
#X connect 24 0 25 1;
#X connect 25 0 26 1;
#X connect 26 0 27 1;
#X connect 27 0 28 1;
#X connect 28 0 30 0;
#X connect 29 0 31 0;
#X connect 31 0 14 0;
#X connect 31 1 12 0;
#X connect 31 2 10 0;
#X connect 31 3 8 0;
#X connect 31 4 6 0;
#X connect 31 5 4 0;
#X connect 31 6 2 0;
#X connect 31 7 0 0;
#X restore 673 716 pd bitstobyte;
#X obj 673 690 pack f f f f f f f f, f 45;
#X obj 769 644 t b f;
#X obj 733 644 t b f;
#X obj 697 644 t b f;
#X obj 913 644 t b f;
#X obj 877 644 t b f;
#X obj 841 644 t b f;
#X obj 805 644 t b f;
#X obj 693 504 i;
#X obj 719 504 i;
#X obj 693 587 i;
#X obj 719 587 i;
#X obj 744 504 i;
#X obj 770 504 i;
#X obj 744 587 i;
#X obj 770 587 i;
#X obj 796 504 i;
#X obj 822 504 i;
#X obj 796 587 i;
#X obj 822 587 i;
#X obj 847 504 i;
#X obj 873 504 i;
#X obj 847 587 i;
#X obj 873 587 i;
#X obj 973 504 i;
#X obj 999 504 i;
#X obj 973 587 i;
#X obj 999 587 i;
#X obj 1024 504 i;
#X obj 1050 504 i;
#X obj 1024 587 i;
#X obj 1050 587 i;
#X obj 1076 504 i;
#X obj 1102 504 i;
#X obj 1076 587 i;
#X obj 1102 587 i;
#X obj 1127 504 i;
#X obj 1153 504 i;
#X obj 1127 587 i;
#X obj 1153 587 i;
#X obj 902 282 cnv 15 35 155 empty empty empty 20 12 0 14 -233017 -66577
0;
#X obj 902 282 tgl 15 0 empty empty empty 17 7 0 10 -262144 -1 -1 1
1;
#X obj 902 302 tgl 15 0 empty empty empty 17 7 0 10 -262144 -1 -1 1
1;
#X obj 922 282 tgl 15 0 empty empty empty 17 7 0 10 -262144 -1 -1 1
1;
#X obj 922 302 tgl 15 0 empty empty empty 17 7 0 10 -262144 -1 -1 1
1;
#X obj 902 322 tgl 15 0 empty empty empty 17 7 0 10 -262144 -1 -1 1
1;
#X obj 902 342 tgl 15 0 empty empty empty 17 7 0 10 -262144 -1 -1 1
1;
#X obj 922 322 tgl 15 0 empty empty empty 17 7 0 10 -262144 -1 -1 1
1;
#X obj 922 342 tgl 15 0 empty empty empty 17 7 0 10 -262144 -1 -1 1
1;
#X obj 902 362 tgl 15 0 empty empty empty 17 7 0 10 -262144 -1 -1 1
1;
#X obj 902 382 tgl 15 0 empty empty empty 17 7 0 10 -262144 -1 -1 1
1;
#X obj 922 362 tgl 15 0 empty empty empty 17 7 0 10 -262144 -1 -1 1
1;
#X obj 922 382 tgl 15 0 empty empty empty 17 7 0 10 -262144 -1 -1 1
1;
#X obj 902 402 tgl 15 0 empty empty empty 17 7 0 10 -262144 -1 -1 1
1;
#X obj 902 422 tgl 15 0 empty empty empty 17 7 0 10 -262144 -1 -1 1
1;
#X obj 922 402 tgl 15 0 empty empty empty 17 7 0 10 -262144 -1 -1 1
1;
#X obj 922 422 tgl 15 0 empty empty empty 17 7 0 10 -262144 -1 -1 1
1;
#N canvas 1423 301 708 912 bytetobits 0;
#X obj 98 187 / 2;
#X obj 129 187 % 2;
#X floatatom 98 227 5 0 0 0 - - -, f 5;
#X obj 98 207 i;
#X obj 98 271 / 2;
#X obj 98 292 i;
#X obj 131 269 % 2;
#X floatatom 98 311 5 0 0 0 - - -, f 5;
#X obj 99 358 / 2;
#X obj 126 358 % 2;
#X obj 99 378 i;
#X floatatom 98 398 5 0 0 0 - - -, f 5;
#X obj 98 439 / 2;
#X obj 125 439 % 2;
#X obj 98 461 i;
#X floatatom 97 483 5 0 0 0 - - -, f 5;
#X obj 97 522 / 2;
#X obj 124 522 % 2;
#X obj 97 542 i;
#X floatatom 97 562 5 0 0 0 - - -, f 5;
#X obj 97 600 / 2;
#X obj 124 600 % 2;
#X obj 97 619 i;
#X floatatom 96 639 5 0 0 0 - - -, f 5;
#X obj 96 677 / 2;
#X obj 123 677 % 2;
#X obj 96 696 i;
#X floatatom 97 718 5 0 0 0 - - -, f 5;
#X obj 97 739 % 2;
#X obj 98 334 t f f;
#X obj 98 418 t f f;
#X obj 97 502 t f f;
#X obj 97 580 t f f;
#X obj 97 657 t f f;
#X obj 98 247 t f f;
#X obj 148 56 inlet;
#X obj 257 796 pack f f f f f f f f;
#X obj 257 773 f;
#X obj 257 842 outlet;
#X obj 148 126 t b f f;
#X obj 148 81 moses 0;
#X obj 148 104 moses 256;
#X obj 395 843 list;
#X obj 395 864 outlet;
#X obj 395 66 inlet;
#X text 408 88 bang to output last conversion;
#X connect 0 0 3 0;
#X connect 1 0 36 7;
#X connect 2 0 34 0;
#X connect 3 0 2 0;
#X connect 4 0 5 0;
#X connect 5 0 7 0;
#X connect 6 0 36 6;
#X connect 7 0 29 0;
#X connect 8 0 10 0;
#X connect 9 0 36 5;
#X connect 10 0 11 0;
#X connect 11 0 30 0;
#X connect 12 0 14 0;
#X connect 13 0 36 4;
#X connect 14 0 15 0;
#X connect 15 0 31 0;
#X connect 16 0 18 0;
#X connect 17 0 36 3;
#X connect 18 0 19 0;
#X connect 19 0 32 0;
#X connect 20 0 22 0;
#X connect 21 0 36 2;
#X connect 22 0 23 0;
#X connect 23 0 33 0;
#X connect 24 0 26 0;
#X connect 25 0 36 1;
#X connect 26 0 27 0;
#X connect 27 0 28 0;
#X connect 28 0 37 1;
#X connect 29 0 8 0;
#X connect 29 1 9 0;
#X connect 30 0 12 0;
#X connect 30 1 13 0;
#X connect 31 0 16 0;
#X connect 31 1 17 0;
#X connect 32 0 20 0;
#X connect 32 1 21 0;
#X connect 33 0 24 0;
#X connect 33 1 25 0;
#X connect 34 0 4 0;
#X connect 34 1 6 0;
#X connect 35 0 40 0;
#X connect 36 0 38 0;
#X connect 36 0 42 1;
#X connect 37 0 36 0;
#X connect 39 0 37 0;
#X connect 39 1 0 0;
#X connect 39 2 1 0;
#X connect 40 1 41 0;
#X connect 41 0 39 0;
#X connect 42 0 43 0;
#X connect 44 0 42 0;
#X restore 1060 179 pd bytetobits;
#N canvas 1423 301 708 912 bytetobits 0;
#X obj 98 187 / 2;
#X obj 129 187 % 2;
#X floatatom 98 227 5 0 0 0 - - -, f 5;
#X obj 98 207 i;
#X obj 98 271 / 2;
#X obj 98 292 i;
#X obj 131 269 % 2;
#X floatatom 98 311 5 0 0 0 - - -, f 5;
#X obj 99 358 / 2;
#X obj 126 358 % 2;
#X obj 99 378 i;
#X floatatom 98 398 5 0 0 0 - - -, f 5;
#X obj 98 439 / 2;
#X obj 125 439 % 2;
#X obj 98 461 i;
#X floatatom 97 483 5 0 0 0 - - -, f 5;
#X obj 97 522 / 2;
#X obj 124 522 % 2;
#X obj 97 542 i;
#X floatatom 97 562 5 0 0 0 - - -, f 5;
#X obj 97 600 / 2;
#X obj 124 600 % 2;
#X obj 97 619 i;
#X floatatom 96 639 5 0 0 0 - - -, f 5;
#X obj 96 677 / 2;
#X obj 123 677 % 2;
#X obj 96 696 i;
#X floatatom 97 718 5 0 0 0 - - -, f 5;
#X obj 97 739 % 2;
#X obj 98 334 t f f;
#X obj 98 418 t f f;
#X obj 97 502 t f f;
#X obj 97 580 t f f;
#X obj 97 657 t f f;
#X obj 98 247 t f f;
#X obj 148 56 inlet;
#X obj 257 796 pack f f f f f f f f;
#X obj 257 773 f;
#X obj 257 842 outlet;
#X obj 148 126 t b f f;
#X obj 148 81 moses 0;
#X obj 148 104 moses 256;
#X obj 395 843 list;
#X obj 395 864 outlet;
#X obj 395 66 inlet;
#X text 408 88 bang to output last conversion;
#X connect 0 0 3 0;
#X connect 1 0 36 7;
#X connect 2 0 34 0;
#X connect 3 0 2 0;
#X connect 4 0 5 0;
#X connect 5 0 7 0;
#X connect 6 0 36 6;
#X connect 7 0 29 0;
#X connect 8 0 10 0;
#X connect 9 0 36 5;
#X connect 10 0 11 0;
#X connect 11 0 30 0;
#X connect 12 0 14 0;
#X connect 13 0 36 4;
#X connect 14 0 15 0;
#X connect 15 0 31 0;
#X connect 16 0 18 0;
#X connect 17 0 36 3;
#X connect 18 0 19 0;
#X connect 19 0 32 0;
#X connect 20 0 22 0;
#X connect 21 0 36 2;
#X connect 22 0 23 0;
#X connect 23 0 33 0;
#X connect 24 0 26 0;
#X connect 25 0 36 1;
#X connect 26 0 27 0;
#X connect 27 0 28 0;
#X connect 28 0 37 1;
#X connect 29 0 8 0;
#X connect 29 1 9 0;
#X connect 30 0 12 0;
#X connect 30 1 13 0;
#X connect 31 0 16 0;
#X connect 31 1 17 0;
#X connect 32 0 20 0;
#X connect 32 1 21 0;
#X connect 33 0 24 0;
#X connect 33 1 25 0;
#X connect 34 0 4 0;
#X connect 34 1 6 0;
#X connect 35 0 40 0;
#X connect 36 0 38 0;
#X connect 36 0 42 1;
#X connect 37 0 36 0;
#X connect 39 0 37 0;
#X connect 39 1 0 0;
#X connect 39 2 1 0;
#X connect 40 1 41 0;
#X connect 41 0 39 0;
#X connect 42 0 43 0;
#X connect 44 0 42 0;
#X restore 1151 179 pd bytetobits;
#X obj 1022 216 unpack f f f f f f f f;
#X obj 1164 216 unpack f f f f f f f f;
#N canvas 494 74 692 867 bitstobyte 0;
#X floatatom 184 76 5 0 0 0 - - -, f 5;
#X floatatom 185 166 5 0 0 0 - - -, f 5;
#X obj 135 113 * 2;
#X floatatom 187 250 5 0 0 0 - - -, f 5;
#X obj 137 197 * 2;
#X floatatom 189 331 5 0 0 0 - - -, f 5;
#X obj 139 278 * 2;
#X floatatom 197 413 5 0 0 0 - - -, f 5;
#X obj 142 359 * 2;
#X floatatom 189 486 5 0 0 0 - - -, f 5;
#X obj 139 433 * 2;
#X floatatom 187 565 5 0 0 0 - - -, f 5;
#X obj 137 512 * 2;
#X floatatom 183 644 5 0 0 0 - - -, f 5;
#X obj 133 591 * 2;
#X obj 135 140 pow 1;
#X obj 137 224 pow 2;
#X obj 139 305 pow 3;
#X obj 142 386 pow 4;
#X obj 139 460 pow 5;
#X obj 137 539 pow 6;
#X obj 133 618 pow 7;
#X obj 224 209 +;
#X obj 223 285 +;
#X obj 223 355 +;
#X obj 235 439 +;
#X obj 229 507 +;
#X obj 225 588 +;
#X obj 230 662 +;
#X obj 20 21 inlet;
#X obj 229 693 outlet;
#X obj 20 52 unpack f f f f f f f f;
#X connect 0 0 22 1;
#X connect 1 0 22 0;
#X connect 2 0 15 0;
#X connect 3 0 23 0;
#X connect 4 0 16 0;
#X connect 5 0 24 0;
#X connect 6 0 17 0;
#X connect 7 0 25 0;
#X connect 8 0 18 0;
#X connect 9 0 26 0;
#X connect 10 0 19 0;
#X connect 11 0 27 0;
#X connect 12 0 20 0;
#X connect 13 0 28 0;
#X connect 14 0 21 0;
#X connect 15 0 1 0;
#X connect 16 0 3 0;
#X connect 17 0 5 0;
#X connect 18 0 7 0;
#X connect 19 0 9 0;
#X connect 20 0 11 0;
#X connect 21 0 13 0;
#X connect 22 0 23 1;
#X connect 23 0 24 1;
#X connect 24 0 25 1;
#X connect 25 0 26 1;
#X connect 26 0 27 1;
#X connect 27 0 28 1;
#X connect 28 0 30 0;
#X connect 29 0 31 0;
#X connect 31 0 14 0;
#X connect 31 1 12 0;
#X connect 31 2 10 0;
#X connect 31 3 8 0;
#X connect 31 4 6 0;
#X connect 31 5 4 0;
#X connect 31 6 2 0;
#X connect 31 7 0 0;
#X restore 1505 716 pd bitstobyte;
#X obj 1505 690 pack f f f f f f f f, f 45;
#X obj 1601 644 t b f;
#X obj 1565 644 t b f;
#X obj 1529 644 t b f;
#X obj 1745 644 t b f;
#X obj 1709 644 t b f;
#X obj 1673 644 t b f;
#X obj 1637 644 t b f;
#N canvas 494 74 692 867 bitstobyte 0;
#X floatatom 184 76 5 0 0 0 - - -, f 5;
#X floatatom 185 166 5 0 0 0 - - -, f 5;
#X obj 135 113 * 2;
#X floatatom 187 250 5 0 0 0 - - -, f 5;
#X obj 137 197 * 2;
#X floatatom 189 331 5 0 0 0 - - -, f 5;
#X obj 139 278 * 2;
#X floatatom 197 413 5 0 0 0 - - -, f 5;
#X obj 142 359 * 2;
#X floatatom 189 486 5 0 0 0 - - -, f 5;
#X obj 139 433 * 2;
#X floatatom 187 565 5 0 0 0 - - -, f 5;
#X obj 137 512 * 2;
#X floatatom 183 644 5 0 0 0 - - -, f 5;
#X obj 133 591 * 2;
#X obj 135 140 pow 1;
#X obj 137 224 pow 2;
#X obj 139 305 pow 3;
#X obj 142 386 pow 4;
#X obj 139 460 pow 5;
#X obj 137 539 pow 6;
#X obj 133 618 pow 7;
#X obj 224 209 +;
#X obj 223 285 +;
#X obj 223 355 +;
#X obj 235 439 +;
#X obj 229 507 +;
#X obj 225 588 +;
#X obj 230 662 +;
#X obj 20 21 inlet;
#X obj 229 693 outlet;
#X obj 20 52 unpack f f f f f f f f;
#X connect 0 0 22 1;
#X connect 1 0 22 0;
#X connect 2 0 15 0;
#X connect 3 0 23 0;
#X connect 4 0 16 0;
#X connect 5 0 24 0;
#X connect 6 0 17 0;
#X connect 7 0 25 0;
#X connect 8 0 18 0;
#X connect 9 0 26 0;
#X connect 10 0 19 0;
#X connect 11 0 27 0;
#X connect 12 0 20 0;
#X connect 13 0 28 0;
#X connect 14 0 21 0;
#X connect 15 0 1 0;
#X connect 16 0 3 0;
#X connect 17 0 5 0;
#X connect 18 0 7 0;
#X connect 19 0 9 0;
#X connect 20 0 11 0;
#X connect 21 0 13 0;
#X connect 22 0 23 1;
#X connect 23 0 24 1;
#X connect 24 0 25 1;
#X connect 25 0 26 1;
#X connect 26 0 27 1;
#X connect 27 0 28 1;
#X connect 28 0 30 0;
#X connect 29 0 31 0;
#X connect 31 0 14 0;
#X connect 31 1 12 0;
#X connect 31 2 10 0;
#X connect 31 3 8 0;
#X connect 31 4 6 0;
#X connect 31 5 4 0;
#X connect 31 6 2 0;
#X connect 31 7 0 0;
#X restore 1228 716 pd bitstobyte;
#X obj 1228 690 pack f f f f f f f f, f 45;
#X obj 1324 644 t b f;
#X obj 1288 644 t b f;
#X obj 1252 644 t b f;
#X obj 1468 644 t b f;
#X obj 1432 644 t b f;
#X obj 1396 644 t b f;
#X obj 1360 644 t b f;
#X obj 1248 504 i;
#X obj 1274 504 i;
#X obj 1248 587 i;
#X obj 1274 587 i;
#X obj 1299 504 i;
#X obj 1325 504 i;
#X obj 1299 587 i;
#X obj 1325 587 i;
#X obj 1351 504 i;
#X obj 1377 504 i;
#X obj 1351 587 i;
#X obj 1377 587 i;
#X obj 1402 504 i;
#X obj 1428 504 i;
#X obj 1402 587 i;
#X obj 1428 587 i;
#X obj 1528 504 i;
#X obj 1554 504 i;
#X obj 1528 587 i;
#X obj 1554 587 i;
#X obj 1579 504 i;
#X obj 1605 504 i;
#X obj 1579 587 i;
#X obj 1605 587 i;
#X obj 1631 504 i;
#X obj 1657 504 i;
#X obj 1631 587 i;
#X obj 1657 587 i;
#X obj 1682 504 i;
#X obj 1708 504 i;
#X obj 1682 587 i;
#X obj 1708 587 i;
#X obj 929 860 pack f f f f f f;
#X obj 937 809 t b f;
#X obj 975 809 t b f;
#X obj 1013 809 t b f;
#X obj 1052 809 t b f;
#X obj 1001 17 inlet;
#X msg 1001 39 0 0 0 0 0 0;
#X connect 1 0 2 0;
#X connect 2 0 76 0;
#X connect 2 1 75 0;
#X connect 4 0 55 0;
#X connect 5 0 54 0;
#X connect 6 0 71 0;
#X connect 7 0 70 0;
#X connect 8 0 51 0;
#X connect 9 0 50 0;
#X connect 10 0 67 0;
#X connect 11 0 66 0;
#X connect 12 0 47 0;
#X connect 13 0 46 0;
#X connect 14 0 63 0;
#X connect 15 0 62 0;
#X connect 16 0 43 0;
#X connect 17 0 42 0;
#X connect 18 0 59 0;
#X connect 19 0 58 0;
#X connect 20 0 22 0;
#X connect 21 0 23 0;
#X connect 22 0 17 0;
#X connect 22 1 16 0;
#X connect 22 2 13 0;
#X connect 22 3 12 0;
#X connect 22 4 9 0;
#X connect 22 5 8 0;
#X connect 22 6 5 0;
#X connect 22 7 4 0;
#X connect 23 0 19 0;
#X connect 23 1 18 0;
#X connect 23 2 15 0;
#X connect 23 3 14 0;
#X connect 23 4 11 0;
#X connect 23 5 10 0;
#X connect 23 6 7 0;
#X connect 23 7 6 0;
#X connect 24 0 74 0;
#X connect 25 0 24 0;
#X connect 26 0 25 0;
#X connect 26 1 25 3;
#X connect 27 0 25 0;
#X connect 27 1 25 2;
#X connect 28 0 25 0;
#X connect 28 1 25 1;
#X connect 29 0 25 0;
#X connect 29 1 25 7;
#X connect 30 0 25 0;
#X connect 30 1 25 6;
#X connect 31 0 25 0;
#X connect 31 1 25 5;
#X connect 32 0 25 0;
#X connect 32 1 25 4;
#X connect 33 0 220 0;
#X connect 34 0 33 0;
#X connect 35 0 34 0;
#X connect 35 1 34 3;
#X connect 36 0 34 0;
#X connect 36 1 34 2;
#X connect 37 0 34 0;
#X connect 37 1 34 1;
#X connect 38 0 34 0;
#X connect 38 1 34 7;
#X connect 39 0 34 0;
#X connect 39 1 34 6;
#X connect 40 0 34 0;
#X connect 40 1 34 5;
#X connect 41 0 34 0;
#X connect 41 1 34 4;
#X connect 42 0 44 0;
#X connect 43 0 49 0;
#X connect 44 0 34 0;
#X connect 45 0 37 0;
#X connect 46 0 52 0;
#X connect 47 0 45 0;
#X connect 48 0 36 0;
#X connect 49 0 35 0;
#X connect 50 0 56 0;
#X connect 51 0 53 0;
#X connect 52 0 41 0;
#X connect 53 0 40 0;
#X connect 54 0 48 0;
#X connect 55 0 57 0;
#X connect 56 0 39 0;
#X connect 57 0 38 0;
#X connect 58 0 60 0;
#X connect 59 0 65 0;
#X connect 60 0 25 0;
#X connect 61 0 28 0;
#X connect 62 0 68 0;
#X connect 63 0 61 0;
#X connect 64 0 27 0;
#X connect 65 0 26 0;
#X connect 66 0 72 0;
#X connect 67 0 69 0;
#X connect 68 0 32 0;
#X connect 69 0 31 0;
#X connect 70 0 64 0;
#X connect 71 0 73 0;
#X connect 72 0 30 0;
#X connect 73 0 29 0;
#X connect 74 0 220 0;
#X connect 74 1 220 1;
#X connect 75 0 77 0;
#X connect 76 0 77 0;
#X connect 77 0 20 0;
#X connect 77 1 21 0;
#X connect 77 2 95 0;
#X connect 77 3 96 0;
#X connect 77 4 166 0;
#X connect 77 5 167 0;
#X connect 79 0 130 0;
#X connect 80 0 129 0;
#X connect 81 0 146 0;
#X connect 82 0 145 0;
#X connect 83 0 126 0;
#X connect 84 0 125 0;
#X connect 85 0 142 0;
#X connect 86 0 141 0;
#X connect 87 0 122 0;
#X connect 88 0 121 0;
#X connect 89 0 138 0;
#X connect 90 0 137 0;
#X connect 91 0 118 0;
#X connect 92 0 117 0;
#X connect 93 0 134 0;
#X connect 94 0 133 0;
#X connect 95 0 97 0;
#X connect 96 0 98 0;
#X connect 97 0 92 0;
#X connect 97 1 91 0;
#X connect 97 2 88 0;
#X connect 97 3 87 0;
#X connect 97 4 84 0;
#X connect 97 5 83 0;
#X connect 97 6 80 0;
#X connect 97 7 79 0;
#X connect 98 0 94 0;
#X connect 98 1 93 0;
#X connect 98 2 90 0;
#X connect 98 3 89 0;
#X connect 98 4 86 0;
#X connect 98 5 85 0;
#X connect 98 6 82 0;
#X connect 98 7 81 0;
#X connect 99 0 222 0;
#X connect 100 0 99 0;
#X connect 101 0 100 0;
#X connect 101 1 100 3;
#X connect 102 0 100 0;
#X connect 102 1 100 2;
#X connect 103 0 100 0;
#X connect 103 1 100 1;
#X connect 104 0 100 0;
#X connect 104 1 100 7;
#X connect 105 0 100 0;
#X connect 105 1 100 6;
#X connect 106 0 100 0;
#X connect 106 1 100 5;
#X connect 107 0 100 0;
#X connect 107 1 100 4;
#X connect 108 0 221 0;
#X connect 109 0 108 0;
#X connect 110 0 109 0;
#X connect 110 1 109 3;
#X connect 111 0 109 0;
#X connect 111 1 109 2;
#X connect 112 0 109 0;
#X connect 112 1 109 1;
#X connect 113 0 109 0;
#X connect 113 1 109 7;
#X connect 114 0 109 0;
#X connect 114 1 109 6;
#X connect 115 0 109 0;
#X connect 115 1 109 5;
#X connect 116 0 109 0;
#X connect 116 1 109 4;
#X connect 117 0 119 0;
#X connect 118 0 124 0;
#X connect 119 0 109 0;
#X connect 120 0 112 0;
#X connect 121 0 127 0;
#X connect 122 0 120 0;
#X connect 123 0 111 0;
#X connect 124 0 110 0;
#X connect 125 0 131 0;
#X connect 126 0 128 0;
#X connect 127 0 116 0;
#X connect 128 0 115 0;
#X connect 129 0 123 0;
#X connect 130 0 132 0;
#X connect 131 0 114 0;
#X connect 132 0 113 0;
#X connect 133 0 135 0;
#X connect 134 0 140 0;
#X connect 135 0 100 0;
#X connect 136 0 103 0;
#X connect 137 0 143 0;
#X connect 138 0 136 0;
#X connect 139 0 102 0;
#X connect 140 0 101 0;
#X connect 141 0 147 0;
#X connect 142 0 144 0;
#X connect 143 0 107 0;
#X connect 144 0 106 0;
#X connect 145 0 139 0;
#X connect 146 0 148 0;
#X connect 147 0 105 0;
#X connect 148 0 104 0;
#X connect 150 0 201 0;
#X connect 151 0 200 0;
#X connect 152 0 217 0;
#X connect 153 0 216 0;
#X connect 154 0 197 0;
#X connect 155 0 196 0;
#X connect 156 0 213 0;
#X connect 157 0 212 0;
#X connect 158 0 193 0;
#X connect 159 0 192 0;
#X connect 160 0 209 0;
#X connect 161 0 208 0;
#X connect 162 0 189 0;
#X connect 163 0 188 0;
#X connect 164 0 205 0;
#X connect 165 0 204 0;
#X connect 166 0 168 0;
#X connect 167 0 169 0;
#X connect 168 0 163 0;
#X connect 168 1 162 0;
#X connect 168 2 159 0;
#X connect 168 3 158 0;
#X connect 168 4 155 0;
#X connect 168 5 154 0;
#X connect 168 6 151 0;
#X connect 168 7 150 0;
#X connect 169 0 165 0;
#X connect 169 1 164 0;
#X connect 169 2 161 0;
#X connect 169 3 160 0;
#X connect 169 4 157 0;
#X connect 169 5 156 0;
#X connect 169 6 153 0;
#X connect 169 7 152 0;
#X connect 170 0 224 0;
#X connect 171 0 170 0;
#X connect 172 0 171 0;
#X connect 172 1 171 3;
#X connect 173 0 171 0;
#X connect 173 1 171 2;
#X connect 174 0 171 0;
#X connect 174 1 171 1;
#X connect 175 0 171 0;
#X connect 175 1 171 7;
#X connect 176 0 171 0;
#X connect 176 1 171 6;
#X connect 177 0 171 0;
#X connect 177 1 171 5;
#X connect 178 0 171 0;
#X connect 178 1 171 4;
#X connect 179 0 223 0;
#X connect 180 0 179 0;
#X connect 181 0 180 0;
#X connect 181 1 180 3;
#X connect 182 0 180 0;
#X connect 182 1 180 2;
#X connect 183 0 180 0;
#X connect 183 1 180 1;
#X connect 184 0 180 0;
#X connect 184 1 180 7;
#X connect 185 0 180 0;
#X connect 185 1 180 6;
#X connect 186 0 180 0;
#X connect 186 1 180 5;
#X connect 187 0 180 0;
#X connect 187 1 180 4;
#X connect 188 0 190 0;
#X connect 189 0 195 0;
#X connect 190 0 180 0;
#X connect 191 0 183 0;
#X connect 192 0 198 0;
#X connect 193 0 191 0;
#X connect 194 0 182 0;
#X connect 195 0 181 0;
#X connect 196 0 202 0;
#X connect 197 0 199 0;
#X connect 198 0 187 0;
#X connect 199 0 186 0;
#X connect 200 0 194 0;
#X connect 201 0 203 0;
#X connect 202 0 185 0;
#X connect 203 0 184 0;
#X connect 204 0 206 0;
#X connect 205 0 211 0;
#X connect 206 0 171 0;
#X connect 207 0 174 0;
#X connect 208 0 214 0;
#X connect 209 0 207 0;
#X connect 210 0 173 0;
#X connect 211 0 172 0;
#X connect 212 0 218 0;
#X connect 213 0 215 0;
#X connect 214 0 178 0;
#X connect 215 0 177 0;
#X connect 216 0 210 0;
#X connect 217 0 219 0;
#X connect 218 0 176 0;
#X connect 219 0 175 0;
#X connect 220 0 3 0;
#X connect 221 0 220 0;
#X connect 221 1 220 2;
#X connect 222 0 220 0;
#X connect 222 1 220 3;
#X connect 223 0 220 0;
#X connect 223 1 220 4;
#X connect 224 0 220 0;
#X connect 224 1 220 5;
#X connect 225 0 226 0;
#X connect 226 0 77 0;
#X coords 0 -1 1 1 118 159 2 821 280;
#X restore 633 155 pd masks;
#X msg 116 300 disconnect;
#X msg 187 323 connect \$1 \$2;
#X obj 223 227 pack s f;
#X symbolatom 425 171 20 0 0 2 T-Stick_IP - -, f 20;
#X floatatom 555 171 5 0 0 2 port - -, f 5;
#X obj 250 208 i;
#X obj 223 187 t b f;
#X obj 187 301 list;
#X obj 248 105 unpack s f;
#X obj 376 521 route list;
#X msg 202 104 8000;
#X obj 426 220 tgl 15 0 empty empty connect 17 7 0 10 -262144 -1 -1
1 1;
#X obj 168 272 sel 0 1;
#X obj 371 233 sel 1;
#X msg 645 51 0;
#X obj 209 64 t 1 b b;
#X obj 136 104 delay 500;
#N canvas 0 23 2140 888 (subpatch) 0;
#X array Touch 48 float 7 black black;
#A 0 0 0 0 0 0 0 0 0 0 0 0 1 0 0 0 0 0 1 1 0 0 0 0 1 1 0 0 0 0 1 0
0 0 0 0 0 1 0 0 0 0 0 0 0 0 0 0 0;
#X coords 0 1.5 48 0 220 140 1;
#X restore 86 687 graph;
#X obj 311 689 vsl 45 135 -32768 32767 0 0 empty empty AccelX 0 -9
0 10 -262144 -1 -1 0 1;
#X obj 361 689 vsl 45 135 -32768 32767 0 0 empty empty AccelY 0 -9
0 10 -262144 -1 -1 0 1;
#X obj 411 689 vsl 45 135 -32768 32767 0 0 empty empty AccelZ 0 -9
0 10 -262144 -1 -1 0 1;
#X obj 461 689 vsl 45 135 -32768 32767 0 0 empty empty GyroX 0 -9 0
10 -262144 -1 -1 0 1;
#X obj 511 689 vsl 45 135 -32768 32767 0 0 empty empty GyroY 0 -9 0
10 -262144 -1 -1 0 1;
#X obj 561 689 vsl 45 135 -32768 32767 0 0 empty empty GyroZ 0 -9 0
10 -262144 -1 -1 0 1;
#X obj 611 689 vsl 45 135 0 1023 0 0 empty empty Pressure 0 -9 0 10
-262144 -1 -1 0 1;
#X obj 661 689 vsl 45 135 0 1023 0 0 empty empty Piezo 0 -9 0 10 -262144
-1 -1 0 1;
#X obj 711 689 vsl 45 135 -32768 32767 0 0 empty empty MagX 0 -9 0
10 -262144 -1 -1 0 1;
#X obj 761 689 vsl 45 135 -32768 32767 0 0 empty empty MagY 0 -9 0
10 -262144 -1 -1 0 1;
#X obj 811 689 vsl 45 135 -32768 32767 0 0 empty empty MagZ 0 -9 0
10 -262144 -1 -1 0 1;
#N canvas 0 22 450 278 (subpatch) 0;
#X array rawtime 100 float 1 black black;
#A 0 0 0 0 0 0 0 0 0 0 0 0 0 0 0 0 0 0 0 0 0 0 0 0 0 0 0 0 0 0 0 0
0 0 0 0 0 0 0 0 0 0 0 0 0 0 0 0 0 0 0 0 0 0 0 0 0 0 0 0 0 0 0 0 0 0
0 0 0 0 0 0 0 0 0 0 0 0 0 0 0 0 0 0 0 0 0 0 0 0 0 0 0 0 0 0 0 0 0 0
0;
#X coords 0 100 99 0 200 140 1;
#X restore 866 687 graph;
#X floatatom 411 832 5 0 0 0 - - -, f 5;
#X floatatom 461 832 5 0 0 0 - - -, f 5;
#X floatatom 511 832 5 0 0 0 - - -, f 5;
#X floatatom 561 832 5 0 0 0 - - -, f 5;
#X floatatom 611 832 5 0 0 0 - - -, f 5;
#X floatatom 661 832 5 0 0 0 - - -, f 5;
#X floatatom 711 832 5 0 0 0 - - -, f 5;
#X floatatom 761 832 5 0 0 0 - - -, f 5;
#X floatatom 811 832 5 0 0 0 - - -, f 5;
#X floatatom 361 832 5 0 0 0 - - -, f 5;
#X floatatom 311 832 5 0 0 0 - - -, f 5;
#X text 93 888 T-Stick Soprano #173 (red);
#N canvas 435 675 1078 434 cook_touch_soprano 0;
#X obj 123 47 inlet;
#X obj 65 370 outlet;
#X obj 343 95 unpack f f f f f f;
#X obj 66 338 list store;
#X obj 207 273 list prepend append;
#X obj 207 294 list trim;
#X obj 123 81 t b b b b b b b b l;
#N canvas 1634 343 708 981 bytetobits_inverse 0;
#X obj 98 187 / 2;
#X obj 129 187 % 2;
#X floatatom 98 227 5 0 0 0 - - -, f 5;
#X obj 98 207 i;
#X obj 98 271 / 2;
#X obj 98 292 i;
#X obj 131 269 % 2;
#X floatatom 98 311 5 0 0 0 - - -, f 5;
#X obj 99 358 / 2;
#X obj 126 358 % 2;
#X obj 99 378 i;
#X floatatom 98 398 5 0 0 0 - - -, f 5;
#X obj 98 439 / 2;
#X obj 125 439 % 2;
#X obj 98 461 i;
#X floatatom 97 483 5 0 0 0 - - -, f 5;
#X obj 97 522 / 2;
#X obj 124 522 % 2;
#X obj 97 542 i;
#X floatatom 97 562 5 0 0 0 - - -, f 5;
#X obj 97 600 / 2;
#X obj 124 600 % 2;
#X obj 97 619 i;
#X floatatom 96 639 5 0 0 0 - - -, f 5;
#X obj 96 677 / 2;
#X obj 123 677 % 2;
#X obj 96 696 i;
#X floatatom 97 718 5 0 0 0 - - -, f 5;
#X obj 97 739 % 2;
#X obj 98 334 t f f;
#X obj 98 418 t f f;
#X obj 97 502 t f f;
#X obj 97 580 t f f;
#X obj 97 657 t f f;
#X obj 98 247 t f f;
#X obj 148 56 inlet;
#X obj 257 883 outlet;
#X obj 148 126 t b f f;
#X obj 148 81 moses 0;
#X obj 148 104 moses 256;
#X obj 395 884 list;
#X obj 395 905 outlet;
#X obj 395 66 inlet;
#X text 408 88 bang to output last conversion;
#X obj 257 840 pack f f f f f f f f;
#X obj 257 813 f;
#X connect 0 0 3 0;
#X connect 1 0 45 1;
#X connect 2 0 34 0;
#X connect 3 0 2 0;
#X connect 4 0 5 0;
#X connect 5 0 7 0;
#X connect 6 0 44 1;
#X connect 7 0 29 0;
#X connect 8 0 10 0;
#X connect 9 0 44 2;
#X connect 10 0 11 0;
#X connect 11 0 30 0;
#X connect 12 0 14 0;
#X connect 13 0 44 3;
#X connect 14 0 15 0;
#X connect 15 0 31 0;
#X connect 16 0 18 0;
#X connect 17 0 44 4;
#X connect 18 0 19 0;
#X connect 19 0 32 0;
#X connect 20 0 22 0;
#X connect 21 0 44 5;
#X connect 22 0 23 0;
#X connect 23 0 33 0;
#X connect 24 0 26 0;
#X connect 25 0 44 6;
#X connect 26 0 27 0;
#X connect 27 0 28 0;
#X connect 28 0 44 7;
#X connect 29 0 8 0;
#X connect 29 1 9 0;
#X connect 30 0 12 0;
#X connect 30 1 13 0;
#X connect 31 0 16 0;
#X connect 31 1 17 0;
#X connect 32 0 20 0;
#X connect 32 1 21 0;
#X connect 33 0 24 0;
#X connect 33 1 25 0;
#X connect 34 0 4 0;
#X connect 34 1 6 0;
#X connect 35 0 38 0;
#X connect 37 0 45 0;
#X connect 37 1 0 0;
#X connect 37 2 1 0;
#X connect 38 1 39 0;
#X connect 39 0 37 0;
#X connect 40 0 41 0;
#X connect 42 0 40 0;
#X connect 44 0 40 1;
#X connect 44 0 36 0;
#X connect 45 0 44 0;
#X restore 137 192 pd bytetobits_inverse;
#N canvas 1634 343 708 981 bytetobits_inverse 0;
#X obj 98 187 / 2;
#X obj 129 187 % 2;
#X floatatom 98 227 5 0 0 0 - - -, f 5;
#X obj 98 207 i;
#X obj 98 271 / 2;
#X obj 98 292 i;
#X obj 131 269 % 2;
#X floatatom 98 311 5 0 0 0 - - -, f 5;
#X obj 99 358 / 2;
#X obj 126 358 % 2;
#X obj 99 378 i;
#X floatatom 98 398 5 0 0 0 - - -, f 5;
#X obj 98 439 / 2;
#X obj 125 439 % 2;
#X obj 98 461 i;
#X floatatom 97 483 5 0 0 0 - - -, f 5;
#X obj 97 522 / 2;
#X obj 124 522 % 2;
#X obj 97 542 i;
#X floatatom 97 562 5 0 0 0 - - -, f 5;
#X obj 97 600 / 2;
#X obj 124 600 % 2;
#X obj 97 619 i;
#X floatatom 96 639 5 0 0 0 - - -, f 5;
#X obj 96 677 / 2;
#X obj 123 677 % 2;
#X obj 96 696 i;
#X floatatom 97 718 5 0 0 0 - - -, f 5;
#X obj 97 739 % 2;
#X obj 98 334 t f f;
#X obj 98 418 t f f;
#X obj 97 502 t f f;
#X obj 97 580 t f f;
#X obj 97 657 t f f;
#X obj 98 247 t f f;
#X obj 148 56 inlet;
#X obj 257 883 outlet;
#X obj 148 126 t b f f;
#X obj 148 81 moses 0;
#X obj 148 104 moses 256;
#X obj 395 884 list;
#X obj 395 905 outlet;
#X obj 395 66 inlet;
#X text 408 88 bang to output last conversion;
#X obj 257 840 pack f f f f f f f f;
#X obj 257 813 f;
#X connect 0 0 3 0;
#X connect 1 0 45 1;
#X connect 2 0 34 0;
#X connect 3 0 2 0;
#X connect 4 0 5 0;
#X connect 5 0 7 0;
#X connect 6 0 44 1;
#X connect 7 0 29 0;
#X connect 8 0 10 0;
#X connect 9 0 44 2;
#X connect 10 0 11 0;
#X connect 11 0 30 0;
#X connect 12 0 14 0;
#X connect 13 0 44 3;
#X connect 14 0 15 0;
#X connect 15 0 31 0;
#X connect 16 0 18 0;
#X connect 17 0 44 4;
#X connect 18 0 19 0;
#X connect 19 0 32 0;
#X connect 20 0 22 0;
#X connect 21 0 44 5;
#X connect 22 0 23 0;
#X connect 23 0 33 0;
#X connect 24 0 26 0;
#X connect 25 0 44 6;
#X connect 26 0 27 0;
#X connect 27 0 28 0;
#X connect 28 0 44 7;
#X connect 29 0 8 0;
#X connect 29 1 9 0;
#X connect 30 0 12 0;
#X connect 30 1 13 0;
#X connect 31 0 16 0;
#X connect 31 1 17 0;
#X connect 32 0 20 0;
#X connect 32 1 21 0;
#X connect 33 0 24 0;
#X connect 33 1 25 0;
#X connect 34 0 4 0;
#X connect 34 1 6 0;
#X connect 35 0 38 0;
#X connect 37 0 45 0;
#X connect 37 1 0 0;
#X connect 37 2 1 0;
#X connect 38 1 39 0;
#X connect 39 0 37 0;
#X connect 40 0 41 0;
#X connect 42 0 40 0;
#X connect 44 0 40 1;
#X connect 44 0 36 0;
#X connect 45 0 44 0;
#X restore 274 192 pd bytetobits_inverse;
#N canvas 1634 343 708 981 bytetobits_inverse 0;
#X obj 98 187 / 2;
#X obj 129 187 % 2;
#X floatatom 98 227 5 0 0 0 - - -, f 5;
#X obj 98 207 i;
#X obj 98 271 / 2;
#X obj 98 292 i;
#X obj 131 269 % 2;
#X floatatom 98 311 5 0 0 0 - - -, f 5;
#X obj 99 358 / 2;
#X obj 126 358 % 2;
#X obj 99 378 i;
#X floatatom 98 398 5 0 0 0 - - -, f 5;
#X obj 98 439 / 2;
#X obj 125 439 % 2;
#X obj 98 461 i;
#X floatatom 97 483 5 0 0 0 - - -, f 5;
#X obj 97 522 / 2;
#X obj 124 522 % 2;
#X obj 97 542 i;
#X floatatom 97 562 5 0 0 0 - - -, f 5;
#X obj 97 600 / 2;
#X obj 124 600 % 2;
#X obj 97 619 i;
#X floatatom 96 639 5 0 0 0 - - -, f 5;
#X obj 96 677 / 2;
#X obj 123 677 % 2;
#X obj 96 696 i;
#X floatatom 97 718 5 0 0 0 - - -, f 5;
#X obj 97 739 % 2;
#X obj 98 334 t f f;
#X obj 98 418 t f f;
#X obj 97 502 t f f;
#X obj 97 580 t f f;
#X obj 97 657 t f f;
#X obj 98 247 t f f;
#X obj 148 56 inlet;
#X obj 257 883 outlet;
#X obj 148 126 t b f f;
#X obj 148 81 moses 0;
#X obj 148 104 moses 256;
#X obj 395 884 list;
#X obj 395 905 outlet;
#X obj 395 66 inlet;
#X text 408 88 bang to output last conversion;
#X obj 257 840 pack f f f f f f f f;
#X obj 257 813 f;
#X connect 0 0 3 0;
#X connect 1 0 45 1;
#X connect 2 0 34 0;
#X connect 3 0 2 0;
#X connect 4 0 5 0;
#X connect 5 0 7 0;
#X connect 6 0 44 1;
#X connect 7 0 29 0;
#X connect 8 0 10 0;
#X connect 9 0 44 2;
#X connect 10 0 11 0;
#X connect 11 0 30 0;
#X connect 12 0 14 0;
#X connect 13 0 44 3;
#X connect 14 0 15 0;
#X connect 15 0 31 0;
#X connect 16 0 18 0;
#X connect 17 0 44 4;
#X connect 18 0 19 0;
#X connect 19 0 32 0;
#X connect 20 0 22 0;
#X connect 21 0 44 5;
#X connect 22 0 23 0;
#X connect 23 0 33 0;
#X connect 24 0 26 0;
#X connect 25 0 44 6;
#X connect 26 0 27 0;
#X connect 27 0 28 0;
#X connect 28 0 44 7;
#X connect 29 0 8 0;
#X connect 29 1 9 0;
#X connect 30 0 12 0;
#X connect 30 1 13 0;
#X connect 31 0 16 0;
#X connect 31 1 17 0;
#X connect 32 0 20 0;
#X connect 32 1 21 0;
#X connect 33 0 24 0;
#X connect 33 1 25 0;
#X connect 34 0 4 0;
#X connect 34 1 6 0;
#X connect 35 0 38 0;
#X connect 37 0 45 0;
#X connect 37 1 0 0;
#X connect 37 2 1 0;
#X connect 38 1 39 0;
#X connect 39 0 37 0;
#X connect 40 0 41 0;
#X connect 42 0 40 0;
#X connect 44 0 40 1;
#X connect 44 0 36 0;
#X connect 45 0 44 0;
#X restore 412 192 pd bytetobits_inverse;
#N canvas 1634 343 708 981 bytetobits_inverse 0;
#X obj 98 187 / 2;
#X obj 129 187 % 2;
#X floatatom 98 227 5 0 0 0 - - -, f 5;
#X obj 98 207 i;
#X obj 98 271 / 2;
#X obj 98 292 i;
#X obj 131 269 % 2;
#X floatatom 98 311 5 0 0 0 - - -, f 5;
#X obj 99 358 / 2;
#X obj 126 358 % 2;
#X obj 99 378 i;
#X floatatom 98 398 5 0 0 0 - - -, f 5;
#X obj 98 439 / 2;
#X obj 125 439 % 2;
#X obj 98 461 i;
#X floatatom 97 483 5 0 0 0 - - -, f 5;
#X obj 97 522 / 2;
#X obj 124 522 % 2;
#X obj 97 542 i;
#X floatatom 97 562 5 0 0 0 - - -, f 5;
#X obj 97 600 / 2;
#X obj 124 600 % 2;
#X obj 97 619 i;
#X floatatom 96 639 5 0 0 0 - - -, f 5;
#X obj 96 677 / 2;
#X obj 123 677 % 2;
#X obj 96 696 i;
#X floatatom 97 718 5 0 0 0 - - -, f 5;
#X obj 97 739 % 2;
#X obj 98 334 t f f;
#X obj 98 418 t f f;
#X obj 97 502 t f f;
#X obj 97 580 t f f;
#X obj 97 657 t f f;
#X obj 98 247 t f f;
#X obj 148 56 inlet;
#X obj 257 883 outlet;
#X obj 148 126 t b f f;
#X obj 148 81 moses 0;
#X obj 148 104 moses 256;
#X obj 395 884 list;
#X obj 395 905 outlet;
#X obj 395 66 inlet;
#X text 408 88 bang to output last conversion;
#X obj 257 840 pack f f f f f f f f;
#X obj 257 813 f;
#X connect 0 0 3 0;
#X connect 1 0 45 1;
#X connect 2 0 34 0;
#X connect 3 0 2 0;
#X connect 4 0 5 0;
#X connect 5 0 7 0;
#X connect 6 0 44 1;
#X connect 7 0 29 0;
#X connect 8 0 10 0;
#X connect 9 0 44 2;
#X connect 10 0 11 0;
#X connect 11 0 30 0;
#X connect 12 0 14 0;
#X connect 13 0 44 3;
#X connect 14 0 15 0;
#X connect 15 0 31 0;
#X connect 16 0 18 0;
#X connect 17 0 44 4;
#X connect 18 0 19 0;
#X connect 19 0 32 0;
#X connect 20 0 22 0;
#X connect 21 0 44 5;
#X connect 22 0 23 0;
#X connect 23 0 33 0;
#X connect 24 0 26 0;
#X connect 25 0 44 6;
#X connect 26 0 27 0;
#X connect 27 0 28 0;
#X connect 28 0 44 7;
#X connect 29 0 8 0;
#X connect 29 1 9 0;
#X connect 30 0 12 0;
#X connect 30 1 13 0;
#X connect 31 0 16 0;
#X connect 31 1 17 0;
#X connect 32 0 20 0;
#X connect 32 1 21 0;
#X connect 33 0 24 0;
#X connect 33 1 25 0;
#X connect 34 0 4 0;
#X connect 34 1 6 0;
#X connect 35 0 38 0;
#X connect 37 0 45 0;
#X connect 37 1 0 0;
#X connect 37 2 1 0;
#X connect 38 1 39 0;
#X connect 39 0 37 0;
#X connect 40 0 41 0;
#X connect 42 0 40 0;
#X connect 44 0 40 1;
#X connect 44 0 36 0;
#X connect 45 0 44 0;
#X restore 549 192 pd bytetobits_inverse;
#N canvas 1634 343 708 981 bytetobits_inverse 0;
#X obj 98 187 / 2;
#X obj 129 187 % 2;
#X floatatom 98 227 5 0 0 0 - - -, f 5;
#X obj 98 207 i;
#X obj 98 271 / 2;
#X obj 98 292 i;
#X obj 131 269 % 2;
#X floatatom 98 311 5 0 0 0 - - -, f 5;
#X obj 99 358 / 2;
#X obj 126 358 % 2;
#X obj 99 378 i;
#X floatatom 98 398 5 0 0 0 - - -, f 5;
#X obj 98 439 / 2;
#X obj 125 439 % 2;
#X obj 98 461 i;
#X floatatom 97 483 5 0 0 0 - - -, f 5;
#X obj 97 522 / 2;
#X obj 124 522 % 2;
#X obj 97 542 i;
#X floatatom 97 562 5 0 0 0 - - -, f 5;
#X obj 97 600 / 2;
#X obj 124 600 % 2;
#X obj 97 619 i;
#X floatatom 96 639 5 0 0 0 - - -, f 5;
#X obj 96 677 / 2;
#X obj 123 677 % 2;
#X obj 96 696 i;
#X floatatom 97 718 5 0 0 0 - - -, f 5;
#X obj 97 739 % 2;
#X obj 98 334 t f f;
#X obj 98 418 t f f;
#X obj 97 502 t f f;
#X obj 97 580 t f f;
#X obj 97 657 t f f;
#X obj 98 247 t f f;
#X obj 148 56 inlet;
#X obj 257 883 outlet;
#X obj 148 126 t b f f;
#X obj 148 81 moses 0;
#X obj 148 104 moses 256;
#X obj 395 884 list;
#X obj 395 905 outlet;
#X obj 395 66 inlet;
#X text 408 88 bang to output last conversion;
#X obj 257 840 pack f f f f f f f f;
#X obj 257 813 f;
#X connect 0 0 3 0;
#X connect 1 0 45 1;
#X connect 2 0 34 0;
#X connect 3 0 2 0;
#X connect 4 0 5 0;
#X connect 5 0 7 0;
#X connect 6 0 44 1;
#X connect 7 0 29 0;
#X connect 8 0 10 0;
#X connect 9 0 44 2;
#X connect 10 0 11 0;
#X connect 11 0 30 0;
#X connect 12 0 14 0;
#X connect 13 0 44 3;
#X connect 14 0 15 0;
#X connect 15 0 31 0;
#X connect 16 0 18 0;
#X connect 17 0 44 4;
#X connect 18 0 19 0;
#X connect 19 0 32 0;
#X connect 20 0 22 0;
#X connect 21 0 44 5;
#X connect 22 0 23 0;
#X connect 23 0 33 0;
#X connect 24 0 26 0;
#X connect 25 0 44 6;
#X connect 26 0 27 0;
#X connect 27 0 28 0;
#X connect 28 0 44 7;
#X connect 29 0 8 0;
#X connect 29 1 9 0;
#X connect 30 0 12 0;
#X connect 30 1 13 0;
#X connect 31 0 16 0;
#X connect 31 1 17 0;
#X connect 32 0 20 0;
#X connect 32 1 21 0;
#X connect 33 0 24 0;
#X connect 33 1 25 0;
#X connect 34 0 4 0;
#X connect 34 1 6 0;
#X connect 35 0 38 0;
#X connect 37 0 45 0;
#X connect 37 1 0 0;
#X connect 37 2 1 0;
#X connect 38 1 39 0;
#X connect 39 0 37 0;
#X connect 40 0 41 0;
#X connect 42 0 40 0;
#X connect 44 0 40 1;
#X connect 44 0 36 0;
#X connect 45 0 44 0;
#X restore 685 192 pd bytetobits_inverse;
#N canvas 1634 343 708 981 bytetobits_inverse 0;
#X obj 98 187 / 2;
#X obj 129 187 % 2;
#X floatatom 98 227 5 0 0 0 - - -, f 5;
#X obj 98 207 i;
#X obj 98 271 / 2;
#X obj 98 292 i;
#X obj 131 269 % 2;
#X floatatom 98 311 5 0 0 0 - - -, f 5;
#X obj 99 358 / 2;
#X obj 126 358 % 2;
#X obj 99 378 i;
#X floatatom 98 398 5 0 0 0 - - -, f 5;
#X obj 98 439 / 2;
#X obj 125 439 % 2;
#X obj 98 461 i;
#X floatatom 97 483 5 0 0 0 - - -, f 5;
#X obj 97 522 / 2;
#X obj 124 522 % 2;
#X obj 97 542 i;
#X floatatom 97 562 5 0 0 0 - - -, f 5;
#X obj 97 600 / 2;
#X obj 124 600 % 2;
#X obj 97 619 i;
#X floatatom 96 639 5 0 0 0 - - -, f 5;
#X obj 96 677 / 2;
#X obj 123 677 % 2;
#X obj 96 696 i;
#X floatatom 97 718 5 0 0 0 - - -, f 5;
#X obj 97 739 % 2;
#X obj 98 334 t f f;
#X obj 98 418 t f f;
#X obj 97 502 t f f;
#X obj 97 580 t f f;
#X obj 97 657 t f f;
#X obj 98 247 t f f;
#X obj 148 56 inlet;
#X obj 257 883 outlet;
#X obj 148 126 t b f f;
#X obj 148 81 moses 0;
#X obj 148 104 moses 256;
#X obj 395 884 list;
#X obj 395 905 outlet;
#X obj 395 66 inlet;
#X text 408 88 bang to output last conversion;
#X obj 257 840 pack f f f f f f f f;
#X obj 257 813 f;
#X connect 0 0 3 0;
#X connect 1 0 45 1;
#X connect 2 0 34 0;
#X connect 3 0 2 0;
#X connect 4 0 5 0;
#X connect 5 0 7 0;
#X connect 6 0 44 1;
#X connect 7 0 29 0;
#X connect 8 0 10 0;
#X connect 9 0 44 2;
#X connect 10 0 11 0;
#X connect 11 0 30 0;
#X connect 12 0 14 0;
#X connect 13 0 44 3;
#X connect 14 0 15 0;
#X connect 15 0 31 0;
#X connect 16 0 18 0;
#X connect 17 0 44 4;
#X connect 18 0 19 0;
#X connect 19 0 32 0;
#X connect 20 0 22 0;
#X connect 21 0 44 5;
#X connect 22 0 23 0;
#X connect 23 0 33 0;
#X connect 24 0 26 0;
#X connect 25 0 44 6;
#X connect 26 0 27 0;
#X connect 27 0 28 0;
#X connect 28 0 44 7;
#X connect 29 0 8 0;
#X connect 29 1 9 0;
#X connect 30 0 12 0;
#X connect 30 1 13 0;
#X connect 31 0 16 0;
#X connect 31 1 17 0;
#X connect 32 0 20 0;
#X connect 32 1 21 0;
#X connect 33 0 24 0;
#X connect 33 1 25 0;
#X connect 34 0 4 0;
#X connect 34 1 6 0;
#X connect 35 0 38 0;
#X connect 37 0 45 0;
#X connect 37 1 0 0;
#X connect 37 2 1 0;
#X connect 38 1 39 0;
#X connect 39 0 37 0;
#X connect 40 0 41 0;
#X connect 42 0 40 0;
#X connect 44 0 40 1;
#X connect 44 0 36 0;
#X connect 45 0 44 0;
#X restore 822 192 pd bytetobits_inverse;
#X connect 0 0 6 0;
#X connect 2 0 7 0;
#X connect 2 1 8 0;
#X connect 2 2 9 0;
#X connect 2 3 10 0;
#X connect 2 4 11 0;
#X connect 2 5 12 0;
#X connect 3 0 1 0;
#X connect 4 0 5 0;
#X connect 5 0 3 0;
#X connect 6 0 3 1;
#X connect 6 1 3 0;
#X connect 6 2 12 1;
#X connect 6 3 11 1;
#X connect 6 4 10 1;
#X connect 6 5 9 1;
#X connect 6 6 8 1;
#X connect 6 7 7 1;
#X connect 6 8 2 0;
#X connect 7 1 4 0;
#X connect 8 1 4 0;
#X connect 9 1 4 0;
#X connect 10 1 4 0;
#X connect 11 1 4 0;
#X connect 12 1 4 0;
#X restore 282 581 pd cook_touch_soprano;
#X obj 376 546 route rawcapsense rawaccel rawgyro rawpressure rawpiezo
rawmag information, f 76;
#X obj 754 581 unpack f f;
#X text 94 903 Edu Meneses - IDMIL - Mar/2019;
#X text 781 123 Orientation:;
#X text 781 136 Keys up = Capacitive strips pointing upwards;
#X text 781 149 Keys down = Capacitive strips pointing downwards;
#X text 781 162 Keys outward = Capacitive strips pointing away from
user;
#X text 781 176 Keys inward = Capacitive strips pointing towards the
user;
#X text 781 191 Cable down = USB cable connecting to PC down;
#X text 781 206 Cable up = USB cable connecting to PC up;
#X text 786 237 z+ = keys up;
#X text 786 250 z- = keys down;
#X text 786 262 x+ = keys outward;
#X text 786 274 x- = keys inward;
#X text 786 287 y+ = cable up;
#X text 786 300 y- = cable down;
#X obj 736 136 bng 15 250 50 0 empty empty empty 17 7 0 10 -262144
-1 -1;
#X msg 248 84 192.168.10.4 8888;
#X obj 633 376 list prepend send;
#X obj 633 397 list trim;
#X obj 126 371 netsend -u -b;
#X msg 633 332 119 84 \$1 \$2 \$3 \$4 \$5 \$6;
#X floatatom 428 281 8 0 0 3 Serial_number serial serials, f 8;
#X floatatom 525 281 10 0 0 3 Firmware_version firmware sfirmware,
f 10;
#X obj 633 353 oscformat -f iiiiiiii status;
#X connect 2 0 3 0;
#X connect 3 0 6 0;
#X connect 4 0 2 0;
#X connect 4 1 2 1;
#X connect 5 0 4 0;
#X connect 6 0 7 0;
#X connect 12 0 15 0;
#X connect 12 0 24 0;
#X connect 13 0 12 0;
#X connect 15 0 36 0;
#X connect 18 0 12 0;
#X connect 19 0 18 0;
#X connect 20 0 41 0;
#X connect 20 0 42 0;
#X connect 21 0 45 0;
#X connect 21 1 46 0;
#X connect 21 2 47 0;
#X connect 22 0 48 0;
#X connect 22 1 49 0;
#X connect 22 2 50 0;
#X connect 23 0 53 0;
#X connect 23 1 54 0;
#X connect 23 2 55 0;
#X connect 25 0 26 0;
#X connect 26 0 91 0;
#X connect 27 0 90 0;
#X connect 28 0 90 0;
#X connect 29 0 34 1;
#X connect 30 0 29 0;
#X connect 31 0 33 0;
#X connect 32 0 29 1;
#X connect 33 0 29 0;
#X connect 33 1 32 0;
#X connect 34 0 28 0;
#X connect 35 0 30 0;
#X connect 35 1 31 0;
#X connect 36 0 8 0;
#X connect 36 0 70 0;
#X connect 37 0 19 0;
#X connect 38 0 39 0;
#X connect 38 0 13 0;
#X connect 38 0 40 0;
#X connect 39 0 27 0;
#X connect 39 1 34 0;
#X connect 40 0 19 0;
#X connect 41 0 25 0;
#X connect 42 0 43 0;
#X connect 42 1 37 0;
#X connect 42 2 87 0;
#X connect 43 0 38 0;
#X connect 45 0 67 0;
#X connect 46 0 66 0;
#X connect 47 0 57 0;
#X connect 48 0 58 0;
#X connect 49 0 59 0;
#X connect 50 0 60 0;
#X connect 51 0 61 0;
#X connect 52 0 62 0;
#X connect 53 0 63 0;
#X connect 54 0 64 0;
#X connect 55 0 65 0;
#X connect 69 0 1 0;
#X connect 70 0 69 0;
#X connect 70 1 21 0;
#X connect 70 2 22 0;
#X connect 70 3 51 0;
#X connect 70 4 52 0;
#X connect 70 5 23 0;
#X connect 70 6 71 0;
#X connect 71 0 9 0;
#X connect 71 1 10 0;
#X connect 86 0 26 1;
#X connect 87 0 35 0;
#X connect 88 0 89 0;
#X connect 89 0 90 0;
#X connect 91 0 94 0;
#X connect 94 0 88 0;
#X coords 0 -1 1 1 344 215 1 417 106;
